<svg fill="none" height="25" viewBox="0 0 24 25" width="24" xmlns="http://www.w3.org/2000/svg"><mask height="20" maskUnits="userSpaceOnUse" width="22" x="1" y="2"><path clip-rule="evenodd" d="m14.8887 4.084 7.672 12.719c.569.943.586 2.077.046 3.033-.58 1.027-1.704 1.664-2.935 1.664h-15.344c-1.23 0-2.355-.637-2.934-1.664-.540001-.956-.523001-2.09.046-3.033l7.672-12.719c.598-.992 1.678-1.584 2.888-1.584s2.29.592 2.889 1.584zm5.976 14.769c-.229.405-.675.647-1.193.647h-15.344c-.518 0-.964-.242-1.192-.647-.108-.19-.25-.577.017-1.017l7.671-12.718c.467-.774 1.885-.774 2.352 0l7.672 12.718c.266.44.125.827.017 1.017zm-9.8647-9.353c0-.552.448-1 1-1s1 .448 1 1v4c0 .552-.448 1-1 1s-1-.448-1-1zm0 7c0-.552.448-1 1-1s1 .448 1 1-.448 1-1 1-1-.448-1-1z" fill="#fff" fill-rule="evenodd"/></mask><path clip-rule="evenodd" d="m14.8887 4.084 7.672 12.719c.569.943.586 2.077.046 3.033-.58 1.027-1.704 1.664-2.935 1.664h-15.344c-1.23 0-2.355-.637-2.934-1.664-.540001-.956-.523001-2.09.046-3.033l7.672-12.719c.598-.992 1.678-1.584 2.888-1.584s2.29.592 2.889 1.584zm5.976 14.769c-.229.405-.675.647-1.193.647h-15.344c-.518 0-.964-.242-1.192-.647-.108-.19-.25-.577.017-1.017l7.671-12.718c.467-.774 1.885-.774 2.352 0l7.672 12.718c.266.44.125.827.017 1.017zm-9.8647-9.353c0-.552.448-1 1-1s1 .448 1 1v4c0 .552-.448 1-1 1s-1-.448-1-1zm0 7c0-.552.448-1 1-1s1 .448 1 1-.448 1-1 1-1-.448-1-1z" fill="#ffb81c" fill-rule="evenodd"/></svg>