<?xml version="1.0" encoding="UTF-8"?>
<svg fill="none" viewBox="0 0 17 16" xmlns="http://www.w3.org/2000/svg">
<path d="m10.426 2.3893 5.1147 8.4794c0.3793 0.6286 0.3906 1.3846 0.0306 2.022-0.3866 0.6846-1.136 1.1093-1.9566 1.1093h-10.229c-0.82 0-1.57-0.4247-1.956-1.1093-0.36-0.6374-0.34866-1.3934 0.03067-2.022l5.1147-8.4794c0.39866-0.66134 1.1187-1.056 1.9253-1.056s1.5267 0.39466 1.926 1.056zm3.984 9.846c-0.1527 0.27-0.45 0.4314-0.7953 0.4314h-10.229c-0.34533 0-0.64266-0.1614-0.79466-0.4314-0.072-0.1266-0.16667-0.3846 0.01133-0.678l5.114-8.4786c0.31133-0.516 1.2567-0.516 1.568 0l5.1147 8.4786c0.1773 0.2934 0.0833 0.5514 0.0113 0.678zm-6.5765-6.2353c0-0.368 0.29867-0.66666 0.66667-0.66666s0.66667 0.29866 0.66667 0.66666v2.6667c0 0.368-0.29867 0.66667-0.66667 0.66667s-0.66667-0.29867-0.66667-0.66667v-2.6667zm0 4.6667c0-0.368 0.29867-0.66671 0.66667-0.66671s0.66667 0.29871 0.66667 0.66671-0.29867 0.6666-0.66667 0.6666-0.66667-0.2986-0.66667-0.6666z" clip-rule="evenodd" fill="currentColor" fill-rule="evenodd"/>
<mask x="1" y="1" width="15" height="13" style="mask-type:luminance" maskUnits="userSpaceOnUse">
<path d="m10.426 2.3893 5.1147 8.4794c0.3793 0.6286 0.3906 1.3846 0.0306 2.022-0.3866 0.6846-1.136 1.1093-1.9566 1.1093h-10.229c-0.82 0-1.57-0.4247-1.956-1.1093-0.36-0.6374-0.34866-1.3934 0.03067-2.022l5.1147-8.4794c0.39866-0.66134 1.1187-1.056 1.9253-1.056s1.5267 0.39466 1.926 1.056zm3.984 9.846c-0.1527 0.27-0.45 0.4314-0.7953 0.4314h-10.229c-0.34533 0-0.64266-0.1614-0.79466-0.4314-0.072-0.1266-0.16667-0.3846 0.01133-0.678l5.114-8.4786c0.31133-0.516 1.2567-0.516 1.568 0l5.1147 8.4786c0.1773 0.2934 0.0833 0.5514 0.0113 0.678zm-6.5765-6.2353c0-0.368 0.29867-0.66666 0.66667-0.66666s0.66667 0.29866 0.66667 0.66666v2.6667c0 0.368-0.29867 0.66667-0.66667 0.66667s-0.66667-0.29867-0.66667-0.66667v-2.6667zm0 4.6667c0-0.368 0.29867-0.66671 0.66667-0.66671s0.66667 0.29871 0.66667 0.66671-0.29867 0.6666-0.66667 0.6666-0.66667-0.2986-0.66667-0.6666z" clip-rule="evenodd" fill="#fff" fill-rule="evenodd"/>
</mask>
</svg>
