<svg fill="none" height="39" viewBox="0 0 109 39" width="109" xmlns="http://www.w3.org/2000/svg"><rect fill="#fff" height="33" rx="5" stroke="#e8e8e8" stroke-width="2" width="104.789" x="2" y="3"/><g fill="#282828"><path d="m32.2625 16.2365h1.9334c1.811 0 3.1-1.1665 3.1-2.8063 0-1.6397-1.289-2.7981-3.1-2.7981h-1.9334zm.8239-.7505v-4.1034h1.1584c1.2971 0 2.2027.8484 2.2027 2.0476 0 1.2074-.9056 2.0558-2.2027 2.0558z"/><path d="m40.3528 16.3344c1.1992 0 2.2108-1.0115 2.2108-2.2107 0-1.1993-1.0116-2.2027-2.2108-2.2027-1.2074 0-2.2271 1.0034-2.2271 2.2027 0 1.1992 1.0197 2.2107 2.2271 2.2107zm0-.7015c-.775 0-1.4195-.6853-1.4195-1.5092 0-.8158.6445-1.5011 1.4195-1.5011.7587 0 1.4031.6853 1.4031 1.5011 0 .8239-.6444 1.5092-1.4031 1.5092z"/><path d="m44.402 16.2365h.7423l1.0198-3.1326 1.0116 3.1326h.7423l1.4195-4.2176h-.824l-.9626 3.1408-1.0442-3.1408h-.6853l-1.0442 3.1408-.9708-3.1408h-.8239z"/><path d="m52.2983 11.921c-.571 0-1.085.2937-1.3379.7098v-.6119h-.8076v4.2176h.8076v-2.7328c.0653-.4977.5711-.8811 1.1584-.8811.5711 0 .9708.4405.9708 1.0687v2.5452h.7913v-2.6839c0-.9545-.6526-1.6316-1.5826-1.6316z"/><path d="m55.0364 16.2365h.7994v-5.7023h-.7994z"/><path d="m59.0108 16.3344c1.1992 0 2.2108-1.0115 2.2108-2.2107 0-1.1993-1.0116-2.2027-2.2108-2.2027-1.2074 0-2.2271 1.0034-2.2271 2.2027 0 1.1992 1.0197 2.2107 2.2271 2.2107zm0-.7015c-.775 0-1.4195-.6853-1.4195-1.5092 0-.8158.6445-1.5011 1.4195-1.5011.7587 0 1.4031.6853 1.4031 1.5011 0 .8239-.6444 1.5092-1.4031 1.5092z"/><path d="m63.9368 11.921c-.465 0-.9952.1224-1.5989.4242l.2937.5956c.3671-.1877.775-.3508 1.191-.3508.8403 0 1.085.5629 1.085 1.0931v.1306c-.4079-.1387-.8566-.2285-1.2726-.2285-.93 0-1.6887.5629-1.6887 1.4032 0 .8239.6608 1.346 1.5581 1.346.514 0 1.0932-.2365 1.4032-.6771v.5792h.7913v-2.5534c0-1.0442-.6281-1.7621-1.7621-1.7621zm-.2774 3.7771c-.5302 0-.9381-.2773-.9381-.7342 0-.4568.4732-.775 1.036-.775.4161 0 .8077.0571 1.1503.1632v.5629c-.1387.5221-.726.7831-1.2482.7831z"/><path d="m70.1137 10.5342v2.2108c-.3263-.514-.8484-.824-1.501-.824-1.1095 0-1.9416.9137-1.9416 2.2027 0 1.2971.8321 2.2107 1.9416 2.2107.6526 0 1.1747-.31 1.501-.8321v.7342h.7995v-5.7023zm-1.3052 5.0987c-.775 0-1.3216-.6282-1.3216-1.5092 0-.8811.5466-1.5011 1.3216-1.5011.7587 0 1.3052.62 1.3052 1.5011 0 .881-.5465 1.5092-1.3052 1.5092z"/><path d="m76.4578 16.3344c1.1993 0 2.2108-1.0115 2.2108-2.2107 0-1.1993-1.0115-2.2027-2.2108-2.2027-1.2073 0-2.2271 1.0034-2.2271 2.2027 0 1.1992 1.0198 2.2107 2.2271 2.2107zm0-.7015c-.775 0-1.4194-.6853-1.4194-1.5092 0-.8158.6444-1.5011 1.4194-1.5011.7587 0 1.4032.6853 1.4032 1.5011 0 .8239-.6445 1.5092-1.4032 1.5092z"/><path d="m81.7591 11.921c-.571 0-1.085.2937-1.3379.7098v-.6119h-.8076v4.2176h.8076v-2.7328c.0653-.4977.5711-.8811 1.1585-.8811.571 0 .9708.4405.9708 1.0687v2.5452h.7913v-2.6839c0-.9545-.6527-1.6316-1.5827-1.6316z"/><path d="m88.8056 15.4779c-.0897.0897-.2529.155-.4323.155-.2366 0-.4324-.2121-.4324-.5058v-2.4229h.9953v-.6853h-.9953v-1.1584h-.7913v1.1584h-.6363v.6853h.6363v2.48c0 .6771.4568 1.1502 1.1095 1.1502.3018 0 .6118-.1142.8402-.3018z"/><path d="m92.068 11.921c-.5792 0-1.0931.3019-1.346.7261v-2.1129h-.7995v5.7023h.7995v-2.6186c0-.5466.5302-.9953 1.1666-.9953.571 0 .9708.4405.9708 1.0687v2.5452h.7913v-2.6839c0-.9545-.6527-1.6316-1.5827-1.6316z"/><path d="m96.7395 15.6165c-.726 0-1.24-.5057-1.346-1.2073h3.3202c0-1.5092-.7423-2.4882-2.0313-2.4882-1.1666 0-2.1047.93-2.1047 2.1945 0 1.2971.9952 2.2189 2.17 2.2189.5955 0 1.3297-.2529 1.705-.6526l-.5058-.5221c-.2529.2611-.7669.4568-1.2074.4568zm-.0245-2.9776c.7261 0 1.1258.4732 1.2156 1.1258h-2.529c.1305-.6853.6608-1.1258 1.3134-1.1258z"/><path d="m38.0855 28.1619h1.8959l-3.1979-7.8463h-1.8844l-3.1979 7.8463h1.8844l.5026-1.2335h3.4948zm-3.4149-2.6611 1.165-2.8667 1.1649 2.8667z"/><path d="m44.5039 22.1202c-.8223 0-1.5076.354-1.9758.9593v-.8223h-1.6675v7.8691h1.6675v-2.7981c.4682.6167 1.1535.9708 1.9758.9708 1.5761 0 2.7182-1.2792 2.7182-3.0951 0-1.8046-1.1421-3.0837-2.7182-3.0837zm-.4797 4.774c-.8109 0-1.4048-.5939-1.4961-1.4619v-.4569c.0913-.8565.6852-1.4504 1.4961-1.4504.9251 0 1.5761.6966 1.5761 1.6789 0 .9936-.651 1.6903-1.5761 1.6903z"/><path d="m52.0436 22.1202c-.8223 0-1.5076.354-1.9759.9593v-.8223h-1.6674v7.8691h1.6674v-2.7981c.4683.6167 1.1536.9708 1.9759.9708 1.5761 0 2.7182-1.2792 2.7182-3.0951 0-1.8046-1.1421-3.0837-2.7182-3.0837zm-.4797 4.774c-.8109 0-1.4048-.5939-1.4962-1.4619v-.4569c.0914-.8565.6853-1.4504 1.4962-1.4504.9251 0 1.5761.6966 1.5761 1.6789 0 .9936-.651 1.6903-1.5761 1.6903z"/><path d="m62.145 28.299c1.9187 0 3.0494-.9937 3.0494-2.4898 0-1.4505-1.1193-1.953-2.8096-2.3299-1.2106-.2741-1.6789-.4569-1.6789-1.0279 0-.4683.434-.8452 1.1535-.8452.7538 0 1.5419.3084 2.2386.868l.8794-1.2106c-.7995-.6853-1.7931-1.085-3.0723-1.085-1.7131 0-2.9009.9936-2.9009 2.4441 0 1.519 1.1763 1.9873 2.8324 2.3642 1.1992.2741 1.6561.4454 1.6561 1.005 0 .4911-.434.8794-1.2792.8794-.9936 0-1.8388-.3883-2.5812-1.0279l-.9708 1.1536c.9137.8451 2.1244 1.302 3.4835 1.302z"/><path d="m69.4637 26.7c-.1142.1142-.3426.1942-.571.1942-.3084 0-.5597-.2741-.5597-.6625v-2.6268h1.2792v-1.3477h-1.2792v-1.6218h-1.5989v1.6218h-.8109v1.3477h.8109v2.8895c0 1.0622.7309 1.8046 1.7703 1.8046.4796 0 1.0164-.2056 1.3591-.514z"/><path d="m73.8087 28.299c1.7474 0 3.2093-1.4163 3.2093-3.0951 0-1.6789-1.4619-3.0837-3.2093-3.0837-1.7588 0-3.2321 1.4048-3.2321 3.0837 0 1.6788 1.4733 3.0951 3.2321 3.0951zm0-1.4048c-.8908 0-1.6332-.7767-1.6332-1.6903 0-.9137.7424-1.6789 1.6332-1.6789.8794 0 1.6218.7652 1.6218 1.6789 0 .9136-.7424 1.6903-1.6218 1.6903z"/><path d="m79.8138 23.3536v-1.0964h-1.6675v5.9047h1.6675v-2.821c0-1.1078.788-1.8159 2.0215-1.8159v-1.4048c-.9023 0-1.6332.4682-2.0215 1.2334z"/><path d="m85.584 26.8256c-.6967 0-1.2106-.434-1.4048-1.0735h4.2601c0-2.2271-1.085-3.6319-2.9352-3.6319-1.7246 0-3.038 1.2905-3.038 3.0722 0 1.816 1.3705 3.1066 3.1293 3.1066.868 0 1.8845-.3655 2.4099-.9137l-1.0622-1.085c-.3198.3083-.8908.5253-1.3591.5253zm-.0114-3.2321c.6738 0 1.1078.3769 1.2677.9594h-2.6382c.217-.5939.7423-.9594 1.3705-.9594z"/><path d="m22.0731 20.6999c.016-1.24.6819-2.4133 1.7383-3.0627-.6664-.9518-1.7827-1.5553-2.944-1.5916-1.2387-.1301-2.4396.7412-3.0708.7412-.6434 0-1.6152-.7283-2.6618-.7068-1.3641.0441-2.6357.8196-3.2994 2.0122-1.4266 2.4699-.3625 6.0999 1.0041 8.0965.6837.9776 1.4828 2.0696 2.5284 2.0309 1.0231-.0424 1.4053-.6524 2.6403-.6524 1.2236 0 1.5821.6524 2.6489.6278 1.0979-.0178 1.7896-.982 2.4493-1.9689.4913-.6966.8693-1.4665 1.1201-2.2812-1.2902-.5457-2.1519-1.8441-2.1534-3.245z"/><path d="m20.0581 14.7326c.5986-.7187.8936-1.6423.8221-2.5749-.9145.0961-1.7593.5332-2.366 1.2242-.5933.6752-.902 1.5826-.8437 2.4795.9149.0095 1.8143-.4158 2.3876-1.1288z"/></g></svg>