<svg width="24" height="24" viewBox="0 0 24 24" fill="none" xmlns="http://www.w3.org/2000/svg">
<path d="M4 19.5002V4.10296C4 3.59126 4.67755 3.40991 4.93315 3.8532L6.55612 6.66787C6.75085 7.00559 7.24 7.00045 7.42758 6.6587L8.76091 4.22961C8.94239 3.89897 9.41066 3.88066 9.61741 4.19612L11.3237 6.79962C11.5212 7.10085 11.9627 7.10085 12.1601 6.79962L13.8647 4.19887C14.0718 3.88277 14.5413 3.90195 14.722 4.23389L16.1255 6.81212C16.3002 7.13299 16.7488 7.16429 16.9664 6.87079L19.0983 3.99445C19.3853 3.60726 20 3.81024 20 4.29218V19.5002C20 20.6047 19.1046 21.5002 18 21.5002H6C4.89543 21.5002 4 20.6047 4 19.5002Z" stroke="black" stroke-width="1.8" stroke-linejoin="round"/>
<path d="M12.5769 18.0524V18.9997L12.168 18.9996L12 18.9996L11.7692 18.9997V18.0524C10.3846 17.9471 9.46154 17.3155 9 16.3681C9 16.3681 9.14562 15.9843 9.34615 15.8418C9.60545 15.6576 10.1538 15.7366 10.1538 15.7366C10.3846 16.3681 10.9615 16.7892 11.6538 16.7892V14.4734C10.5 14.0524 9.34615 13.6313 9.34615 12.1576C9.34615 10.8945 10.5 10.0524 11.6538 9.94709V8.99972C11.958 8.74687 12.1368 8.77455 12.4615 8.99972V9.94709C13.3846 10.0524 14.3077 10.5787 14.7692 11.4208C14.7692 11.4208 14.6917 11.8402 14.5 11.9997C14.234 12.2211 13.6154 12.0524 13.6154 12.0524C13.3846 11.6313 13.0385 11.4208 12.5769 11.3155V13.526C13.7308 13.9471 15 14.3681 15 15.8418C15 16.9997 13.9615 17.8418 12.5769 18.0524ZM11.7692 13.2102V11.3155C11.1923 11.3155 10.8462 11.7366 10.8462 12.1576C10.8462 12.6839 11.0769 12.8945 11.7692 13.2102ZM13.6154 15.7366C13.6154 15.2102 13.2692 14.9997 12.5769 14.6839V16.6839C13.2692 16.6839 13.6154 16.2629 13.6154 15.7366Z" fill="black"/>
<line x1="12.1" y1="9.1001" x2="12.1" y2="18.7001" stroke="black" stroke-linecap="round" stroke-linejoin="round"/>
</svg>
