<svg xmlns="http://www.w3.org/2000/svg" width="20" height="20" viewBox="0 0 20 20" fill="none" class="calendar-icon">
    <path fill-rule="evenodd" clip-rule="evenodd"
        d="M14.1667 3.33335H15C16.3783 3.33335 17.5 4.45502 17.5 5.83335V15.8334C17.5 17.2117 16.3783 18.3334 15 18.3334H5C3.62167 18.3334 2.5 17.2117 2.5 15.8334V5.83335C2.5 4.45502 3.62167 3.33335 5 3.33335H5.83333V2.50002C5.83333 2.04169 6.20833 1.66669 6.66667 1.66669C7.125 1.66669 7.5 2.04169 7.5 2.50002V3.33335H12.5V2.50002C12.5 2.04169 12.875 1.66669 13.3333 1.66669C13.7917 1.66669 14.1667 2.04169 14.1667 2.50002V3.33335ZM5 5.00002H5.83333V5.83335C5.83333 6.29169 6.20833 6.66669 6.66667 6.66669C7.125 6.66669 7.5 6.29169 7.5 5.83335V5.00002H12.5V5.83335C12.5 6.29169 12.875 6.66669 13.3333 6.66669C13.7917 6.66669 14.1667 6.29169 14.1667 5.83335V5.00002H15C15.4592 5.00002 15.8333 5.37419 15.8333 5.83335V9.16669H4.16667V5.83335C4.16667 5.37419 4.54083 5.00002 5 5.00002ZM4.16667 15.8334C4.16667 16.2925 4.54083 16.6667 5 16.6667H15C15.4592 16.6667 15.8333 16.2925 15.8333 15.8334V10.8334H4.16667V15.8334ZM6.66667 12.5C6.20833 12.5 5.83333 12.875 5.83333 13.3334C5.83333 13.7917 6.20833 14.1667 6.66667 14.1667C7.125 14.1667 7.5 13.7917 7.5 13.3334C7.5 12.875 7.125 12.5 6.66667 12.5ZM13.3333 12.5H10C9.54167 12.5 9.16667 12.875 9.16667 13.3334C9.16667 13.7917 9.54167 14.1667 10 14.1667H13.3333C13.7917 14.1667 14.1667 13.7917 14.1667 13.3334C14.1667 12.875 13.7917 12.5 13.3333 12.5Z"
        fill="currentColor" />
    <mask id="mask0_10770_2661" style="mask-type:alpha" maskUnits="userSpaceOnUse" x="2" y="1" width="16" height="18">
        <path fill-rule="evenodd" clip-rule="evenodd"
            d="M14.1667 3.33335H15C16.3783 3.33335 17.5 4.45502 17.5 5.83335V15.8334C17.5 17.2117 16.3783 18.3334 15 18.3334H5C3.62167 18.3334 2.5 17.2117 2.5 15.8334V5.83335C2.5 4.45502 3.62167 3.33335 5 3.33335H5.83333V2.50002C5.83333 2.04169 6.20833 1.66669 6.66667 1.66669C7.125 1.66669 7.5 2.04169 7.5 2.50002V3.33335H12.5V2.50002C12.5 2.04169 12.875 1.66669 13.3333 1.66669C13.7917 1.66669 14.1667 2.04169 14.1667 2.50002V3.33335ZM5 5.00002H5.83333V5.83335C5.83333 6.29169 6.20833 6.66669 6.66667 6.66669C7.125 6.66669 7.5 6.29169 7.5 5.83335V5.00002H12.5V5.83335C12.5 6.29169 12.875 6.66669 13.3333 6.66669C13.7917 6.66669 14.1667 6.29169 14.1667 5.83335V5.00002H15C15.4592 5.00002 15.8333 5.37419 15.8333 5.83335V9.16669H4.16667V5.83335C4.16667 5.37419 4.54083 5.00002 5 5.00002ZM4.16667 15.8334C4.16667 16.2925 4.54083 16.6667 5 16.6667H15C15.4592 16.6667 15.8333 16.2925 15.8333 15.8334V10.8334H4.16667V15.8334ZM6.66667 12.5C6.20833 12.5 5.83333 12.875 5.83333 13.3334C5.83333 13.7917 6.20833 14.1667 6.66667 14.1667C7.125 14.1667 7.5 13.7917 7.5 13.3334C7.5 12.875 7.125 12.5 6.66667 12.5ZM13.3333 12.5H10C9.54167 12.5 9.16667 12.875 9.16667 13.3334C9.16667 13.7917 9.54167 14.1667 10 14.1667H13.3333C13.7917 14.1667 14.1667 13.7917 14.1667 13.3334C14.1667 12.875 13.7917 12.5 13.3333 12.5Z"
            fill="white" />
    </mask>
    <g mask="url(#mask0_10770_2661)">
    </g>
</svg>