<svg fill="none" height="24" viewBox="0 0 24 24" width="24" xmlns="http://www.w3.org/2000/svg">
    <mask height="13" maskUnits="userSpaceOnUse" width="21" x="2" y="5">
        <path clip-rule="evenodd"
            d="m16.6162 6.2129c-.434-.342-1.062-.264-1.403.171l-7.055 9.008-3.379-4.197c-.348-.429-.976-.499-1.406-.152-.431.347-.498.977-.153 1.406l4.169 5.178c.191.236.477.373.78.373h.007c.304-.002.592-.143.78-.384l7.831-10c.341-.434.265-1.063-.171-1.403zm-7.9033 6.8476 1.267-1.616-.201-.249c-.346-.43-.975-.499-1.406-.153-.431.347-.498.977-.152 1.407zm11.5003-6.6766c.341-.435.968-.513 1.403-.171.436.34.512.969.171 1.403l-7.831 10c-.188.241-.476.382-.78.384h-.007c-.303 0-.589-.137-.78-.373l-1.1-1.367 1.265-1.617.604.749z"
            fill="#fff" fill-rule="evenodd" />
    </mask>
    <path clip-rule="evenodd"
        d="m16.6162 6.2129c-.434-.342-1.062-.264-1.403.171l-7.055 9.008-3.379-4.197c-.348-.429-.976-.499-1.406-.152-.431.347-.498.977-.153 1.406l4.169 5.178c.191.236.477.373.78.373h.007c.304-.002.592-.143.78-.384l7.831-10c.341-.434.265-1.063-.171-1.403zm-7.9033 6.8476 1.267-1.616-.201-.249c-.346-.43-.975-.499-1.406-.153-.431.347-.498.977-.152 1.407zm11.5003-6.6766c.341-.435.968-.513 1.403-.171.436.34.512.969.171 1.403l-7.831 10c-.188.241-.476.382-.78.384h-.007c-.303 0-.589-.137-.78-.373l-1.1-1.367 1.265-1.617.604.749z"
        fill="currentColor" fill-rule="evenodd" />
</svg>