<svg fill="none" viewBox="0 0 24 24" xmlns="http://www.w3.org/2000/svg">
<path d="m16 14.5c-0.256 0-0.512-0.098-0.707-0.293l-3.305-3.305-3.293 3.18c-0.398 0.384-1.03 0.374-1.414-0.025-0.384-0.397-0.373-1.031 0.024-1.414l4-3.862c0.393-0.379 1.017-0.374 1.402 0.012l4 4c0.391 0.391 0.391 1.023 0 1.414-0.195 0.195-0.451 0.293-0.707 0.293z" fill="#000" fill="currentColor" />
<mask x="7" y="8" width="11" height="7" style="mask-type:luminance" maskUnits="userSpaceOnUse">
<path d="m16 14.5c-0.256 0-0.512-0.098-0.707-0.293l-3.305-3.305-3.293 3.18c-0.398 0.384-1.03 0.374-1.414-0.025-0.384-0.397-0.373-1.031 0.024-1.414l4-3.862c0.393-0.379 1.017-0.374 1.402 0.012l4 4c0.391 0.391 0.391 1.023 0 1.414-0.195 0.195-0.451 0.293-0.707 0.293z" fill="#fff"/>
</mask>
</svg>
