<svg fill="none" viewBox="0 0 24 24" xmlns="http://www.w3.org/2000/svg">
<path d="m12 15.5c-0.256 0-0.512-0.098-0.707-0.293l-4-4c-0.391-0.391-0.391-1.023 0-1.414 0.391-0.391 1.023-0.391 1.414 0l3.305 3.305 3.293-3.18c0.399-0.383 1.03-0.372 1.414 0.025 0.384 0.39699 0.373 1.031-0.024 1.414l-4 3.862c-0.195 0.188-0.445 0.281-0.695 0.281z" fill="#000" fill="currentColor" />
<mask x="6" y="9" width="11" height="7" style="mask-type:luminance" maskUnits="userSpaceOnUse">
<path d="m12 15.5c-0.256 0-0.512-0.098-0.707-0.293l-4-4c-0.391-0.391-0.391-1.023 0-1.414 0.391-0.391 1.023-0.391 1.414 0l3.305 3.305 3.293-3.18c0.399-0.383 1.03-0.372 1.414 0.025 0.384 0.39699 0.373 1.031-0.024 1.414l-4 3.862c-0.195 0.188-0.445 0.281-0.695 0.281z" fill="#fff"/>
</mask>
</svg>
