<svg fill="none" height="24" viewBox="0 0 24 24" width="24" xmlns="http://www.w3.org/2000/svg"><mask height="13" maskUnits="userSpaceOnUse" width="14" x="5" y="5"><path d="m13.4141 12 4.293-4.29299c.391-.391.391-1.023 0-1.414s-1.023-.391-1.414 0l-4.293 4.29299-4.29297-4.29299c-.391-.391-1.023-.391-1.414 0s-.391 1.023 0 1.414l4.29297 4.29299-4.29297 4.293c-.391.391-.391 1.023 0 1.414.195.195.451.293.707.293s.512-.098.707-.293l4.29297-4.293 4.293 4.293c.195.195.451.293.707.293s.512-.098.707-.293c.391-.391.391-1.023 0-1.414z" fill="#fff"/></mask><path d="m13.4141 12 4.293-4.29299c.391-.391.391-1.023 0-1.414s-1.023-.391-1.414 0l-4.293 4.29299-4.29297-4.29299c-.391-.391-1.023-.391-1.414 0s-.391 1.023 0 1.414l4.29297 4.29299-4.29297 4.293c-.391.391-.391 1.023 0 1.414.195.195.451.293.707.293s.512-.098.707-.293l4.29297-4.293 4.293 4.293c.195.195.451.293.707.293s.512-.098.707-.293c.391-.391.391-1.023 0-1.414z" fill="currentColor"/></svg>