<svg width="30" height="30" fill="none" xmlns="http://www.w3.org/2000/svg" viewBox="0 0 30 30">
  <path d="M3.91 11.826a2.56 2.56 0 0 0 .691 3.577 2.56 2.56 0 0 0 3.577-.692L3.91 11.826Z" stroke="currentColor"
    stroke-width=".5" stroke-miterlimit="10" stroke-linecap="round" stroke-linejoin="round" />
  <path d="M6.88 14.913c.26-.144.52-.346.692-.606L4.515 12.26c-.577.837-.346 1.99.49 2.567.375.231.78.346 1.183.318"
    stroke="currentColor" stroke-width=".5" stroke-miterlimit="10" stroke-linecap="round" stroke-linejoin="round" />
  <path
    d="M5.207 12.72a1.033 1.033 0 0 0 .289 1.443 1.033 1.033 0 0 0 1.442-.289l-1.73-1.153ZM12.447 19.903c-.404-1.356.375-2.798 1.73-3.23 1.356-.405 2.798.374 3.231 1.73l-4.961 1.5Z"
    stroke="currentColor" stroke-width=".5" stroke-miterlimit="10" stroke-linecap="round" stroke-linejoin="round" />
  <path d="M16.168 17.826c.23.202.375.49.49.808L13.11 19.7c-.288-.98.26-2.02 1.24-2.308a1.918 1.918 0 0 1 1.212.058"
    stroke="currentColor" stroke-width=".5" stroke-miterlimit="10" stroke-linecap="round" stroke-linejoin="round" />
  <path
    d="M13.918 19.441a1.04 1.04 0 0 1 .692-1.298 1.04 1.04 0 0 1 1.298.693l-1.99.605ZM9.159 9.404c-.49-.202-.98-.231-1.414.057-.317.231-.461.606-.086.75l.461.26-.23.49c-.03.087 0 .173.086.202l.606.26c.087.029.173 0 .202-.087l.23-.49.549.23c.375.174.519-.23.461-.605-.057-.49-.404-.837-.865-1.067ZM10.313 14.97c-.404.318-.635.78-.577 1.27.057.404.317.663.634.432l.462-.288.346.433c.058.057.144.086.202.029l.52-.404c.057-.058.086-.145.028-.202l-.346-.433.461-.375c.318-.26.03-.548-.346-.692-.49-.231-.98-.116-1.384.23ZM5.41 9.606a.462.462 0 1 0 0-.923.462.462 0 0 0 0 .923ZM9.188 19.585a.462.462 0 1 0 0-.923.462.462 0 0 0 0 .924ZM11.841 12.98a.462.462 0 1 0 0-.923.462.462 0 0 0 0 .923ZM9.591 7.298s-.057.173-.26.346M9.188 13.269c.144.202.317.23.317.23"
    stroke="currentColor" stroke-width=".5" stroke-miterlimit="10" stroke-linecap="round" stroke-linejoin="round" />
  <path
    d="M18.59 15.028s1.01 3.288-2.134 5.827c-1.211.98-2.769 1.586-4.355 1.759-5.336.635-6.49-3.634-6.49-3.634s3.23 1.154 7.384-.375c1.76-.606 4.817-1.875 5.596-3.577Z"
    fill="currentColor" stroke="currentColor" stroke-width=".5" stroke-miterlimit="10" stroke-linecap="round"
    stroke-linejoin="round" />
  <path
    d="M18.59 15.028c-.288-.923-3.114-.923-6.431 0 .028.115.028.23-.116.346l-.461.375.346.433c.057.058.029.173-.03.202l-.518.404c-.058.057-.173.029-.202-.03l-.346-.432-.462.289c-.317.26-.577-.03-.634-.433-.03-.144 0-.288.028-.433-2.624 1.01-4.413 2.279-4.153 3.086.288.981 3.432.895 7.009-.172 3.577-.981 6.259-2.654 5.97-3.635ZM19.283 14.307l6.547-2.913c.26-.116.548 0 .664.26.115.259 0 .576-.26.692l-6.547 2.97"
    stroke="currentColor" stroke-width=".5" stroke-miterlimit="10" stroke-linecap="round" stroke-linejoin="round" />
  <path
    d="m19.168 14.25-.952.374c.202.116.317.231.375.404 0 0 .086.317.144.837l.98-.49c.087-.203-.317-1.04-.547-1.126ZM3.91 11.826a2.56 2.56 0 0 0 .691 3.577 2.56 2.56 0 0 0 3.577-.692L3.91 11.826Z"
    stroke="currentColor" stroke-width=".5" stroke-miterlimit="10" stroke-linecap="round" stroke-linejoin="round" />
  <path d="M6.88 14.913c.26-.144.52-.346.692-.606L4.515 12.26c-.577.837-.346 1.99.49 2.567.375.231.78.346 1.183.318"
    stroke="currentColor" stroke-width=".5" stroke-miterlimit="10" stroke-linecap="round" stroke-linejoin="round" />
  <path
    d="M5.207 12.72a1.033 1.033 0 0 0 .289 1.443 1.033 1.033 0 0 0 1.442-.289l-1.73-1.153ZM12.447 19.903c-.404-1.356.375-2.798 1.73-3.23 1.356-.405 2.798.374 3.231 1.73l-4.961 1.5Z"
    stroke="currentColor" stroke-width=".5" stroke-miterlimit="10" stroke-linecap="round" stroke-linejoin="round" />
  <path d="M16.168 17.826c.23.202.375.49.49.808L13.11 19.7c-.288-.98.26-2.02 1.24-2.308a1.918 1.918 0 0 1 1.212.058"
    stroke="currentColor" stroke-width=".5" stroke-miterlimit="10" stroke-linecap="round" stroke-linejoin="round" />
  <path
    d="M13.918 19.441a1.04 1.04 0 0 1 .692-1.298 1.04 1.04 0 0 1 1.298.693l-1.99.605ZM9.159 9.404c-.49-.202-.98-.231-1.414.057-.317.231-.461.606-.086.75l.461.26-.23.49c-.03.087 0 .173.086.202l.606.26c.087.029.173 0 .202-.087l.23-.49.549.23c.375.174.519-.23.461-.605-.057-.49-.404-.837-.865-1.067ZM10.313 14.97c-.404.318-.635.78-.577 1.27.057.404.317.663.634.432l.462-.288.346.433c.058.057.144.086.202.029l.52-.404c.057-.058.086-.145.028-.202l-.346-.433.461-.375c.318-.26.03-.548-.346-.692-.49-.231-.98-.116-1.384.23ZM5.41 9.606a.462.462 0 1 0 0-.923.462.462 0 0 0 0 .923ZM9.188 19.585a.462.462 0 1 0 0-.923.462.462 0 0 0 0 .924ZM11.841 12.98a.462.462 0 1 0 0-.923.462.462 0 0 0 0 .923ZM9.591 7.298s-.057.173-.26.346M9.188 13.269c.144.202.317.23.317.23"
    stroke="currentColor" stroke-width=".5" stroke-miterlimit="10" stroke-linecap="round" stroke-linejoin="round" />
  <path
    d="M18.59 15.028s1.01 3.288-2.134 5.827c-1.211.98-2.769 1.586-4.355 1.759-5.336.635-6.49-3.634-6.49-3.634s3.23 1.154 7.384-.375c1.76-.606 4.817-1.875 5.596-3.577Z"
    fill="currentColor" stroke="currentColor" stroke-width=".5" stroke-miterlimit="10" stroke-linecap="round"
    stroke-linejoin="round" />
  <path
    d="M18.59 15.028c-.288-.923-3.114-.923-6.431 0 .028.115.028.23-.116.346l-.461.375.346.433c.057.058.029.173-.03.202l-.518.404c-.058.057-.173.029-.202-.03l-.346-.432-.462.289c-.317.26-.577-.03-.634-.433-.03-.144 0-.288.028-.433-2.624 1.01-4.413 2.279-4.153 3.086.288.981 3.432.895 7.009-.172 3.577-.981 6.259-2.654 5.97-3.635ZM19.283 14.307l6.547-2.913c.26-.116.548 0 .664.26.115.259 0 .576-.26.692l-6.547 2.97"
    stroke="currentColor" stroke-width=".5" stroke-miterlimit="10" stroke-linecap="round" stroke-linejoin="round" />
  <path d="m19.168 14.25-.952.374c.202.116.317.231.375.404 0 0 .086.317.144.837l.98-.49c.087-.203-.317-1.04-.547-1.126Z"
    stroke="currentColor" stroke-width=".5" stroke-miterlimit="10" stroke-linecap="round" stroke-linejoin="round" />
</svg>