<?xml version="1.0" encoding="UTF-8"?>
<svg fill="currentColor" viewBox="0 0 16 16" xmlns="http://www.w3.org/2000/svg">
<path d="m35.488 28.942c1.7392 0.5999 2.8118 1.547 3.3787 2.21v-0.0079c0.7585 0.892 1.1876 1.8944 1.1263 2.6442 0.0689 0.7499-0.3601 1.7602-1.1263 2.6442-0.8887 1.0261-2.9727 2.7626-6.949 2.7784h-0.046c-1.3791 0-2.5283-0.3236-3.4553-0.9314-0.0208 0.0161-0.0381 0.0358-0.0542 0.0541-0.0077 0.0088-0.0151 0.0172-0.0225 0.0248-1.5629 1.5629-3.6315 1.6418-4.0299 1.6418h-0.1226c-0.3831 0-2.4517-0.0789-4.007-1.6418-0.6589-0.663-1.1186-1.4918-1.4021-2.4784l-2.3061-0.1263c-0.6896-0.0394-1.2259-0.6235-1.2259-1.3339v-2.3837c-1.8541 0-3.7158-0.7341-5.1256-2.1864-2.8271-2.9126-2.8271-7.6484 0-10.561 1.4098-1.4602 3.2715-2.1864 5.1256-2.1864v-1.0734c0.0077-0.0158 0.0077-0.0237 0.0077-0.0395 0.0077-0.0395 0.0153-0.0789 0.0383-0.1184 0.0077-0.0079 0.0077-0.0237 0.0077-0.0237l2.7888-4.2386v-2.4784c0-0.30783 0.1226-0.59987 0.3371-0.81299 0.2145-0.21311 0.4903-0.33151 0.7968-0.31572l12.067 0.37098c0.5976 0.01578 1.065 0.51305 1.065 1.1287v2.5021l2.8654 3.4572c0.0537 0.0552 0.0843 0.142 0.0843 0.221l0.1839 13.26zm-2.8578-0.5446c0.8045 0.0473 1.5247 0.1736 2.1682 0.3394h0.0077l-0.1839-12.913-2.2601-2.7232 0.2681 15.297zm-2.8577-11.674 0.0536 11.934c0.6282-0.1894 1.3254-0.292 2.0839-0.2841h0.023l-0.2605-14.973-1.9 3.323zm-10.573-8.0194c-0.1149 0-0.2145 0.03946-0.2988 0.11839h0.0077c-0.0767 0.08683-0.1226 0.18944-0.1226 0.30783v0.63934l4.4437 0.13419c0.1839 0.00789 0.3294 0.16576 0.3294 0.36306-0.0076 0.1895-0.1609 0.3394-0.3447 0.3394h-0.0077l-4.4284-0.1342v0.8999l9.9677 0.3078 2.9191 0.0868v-2.2653c0-0.2289-0.1763-0.42623-0.3984-0.42623l-12.067-0.37097zm0.0843 3.394-0.6742-0.0237v0.0079l-2.3981 3.6387 13.025 0.5447 2.1759-3.7966-12.128-0.371zm-8.6806 7.68c-2.559 2.6363-2.559 6.9301 0 9.5664 2.559 2.6363 6.7269 2.6363 9.2858 0 2.559-2.6363 2.559-6.9301 0-9.5664-1.2794-1.3182-2.9573-1.9733-4.6429-1.9733-1.6855 0-3.3634 0.6551-4.6429 1.9733zm10.044 18.059c1.4864 1.4918 3.601 1.4444 3.601 1.4444v-0.0079l0.0034 1e-4c0.1029 0.0011 2.1581 0.0231 3.6128-1.4445 1.0037-1.0103 1.5094-2.5021 1.5017-4.428-0.0077-1.6023-0.2528-2.8889-0.5976-3.9387l-0.0077-0.0079c-0.0153-0.0237-0.0153-0.0552-0.0153-0.0789-0.3907-1.1445-0.9041-1.9891-1.3791-2.5732-1.0649-1.3023-2.3138-1.8864-3.0952-1.8864h-0.0537c-0.6129 0-1.1032 0.1579-1.7392 0.5683-0.0229 0.0158-0.0383 0.0237-0.0612 0.0237-0.1992 1.5786-0.8735 3.1099-2.0533 4.3254-0.3295 0.3394-0.6819 0.6236-1.0497 0.8761-0.1456 0.9156-0.1685 2.289-0.1685 2.6995-0.0077 1.9259 0.498 3.4177 1.5016 4.428zm17.706-1.8865c0.7279-0.8445 1.0037-1.6812 0.9577-2.1311v-0.0789c0.046-0.4499-0.2298-1.2866-0.9577-2.1312-0.8121-0.9392-2.7275-2.5257-6.4357-2.5415-0.9271-0.0395-1.7162 0.1341-2.4134 0.4341 0.3294 1.0656 0.5593 2.3442 0.5593 3.8992 0.0077 1.7759-0.3984 3.2204-1.1952 4.3175 0.8121 0.513 1.8311 0.7972 3.0493 0.7735 3.7082-0.0158 5.6236-1.6023 6.4357-2.5416zm-5.3862-5.0275c-0.0153-0.1974 0.1226-0.3631 0.3141-0.3789h0.0077c0.0996-0.0079 2.3521-0.1579 4.3211 2.2574 0.1149 0.15 0.0996 0.371-0.046 0.4973-0.0689 0.0552-0.1455 0.0789-0.2222 0.0789-0.0919 0-0.1915-0.0473-0.2605-0.1263-1.7103-2.0943-3.6409-2.0094-3.7425-2.005l-4e-3 2e-4c-0.1838 0.0158-0.3524-0.1263-0.3677-0.3236zm-8.6268-1.0653c-1.9996 0-3.6239 1.8312-3.6239 4.0886s1.6243 4.0886 3.6239 4.0886c1.9997 0 3.624-1.8312 3.624-4.0886s-1.6243-4.0886-3.624-4.0886zm0 7.4668c-1.6166 0-2.9344-1.5155-2.9344-3.3782 0-1.8628 1.3178-3.3783 2.9344-3.3783s2.9344 1.5155 2.9344 3.3783c0 1.8627-1.3178 3.3782-2.9344 3.3782zm-5.884-14.596-1.7851 1.8391 1.7851 1.8391c0.3831 0.3946 0.3831 1.0734 0 1.4681-0.383 0.3946-1.0419 0.3946-1.425 0l-1.7852-1.8391-1.7851 1.8391c-0.3831 0.3946-1.0343 0.3946-1.4251 0-0.383-0.3947-0.383-1.0735 0-1.4681l1.7852-1.8391-1.7852-1.8391c-0.383-0.3947-0.383-1.0735 0-1.4681 0.3831-0.3947 1.042-0.3947 1.4251 0l1.7851 1.839 1.7852-1.839c0.3831-0.3947 1.042-0.3947 1.425 0 0.3831 0.3946 0.3831 1.0734 0 1.4681z" clip-rule="evenodd" fill="currentColor" fill-rule="evenodd"/>
</svg>
