<svg xmlns="http://www.w3.org/2000/svg" width="48" height="48" viewBox="0 0 48 48" fill="none">
  <path fill-rule="evenodd" clip-rule="evenodd" d="M33.7955 14.4131C34.6449 14.3389 35.8016 14.8497 36.8127 15.7723H36.8046C37.9856 16.8433 39.9754 19.3559 39.9997 24.1587C40.0159 26.4159 39.393 28.1789 38.1635 29.3981C36.4891 31.054 34.2728 31.1363 33.8441 31.1363H33.7227C33.4801 31.1363 32.3638 31.0952 31.1424 30.5597C30.7622 31.3835 30.2607 32.1084 29.6378 32.7263C27.4538 34.8929 24.5418 35 23.9837 35H23.8058C23.2638 35 20.3518 34.8929 18.1678 32.7263C17.5611 32.1249 17.0677 31.4247 16.6875 30.6256C15.4196 31.1421 14.2992 31.1368 14.2086 31.1364C14.2067 31.1364 14.2052 31.1363 14.2043 31.1363H14.1395C13.727 31.1363 11.5026 31.054 9.83625 29.3981C8.60674 28.1789 7.99199 26.4159 8.00008 24.1587C8.02435 19.3559 10.0142 16.8433 11.1952 15.7723C12.2063 14.8497 13.3549 14.3307 14.2123 14.4131C15.2477 14.3307 16.8817 15.138 18.2082 16.8515C18.823 15.9289 19.4539 15.2533 19.9716 14.7838C21.3063 13.581 22.8108 12.9055 23.9109 13.0126C25.0191 12.8973 26.5155 13.581 27.8502 14.7838C28.3921 15.2698 29.0554 15.9948 29.7025 16.9916C31.0453 15.171 32.7197 14.306 33.7955 14.4131ZM10.3539 28.8791C11.9555 30.4608 14.2123 30.4032 14.2123 30.4032H14.2204C14.2528 30.4114 15.2801 30.4196 16.4287 29.9501C15.9919 28.772 15.7735 27.4045 15.7735 25.8557C15.7978 22.0827 16.728 19.3971 17.8119 17.5271C16.5419 15.7723 14.997 15.0803 14.269 15.1627H14.1881C13.6542 15.0968 12.6755 15.4346 11.6886 16.3325C10.5966 17.3293 8.76043 19.6607 8.73617 24.1752C8.71999 26.2182 9.27003 27.8082 10.3539 28.8791ZM19.7047 26.5972C19.7047 29.291 21.646 31.4906 24.0242 31.4906C26.4104 31.4906 28.3436 29.291 28.3436 26.5972C28.3436 23.9033 26.4104 21.7038 24.0242 21.7038C21.6379 21.7038 19.7047 23.9033 19.7047 26.5972ZM33.7911 30.4032C33.8996 30.4043 36.1021 30.4273 37.6701 28.8709C38.754 27.7917 39.296 26.21 39.2879 24.1669C39.2636 19.6607 37.4274 17.3211 36.3354 16.3325C35.3486 15.4428 34.3698 15.0968 33.836 15.1627H33.7551C32.9947 15.0721 31.3931 15.8135 30.1151 17.6836C31.1585 19.5371 32.0402 22.1898 32.0564 25.8557C32.0645 27.3715 31.8542 28.7144 31.4336 29.8842C32.6331 30.4135 33.7535 30.4035 33.7867 30.4032L33.7874 30.4032C33.7881 30.4032 33.7893 30.4032 33.7911 30.4032ZM12.7486 17.5691C9.95791 19.9581 10.1278 22.6849 10.1359 22.8003C10.152 22.9897 10.3057 23.138 10.4999 23.138H10.5241C10.7264 23.1215 10.872 22.9485 10.8558 22.7426L10.8555 22.7276C10.8499 22.5006 10.793 20.1909 13.2096 18.1293C13.3633 17.9975 13.3795 17.7668 13.2582 17.6103C13.1288 17.4537 12.9023 17.4373 12.7486 17.5691ZM35.2678 17.5703C35.1141 17.4385 34.8876 17.4632 34.7582 17.6115C34.6287 17.768 34.653 17.9986 34.7986 18.1305C37.29 20.2641 37.1606 22.6449 37.1525 22.7438C37.1363 22.9497 37.29 23.1227 37.4841 23.1392H37.5084C37.6944 23.1392 37.8562 22.9909 37.8724 22.8014C37.8805 22.6861 38.0503 19.9511 35.2597 17.5703H35.2678Z" fill="black"/>
</svg>