<svg xmlns="http://www.w3.org/2000/svg" xml:space="preserve" style="enable-background:new 0 0 48 48" viewBox="0 0 48 48"><path fill="currentColor" d="M39 12.3c0-.7-.3-1.4-.7-2-.4-.6-1-1-1.7-1.1-4.5-1-15.5-2.2-25.2.2-.6.2-1.2.6-1.6 1.1-.4.6-.6 1.2-.6 1.9-.2.9-.2 22.2-.2 23.3 0 .7.3 1.4.7 2 .4.6 1.1 1 1.7 1.1 4.1.8 8.3 1.2 12.4 1.2 4.3 0 8.6-.4 12.8-1.4.7-.2 1.2-.6 1.7-1.2.4-.6.6-1.3.6-2 .1-.8.1-22 .1-23.1zm-24.9 3.4c.1-.1.3-.2.5-.2h1.7c.2-.7.5-1.2 1-1.7.5-.4 1.2-.6 1.8-.6.7 0 1.3.2 1.8.6.5.4.9 1 1 1.7h11.4c.2 0 .4.1.5.2.1.1.2.3.2.5s-.1.4-.2.5c-.1.1-.3.2-.5.2H22c-.2.7-.5 1.2-1 1.7-.5.4-1.2.6-1.8.6-.7 0-1.3-.2-1.8-.6-.5-.4-.9-1-1-1.7h-1.7c-.2 0-.4-.1-.5-.2-.1-.1-.2-.3-.2-.5-.1-.2 0-.4.1-.5zm19.8 16.6c-.1.1-.3.2-.5.2h-6.6c-.2.7-.5 1.2-1 1.6-.5.4-1.2.6-1.8.6s-1.3-.2-1.8-.6c-.5-.4-.9-1-1-1.6h-6.6c-.2 0-.4-.1-.5-.2-.1-.1-.2-.3-.2-.5s.1-.4.2-.5c.1-.1.3-.2.5-.2h6.5c.2-.7.5-1.2 1-1.6.5-.4 1.2-.6 1.8-.6.7 0 1.3.2 1.8.6.5.4.9 1 1 1.6h6.6c.2 0 .4.1.5.2.1.1.2.3.2.5.1.2 0 .3-.1.5zm.1-7c-.2.5-.6.9-1.1 1.2-.5.3-1 .5-1.6.5-.7 0-1.3-.2-1.8-.6-.5-.4-.9-1-1-1.7h-14c-.2 0-.4-.1-.5-.2-.1-.1-.2-.3-.2-.5s.1-.4.2-.5c.1-.1.3-.2.5-.2h14c.1-.5.4-1 .8-1.4.4-.4.9-.7 1.4-.8.5-.1 1.1-.1 1.6.1s1 .5 1.3 1c.3.4.6 1 .6 1.5.1.5 0 1.1-.2 1.6z"/><path fill="currentColor" d="M19.1 17.8c.9 0 1.6-.7 1.6-1.6s-.7-1.6-1.6-1.6c-.9 0-1.6.7-1.6 1.6s.8 1.6 1.6 1.6zM31.4 22.4c-.9 0-1.6.7-1.6 1.6s.7 1.6 1.6 1.6c.9 0 1.6-.7 1.6-1.6s-.8-1.6-1.6-1.6zM24.9 30.4c-.3-.2-.6-.3-.9-.3-.4 0-.8.2-1.1.5-.3.3-.5.7-.5 1.1 0 .3.1.6.3.9.2.3.4.5.7.6.3.1.6.1.9.1.3-.1.6-.2.8-.4.2-.2.4-.5.4-.8.1-.3 0-.6-.1-.9-.1-.4-.3-.6-.5-.8z"/></svg>