<svg xmlns="http://www.w3.org/2000/svg" width="44" height="44" viewBox="0 0 44 44" fill="none">
  <path fill-rule="evenodd" clip-rule="evenodd" d="M22.0064 7.33325C13.9158 7.33325 7.33337 13.9093 7.33337 21.9999C7.33337 30.0905 13.9158 36.6666 22 36.6666C30.0843 36.6666 36.6667 30.0842 36.6667 21.9999C36.6667 13.9157 30.0907 7.33325 22.0064 7.33325ZM22.0064 36.0978C14.2353 36.0978 7.90854 29.771 7.90854 21.9999C7.90854 14.2288 14.2289 7.90202 22.0064 7.90202C29.7839 7.90202 36.1043 14.2288 36.1043 21.9999C36.1043 29.771 29.7775 36.0978 22.0064 36.0978ZM11.1232 17.1182C11.1615 17.1374 11.1998 17.1438 11.2446 17.1438C11.3468 17.1438 11.4491 17.0863 11.4938 16.984C13.4174 12.9643 17.533 10.3696 21.9874 10.3696C22.1407 10.3696 22.2622 10.2482 22.2622 10.0948C22.2622 9.94145 22.1407 9.82003 21.9874 9.82003C17.3221 9.82003 13.0084 12.5361 10.9953 16.7476C10.9314 16.8881 10.989 17.0479 11.1232 17.1182ZM32.5703 21.7312C32.4936 22.236 33.2541 23.9104 33.7079 24.9073L33.7142 24.9009C33.7456 24.9705 33.7762 25.0383 33.806 25.1041C34.0246 25.588 34.1948 25.9645 34.2511 26.1727C34.3533 26.537 34.1999 26.6967 34.0977 26.7606C33.9379 26.8629 33.4714 27.1569 30.2761 24.4408C29.4453 25.2524 26.0646 28.2177 20.6644 28.2177H20.5366C19.5141 28.2049 18.5555 28.0771 17.6608 27.8726L18.728 28.844L21.8211 31.6495L22.8948 32.6209C22.9587 32.6784 22.9906 32.7551 22.9906 32.8382C22.9906 32.9149 22.9523 32.998 22.8884 33.0491C22.6328 33.2664 22.3644 33.4517 22.0896 33.6179C25.9751 33.5859 29.5667 31.6367 31.7076 28.3839C31.7906 28.2561 31.9632 28.2241 32.091 28.3072C32.2188 28.3903 32.2508 28.5628 32.1677 28.6906C29.9054 32.1224 26.1029 34.1739 21.9937 34.1739C21.655 34.1739 21.3163 34.1547 20.984 34.1291C20.3513 34.3464 19.693 34.455 19.0348 34.455C17.5969 34.455 16.159 33.9374 15.0278 32.9149C13.1426 31.2022 12.593 28.4989 13.5388 26.2174C11.302 24.8882 9.83219 23.2649 9.25063 22.5364C8.95666 22.1721 8.95666 21.6672 9.25702 21.303C10.3179 20.0184 14.2673 15.8198 20.5366 15.7686H20.6644C20.7124 15.7686 20.7587 15.7718 20.805 15.775C20.8514 15.7782 20.8977 15.7814 20.9456 15.7814L18.5044 13.9473C18.4341 13.9025 18.3893 13.8259 18.3893 13.7428C18.3829 13.6597 18.4149 13.5766 18.4724 13.5191C20.5558 11.391 23.9237 11.1354 26.3074 12.9248C27.9562 14.1646 28.8317 16.184 28.6464 18.2354C29.4516 18.785 30.0076 19.2835 30.2761 19.5519C33.465 16.8678 33.9443 17.1618 34.0977 17.2641C34.1999 17.3343 34.3533 17.4941 34.2511 17.8584C34.1744 18.1204 33.9635 18.5294 33.6887 19.0534C33.2413 19.9034 32.6853 20.9707 32.5703 21.7312ZM28.084 17.8776C28.1479 16.1329 27.3619 14.4394 25.9559 13.3849H25.9623C23.8981 11.832 21.0095 11.9853 19.1179 13.698L19.8336 14.2349C20.8498 13.4041 22.1471 13.0717 23.3933 13.2635H23.4252C23.4636 13.2635 23.5083 13.2763 23.5402 13.2954C24.2049 13.4168 24.8503 13.6789 25.4191 14.107C26.0007 14.548 26.4544 15.1104 26.7612 15.7495C26.7637 15.7546 26.7683 15.7597 26.7729 15.7648C26.7798 15.7725 26.7867 15.7801 26.7867 15.7878V15.807C27.0104 16.2927 27.151 16.8167 27.1957 17.3663C27.5153 17.5389 27.8092 17.705 28.084 17.8776ZM26.0965 15.7367C25.8409 15.2829 25.4958 14.8867 25.0676 14.5672H25.0612C24.6331 14.2476 24.1538 14.0367 23.6553 13.9089L23.5147 16.069C23.8598 16.1393 24.1857 16.2224 24.5052 16.3118L26.0965 15.7367ZM26.5822 17.0723C26.5375 16.7911 26.4608 16.5099 26.3522 16.2479L25.3936 16.593C25.8153 16.74 26.2116 16.8998 26.5822 17.0723ZM23.0865 13.8003C22.1087 13.698 21.1118 13.9728 20.2938 14.5927L21.9617 15.8453C22.3004 15.8709 22.6264 15.9156 22.9459 15.9667L23.0865 13.8003ZM13.7433 20.338C13.3918 20.338 13.1106 20.6256 13.1106 20.9707C13.1106 21.3221 13.3918 21.6033 13.7433 21.6033C14.0948 21.6033 14.376 21.3221 14.376 20.9707C14.376 20.6192 14.0948 20.338 13.7433 20.338ZM15.4752 30.1541C15.6925 30.6206 15.9928 31.0488 16.389 31.4131H16.3827C16.7789 31.771 17.239 32.0266 17.7247 32.1991L18.1657 29.4511L15.4752 30.1541ZM17.942 28.9271L15.5071 26.7159L15.5135 26.7223C15.0534 27.6426 14.9959 28.6779 15.2771 29.6237L17.942 28.9271ZM21.1565 31.8476L18.7217 29.6365L18.2871 32.3589C19.2585 32.5506 20.2874 32.3908 21.1565 31.8476ZM14.4143 25.7317C13.0914 27.911 13.4877 30.774 15.3985 32.5123V32.5059C17.3093 34.2442 20.1979 34.3592 22.2429 32.8318L21.5783 32.2311C20.8114 32.7487 19.9359 33.0171 19.054 33.0171C18.6769 33.0171 18.2935 32.966 17.9228 32.8702H17.9164H17.91C17.2198 32.6912 16.5616 32.3525 16.0056 31.8476C15.456 31.3556 15.0726 30.742 14.8233 30.0902C14.8205 30.0817 14.8152 30.0758 14.8101 30.0701C14.8037 30.0629 14.7978 30.0562 14.7978 30.0455V30.0135C14.3696 28.8248 14.4527 27.4892 15.079 26.3325L14.4143 25.7317ZM17.3604 25.6742C17.4819 25.6742 17.5969 25.6039 17.648 25.4889C18.6386 23.3352 18.6386 20.7598 17.648 18.5997C17.5777 18.4399 17.386 18.3696 17.2262 18.4399C17.0665 18.5102 16.9898 18.702 17.0665 18.8617C17.9803 20.8556 17.9803 23.233 17.0665 25.2205C16.9962 25.3802 17.0665 25.572 17.2262 25.6423C17.271 25.6678 17.3157 25.6742 17.3604 25.6742ZM20.2043 25.7829C20.3193 25.7829 20.428 25.719 20.4855 25.6103C21.6997 23.2713 21.6997 20.4722 20.4855 18.1332C20.4088 17.9798 20.2107 17.9159 20.0573 17.999C19.9039 18.0757 19.84 18.2674 19.9231 18.4272C21.0415 20.5872 21.0415 23.1627 19.9231 25.3163C19.84 25.4697 19.8975 25.6614 20.0573 25.7445C20.102 25.7701 20.1532 25.7829 20.2043 25.7829ZM23.2079 25.3355C23.3166 25.3355 23.4252 25.278 23.4827 25.1757V25.1821C24.7097 23.1115 24.7097 20.6447 23.4827 18.5741C23.3933 18.4272 23.2015 18.376 23.0482 18.4655C22.9012 18.555 22.8501 18.7467 22.9395 18.9001C24.0451 20.7662 24.0451 22.9901 22.9395 24.8562C22.8437 25.0032 22.8948 25.2013 23.0482 25.2908C23.0993 25.3227 23.1504 25.3355 23.2079 25.3355ZM26.218 24.6517C26.3202 24.6517 26.4288 24.6006 26.4864 24.5047C27.5217 22.8559 27.5217 20.8876 26.4864 19.2388C26.3905 19.0854 26.1924 19.0407 26.0454 19.1365C25.892 19.2324 25.8473 19.4305 25.9432 19.5775C26.8442 21.009 26.8442 22.7217 25.9432 24.1596C25.8537 24.3066 25.8984 24.5047 26.0454 24.6006C26.1029 24.6389 26.1604 24.6517 26.218 24.6517Z" fill="black"/>
</svg>