<svg xmlns="http://www.w3.org/2000/svg" xml:space="preserve" style="enable-background:new 0 0 48 48" viewBox="0 0 48 48"><path fill="currentColor" d="M39.9 26.8s-.1-.1-.2-.1h-.2c-1 .2-1.9.4-2.9.4 1.3-2.4 2.5-4.9 3.4-7.5v-.2c0-.1 0-.1-.1-.2 0 0-.1-.1-.2-.1h-.2c-.9.2-1.8.3-2.7.4 1.2-2.3 2.3-4.6 3.1-7v-.2c0-.1 0-.1-.1-.2 0-.1-.1-.1-.2-.1h-.2c-3 .7-9.2.7-15.9.7h-.1c-5.9 0-13.3-.6-14.8-.8h-.5c-.1 0-.1.1-.1.1s-.1.1-.1.2v.2c.7 2.4 1.8 4.7 3.2 6.9-1.2-.1-2.1-.2-2.5-.2h-.4c-.1 0-.1.1-.2.1 0 0-.1.1-.1.2v.2c.7 2.6 1.9 5.1 3.5 7.3-1.8-.1-3-.2-3.1-.3h-.2c-.1 0-.1.1-.2.1.1.1.1.2.1.3v.2c1.7 5.3 3.9 8 4.3 8.2 3.4.4 6.7.7 10.1.7h1.4c5.4 0 11.4-.4 12.1-.7 1-.4 3.5-6.6 4-8.1v-.2c.1-.2 0-.2 0-.3zM9 12.9c2 .2 9 .7 14.6.7h.2c6.2 0 12 0 15.3-.6-.8 2.2-1.8 4.4-3 6.4 0 .1-.1.1 0 .2-3.3.3-7.7.3-12.4.2h-.1c-3.9 0-8.4-.3-11.5-.5 0-.1 0-.2-.1-.2-1.3-1.9-2.3-4-3-6.2zm2.3 9.7v-.2s0-.1.1-.1l.1-.1h.2l.1.1s0 .1.1.1c.4 1 .9 2 1.7 2.8.1.1.1.2.1.2 0 .1 0 .2-.1.2-.1.1-.2.1-.2.1-.1 0-.2 0-.2-.1-.9-.8-1.5-1.8-1.9-3zm24.4 12c-4.4.5-8.8.7-13.2.6-4.7-.1-9.5-.5-9.8-.6-.3-.1-2.2-2.4-3.8-7.2.7.1 1.8.2 3.3.3l.1.1c3.4.4 6.7.7 10.1.7h1.3c3.8 0 8-.2 10.3-.4 1.6 0 3.3-.2 4.9-.5-.8 2.6-2.7 6.7-3.2 7z"/><path fill="currentColor" d="m34.1 33-.1-.1h-.2c-1.5.2-2.9.3-4.4.2h-.1s-.1 0-.1.1-.1.1-.1.1v.2s0 .1.1.1l.1.1H30.1c1.3 0 2.6-.1 3.8-.3h.2l.1-.1.1-.1V33c0-.1 0-.1-.1-.1 0 .2 0 .1-.1.1zM34.7 18.6c.1.1.2.1.3.1.1 0 .2-.1.2-.2.3-.4.5-.9.7-1.4l.6-1.4v-.3c0-.1-.1-.2-.2-.2H36c-.1 0-.2.1-.2.2l-.6 1.4c-.2.4-.4.9-.6 1.3-.1.1-.1.2-.1.3.1 0 .2.1.2.2z"/></svg>