<svg xmlns="http://www.w3.org/2000/svg" xml:space="preserve" viewBox="0 0 48 48"><path fill="currentColor" fill-rule="evenodd" d="M12.5 4.7h.3c.7 0 1.2.6 1.2 1.4v2.4c0 .8-.4 1.4-1 1.5v2.9c0 .6-.5 1.1-1.2 1.1H4.2c-.7 0-1.2-.5-1.2-1.1v-3c-.6 0-1-.6-1-1.4V6.1c0-.8.5-1.4 1.2-1.4h.3a1.9 1.9 0 0 1-.2-.7c0-1.1 1-2 2.1-2 1.3 0 2.1.8 2.6 1.6.5-.8 1.3-1.6 2.6-1.6a2 2 0 0 1 2 2v.7ZM11.3 4c0-.4-.3-.7-.7-.7-.9 0-1.4.8-1.7 1.4h1.7c.4 0 .7-.3.7-.7Zm-8 2.1V6h4v2.7h-4a.5.5 0 0 1 0-.2V6.1Zm9.4 2.4V6h-4v2.7h4v-.2Zm-8.4 4.2h3V10h-3v2.7Zm4.4 0h3V10h-3v2.7ZM4.7 4c0-.4.3-.7.7-.7.9 0 1.4.8 1.7 1.4H5.4a.7.7 0 0 1-.7-.7Z"/></svg>