<svg xmlns="http://www.w3.org/2000/svg" width="16" height="16" viewBox="0 0 16 16">
    <path fill="currentColor" fill-rule="evenodd"
        d="M12.54 4.67h.26c.67 0 1.2.64 1.2 1.46v2.4c0 .74-.43 1.33-1 1.45v2.9c0 .62-.54 1.12-1.2 1.12H4.2c-.66 0-1.2-.5-1.2-1.11V9.98c-.57-.12-1-.7-1-1.45v-2.4c0-.82.53-1.46 1.2-1.46h.26A1.9 1.9 0 0 1 3.33 4c0-1.1.94-2 2.1-2C6.7 2 7.5 2.8 8 3.6 8.49 2.8 9.29 2 10.57 2c1.16 0 2.1.9 2.1 2 0 .24-.05.46-.13.67ZM11.34 4c0-.37-.35-.67-.77-.67-.84 0-1.36.73-1.64 1.34h1.64c.42 0 .76-.3.76-.67Zm-8 2.13V6h3.98v2.67H3.35a.52.52 0 0 1-.02-.14v-2.4Zm9.33 2.4v-2.4L12.65 6H8.67v2.67h3.98l.02-.14Zm-8.34 4.14h3V10h-3v2.67Zm4.34 0h3V10h-3v2.67ZM4.67 4c0-.37.34-.67.76-.67.84 0 1.35.73 1.63 1.34H5.43c-.42 0-.76-.3-.76-.67Z"
        clip-rule="evenodd" />
</svg>