<svg width="48" height="48" viewBox="0 0 48 48" fill="none" xmlns="http://www.w3.org/2000/svg">
<path d="M19.7594 21.0514C19.7594 21.0514 19.8269 21.0514 19.8558 21.0322C19.9425 20.9743 20.087 20.8973 20.193 20.9936C20.2219 21.0129 20.2509 21.0225 20.2894 21.0225C20.3279 21.0225 20.3568 21.0032 20.3761 20.984C20.3954 20.9647 20.4147 20.9262 20.4147 20.8876C20.4147 20.8491 20.405 20.8202 20.3761 20.7913C20.2798 20.7142 20.1641 20.6756 20.0389 20.6853C19.9136 20.6949 19.798 20.7335 19.7113 20.8105C19.6824 20.8298 19.6631 20.8587 19.6534 20.8876C19.6534 20.9165 19.6534 20.9551 19.6727 20.984C19.692 21.0129 19.7209 21.0322 19.7594 21.0418V21.0514Z" fill="#2C282B"/>
<path d="M7.89809 23.653C8.05225 23.7108 8.21606 23.6434 8.28351 23.4892C8.35095 23.3351 8.27387 23.1713 8.1197 23.1038C7.96553 23.046 7.80173 23.1134 7.73428 23.2676C7.66683 23.4218 7.74392 23.5856 7.89809 23.653Z" fill="#2C282B"/>
<path d="M9.39157 25.8018C9.44939 25.8692 9.55538 25.8788 9.63246 25.821C10.3551 25.2043 10.7213 24.2793 10.6346 23.3351C10.6346 23.2387 10.5478 23.1713 10.4515 23.1809C10.3551 23.1809 10.2877 23.2676 10.2973 23.364C10.3744 24.2023 10.0468 25.0116 9.41084 25.5609C9.34339 25.6187 9.33376 25.7247 9.39157 25.8018Z" fill="#2C282B"/>
<path d="M10.4613 25.8017C10.3843 25.8596 10.3746 25.9656 10.4324 26.033C10.4902 26.1101 10.5962 26.1197 10.6637 26.0619C11.3574 25.532 11.685 24.7129 11.5501 23.8554C11.5405 23.759 11.4538 23.7012 11.3574 23.7108C11.2611 23.7205 11.2033 23.8072 11.2129 23.9036C11.3285 24.6359 11.0395 25.3392 10.4517 25.7921L10.4613 25.8017Z" fill="#2C282B"/>
<path d="M41.9116 24.0963C41.9116 24.0963 41.9116 24.0866 41.9019 24.077C41.8441 23.9999 41.7478 23.9806 41.6899 23.9614C41.6129 23.9517 41.5261 23.9421 41.4394 23.9421C41.2563 23.9421 41.0155 23.971 40.7457 23.9999C40.4662 24.0384 40.1386 24.0866 39.811 24.1444C40.0326 24.0095 40.2735 23.8746 40.4855 23.7397C40.7264 23.5856 40.948 23.441 41.1215 23.3158C41.2082 23.2483 41.2853 23.1809 41.3431 23.1231C41.4009 23.0653 41.4587 22.9978 41.478 22.9111C41.555 22.6413 41.4394 22.4582 41.3816 22.3811V22.3715C41.2756 22.2366 41.1214 22.1499 40.9384 22.1306C40.8613 22.1306 40.7746 22.1499 40.6975 22.1692C40.6108 22.1981 40.524 22.2366 40.4277 22.2944C40.235 22.3908 40.0037 22.5353 39.7628 22.6991C39.5316 22.8533 39.2907 23.0267 39.0595 23.1905C39.2329 22.9207 39.3967 22.6509 39.5412 22.4197C39.6761 22.2077 39.7917 22.0054 39.8592 21.8416C39.8977 21.7645 39.9267 21.6874 39.9363 21.6103C39.9459 21.5428 39.9459 21.4465 39.8881 21.3694C39.7917 21.2345 39.6279 21.1382 39.4545 21.1382C39.31 21.1382 39.1847 21.1863 39.0884 21.2538C39.0016 21.3116 38.9053 21.3887 38.8186 21.5043C38.7511 21.5814 38.674 21.6777 38.6162 21.7645C38.5102 21.9186 38.4235 22.0824 38.3368 22.227C38.2308 22.4293 38.1344 22.6317 38.0285 22.8436C37.9995 22.9111 37.9706 22.9689 37.9417 23.046C37.9128 23.1038 37.8839 23.1713 37.8454 23.2483C37.6527 23.2002 37.4792 23.1713 37.3058 23.1713L34.7235 14.692C35.1956 14.4126 35.5136 13.9019 35.5136 13.3141C35.5136 12.4277 34.7909 11.705 33.8948 11.705C33.2685 11.705 32.7289 12.0615 32.4591 12.5818H25.6179C25.4156 11.7243 24.7122 11.0594 23.8353 10.9052C23.7004 10.8763 23.5655 10.8667 23.421 10.8667C22.3515 10.8667 21.465 11.599 21.2337 12.5915H14.2287C13.9686 12.1193 13.4772 11.8013 12.899 11.8013C12.5521 11.8013 12.2245 11.9266 11.974 12.129C11.4922 12.418 11.155 12.9383 11.155 13.5454C11.155 14.1524 11.4537 14.6342 11.9066 14.9233L9.68077 22.2173C8.16799 22.0535 6.92501 22.6124 6.49141 22.8436H6.4625C6.28907 22.94 6.21198 23.1327 6.26979 23.3254C6.32761 23.5085 6.53959 24.1348 7.00209 24.8189C7.30079 25.2622 7.71512 25.7247 8.24507 26.1197H6.28907C6.12526 26.1197 6 26.245 6 26.4088C6 30.3497 9.20863 33.5583 13.1881 33.5583C17.1676 33.5583 20.3858 30.3593 20.3858 26.4088C20.3858 26.245 20.2606 26.1197 20.0968 26.1197H17.6493C17.7361 25.8981 17.842 25.6861 17.9577 25.4741C18.1118 25.1851 18.2949 24.9153 18.5069 24.6648C18.5936 24.5684 18.69 24.4913 18.796 24.4046C18.9887 24.2504 19.1814 24.0963 19.2585 23.865C19.297 23.7494 19.297 23.6241 19.2585 23.5085L20.2798 22.6124C20.5496 22.6991 21.4168 22.9111 21.7541 22.3137C21.8215 22.1884 21.8601 22.0439 21.8504 21.8994C21.8504 21.7741 21.8119 21.6392 21.7444 21.5332C21.6577 21.3887 21.5325 21.2731 21.3783 21.1863C21.2241 21.0996 21.0603 21.0611 20.8965 21.0514C20.9061 20.9069 20.8869 20.7624 20.8387 20.6178C20.7905 20.4733 20.7038 20.3577 20.6074 20.2517C20.4822 20.1746 20.3473 20.1264 20.2027 20.1168C20.0582 20.1072 19.9137 20.1361 19.7788 20.1939C19.6439 20.2421 19.5283 20.3095 19.4319 20.4059C19.3356 20.5022 19.2488 20.6178 19.2007 20.7431C19.1525 20.9165 19.1428 21.09 19.1717 21.2634C19.2007 21.4369 19.2681 21.6007 19.3741 21.7452L18.478 22.5642C18.3624 22.516 18.2467 22.4871 18.1215 22.4968C17.9962 22.4968 17.8806 22.5353 17.7746 22.5931C17.5626 22.728 17.3506 22.8629 17.1483 23.0171C16.9267 23.1423 16.6954 23.258 16.4642 23.3543L13.8529 14.798C13.9686 14.7016 14.0649 14.6053 14.1516 14.48H21.6384C21.8119 14.7016 22.0239 14.8847 22.2647 15.0196V33.8956H19.085C18.4876 33.8956 18.0059 34.3388 18.0059 34.888V35.4662H17.6108C17.4566 35.4662 17.341 35.5625 17.2736 35.6492C17.2061 35.7456 17.1772 35.8612 17.1772 35.9865V36.6128C17.1772 36.7284 17.2061 36.8537 17.2736 36.95C17.341 37.0464 17.447 37.1331 17.6108 37.1331H29.2698C29.4239 37.1331 29.5396 37.0368 29.607 36.95C29.6745 36.8537 29.7034 36.7381 29.7034 36.6128V35.9865C29.7034 35.8709 29.6745 35.7456 29.607 35.6492C29.5396 35.5529 29.4336 35.4662 29.2698 35.4662H28.8458V34.888C28.8458 34.3388 28.364 33.8956 27.7666 33.8956H24.2593V15.1834C24.6158 15.0389 24.9242 14.798 25.1554 14.4993H32.7771L32.7482 14.5956L31.1102 19.9626C31.0331 19.9626 30.9656 19.953 30.8885 19.9626C30.5609 20.0204 30.3297 20.1361 30.1562 20.348C29.9924 20.5504 29.8864 20.8298 29.7805 21.1574C29.7226 21.3501 29.6841 21.5814 29.6552 21.7837C29.6166 21.9957 29.5685 22.1981 29.4914 22.3619C29.4528 22.4293 29.4047 22.4968 29.3372 22.5642C29.2601 22.6413 29.183 22.7087 29.0963 22.7955C28.9325 22.9496 28.7398 23.152 28.682 23.4121C28.6242 23.6627 28.7205 23.9132 28.7976 24.1155C28.8843 24.3371 28.9711 24.5202 28.9903 24.6937C29.0096 24.8671 28.9614 25.0502 28.9229 25.2718C28.894 25.4645 28.8554 25.7247 28.9807 25.927C29.0192 25.9848 29.0674 26.0137 29.1156 26.0523H26.3791C26.2153 26.0523 26.0804 26.1872 26.0804 26.351C26.0804 30.475 29.4432 33.8185 33.5961 33.8185C37.749 33.8185 41.1118 30.4846 41.1118 26.351C41.1118 26.1872 40.9769 26.0523 40.8131 26.0523H39.3871C39.4352 25.8885 39.4545 25.715 39.4738 25.532C39.4738 25.4741 39.4641 25.426 39.4641 25.3681C39.5894 25.3681 39.7243 25.3489 39.8496 25.3296C39.8496 25.3296 39.8496 25.3296 39.8592 25.3296C40.0905 25.3103 40.3217 25.2718 40.5433 25.2429C40.6397 25.2236 40.7264 25.214 40.8131 25.1947C40.8998 25.1754 40.9866 25.1658 41.0829 25.1465C41.1985 25.1176 41.3045 25.0887 41.4105 25.0502L41.3623 24.8864L41.4202 25.0405C41.5358 24.9924 41.6514 24.9442 41.7574 24.8575C41.8537 24.7707 41.9308 24.6744 41.979 24.5588V24.5491C42.0272 24.3757 41.9886 24.2215 41.9019 24.077L41.9116 24.0963ZM19.615 21.8801C19.615 21.8801 19.6535 21.8319 19.6535 21.803C19.6535 21.7741 19.6535 21.7356 19.6343 21.7163C19.5379 21.6007 19.4608 21.4561 19.4319 21.3116C19.3934 21.1574 19.3934 21.0033 19.4319 20.8587C19.4704 20.772 19.5379 20.6853 19.6053 20.6178C19.6728 20.5504 19.7692 20.5022 19.8655 20.4733C19.9522 20.4348 20.0582 20.4155 20.1546 20.4155C20.2509 20.4155 20.3473 20.4444 20.434 20.5022C20.5111 20.5986 20.5689 20.7142 20.6074 20.8298C20.6363 20.9551 20.646 21.0803 20.6267 21.2056C20.6267 21.2249 20.6267 21.2441 20.6267 21.2634C20.6267 21.2827 20.646 21.302 20.6556 21.3116C20.6653 21.3212 20.6845 21.3405 20.7038 21.3405C20.7231 21.3405 20.7423 21.3501 20.7616 21.3501C20.9061 21.3405 21.0507 21.3598 21.1856 21.4176C21.3205 21.4754 21.4361 21.5718 21.5228 21.6874C21.571 21.7645 21.5999 21.8512 21.5999 21.9475C21.5999 22.0439 21.5806 22.1306 21.5421 22.2077C21.2819 22.6606 20.4725 22.41 20.3473 22.3619C20.3376 22.3619 20.328 22.3619 20.328 22.3619C20.3087 22.3619 20.2798 22.3522 20.2509 22.3619C20.222 22.3715 20.2027 22.3811 20.1835 22.3908L19.1814 23.2676C19.0947 23.1134 18.9887 22.9689 18.8634 22.8533C18.8152 22.8051 18.7671 22.7666 18.7189 22.728L19.615 21.8994V21.8801ZM29.2312 36.0154V36.6417C29.2312 36.6417 29.2312 36.6802 29.2312 36.6995H17.6686C17.6686 36.6995 17.6686 36.6706 17.6686 36.6417V36.0154C17.6686 36.0154 17.6686 35.9769 17.6686 35.9576H29.2312C29.2312 35.9576 29.2312 35.9865 29.2312 36.0154ZM39.9266 22.9785C40.1675 22.8244 40.3795 22.6895 40.5626 22.5931C40.6493 22.5449 40.7264 22.516 40.7938 22.4871C40.8228 22.4775 40.8517 22.4679 40.8709 22.4679H40.8902C40.9769 22.4679 41.0444 22.516 41.1022 22.5835C41.1215 22.6124 41.1407 22.6413 41.1504 22.6702C41.16 22.6991 41.1696 22.7473 41.1504 22.8244C41.1504 22.8244 41.1504 22.8436 41.0925 22.8918C41.054 22.94 40.9866 22.9882 40.9095 23.046C40.7553 23.1713 40.5433 23.3062 40.3024 23.4507C40.0615 23.5952 39.8014 23.7494 39.5509 23.8939C39.3678 23.9999 39.1943 24.1059 39.0402 24.2023C38.9631 24.0866 38.8956 23.971 38.7993 23.865L38.7511 23.8072C39.098 23.5374 39.5316 23.2291 39.9266 22.9593V22.9785ZM38.3079 22.9978C38.4139 22.7955 38.5102 22.5931 38.6162 22.4004C38.7126 22.2366 38.78 22.1017 38.8764 21.9668C38.9246 21.8897 38.992 21.803 39.0595 21.7356C39.1269 21.6488 39.1943 21.591 39.2618 21.5428C39.3196 21.5043 39.3774 21.485 39.4449 21.485C39.493 21.485 39.5509 21.5236 39.5894 21.5718C39.5894 21.6007 39.5701 21.6488 39.5316 21.7259C39.4738 21.8608 39.3678 22.0439 39.2329 22.2655C39.0016 22.6413 38.6933 23.1134 38.4235 23.5759C38.3272 23.5085 38.2308 23.4507 38.1152 23.4025C38.1441 23.3351 38.173 23.2772 38.2019 23.2194C38.2308 23.152 38.2693 23.0942 38.2982 23.0267L38.3079 22.9978ZM22.997 33.9149V15.3087C23.1223 15.3279 23.2572 15.3472 23.3921 15.3472C23.4306 15.3472 23.4788 15.3376 23.5174 15.3376V33.9149H22.997ZM23.4017 14.9233C23.2765 14.9233 23.1512 14.904 23.0356 14.8847C22.1973 14.7113 21.571 13.979 21.571 13.1021C21.571 12.1 22.39 11.2907 23.4017 11.2907C24.4135 11.2907 25.2325 12.1097 25.2325 13.1021C25.2325 14.0946 24.4135 14.9136 23.4017 14.9136V14.9233ZM11.5308 13.5357C11.5308 12.842 12.0993 12.2831 12.793 12.2831C13.4868 12.2831 14.0553 12.842 14.0553 13.5357C14.0553 13.979 13.8048 14.3548 13.4579 14.5764C13.2748 14.6631 13.0821 14.7113 12.8701 14.7113C12.3113 14.7113 11.8295 14.3837 11.6079 13.9212C11.5693 13.7959 11.5308 13.6706 11.5308 13.5357ZM13.1881 32.9802C9.62295 32.9802 6.74193 30.1859 6.58777 26.6979H8.64977L8.70758 26.7268V26.6979H17.0519V26.7268L17.1097 26.6979H19.8077C19.6535 30.1955 16.7629 32.9802 13.1977 32.9802H13.1881ZM10.8081 22.8244C11.7813 23.2098 12.4173 23.8168 12.8219 24.3371C13.0243 24.5973 13.1592 24.8286 13.2459 25.002C13.2941 25.0887 13.323 25.1562 13.3423 25.2043C13.3519 25.2236 13.3615 25.2429 13.3615 25.2525V25.2622C13.3904 25.3489 13.4868 25.3874 13.5735 25.3681C13.5735 25.3681 13.5735 25.3681 13.5928 25.3681C13.6024 25.3681 13.6217 25.3585 13.6506 25.3489C13.6988 25.3296 13.7662 25.3103 13.8433 25.2911C14.0071 25.2429 14.2191 25.1851 14.4214 25.1273C14.5274 25.0984 14.6238 25.0791 14.7105 25.0694C14.672 25.108 14.6238 25.1465 14.5756 25.1851C14.5274 25.2333 14.4696 25.2718 14.4118 25.32C14.1998 25.5127 13.9397 25.7439 13.8144 25.9656C13.8144 25.9656 13.8144 25.9848 13.8144 25.9945C13.7951 26.033 13.7855 26.0812 13.7662 26.1197H11.868C12.3402 25.7054 12.5618 25.108 12.4558 24.472C12.4365 24.3853 12.3498 24.3179 12.2631 24.3371C12.1764 24.3564 12.1089 24.4431 12.1282 24.5299C12.2342 25.0984 12.0126 25.6283 11.5501 25.9656C11.5019 26.0041 11.4826 26.0619 11.4922 26.1101H8.90993L9.9891 22.5835C10.2589 22.6317 10.5383 22.7087 10.8274 22.8147L10.8081 22.8244ZM13.5253 25.214C13.5253 25.214 13.5542 25.2911 13.5639 25.32L13.5253 25.214ZM15.6548 23.6434C15.1634 23.7879 14.6623 23.9036 14.1613 23.9999C13.824 24.0481 13.4868 24.1444 13.1688 24.2601C13.1399 24.2215 13.1206 24.183 13.0917 24.1444C12.6678 23.5856 11.974 22.9304 10.9334 22.5257C10.6347 22.41 10.3553 22.333 10.0662 22.2848L12.2534 15.116C12.4269 15.1738 12.61 15.2123 12.793 15.2123C13.0436 15.2123 13.2748 15.1545 13.4868 15.0581L16.0691 23.5181C15.9342 23.5663 15.7897 23.6241 15.6548 23.653V23.6434ZM14.3829 13.9982C14.4214 13.8537 14.4503 13.6995 14.4503 13.5454C14.4503 13.3912 14.4214 13.237 14.3829 13.1021L21.1376 13.1021C21.1376 13.1021 21.1374 13.1118 21.1374 13.1214C21.1374 13.4394 21.2048 13.7381 21.3205 14.0079H14.3829V13.9982ZM13.1592 11.9266C13.2555 11.9459 13.3423 11.9748 13.429 12.0133C13.3423 11.9748 13.2555 11.9555 13.1592 11.9266ZM33.1336 14.7402C33.3552 14.8462 33.5961 14.9233 33.8563 14.9233C34.0104 14.9233 34.1646 14.8943 34.3091 14.8558L36.8626 23.2387C36.6506 23.3061 36.4579 23.4218 36.2555 23.6049C35.8026 24.0192 35.3787 24.4913 34.974 24.9442C34.8776 25.0502 34.7813 25.1562 34.6849 25.2622C34.5211 25.4452 34.261 25.7343 33.9623 26.0812H33.3552C33.3552 26.0812 33.3841 25.9945 33.3938 25.9559C33.4516 25.8017 33.4901 25.6861 33.5094 25.6476C33.5383 25.5994 33.5768 25.5512 33.6443 25.4838C33.7117 25.4163 33.7792 25.3681 33.8563 25.2911C34.0008 25.1562 34.1935 24.9827 34.2321 24.7418C34.2513 24.6262 34.2321 24.5106 34.2032 24.4142C34.1742 24.3179 34.1261 24.2215 34.0779 24.1252C33.9815 23.9325 33.9045 23.7783 33.8852 23.6241C33.8852 23.547 33.8852 23.4603 33.8852 23.364C33.8852 23.3158 33.8948 23.2676 33.9044 23.2098C33.9044 23.1616 33.9237 23.1038 33.9237 23.0556C33.9526 22.8436 33.9623 22.5931 33.8177 22.3715C33.6828 22.1499 33.4323 22.0439 33.2396 21.9668C33.1336 21.9283 33.0373 21.8897 32.9505 21.8512C32.8638 21.8126 32.7964 21.7741 32.7482 21.7259C32.488 21.4754 32.2857 21.09 32.1508 20.772L31.9966 20.8395L32.1508 20.7624C32.0255 20.5119 31.881 20.2806 31.669 20.1361C31.6208 20.0975 31.5534 20.0879 31.4956 20.059L33.1047 14.7691L33.1336 14.7402ZM33.8659 12.0133C34.5982 12.0133 35.186 12.6011 35.186 13.3141C35.186 14.0271 34.5982 14.6149 33.8659 14.6149C33.1336 14.6149 32.5458 14.0271 32.5458 13.3141C32.5458 12.6011 33.1336 12.0133 33.8659 12.0133ZM31.4859 20.4059C31.6208 20.5022 31.7365 20.6757 31.8521 20.9069C31.9966 21.2249 32.2086 21.6681 32.5266 21.9668C32.6133 22.0535 32.7193 22.1113 32.8253 22.1595C32.9216 22.2077 33.0373 22.2462 33.1336 22.2848C33.336 22.3619 33.4709 22.439 33.5479 22.5449C33.6154 22.6509 33.625 22.7955 33.5961 22.9978C33.5961 23.046 33.5865 23.0942 33.5768 23.152C33.5768 23.2002 33.5576 23.258 33.5576 23.3158C33.5479 23.4218 33.5383 23.5374 33.5576 23.653C33.5865 23.8843 33.7021 24.1059 33.7888 24.2697C33.837 24.3564 33.8659 24.4335 33.8948 24.501C33.9141 24.5684 33.9237 24.6166 33.9141 24.6648C33.8948 24.7804 33.7985 24.8864 33.6443 25.0213C33.5768 25.0791 33.4901 25.1562 33.4227 25.2236C33.3456 25.2911 33.2781 25.3778 33.2203 25.4741L33.3745 25.5609L33.2203 25.4838C33.1818 25.5512 33.1336 25.6958 33.0854 25.8403C33.0565 25.9174 33.0276 26.0041 33.0083 26.0812H32.1122L32.0448 25.7343L32.8734 24.896C32.9409 24.8286 32.9409 24.7129 32.8734 24.6455C32.806 24.578 32.6904 24.578 32.6229 24.6455L31.9677 25.3103L31.7654 24.2023L32.6133 23.3351C32.6807 23.2676 32.6807 23.152 32.6133 23.0845C32.5458 23.0171 32.4302 23.0171 32.3628 23.0845L31.6883 23.7783L31.4185 22.3426C31.3992 22.2462 31.3125 22.1884 31.2161 22.1981C31.1198 22.2173 31.062 22.3041 31.0716 22.4004L31.351 23.9228L30.4164 23.6916L31.4281 20.377C31.4281 20.377 31.4763 20.3962 31.4956 20.4059H31.4859ZM37.6334 25.7439L37.2191 25.2236C37.142 25.1273 36.9975 25.108 36.8915 25.1851C36.7951 25.2622 36.7758 25.4067 36.8529 25.5127L37.2962 26.0619H34.5886C34.7716 25.8499 34.9258 25.6765 35.0414 25.5512C35.1378 25.4452 35.2342 25.3392 35.3305 25.2236C35.7352 24.7707 36.1399 24.3275 36.5735 23.9228C36.7469 23.7687 36.8722 23.6916 36.9974 23.653L37.6334 25.7343V25.7439ZM33.5961 33.2307C29.8672 33.2307 26.8416 30.3112 26.6778 26.6593H40.5048C40.3506 30.3112 37.3154 33.2307 33.5865 33.2307H33.5961ZM31.4089 24.2986L31.6208 25.4452L30.6669 25.0887C30.5802 25.0598 30.4742 25.0984 30.4453 25.1947C30.4068 25.2814 30.4549 25.3874 30.5513 25.4163L31.7076 25.8403L31.7461 26.0619H29.9443C29.9443 26.0619 29.8672 26.0426 29.8286 26.0234C29.7901 26.0137 29.7515 26.0041 29.713 25.9848L30.3104 24.0192L31.4185 24.289L31.4089 24.2986ZM32.2664 13.0925C32.2568 13.1696 32.2471 13.237 32.2471 13.3141C32.2471 13.555 32.305 13.7863 32.4013 13.9982H25.4637C25.5794 13.7284 25.6468 13.4297 25.6468 13.1118C25.6468 13.1118 25.6468 13.1021 25.6468 13.0925H32.2664ZM6.54926 22.9882L6.62631 23.1327C7.031 22.9111 8.16799 22.4004 9.55551 22.5353L8.5245 25.9077C7.99455 25.532 7.58022 25.0694 7.28152 24.6262C6.83829 23.971 6.63594 23.3736 6.58777 23.2194C6.58777 23.2194 6.58777 23.152 6.62631 23.1327L6.55886 23.0171L6.53959 22.9882L6.54926 22.9882ZM29.1156 23.9999C29.0289 23.7879 28.9903 23.6338 29.0192 23.4989C29.0578 23.3447 29.1734 23.2098 29.3372 23.0556C29.4143 22.9785 29.501 22.9015 29.5877 22.8147C29.6648 22.728 29.7515 22.6413 29.7997 22.5257C29.9057 22.3041 29.9635 22.0632 30.0021 21.8416C30.0406 21.6103 30.0695 21.4272 30.1177 21.2634C30.2333 20.9262 30.32 20.7142 30.4357 20.5697C30.5417 20.4348 30.6863 20.348 30.9561 20.3095C30.9561 20.3095 30.9945 20.3095 31.0138 20.3095L29.3372 25.8114C29.3372 25.8114 29.289 25.7728 29.2698 25.7536C29.2216 25.6765 29.2216 25.5512 29.2601 25.3392C29.289 25.1562 29.3565 24.9056 29.3276 24.6648C29.2987 24.4239 29.1927 24.183 29.1156 23.9903V23.9999ZM38.1537 26.0715L37.4118 23.6434C37.4985 23.653 37.5852 23.6723 37.6912 23.7012C37.9417 23.7687 38.1633 23.9036 38.3368 24.077L38.4428 24.1926C38.568 24.3371 38.6837 24.4817 38.7704 24.6455L38.8475 24.7804C38.9631 25.0116 39.0209 25.2429 39.0113 25.503C38.992 25.7247 38.9727 25.8788 38.9246 25.9945C38.9246 26.0234 38.9246 26.0426 38.9246 26.0715H38.1441H38.1537ZM41.3142 24.7418C41.2082 24.7707 41.1214 24.8093 41.0251 24.8286C40.9384 24.8478 40.8517 24.8575 40.7553 24.8767C40.6686 24.896 40.5819 24.9056 40.4951 24.9249C40.2639 24.9538 40.0423 24.9924 39.8207 25.0116H39.811C39.6954 25.0309 39.5701 25.0405 39.4449 25.0502C39.4063 24.8864 39.3485 24.7226 39.2811 24.578C39.811 24.4913 40.341 24.395 40.7842 24.3371C41.0444 24.2986 41.2756 24.2793 41.4394 24.2793C41.5261 24.2793 41.584 24.2793 41.6225 24.289C41.6321 24.289 41.6321 24.289 41.6418 24.289C41.6707 24.3564 41.6803 24.4046 41.6707 24.4528C41.6514 24.5106 41.6129 24.5588 41.555 24.6166C41.4972 24.6648 41.4298 24.7033 41.3238 24.7418H41.3142Z" fill="#2C282B"/>
<path d="M41.4201 25.0598H41.4298L41.3719 24.9057L41.4201 25.0598Z" fill="#2C282B"/>
<path d="M23.6619 14.3548V14.4126H23.6715C23.6715 14.4126 23.6908 14.4126 23.7101 14.4126C23.739 14.4126 23.7872 14.3933 23.845 14.3837C23.951 14.3548 24.0955 14.3066 24.24 14.2199C24.5387 14.0368 24.8374 13.7092 24.8374 13.1214C24.8374 12.8324 24.77 12.6107 24.6447 12.4373C24.5291 12.2639 24.3749 12.1579 24.2208 12.0904C24.0762 12.023 23.9221 11.9941 23.8161 11.9748C23.7583 11.9748 23.7197 11.9652 23.6812 11.9652C23.6619 11.9652 23.6523 11.9652 23.6426 11.9652H23.633C23.5463 11.9652 23.4885 12.0422 23.4885 12.1193C23.4885 12.1964 23.5656 12.2639 23.6426 12.2639C23.6426 12.2639 23.6619 12.2639 23.6715 12.2639C23.7005 12.2639 23.7294 12.2639 23.7775 12.2639C23.8643 12.2735 23.9799 12.3024 24.0955 12.3506C24.2111 12.3988 24.3171 12.4758 24.3942 12.5915C24.4713 12.7071 24.5291 12.8709 24.5291 13.1022C24.5291 13.5647 24.3075 13.8055 24.0762 13.9404C23.9606 14.0079 23.845 14.0464 23.7583 14.0753C23.7101 14.085 23.6812 14.0946 23.6523 14.0946C23.6426 14.0946 23.633 14.0946 23.6234 14.0946C23.5366 14.0946 23.4788 14.1813 23.4885 14.2584C23.4885 14.3451 23.5752 14.4029 23.6523 14.3933C23.6523 14.3933 23.6523 14.3933 23.6523 14.3355L23.6619 14.3548Z" fill="#2C282B"/>
<path d="M38.7897 29.3187C38.6837 29.2416 38.5295 29.2802 38.4621 29.3861C38.3079 29.6174 38.0381 29.9932 37.7394 30.3497C37.4407 30.7158 37.1227 31.0531 36.8626 31.2169C36.7566 31.294 36.7277 31.4385 36.7951 31.5445C36.8626 31.6505 37.0167 31.6794 37.1227 31.612C37.4407 31.4 37.7972 31.0242 38.0959 30.6484C38.4043 30.2726 38.6837 29.8872 38.8475 29.6463C38.9246 29.5403 38.886 29.3861 38.78 29.3187H38.7897Z" fill="#2C282B"/>
<path d="M17.0903 29.3862C16.9362 29.6174 16.6664 29.9932 16.3677 30.3497C16.069 30.7159 15.751 31.0531 15.4908 31.2169C15.3848 31.294 15.3559 31.4385 15.4234 31.5445C15.4908 31.6505 15.645 31.6794 15.751 31.612C16.069 31.4 16.4255 31.0242 16.7242 30.6484C17.0325 30.2726 17.3119 29.8872 17.4757 29.6463C17.5528 29.5403 17.5143 29.3862 17.4083 29.3187C17.3023 29.2513 17.1481 29.2802 17.0807 29.3862H17.0903Z" fill="#2C282B"/>
</svg>
