<svg xmlns="http://www.w3.org/2000/svg" xml:space="preserve" style="enable-background:new 0 0 48 48" viewBox="0 0 48 48"><path fill="currentColor" d="M34.9 20.3c0-.1 0-.1-.1-.2 0 0-.1-.1-.2-.1-.2 0-.4-.1-.7-.1.8-1.4 1.2-3 .9-4.5 0-.1 0-.1-.1-.2 0 0-.1-.1-.2-.1-.9-.1-1.9-.1-2.8.2-.9.2-1.8.7-2.5 1.3.3-.8.4-1.5.4-2.3 0-1.1-.2-2.2-.6-3.3-.4-1-1.1-1.9-1.9-2.7-.2-.2-.4-.3-.6-.3-.2 0-.4.1-.5.2-.8.7-1.5 1.7-1.9 2.7-.4 1-.6 2.1-.6 3.3 0 .8.2 1.6.4 2.3-.8-.6-1.6-1-2.5-1.3-.9-.2-1.9-.3-2.8-.2-.1 0-.1.1-.2.1 0 0-.1.1-.1.2-.2 1.6.1 3.2.9 4.5-.2 0-.4 0-.7.1-.1 0-.1.1-.2.1 0 0-.1.1-.1.2-.1 1-.1 1.9.2 2.9h-.3c-.8 0-1.6.2-2.3.6-.7.4-1.3.9-1.8 1.6-.5.7-.8 1.4-.9 2.2-.1.8 0 1.6.3 2.4.3.8.7 1.4 1.3 2 .6.6 1.3 1 2.1 1.2.8.2 1.6.2 2.4.1.8-.2 1.5-.5 2.2-1h.1c1.1.7 2.4 1.2 3.7 1.3.4.1.4.5.4.7 0 3.2-.2 4.7-.2 4.7 0 .3.1.6.3.8.2.2.5.4.8.4h.2c.2 0 .3 0 .5-.1s.3-.2.4-.3c.1-.1.2-.3.3-.4.1-.2.1-.3.1-.5 0 0 0-1.2-.1-4.7 0-.3 0-.6.5-.7 1.7-.1 3.2-.8 4.4-1.9.8-.8 1.5-1.7 1.9-2.8.4-1.1.6-2.2.5-3.3 0-.2-.1-.3-.2-.4-.1-.1-.3-.2-.4-.2H34c.8-1.4 1.1-3 .9-4.5zm-3.9-4c.9-.4 1.8-.6 2.7-.6h.6c.1 1.5-.3 3-1.1 4.2-1.9.2-3.6 1-4.9 2.4-.5.5-.9 1.2-1.2 1.9H27c0-1.2.1-4.6 1.8-6.3.5-.6 1.3-1.2 2.2-1.6zM20.5 26.7c-.1.1-.1.2-.2.2L19 28.2l1.2 1.2c.1.1.2.3.2.5s-.1.4-.2.5c-.1.1-.3.2-.5.2s-.4-.1-.5-.2L18 29.2l-1.2 1.2c-.1.1-.3.2-.5.2s-.3-.1-.5-.2c-.1-.1-.2-.3-.2-.5s0-.3.2-.5l1.2-1.2-1.1-1.2c-.1-.1-.2-.3-.2-.5s.1-.3.2-.5c.1-.1.3-.2.5-.2s.3 0 .5.2l1.2 1.2 1.2-1.2c.1-.1.1-.2.2-.2.1-.1.2-.1.3-.1h.3c.1 0 .2.1.3.2s.1.2.2.3v.3c0 .1-.1.2-.1.2zm5.7 6h-1.6l-.4-.1-.3-.1-.4-.1-.3-.1-.5-.3-.3-.1c-.2-.1-.3-.2-.5-.3l-.1-.1c.6-.7 1-1.5 1.2-2.4.2-.9.1-1.8-.2-2.7.2.1.3.2.5.3l.3.2c.3.2.6.4.8.7.2.2.4.4.5.6.1.1.1.2.2.2.1.1.2.3.3.5.1.2.1.2.1.3 0 .1.1.3.2.4.1.1.1.2.1.3 0 .1.1.3.1.4 0 .1 0 .2.1.3 0 .1.1.2.1.4V32.4c.1.1.1.2.1.3zm-1.3-5.6c-.7-.8-1.6-1.4-2.6-1.8-.7-1.1-1.8-1.8-3.1-2.1-.3-.8-.4-1.7-.3-2.6 1-.1 2.1.1 3 .5 1 .4 1.8 1 2.5 1.7 1.6 1.6 1.8 4.9 1.8 6.2-.3-.7-.8-1.3-1.3-1.9zm1.2-2.8c-.3-.7-.7-1.3-1.2-1.9-1.3-1.4-3.1-2.2-4.9-2.4-.8-1.2-1.2-2.7-1.1-4.2 1-.1 2.1.1 3 .5 1 .4 1.8 1 2.5 1.7 1.7 1.7 1.8 5 1.7 6.3zm.3-4.9c-.7-.8-2.2-3-2.2-5.3 0-1 .2-2 .5-2.9.4-.9 1-1.8 1.8-2.4h.2c.8.7 1.4 1.5 1.7 2.4.4.9.6 1.9.5 3 0 2.3-1.5 4.5-2.2 5.3-.1.1-.2.1-.3-.1zm7.7 6.1c.1 0 .1 0 0 0 .1.1.1.2.1.2v1.6c0 .1-.1.2-.1.4 0 .1 0 .2-.1.3 0 .1-.1.3-.2.4-.1.1-.1.2-.1.3 0 .1-.2.3-.2.4-.1.1-.1.2-.2.3-.1.1-.2.3-.4.5-.1.2-.1.2-.2.3-.2.3-.4.5-.7.8-.2.2-.4.4-.7.5l-.2.1c-.2.1-.3.2-.5.3l-.2.1-.4.2-.3.1-.4.1-.3.1-.4.1H27V31c0-.1 0-.2.1-.4 0-.1 0-.2.1-.3 0-.1.1-.3.1-.4 0-.1.1-.2.1-.3 0-.1.1-.3.2-.4.1-.1.1-.2.1-.3 0-.1.2-.3.3-.5.1-.2.1-.2.2-.2.2-.2.3-.4.5-.6.3-.2.5-.5.8-.7l.3-.2c.2-.1.3-.2.5-.3.2-.1.2-.1.3-.2.1-.1.3-.2.4-.2l.3-.1.4-.2.3-.1.4-.1H34.1zm-.9-.8c-1.9.2-3.7 1-5 2.4-.5.6-1 1.2-1.3 1.9 0-1.3.2-4.5 1.8-6.2.6-.7 1.4-1.2 2.3-1.6.9-.4 1.8-.6 2.7-.6h.6c.1 1.5-.3 2.9-1.1 4.1zM26.2 32.7z"/></svg>