<svg fill="none" height="39" viewBox="0 0 109 39" width="109" xmlns="http://www.w3.org/2000/svg" xmlns:xlink="http://www.w3.org/1999/xlink"><filter id="a" color-interpolation-filters="sRGB" filterUnits="userSpaceOnUse" height="16.0831" width="14.1587" x="9.97156" y="11.5037"><feFlood flood-opacity="0" result="BackgroundImageFix"/><feBlend in="SourceGraphic" in2="BackgroundImageFix" mode="normal" result="shape"/><feColorMatrix in="SourceAlpha" result="hardAlpha" type="matrix" values="0 0 0 0 0 0 0 0 0 0 0 0 0 0 0 0 0 0 127 0"/><feOffset dy="-.15"/><feComposite in2="hardAlpha" k2="-1" k3="1" operator="arithmetic"/><feColorMatrix type="matrix" values="0 0 0 0 0 0 0 0 0 0 0 0 0 0 0 0 0 0 0.12 0"/><feBlend in2="shape" mode="normal" result="effect1_innerShadow_7416_30382"/><feColorMatrix in="SourceAlpha" result="hardAlpha" type="matrix" values="0 0 0 0 0 0 0 0 0 0 0 0 0 0 0 0 0 0 127 0"/><feOffset dy=".15"/><feComposite in2="hardAlpha" k2="-1" k3="1" operator="arithmetic"/><feColorMatrix type="matrix" values="0 0 0 0 1 0 0 0 0 1 0 0 0 0 1 0 0 0 0.25 0"/><feBlend in2="effect1_innerShadow_7416_30382" mode="normal" result="effect2_innerShadow_7416_30382"/></filter><filter id="b" color-interpolation-filters="sRGB" filterUnits="userSpaceOnUse" height="8.04175" width="10.2318" x="10.2555" y="19.545"><feFlood flood-opacity="0" result="BackgroundImageFix"/><feBlend in="SourceGraphic" in2="BackgroundImageFix" mode="normal" result="shape"/><feColorMatrix in="SourceAlpha" result="hardAlpha" type="matrix" values="0 0 0 0 0 0 0 0 0 0 0 0 0 0 0 0 0 0 127 0"/><feOffset dy="-.15"/><feComposite in2="hardAlpha" k2="-1" k3="1" operator="arithmetic"/><feColorMatrix type="matrix" values="0 0 0 0 0 0 0 0 0 0 0 0 0 0 0 0 0 0 0.08 0"/><feBlend in2="shape" mode="normal" result="effect1_innerShadow_7416_30382"/></filter><linearGradient id="c" gradientUnits="userSpaceOnUse" x1="17.2243" x2="6.73255" y1="12.4842" y2="22.7729"><stop offset="0" stop-color="#00a0ff"/><stop offset=".0066" stop-color="#00a1ff"/><stop offset=".2601" stop-color="#00beff"/><stop offset=".5122" stop-color="#00d2ff"/><stop offset=".7604" stop-color="#00dfff"/><stop offset="1" stop-color="#00e3ff"/></linearGradient><linearGradient id="d" gradientUnits="userSpaceOnUse" x1="24.6028" x2="9.76596" y1="19.5451" y2="19.5451"><stop offset="0" stop-color="#ffe000"/><stop offset=".4087" stop-color="#ffbd00"/><stop offset=".7754" stop-color="#ffa500"/><stop offset="1" stop-color="#ff9c00"/></linearGradient><linearGradient id="e" gradientUnits="userSpaceOnUse" x1="19.0807" x2="4.85252" y1="20.9794" y2="34.9322"><stop offset="0" stop-color="#ff3a44"/><stop offset="1" stop-color="#c31162"/></linearGradient><linearGradient id="f" gradientUnits="userSpaceOnUse" x1="8.33091" x2="14.6842" y1="7.14899" y2="13.3793"><stop offset="0" stop-color="#32a071"/><stop offset=".0685" stop-color="#2da771"/><stop offset=".4762" stop-color="#15cf74"/><stop offset=".8009" stop-color="#06e775"/><stop offset="1" stop-color="#00f076"/></linearGradient><rect fill="#fff" height="33" rx="5" stroke="#e8e8e8" stroke-width="2" width="106" x="1" y="3"/><g fill="#282828"><path d="m35.5361 14.7521h1.472v1.1747c-.376.2937-.896.465-1.36.465-1.104 0-2.032-.9789-2.032-2.1455 0-1.1584.928-2.1374 2.032-2.1374.568 0 1.216.2611 1.592.6771l.568-.5547c-.52-.5466-1.384-.8811-2.16-.8811-1.544 0-2.864 1.3216-2.864 2.8961s1.32 2.9042 2.864 2.9042c.776 0 1.64-.3426 2.16-.8811v-2.2352h-2.272z"/><path d="m40.8252 16.4326c-.712 0-1.216-.5058-1.32-1.2074h3.256c0-1.5092-.728-2.4881-1.992-2.4881-1.144 0-2.064.93-2.064 2.1944 0 1.2972.976 2.219 2.128 2.219.584 0 1.304-.2529 1.672-.6526l-.496-.5221c-.248.261-.752.4568-1.184.4568zm-.024-2.9776c.712 0 1.104.4731 1.192 1.1258h-2.48c.128-.6853.648-1.1258 1.288-1.1258z"/><path d="m45.6152 16.2939c-.088.0898-.248.155-.424.155-.232 0-.424-.2121-.424-.5058v-2.4229h.976v-.6852h-.976v-1.1585h-.776v1.1585h-.624v.6852h.624v2.48c0 .6771.448 1.1503 1.088 1.1503.296 0 .6-.1142.824-.3018z"/><path d="m49.3915 12.1334c.256 0 .472-.2284.472-.4895 0-.2529-.216-.4813-.472-.4813-.272 0-.48.2284-.48.4813 0 .2611.208.4895.48.4895zm-.4 4.9192h.792v-4.2176h-.792z"/><path d="m52.8652 16.2939c-.088.0898-.248.155-.424.155-.232 0-.424-.2121-.424-.5058v-2.4229h.976v-.6852h-.976v-1.1585h-.776v1.1585h-.624v.6852h.624v2.48c0 .6771.448 1.1503 1.088 1.1503.296 0 .6-.1142.824-.3018z"/><path d="m58.9135 17.1505c1.544 0 2.84-1.3297 2.84-2.9042s-1.296-2.8961-2.84-2.8961-2.856 1.3216-2.856 2.8961 1.312 2.9042 2.856 2.9042zm0-.7587c-1.096 0-2.024-.9789-2.024-2.1455 0-1.1584.928-2.1374 2.024-2.1374s2.016.979 2.016 2.1374c0 1.1666-.92 2.1455-2.016 2.1455z"/><path d="m64.8222 12.7371c-.56 0-1.064.2937-1.312.7097v-.6118h-.792v4.2176h.792v-2.7329c.064-.4976.56-.881 1.136-.881.56 0 .952.4405.952 1.0686v2.5453h.776v-2.6839c0-.9545-.64-1.6316-1.552-1.6316z"/><path d="m36.6897 24.9147h1.792v1.1992c-.4368.3198-.9744.5025-1.5008.5025-1.3104 0-2.4192-1.1649-2.4192-2.5354 0-1.3591 1.1088-2.5241 2.4192-2.5241.7056 0 1.456.3426 1.9152.8794l1.1984-1.0964c-.7728-.8223-1.96-1.3134-3.1136-1.3134-2.2288 0-4.1216 1.8502-4.1216 4.0545 0 2.2042 1.8928 4.0659 4.1216 4.0659 1.1536 0 2.3408-.4911 3.1136-1.3135v-3.2321h-3.4048z"/><path d="m44.2851 28.1469c1.7136 0 3.1472-1.4163 3.1472-3.0951 0-1.6789-1.4336-3.0837-3.1472-3.0837-1.7248 0-3.1696 1.4048-3.1696 3.0837 0 1.6788 1.4448 3.0951 3.1696 3.0951zm0-1.4048c-.8736 0-1.6016-.7767-1.6016-1.6903 0-.9137.728-1.6789 1.6016-1.6789.8624 0 1.5904.7652 1.5904 1.6789 0 .9136-.728 1.6903-1.5904 1.6903z"/><path d="m51.3835 28.1469c1.7136 0 3.1472-1.4163 3.1472-3.0951 0-1.6789-1.4336-3.0837-3.1472-3.0837-1.7248 0-3.1696 1.4048-3.1696 3.0837 0 1.6788 1.4448 3.0951 3.1696 3.0951zm0-1.4048c-.8736 0-1.6016-.7767-1.6016-1.6903 0-.9137.728-1.6789 1.6016-1.6789.8624 0 1.5904.7652 1.5904 1.6789 0 .9136-.728 1.6903-1.5904 1.6903z"/><path d="m59.826 22.1051v.7995c-.392-.5596-1.1312-.9365-1.9152-.9365-1.456 0-2.5648 1.1535-2.5648 2.7981 0 1.6447 1.1088 2.8096 2.5648 2.8096.7616 0 1.456-.3426 1.9152-.9137v.651c0 .7652-.672 1.2563-1.7248 1.2563-.672 0-1.344-.217-1.7248-.5596l-.5712 1.1764c.5712.4568 1.5344.788 2.5536.788 1.8256 0 3.1136-1.0736 3.1136-2.5926v-5.2765zm-1.4 4.0659c-.8176 0-1.4-.5825-1.4-1.4048s.5824-1.3933 1.4-1.3933 1.4.571 1.4 1.3933-.5824 1.4048-1.4 1.4048z"/><path d="m62.9106 28.0098h1.6352v-7.9833h-1.6352z"/><path d="m68.7059 26.6735c-.6832 0-1.1872-.434-1.3776-1.0735h4.1776c0-2.2271-1.064-3.6319-2.8784-3.6319-1.6912 0-2.9792 1.2905-2.9792 3.0722 0 1.816 1.344 3.1066 3.0688 3.1066.8512 0 1.848-.3655 2.3632-.9137l-1.0416-1.085c-.3136.3083-.8736.5253-1.3328.5253zm-.0112-3.2321c.6608 0 1.0864.3769 1.2432.9594h-2.5872c.2128-.5939.728-.9594 1.344-.9594z"/><path d="m75.7851 28.0098h1.6464v-2.5469h1.8144c1.6688 0 2.9008-1.0964 2.9008-2.6497 0-1.5532-1.232-2.6497-2.9008-2.6497h-3.4608zm1.6464-4.0887v-2.2157h1.6352c.8176 0 1.3776.434 1.3776 1.1078 0 .6739-.56 1.1079-1.3776 1.1079z"/><path d="m83.134 28.0098h1.6352v-7.9833h-1.6352z"/><path d="m88.7837 21.9681c-.8064 0-1.6016.2284-2.4192.651l.5488 1.1078c.4592-.2398.9632-.4226 1.5008-.4226.952 0 1.3328.5482 1.3328 1.1764v.1142c-.4928-.1941-1.008-.2969-1.4784-.2969-1.344 0-2.408.7994-2.408 1.9644 0 1.1307.952 1.8845 2.184 1.8845.6272 0 1.288-.2513 1.7024-.731v.5939h1.5792v-3.5291c0-1.5418-1.0304-2.5126-2.5424-2.5126zm-.3696 5.0252c-.56 0-.9744-.2969-.9744-.7766s.4704-.8337 1.064-.8337c.448 0 .8736.0799 1.2432.217v.5482c-.112.5482-.7056.8451-1.3328.8451z"/><path d="m94.0259 30.0656c.9072 0 1.6465-.6053 2.0832-1.7588l2.3745-6.2017h-1.6689l-1.4448 4.1459-1.5232-4.1459h-1.6911l2.408 5.9618-.2016.434c-.1232.217-.3696.3198-.6833.3198-.1904 0-.4815-.1028-.7615-.2627l-.3472 1.1421c.3919.217.9743.3655 1.4559.3655z"/></g><g filter="url(#a)"><path d="m10.2555 11.7519c-.1785.1926-.28394.4915-.28394.8786v13.8291c0 .3877.10544.686.28394.8786l.0453.045 7.597-7.7468v-.0913-.0913l-7.597-7.7475z" fill="url(#c)"/><path d="m20.4297 22.2195-2.5319-2.5831v-.0913-.0913l2.5325-2.5825.0571.0332 3.0003 1.7383c.8567.4965.8567 1.3088 0 1.8059l-3.0003 1.7383z" fill="url(#d)"/><g filter="url(#b)"><path d="m20.4873 22.1863-2.5901-2.6413-7.6417 7.7932c.2821.3051.7487.3426 1.2742.0387z" fill="url(#e)"/></g><path d="m20.4873 16.9038-8.9576-5.19c-.5255-.3045-.9921-.2664-1.2742.0388l7.6423 7.7931z" fill="url(#f)"/></g></svg>