<svg fill="none" height="24" viewBox="0 0 24 24" width="24" xmlns="http://www.w3.org/2000/svg"><path clip-rule="evenodd" d="m11.295 20.706c.187.189.442.294.707.294.266 0 .52-.105.708-.293l7.768-7.781c2.036-2.04 2.036-5.359-.001-7.399-.983-.984-2.296-1.527-3.694-1.527-1.4 0-2.712.543-3.696 1.528l-1.085 1.086-1.085-1.087c-.983-.984-2.296-1.527-3.695-1.527-1.22412 0-2.38164.41573-3.3111 1.17887-.13278.10902-.2609.22513-.3839.34813-2.036 2.04-2.036 5.359 0 7.399z" fill="#0d1c2e" fill-rule="evenodd"/></svg>