<svg xmlns="http://www.w3.org/2000/svg" xml:space="preserve" style="enable-background:new 0 0 48 48" viewBox="0 0 48 48"><path fill="currentColor" d="M40 12.4c0-.7-.2-1.3-.6-1.9-.4-.5-1-.9-1.6-1.1-2.4-.8-6.6-1.3-11.3-1.4h-.1c-4.4 0-8.6.5-11.1 1.4-.6.2-1.2.6-1.6 1.1-.4.5-.6 1.2-.6 1.9V20c-1.3.1-2.6.7-3.5 1.7-.9 1-1.4 2.3-1.4 3.7 0 1.4.5 2.7 1.4 3.7.9 1 2.2 1.6 3.5 1.7v4.9c0 .7.2 1.3.6 1.8.4.5.9.9 1.5 1.1 3.7.9 7.5 1.3 11.4 1.3 3.8 0 7.6-.4 11.3-1.3.6-.2 1.2-.6 1.5-1.1.4-.5.6-1.2.6-1.8V12.4zM13.4 30.1c-.9 0-1.8-.3-2.5-.8-.8-.5-1.3-1.2-1.7-2.1-.3-.9-.4-1.8-.3-2.7.2-.9.6-1.7 1.3-2.4.6-.7 1.5-1.1 2.3-1.3.9-.2 1.8-.1 2.6.3s1.6 1 2.1 1.7c.5.8.8 1.7.8 2.6 0 1.2-.5 2.4-1.3 3.3-1 .9-2.1 1.4-3.3 1.4zm25.8 5.6c0 .5-.1 1-.4 1.4-.3.4-.7.7-1.1.9-3.7.9-7.4 1.3-11.2 1.2-3.8 0-7.5-.4-11.1-1.2-.5-.2-.9-.5-1.1-.8-.3-.4-.4-.9-.4-1.4v-4.9c.6 0 1.1-.2 1.7-.4v3.3c0 .6.2 1.1.5 1.6.3.4.8.8 1.3.9 3 .7 6.2 1.1 9.3 1.1 3.1 0 6.2-.3 9.3-1.1.5-.2 1-.5 1.3-.9.3-.4.5-1 .5-1.6v-1.3c0-4.3.1-17.5 0-18.2 0-.6-.2-1.1-.5-1.6s-.8-.8-1.4-1c-3-.8-6.1-1.3-9.2-1.2h-.1c-3.1-.1-6.1.3-9.1 1.2-.6.2-1 .5-1.4.9-.3.5-.5 1-.5 1.6v6c-.5-.2-1.1-.4-1.7-.4v-7.5c0-.5.2-1 .5-1.5.3-.4.8-.7 1.3-.8 2.5-.9 6.5-1.4 10.9-1.4h.1c4.6.1 8.8.6 11 1.4.5.1.9.4 1.3.8.3.4.5.9.5 1.4-.2 1.2-.3 22.8-.3 23.5zM26.9 19.2v-2.7c0-.1-.1-.2-.1-.2-.1-.1-.2-.1-.2-.1s-.2 0-.2.1c-.1.1-.1.1-.1.2v2.7H23c-.1 0-.2 0-.3-.1-.1-.1-.2-.2-.2-.3l-1-3.7v-.2c0-.1.1-.1.1-.1 1.6-.8 3.3-1.2 5-1.1 1.7-.1 3.5.3 5 1.1.1 0 .1.1.1.1v.2l-1 3.8c0 .1-.1.2-.2.3-.1.1-.2.1-.3.1l-3.3-.1zM29 34.1c0 .1 0 .2-.1.3-.1.1-.1.1-.2.1h-4.4c-.1 0-.2 0-.2-.1-.1-.1-.1-.2-.1-.2 0-.1 0-.2.1-.2.1-.1.1-.1.2-.1 1.5.1 2.9.1 4.4 0 .1 0 .2 0 .2.1 0-.1.1 0 .1.1z"/><path fill="currentColor" d="M15.9 24.7h-1.8V22.5c0-.1-.1-.2-.2-.3-.1-.1-.2-.1-.2-.2-.1 0-.2-.1-.3-.1s-.2 0-.3.1c-.1 0-.2.1-.2.2-.1.1-.1.2-.2.3V24.7h-2.1c-.1 0-.2.1-.3.2s-.2.1-.3.2 0 .2 0 .3c0 .1 0 .2.1.3 0 .1.1.2.2.3.1.1.2.1.3.2h2.1v2.1c0 .1.1.2.2.3.1.1.2.1.2.2.1 0 .2.1.3.1s.2 0 .3-.1c.1 0 .2-.1.2-.2.1-.1.1-.2.2-.3v-2.1h1.8c.2 0 .3-.1.5-.2.1-.1.2-.3.2-.5s-.1-.4-.2-.5c-.2-.2-.4-.3-.5-.3z"/></svg>