<svg xmlns="http://www.w3.org/2000/svg" xml:space="preserve" style="enable-background:new 0 0 48 48" viewBox="0 0 48 48"><path fill="currentColor" d="M35.3 12.7c-3-3-7-4.7-11.3-4.7-3.2 0-6.3.9-8.9 2.7-2.6 1.8-4.7 4.3-5.9 7.2-1.2 2.9-1.5 6.1-.9 9.2.6 3.1 2.1 6 4.4 8.2 2.2 2.2 5.1 3.8 8.2 4.4 3.1.6 6.3.3 9.2-.9 2.9-1.2 5.4-3.3 7.2-5.9 1.8-2.6 2.7-5.7 2.7-8.9 0-4.2-1.7-8.3-4.7-11.3zM21.7 8.6c0 .1 0 .1 0 0 0 .1 0 .1 0 0zm.1 6.1c.1-.3.3-.5.5-.7.4-.4 1.1-.7 1.7-.7.6 0 1.2.2 1.7.7.2.2.4.4.5.7.1.3.2.6.2.9 0 .3-.1.6-.2.9-.1.3-.3.5-.5.7-.4.4-1.1.7-1.7.7-.6 0-1.2-.2-1.7-.7-.2-.2-.4-.4-.5-.7-.1-.3-.2-.6-.2-.9 0-.3.1-.6.2-.9zm4.5 18.9c-.1.2-.2.4-.3.5-.1.1-.3.3-.5.3-.2.1-.4.1-.6.1H23c-.2 0-.4 0-.6-.1-.2-.1-.3-.2-.5-.3-.1-.1-.2-.3-.3-.5-.1-.2-.1-.4-.1-.6l.3-11c0-.2 0-.4.1-.6.1-.2.2-.4.3-.5.1-.1.3-.3.5-.3.2-.1.4-.1.6-.1h1.4c.2 0 .4 0 .6.1.2.1.3.2.5.3.1.1.2.3.3.5.1.2.1.4.1.6l.2 11c0 .2 0 .4-.1.6z"/></svg>