<?xml version="1.0" encoding="UTF-8"?><svg fill="currentColor" viewBox="0 0 16 16" xmlns="http://www.w3.org/2000/svg"><path d="m1.334 8.0002c0-3.682 2.9847-6.6667 6.6667-6.6667 3.6814 0 6.6666 2.9847 6.6666 6.6667 0 3.682-2.9853 6.6666-6.6666 6.6666-3.682 0-6.6667-2.9846-6.6667-6.6666zm6.6667 5.3333c-2.9407 0-5.3333-2.3927-5.3333-5.3333 0-2.9407 2.3927-5.3333 5.3333-5.3333 2.9406 0 5.3334 2.3927 5.3334 5.3333 0 2.9406-2.3927 5.3333-5.3334 5.3333zm-0.66667-8c0-0.368 0.29867-0.66667 0.66667-0.66667s0.66667 0.29867 0.66667 0.66667-0.29867 0.66666-0.66667 0.66666-0.66667-0.29866-0.66667-0.66666zm0 2c0-0.368 0.29867-0.66667 0.66667-0.66667s0.66667 0.29867 0.66667 0.66667v3.3333c0 0.368-0.29867 0.6667-0.66667 0.6667s-0.66667-0.2987-0.66667-0.6667v-3.3333z" clip-rule="evenodd" fill="#000" fill-rule="evenodd"/><mask x="1" y="1" width="14" height="14" style="mask-type:luminance" maskUnits="userSpaceOnUse"><path d="m1.334 8.0002c0-3.682 2.9847-6.6667 6.6667-6.6667 3.6814 0 6.6666 2.9847 6.6666 6.6667 0 3.682-2.9853 6.6666-6.6666 6.6666-3.682 0-6.6667-2.9846-6.6667-6.6666zm6.6667 5.3333c-2.9407 0-5.3333-2.3927-5.3333-5.3333 0-2.9407 2.3927-5.3333 5.3333-5.3333 2.9406 0 5.3334 2.3927 5.3334 5.3333 0 2.9406-2.3927 5.3333-5.3334 5.3333zm-0.66667-8c0-0.368 0.29867-0.66667 0.66667-0.66667s0.66667 0.29867 0.66667 0.66667-0.29867 0.66666-0.66667 0.66666-0.66667-0.29866-0.66667-0.66666zm0 2c0-0.368 0.29867-0.66667 0.66667-0.66667s0.66667 0.29867 0.66667 0.66667v3.3333c0 0.368-0.29867 0.6667-0.66667 0.6667s-0.66667-0.2987-0.66667-0.6667v-3.3333z" clip-rule="evenodd" fill="#fff" fill-rule="evenodd"/></mask></svg>