<?xml version="1.0" encoding="UTF-8"?>
<svg viewBox="0 0 20 20" xmlns="http://www.w3.org/2000/svg">
<path d="m10.052 2.6664c-2.0057 0-2.2567 0.00837-3.0444 0.04431-0.78619 0.03594-1.3233 0.16098-1.7929 0.34362-0.4923 0.18511-0.93881 0.47556-1.308 0.85168-0.37551 0.36879-0.66614 0.81499-0.85167 1.3075-0.18166 0.46965-0.30719 1.0072-0.34313 1.7934-0.03545 0.78718-0.04431 1.0378-0.04431 3.0438 0 2.0062 0.00837 2.2567 0.04431 3.0444 0.03594 0.7862 0.16098 1.3233 0.34362 1.793 0.18511 0.4923 0.47556 0.9388 0.85168 1.308 0.3688 0.3755 0.815 0.6661 1.3075 0.8517 0.46965 0.1821 1.0068 0.3072 1.7929 0.3431 0.78768 0.0359 1.0388 0.0443 3.0444 0.0443 2.0056 0 2.2566-0.0084 3.0443-0.0443 0.7862-0.0359 1.3233-0.161 1.793-0.3436 0.4923-0.1851 0.9388-0.4756 1.308-0.8517 0.3755-0.3688 0.6661-0.815 0.8517-1.3075 0.1821-0.4697 0.3072-1.0068 0.3431-1.793 0.0359-0.7877 0.0443-1.0387 0.0443-3.0444 0-2.0056-0.0084-2.2566-0.0443-3.0443-0.0359-0.78619-0.161-1.3233-0.3436-1.7929-0.1854-0.49276-0.4761-0.93915-0.8517-1.308-0.3688-0.37551-0.815-0.66614-1.3075-0.85167-0.4697-0.18166-1.0073-0.30719-1.7935-0.34313-0.7872-0.03545-1.0377-0.04431-3.0438-0.04431zm0 1.3307c1.9716 0 2.2054 0.00739 2.9843 0.04283 0.7197 0.03299 1.1106 0.15261 1.371 0.25452 0.3446 0.13341 0.5908 0.2939 0.8492 0.55186 0.2585 0.25846 0.4185 0.50461 0.5519 0.84922 0.1014 0.26042 0.2215 0.65131 0.2545 1.371 0.0354 0.77882 0.0428 1.0127 0.0428 2.9843 0 1.9717-0.0074 2.2055-0.0428 2.9843-0.033 0.7198-0.1526 1.1107-0.2545 1.3711-0.1182 0.3207-0.3068 0.6109-0.5519 0.8492-0.2382 0.2452-0.5284 0.4337-0.8492 0.5519-0.2604 0.1014-0.6513 0.2215-1.371 0.2545-0.7789 0.0354-1.0122 0.0428-2.9843 0.0428-1.9722 0-2.2055-0.0074-2.9844-0.0428-0.71973-0.033-1.1106-0.1526-1.371-0.2545-0.32076-0.1182-0.61094-0.3068-0.84922-0.5519-0.24507-0.2383-0.43365-0.5285-0.55186-0.8492-0.10141-0.2604-0.22153-0.6513-0.25452-1.3711-0.03544-0.7788-0.04283-1.0126-0.04283-2.9843 0-1.9716 0.00739-2.2054 0.04283-2.9843 0.03299-0.71973 0.15261-1.1106 0.25452-1.371 0.13341-0.34461 0.2939-0.59076 0.55186-0.84922 0.23825-0.24514 0.52844-0.43372 0.84922-0.55186 0.26042-0.10141 0.65131-0.22153 1.371-0.25452 0.77882-0.03544 1.0127-0.04283 2.9844-0.04283z" clip-rule="evenodd" fill="currentColor" fill-rule="evenodd"/>
<path d="m10.052 12.515c-0.3236 0-0.644-0.0638-0.94294-0.1876s-0.57057-0.3053-0.79936-0.5341c-0.2288-0.2288-0.4103-0.5004-0.53412-0.7994-0.12383-0.2989-0.18756-0.6193-0.18756-0.9429 0-0.32354 0.06373-0.64394 0.18756-0.94288 0.12382-0.29894 0.30532-0.57057 0.53412-0.79936 0.22879-0.2288 0.50042-0.4103 0.79936-0.53412 0.29894-0.12383 0.61934-0.18756 0.94294-0.18756 0.6534 0 1.2802 0.2596 1.7422 0.72168 0.4621 0.46208 0.7217 1.0888 0.7217 1.7422 0 0.6535-0.2596 1.2802-0.7217 1.7423-0.462 0.4621-1.0888 0.7217-1.7422 0.7217zm0-6.2596c-1.0067 0-1.9721 0.39989-2.6839 1.1117-0.71182 0.71181-1.1117 1.6772-1.1117 2.6839 0 1.0067 0.39989 1.9721 1.1117 2.6839 0.71181 0.7118 1.6772 1.1117 2.6839 1.1117 1.0066 0 1.9721-0.3999 2.6839-1.1117s1.1117-1.6772 1.1117-2.6839c0-1.0066-0.3999-1.9721-1.1117-2.6839-0.7118-0.71182-1.6773-1.1117-2.6839-1.1117zm4.8998-0.06892c0 0.23795-0.0945 0.46616-0.2628 0.63442-0.1682 0.16826-0.3965 0.26279-0.6344 0.26279-0.238 0-0.4662-0.09453-0.6344-0.26279-0.1683-0.16826-0.2628-0.39647-0.2628-0.63442 0-0.23796 0.0945-0.46617 0.2628-0.63443 0.1682-0.16826 0.3964-0.26279 0.6344-0.26279 0.2379 0 0.4662 0.09453 0.6344 0.26279 0.1683 0.16826 0.2628 0.39647 0.2628 0.63443z" clip-rule="evenodd" fill="currentColor" fill-rule="evenodd"/>
</svg>
