<?xml version="1.0" encoding="utf-8"?>
<!-- Generator: Adobe Illustrator 27.8.1, SVG Export Plug-In . SVG Version: 6.00 Build 0)  -->
<svg version="1.1" id="Layer_1" xmlns="http://www.w3.org/2000/svg" xmlns:xlink="http://www.w3.org/1999/xlink" x="0px" y="0px"
	 viewBox="0 0 20 20" style="enable-background:new 0 0 20 20;" xml:space="preserve">
<path fill="currentColor" d="M5.1,2.6C4,2.6,3,3.6,3,4.7S4,6.8,5.1,6.8s2.1-0.9,2.1-2.1S6.2,2.6,5.1,2.6z M5.1,5.5c-0.4,0-0.8-0.3-0.8-0.8S4.7,4,5.1,4
	s0.7,0.3,0.7,0.7S5.5,5.5,5.1,5.5z"/>
<path fill="currentColor" d="M5.8,7.6H4.4C3.6,7.6,3,8.2,3,9v7c0,0.8,0.6,1.4,1.4,1.4h1.4c0.8,0,1.4-0.6,1.4-1.4v-7C7.2,8.2,6.6,7.6,5.8,7.6z M5.8,16
	H4.4V9h1.4V16z"/>
<path fill="currentColor" d="M12.4,7.6c-2.5,0-4.5,2-4.5,4.5V16c0,0.8,0.6,1.4,1.4,1.4h1.2c0.8,0,1.4-0.6,1.4-1.4v-3.9c0-0.2,0.1-0.3,0.2-0.4
	c0.1-0.1,0.3-0.2,0.5-0.2c0.3,0.1,0.5,0.3,0.5,0.7V16c0,0.8,0.6,1.4,1.4,1.4h1.2c0.8,0,1.4-0.6,1.4-1.4v-3.9
	C16.9,9.6,14.9,7.6,12.4,7.6z M15.6,16h-1.2v-3.8c0-1-0.7-1.8-1.7-2h-0.3c-0.5,0-0.9,0.2-1.3,0.5c-0.4,0.4-0.7,0.9-0.7,1.5V16H9.3
	v-3.9c0-1.8,1.4-3.2,3.1-3.2c1.8,0,3.2,1.4,3.2,3.2V16z"/>
</svg>
