<svg xmlns="http://www.w3.org/2000/svg" xml:space="preserve" style="enable-background:new 0 0 48 48" viewBox="0 0 48 48"><path fill="currentColor" d="M39.9 27.4c0-.1-.2-3.3-4.1-6.8-.9-.8-1.5-1.9-1.8-3 .8-.5 1.4-1 1.4-1.7V12c0-2-4.6-3.1-8.9-3.1-4.3 0-8.9 1.1-8.9 3.1v3.9c0 .7.5 1.2 1.4 1.7-.3 1.2-.9 2.2-1.8 3-.7.7-1.4 1.4-2 2.2v.1c-.7-.3-1.5-.4-2.3-.3-.8.1-1.5.3-2.2.7-.7.3-1.3.8-1.7 1.4-.4.6-.7 1.3-.9 2.1-.2.7-.1 1.5.1 2.2.2.7.6 1.4 1.1 2 .5.6 1.1 1 1.8 1.3.7.3 1.5.5 2.2.5h.3v.1C16 38.6 23.9 39 25.9 39h.6c.8 0 7.6.1 11.3-3.8 1.8-1.9 2.5-4.6 2.1-7.8zM18.3 12.1c0-1.1 3.3-2.4 8.1-2.4s8.2 1.2 8.2 2.4c0 1.1-3.3 2.4-8.2 2.4-4.7-.1-8.1-1.3-8.1-2.4zm-.7 9.1c1-.9 1.6-2 2-3.2 2.2.8 4.5 1.1 6.8 1.1s4.7-.3 6.8-1.1c.3 1.2 1 2.4 2 3.2 1.9 1.5 3.2 3.5 3.8 5.8-4.4 1.9-10.6 2.6-17.2 1.9-1.1-.1-2.3-.3-3.4-.5.2-1 0-2.1-.5-3.1-.5-.9-1.3-1.7-2.2-2.2.6-.7 1.3-1.3 1.9-1.9zm-6.8 7.2h-.3c-.1 0-.2-.1-.3-.1l-.2-.2c-.1-.1 0-.3 0-.4 0-.1 0-.2.1-.3s.1-.2.2-.2c.1-.1.2-.1.3-.1h5.6c.1 0 .2.1.3.1l.2.2c.1.1.1.2.1.3 0 .1 0 .2-.1.3s-.1.2-.2.2c-.1.1-.2.1-.3.1H10.8zm26.4 6.3c-3.5 3.7-10.3 3.5-10.8 3.5s-9.5.2-12.1-5.5c.9-.2 1.8-.6 2.5-1.2s1.2-1.4 1.5-2.3c1.2.2 2.3.4 3.5.5 1.6.2 3.3.3 4.9.3 4.3.1 8.5-.6 12.5-2.1.3 2.7-.3 5.1-2 6.8z"/><path fill="currentColor" d="M22.7 11.5c-.6 0-1.1.3-1.1.6s.5.6 1.1.6c.6 0 1.1-.3 1.1-.6s-.5-.6-1.1-.6z"/><ellipse cx="30.6" cy="12.1" fill="currentColor" rx="1.1" ry=".6"/><path fill="currentColor" d="M27.6 11.3c0-.3-.5-.6-1.1-.6-.6 0-1.1.3-1.1.6s.5.6 1.1.6c.6 0 1.1-.3 1.1-.6z"/></svg>