<?xml version="1.0" encoding="UTF-8"?>
<svg enable-background="new 0 0 24 24" version="1.1" viewBox="0 0 24 24" xml:space="preserve" xmlns="http://www.w3.org/2000/svg">
<path d="m19.1 3.9c-2.3-2.3-5.4-3.3-8.7-2.8-4.1 0.7-7.5 3.9-8.2 8-0.4 2-0.2 4 0.6 5.8 0.1 0.2 0.1 0.4 0.1 0.6l-0.9 4.3c-0.1 0.3 0 0.7 0.3 0.9 0.2 0.2 0.4 0.3 0.7 0.3h0.2l4.3-0.9c0.2 0 0.5 0 0.6 0.1 1.8 0.8 3.8 1 5.8 0.6 4.1-0.8 7.4-4.1 8-8.2 0.5-3.2-0.5-6.4-2.8-8.7zm0.8 8.4c-0.5 3.3-3.1 6-6.4 6.6-1.6 0.3-3.2 0.1-4.6-0.5-0.4-0.2-0.8-0.3-1.3-0.3-0.2 0-0.4 0-0.6 0.1l-2.8 0.6 0.6-2.8c0.1-0.6 0-1.2-0.2-1.8-0.6-1.5-0.8-3-0.5-4.6 0.6-3.2 3.3-5.9 6.6-6.4 2.6-0.4 5.1 0.4 7 2.2 1.8 1.8 2.6 4.3 2.2 6.9z" fill="currentColor"/>
<path d="m8 10c-0.6 0-1 0.4-1 1s0.4 1 1 1 1-0.4 1-1-0.4-1-1-1z" fill="currentColor"/>
<path d="m12 10c-0.6 0-1 0.4-1 1s0.4 1 1 1 1-0.4 1-1-0.4-1-1-1z" fill="currentColor"/>
<path d="m16 10c-0.6 0-1 0.4-1 1s0.4 1 1 1 1-0.4 1-1-0.4-1-1-1z" fill="currentColor"/>
</svg>
