<svg xmlns="http://www.w3.org/2000/svg" width="45" height="44" viewBox="0 0 45 44" fill="none">
  <path d="M33.1069 15.5952C33.1069 15.1821 32.9503 14.7762 32.6797 14.4629L29.9238 11.237V8.60224C29.9238 7.98983 29.4396 7.49135 28.8272 7.46999L15.8525 7.08545C15.5463 7.08545 15.2544 7.19227 15.0336 7.4059C14.8129 7.61953 14.6918 7.9115 14.6918 8.2177V10.824L11.7864 15.2818C11.7864 15.2818 11.7721 15.3246 11.765 15.3459C11.6938 15.4527 11.6368 15.5809 11.6368 15.7091V34.3308C11.6368 35.2565 12.3632 36.0185 13.2889 36.0612L26.8261 36.7021C26.8261 36.7021 26.8333 36.7021 26.8404 36.7021C26.8831 36.7021 26.9258 36.6879 26.9686 36.6736C26.9899 36.6736 27.0113 36.6736 27.0327 36.6665L32.4304 35.0002C33.0001 34.8221 33.3776 34.3023 33.3704 33.697L33.1069 15.5952ZM32.4732 15.6023L32.7367 33.7041C32.7367 33.7041 32.7367 33.7184 32.7367 33.7326L29.9381 31.7244V12.2198L32.2097 14.8759C32.3806 15.0824 32.4803 15.3388 32.4874 15.6023H32.4732ZM23.1232 26.5474C22.3042 26.5118 21.9268 26.1985 21.4853 25.8353C21.0296 25.4508 20.5097 25.0164 19.4772 24.9736C18.4446 24.9309 17.8963 25.3226 17.4121 25.6644C16.9492 25.992 16.5362 26.2839 15.7244 26.2412C14.9054 26.2056 14.528 25.8923 14.0936 25.5291C13.6664 25.173 13.175 24.7743 12.2706 24.6888L12.292 15.7732L26.5271 16.3429V18.5077L26.5342 25.2799C25.7224 25.3226 25.2453 25.6644 24.818 25.9706C24.348 26.2982 23.9492 26.5901 23.1303 26.5474H23.1232ZM15.176 11.2442L29.055 11.6572L26.6837 15.6806C26.6268 15.6593 26.5769 15.645 26.5128 15.6379L12.6836 15.0682L15.176 11.2442ZM27.2463 35.1283L27.1537 16.1292L29.2829 12.5188V31.7957L27.2392 35.1283H27.2463ZM15.4751 7.86165C15.5748 7.76907 15.7172 7.72635 15.8312 7.72635L28.8058 8.11089C29.0764 8.11801 29.2829 8.33876 29.2829 8.60224V11.0234L25.7437 10.9166L15.3256 10.6033V9.56359L20.1394 9.70601C20.1394 9.70601 20.1394 9.70601 20.1466 9.70601C20.3175 9.70601 20.4599 9.57071 20.467 9.39981C20.467 9.22178 20.3317 9.07936 20.1608 9.07224L15.3327 8.92981V8.2177C15.3327 8.0824 15.3897 7.95422 15.4822 7.86165H15.4751ZM27.5667 35.8262L29.7031 32.344L32.4233 34.288C32.3664 34.3236 32.3094 34.3593 32.2382 34.3806L27.5667 35.8262Z" fill="#2C282B"/>
</svg>