<svg width="20" height="20" viewBox="0 0 20 20" fill="none" xmlns="http://www.w3.org/2000/svg">
<path fill-rule="evenodd" clip-rule="evenodd" d="M2.94063 5.038C2.34669 5.94157 2.11299 7.05356 2.08846 7.78954C2.07466 8.20352 1.72787 8.52793 1.31389 8.51414C0.899906 8.50034 0.575492 8.15355 0.589292 7.73957C0.620555 6.80167 0.905761 5.40284 1.68718 4.21407C2.49189 2.98987 3.82796 1.99292 5.85834 1.99292C7.06934 1.99292 8.00483 2.17095 8.69519 2.41121C9.03436 2.52925 9.32895 2.66762 9.57095 2.81644C10.3292 2.40171 11.6892 1.99292 13.7256 1.99292C15.5973 1.99292 16.9482 2.89052 17.7954 4.25358C18.6183 5.57746 18.9561 7.31341 18.9561 9.06689C18.9561 10.9055 18.2009 13.3425 17.0812 15.3509C16.517 16.3629 15.8403 17.3029 15.0833 18.0217C14.3329 18.7341 13.4472 19.2815 12.4693 19.3902C11.0289 19.5502 10.0328 19.2412 9.44078 18.806C9.31152 18.8745 9.17246 18.9377 9.02649 18.9948C8.53031 19.1891 7.88094 19.343 7.07684 19.3933C5.39702 19.4983 4.17962 18.5855 3.32316 17.4976C2.47705 16.4228 1.89888 15.0759 1.48351 14.079C1.32419 13.6966 1.505 13.2575 1.88735 13.0982C2.2697 12.9389 2.70881 13.1197 2.86812 13.502C3.28968 14.5138 3.79954 15.6777 4.50177 16.5697C5.19364 17.4486 5.98489 17.9586 6.98327 17.8962C7.64932 17.8546 8.14377 17.7296 8.47966 17.5981C8.80266 17.4716 8.93343 17.358 8.95285 17.3411C8.95512 17.3391 8.95587 17.3385 8.95522 17.3393C9.12194 17.1309 9.38683 17.0268 9.65082 17.0659C9.9148 17.105 10.1381 17.2815 10.2372 17.5293C10.2255 17.4999 10.2266 17.501 10.2478 17.521C10.3412 17.609 10.8232 18.0638 12.3036 17.8993C12.8322 17.8406 13.4273 17.5255 14.0505 16.9338C14.6671 16.3485 15.257 15.5426 15.7711 14.6205C16.8079 12.7606 17.4561 10.576 17.4561 9.06689C17.4561 7.47262 17.1438 6.04658 16.5215 5.04542C15.9235 4.08343 15.0342 3.49292 13.7256 3.49292C11.5915 3.49292 10.4786 3.9883 10.1369 4.22632C10.1157 4.2411 10.0997 4.25335 10.0883 4.26265C10.0827 4.26726 10.0785 4.2709 10.0756 4.27353L10.0723 4.27654C10.0715 4.27724 10.0712 4.27758 10.0712 4.27758C9.9222 4.42658 9.71739 4.50602 9.50689 4.49648C9.29638 4.48693 9.09961 4.38926 8.96471 4.22738L8.96464 4.22731C8.96248 4.22502 8.91193 4.17128 8.77795 4.08974C8.64786 4.01055 8.45863 3.91713 8.20215 3.82787C7.69011 3.64967 6.92382 3.49292 5.85834 3.49292C4.40706 3.49292 3.5113 4.16985 2.94063 5.038Z" fill="black" stroke="black" stroke-width="0.5" stroke-linecap="round" stroke-linejoin="round"/>
<path fill-rule="evenodd" clip-rule="evenodd" d="M1.5 9.09717V12.1231H12.5606V9.09717H1.5ZM1 7.59717C0.447715 7.59717 0 8.04488 0 8.59717V12.6231C0 13.1754 0.447715 13.6231 1 13.6231H13.0606C13.6129 13.6231 14.0606 13.1754 14.0606 12.6231V8.59717C14.0606 8.04488 13.6129 7.59717 13.0606 7.59717H1Z" fill="black"/>
<path fill-rule="evenodd" clip-rule="evenodd" d="M3.20605 8.56689C3.4822 8.56689 3.70605 8.79075 3.70605 9.06689L3.70605 11.0669C3.70605 11.343 3.4822 11.5669 3.20605 11.5669C2.92991 11.5669 2.70605 11.343 2.70605 11.0669L2.70605 9.06689C2.70605 8.79075 2.92991 8.56689 3.20605 8.56689Z" fill="black"/>
<path fill-rule="evenodd" clip-rule="evenodd" d="M9.20605 8.56689C9.4822 8.56689 9.70605 8.79075 9.70605 9.06689L9.70605 11.0669C9.70605 11.343 9.4822 11.5669 9.20605 11.5669C8.92991 11.5669 8.70605 11.343 8.70605 11.0669L8.70605 9.06689C8.70605 8.79075 8.92991 8.56689 9.20605 8.56689Z" fill="black"/>
<path fill-rule="evenodd" clip-rule="evenodd" d="M7.20605 8.56689C7.4822 8.56689 7.70605 8.79075 7.70605 9.06689L7.70605 9.74077C7.70605 10.0169 7.4822 10.2408 7.20605 10.2408C6.92991 10.2408 6.70605 10.0169 6.70605 9.74077L6.70605 9.06689C6.70605 8.79075 6.92991 8.56689 7.20605 8.56689Z" fill="black"/>
<path fill-rule="evenodd" clip-rule="evenodd" d="M5.20605 8.56689C5.4822 8.56689 5.70605 8.79075 5.70605 9.06689L5.70605 9.74077C5.70605 10.0169 5.4822 10.2408 5.20605 10.2408C4.92991 10.2408 4.70605 10.0169 4.70605 9.74077L4.70605 9.06689C4.70605 8.79075 4.92991 8.56689 5.20605 8.56689Z" fill="black"/>
<path fill-rule="evenodd" clip-rule="evenodd" d="M10.1235 0.566895C10.5377 0.566895 10.8735 0.902681 10.8735 1.31689L10.8735 2.82987C10.8735 3.24409 10.5377 3.57987 10.1235 3.57987C9.70932 3.57987 9.37354 3.24409 9.37354 2.82987L9.37354 1.31689C9.37354 0.902681 9.70932 0.566895 10.1235 0.566895Z" fill="black"/>
</svg>
