<svg xmlns="http://www.w3.org/2000/svg" xml:space="preserve" style="enable-background:new 0 0 48 48" viewBox="0 0 48 48"><path fill="currentColor" d="M37.4 11.7c-.4-.6-1-.9-1.6-1.1-1.8-.4-3.7-.7-5.5-.8V9c0-.3-.1-.5-.3-.7-.3-.2-.5-.3-.8-.3H19c-.3 0-.5.1-.7.3-.2.2-.3.4-.3.7v.8c-2 .2-4 .5-5.9 1-.6.2-1.1.6-1.5 1.1s-.6 1.2-.6 1.8v22.1c0 .7.2 1.4.6 1.9.4.6 1 .9 1.6 1.1 3.9.9 7.8 1.2 11.7 1.2 4 0 8.1-.4 12-1.3.6-.2 1.1-.6 1.5-1.1.4-.5.6-1.2.6-1.8V13.7l.1.1c-.1-.8-.3-1.5-.7-2.1zM35.6 36c-.2.3-.5.5-.8.6-7.1 1.5-14.3 1.5-21.4.2-.4-.1-.7-.3-.9-.6-.2-.3-.4-.7-.4-1.1-.1-1 0-19.7 0-20.5 0-.4.1-.7.3-1 .2-.3.5-.5.8-.6 1.6-.4 3.2-.6 4.8-.8 0 .3.1.5.3.7.2.2.4.3.7.3h10.2c.3 0 .5-.1.7-.3.2-.2.3-.4.3-.7v-.1c1.5.1 3 .4 4.5.6.4.1.7.3.9.6.2.3.4.7.4 1.1.1 1 0 19.7 0 20.5-.1.4-.2.8-.4 1.1z"/><path fill="currentColor" d="M20.5 18.4c-.1-.1-.3-.1-.4-.1-.1 0-.3.1-.4.2v-.1l-2 2.7-.9-1c-.1-.1-.3-.2-.4-.2s-.3 0-.5.2c-.1.1-.2.3-.2.4 0 .2 0 .3.1.5l1.4 1.7.2.2c.1 0 .2.1.3.1.1 0 .2 0 .3-.1.1 0 .2-.1.2-.2l2.4-3.4c.1-.1.1-.3.1-.4 0-.2-.1-.4-.2-.5zM32 20.5c-.1-.1-.1-.1-.2-.1H24c-.1 0-.1.1-.2.1-.1.1-.1.1-.1.2v.4c0 .1.1.1.1.2.1.1.1.1.2.1H31.8c.1 0 .1-.1.2-.1.1-.1.1-.1.1-.2v-.4s-.1-.1-.1-.2zM20.5 27.6c-.1-.1-.3-.1-.4-.1-.1 0-.2.1-.3.1l-2 2.7-.9-1c-.1-.1-.3-.2-.4-.2-.2 0-.3 0-.5.2-.1.1-.2.3-.2.4 0 .2 0 .3.1.5l1.4 1.7.2.2c.1 0 .2.1.3.1.1 0 .2 0 .3-.1.1 0 .2-.1.2-.2l2.4-3.4c.1-.1.1-.3.1-.4-.1-.3-.2-.4-.3-.5zM19.7 27.6zM31.5 29.6h-7.4c-.2 0-.3.1-.4.2-.1.1-.2.3-.2.5s.1.3.2.5c.1.1.3.2.4.2h7.4c.2 0 .3-.1.4-.2.1-.1.2-.3.2-.5s-.1-.3-.2-.5-.2-.2-.4-.2z"/></svg>