<svg xmlns="http://www.w3.org/2000/svg" width="39" height="39" viewBox="0 0 39 39" fill="none">
  <path d="M17.4621 19.934C19.5096 18.5237 25.9302 13.3402 22.6951 5.85563C22.4725 5.34841 22.1137 4.92779 21.6683 4.63707C21.656 4.63088 21.6436 4.61851 21.625 4.61233C21.2292 4.35872 20.7714 4.19789 20.2951 4.17933C17.6972 4.06799 12.8539 4.82882 9.52604 11.268C9.3281 11.6515 9.01264 11.9608 8.61676 12.1649C6.85387 13.0618 1.24355 16.6124 2.88273 24.7402C2.99407 25.2969 3.25386 25.8041 3.61263 26.2248C3.625 26.2433 3.63737 26.2557 3.64974 26.268C3.72397 26.3485 3.79819 26.4289 3.87861 26.5031C3.89098 26.5217 3.90953 26.534 3.92809 26.5526C4.33015 26.9175 4.81263 27.1897 5.35077 27.3258C6.00645 27.4928 6.7982 27.6227 7.67037 27.6227C10.4168 27.6227 13.992 26.3299 16.7137 20.8C16.8931 20.435 17.1405 20.1443 17.4498 19.9278L17.4621 19.934ZM18.0312 11.4536C18.0683 11.4783 18.6621 11.8123 19.4725 12.0721C18.9714 13.0433 18.3467 14.002 17.5673 14.8866C17.0292 14.7072 16.6333 14.5154 16.6271 14.5093C16.491 14.4412 16.324 14.4969 16.256 14.633C16.1879 14.7691 16.2436 14.9361 16.3797 15.0041C16.4044 15.0165 16.7137 15.1649 17.1529 15.3258C16.5962 15.8948 15.9714 16.4206 15.2663 16.8783C14.9322 17.101 14.6601 17.3732 14.4621 17.701C14.091 18.3134 13.0333 19.9773 11.5611 21.6598C11.0663 21.4433 10.7941 21.1897 10.7879 21.1835C10.6766 21.0783 10.5034 21.0783 10.3982 21.1835C10.2931 21.2887 10.2931 21.468 10.3982 21.5732C10.4168 21.5917 10.6827 21.8515 11.1776 22.0928C9.2848 24.1588 6.79202 26.1196 4.21881 26.0516C4.20026 26.033 4.1817 26.0206 4.16314 26.0021C4.28685 25.4887 4.7817 23.565 5.76521 21.3876C5.85799 21.4742 5.95078 21.5546 6.04975 21.6165C6.09304 21.6474 6.14872 21.6598 6.1982 21.6598C6.29098 21.6598 6.37758 21.6165 6.43325 21.5299C6.51366 21.4 6.47655 21.2268 6.34665 21.1464C6.23531 21.0722 6.12397 20.967 6.01882 20.8495C6.59408 19.6495 7.31779 18.4124 8.20233 17.3113C8.31985 17.4783 8.44975 17.6453 8.60439 17.8C8.66006 17.8557 8.7281 17.8804 8.80233 17.8804C8.87656 17.8804 8.9446 17.8557 9.00027 17.8C9.10542 17.6948 9.10542 17.5154 9.00027 17.4103C8.83326 17.2433 8.69717 17.0577 8.57965 16.8721C9.19202 16.1732 9.87244 15.5484 10.6333 15.0536C10.992 14.8185 11.2766 14.534 11.4745 14.2123C12.4147 12.6536 17.2828 4.95872 21.4395 5.14429C21.4518 5.15047 21.458 5.16284 21.4704 5.16903C21.4395 5.61439 21.1735 8.54636 19.7323 11.5773C18.9281 11.3299 18.3281 10.9897 18.3158 10.9835C18.1797 10.9092 18.0127 10.9525 17.9384 11.0824C17.8642 11.2123 17.9075 11.3855 18.0374 11.4598L18.0312 11.4536ZM19.8374 4.72367C19.9549 4.72367 20.0601 4.72367 20.1714 4.72985C18.2044 5.24325 16.2312 7.00615 14.5982 8.89893C13.8869 8.56491 13.5219 7.53192 13.4044 7.12986C15.7302 5.16284 18.1611 4.71748 19.8374 4.71748V4.72367ZM8.87037 12.6598C9.3714 12.4062 9.77347 12.0103 10.0209 11.5216C10.9116 9.80203 11.9137 8.50924 12.9467 7.53192C13.1322 8.06388 13.5219 8.91749 14.2271 9.33192C12.7364 11.1319 11.5611 12.9752 10.992 13.9216C10.8374 14.1752 10.6147 14.3979 10.324 14.5897C9.56934 15.0845 8.89511 15.6845 8.28274 16.3587C7.97346 15.6907 7.88686 15.0969 7.88686 15.0845C7.86831 14.9299 7.71985 14.8309 7.57758 14.8495C7.42294 14.868 7.31779 15.0103 7.34253 15.1587C7.34253 15.202 7.46624 15.9876 7.89305 16.8103C6.98377 17.899 6.2415 19.1299 5.64768 20.3237C5.38789 19.866 5.19614 19.3588 5.11572 19.1113C5.07242 18.9629 4.91778 18.8825 4.76933 18.9258C4.62088 18.9691 4.54046 19.1237 4.58376 19.2722C4.60232 19.3216 4.87448 20.2062 5.35696 20.9175C4.47242 22.8165 3.95902 24.5546 3.73015 25.4392C3.59407 25.1918 3.48891 24.9258 3.42706 24.6412C1.90541 17.1072 6.72397 13.7608 8.86419 12.666L8.87037 12.6598ZM5.49923 26.8C5.30748 26.7505 5.12809 26.6763 4.94871 26.5897C6.1116 26.466 7.23738 26.0021 8.29511 25.3402C8.62913 25.6433 9.42089 26.2928 10.3487 26.6021C8.48068 27.2887 6.73016 27.1155 5.49923 26.8ZM11.2394 26.2062C10.2436 26.1753 9.22914 25.4144 8.7714 25.0186C9.86006 24.2577 10.8621 23.3052 11.7343 22.3278C12.1116 22.4454 12.557 22.5381 13.0828 22.5381C13.2374 22.5381 13.3611 22.4144 13.3611 22.2598C13.3611 22.1052 13.2374 21.9814 13.0828 21.9814C12.724 21.9814 12.4147 21.932 12.1364 21.8639C13.4539 20.3237 14.4374 18.8021 14.9322 17.9917C15.0869 17.7381 15.3034 17.5216 15.5694 17.3484C16.392 16.8103 17.1034 16.1917 17.7281 15.5237C18.1673 15.6474 18.6683 15.7464 19.1446 15.7464C19.2993 15.7464 19.423 15.6227 19.423 15.468C19.423 15.3134 19.2993 15.1897 19.1446 15.1897C18.8168 15.1897 18.4704 15.134 18.1426 15.0536C18.9034 14.1567 19.5158 13.1917 20.0106 12.2206C20.3941 12.3134 20.8085 12.3752 21.223 12.3752C21.3776 12.3752 21.5013 12.2515 21.5013 12.0969C21.5013 11.9422 21.3776 11.8185 21.223 11.8185C20.8951 11.8185 20.5735 11.769 20.2642 11.7072C21.4457 9.17729 21.8415 6.74017 21.9652 5.68243C22.0518 5.80614 22.1323 5.93604 22.1941 6.07831C25.256 13.1732 19.1137 18.1278 17.1529 19.4825C16.7694 19.7484 16.4477 20.1196 16.2312 20.5649C14.7281 23.6144 12.9652 25.3155 11.2456 26.2062H11.2394Z" fill="#2C282B"/>
  <path d="M35.5422 13.8411C35.1277 12.8638 34.1875 12.2019 33.1545 12.1462C30.569 12.0102 25.7071 12.7462 22.3421 19.1669C22.1442 19.5442 21.8164 19.8597 21.4267 20.0576C19.6576 20.9421 14.0225 24.4617 15.6184 32.602C15.8658 33.8576 16.8308 34.8783 18.0741 35.2061C18.7421 35.3793 19.5524 35.5216 20.4493 35.5216C23.1896 35.5216 26.7463 34.2288 29.4803 28.7545C29.6597 28.3896 29.9133 28.0989 30.2226 27.8885C32.2762 26.4906 38.7277 21.3442 35.5422 13.8411ZM24.2535 31.6741C23.3071 32.1752 22.1442 32.5215 21.0493 32.5215C20.2328 32.5215 19.4535 32.3298 18.8349 31.8721C18.0803 31.3154 17.2885 30.1401 17.7648 27.703C18.5318 23.7999 21.903 23.3421 23.3133 23.3298C23.9318 23.3298 24.4762 23.4659 24.9339 23.7442C26.1834 24.4988 26.8823 25.8226 26.839 27.3751C26.7896 29.1813 25.7751 30.8762 24.2535 31.6803V31.6741ZM33.9092 20.2432C33.0865 22.1669 31.3483 23.7999 29.9566 23.9731C29.8576 23.9854 29.7463 23.9916 29.6411 23.9916C28.3483 23.9916 26.5731 23.138 25.7318 21.703C24.9834 20.4226 25.138 18.9504 26.1586 17.5586C28.0576 14.9792 30.0865 14.5462 31.4659 14.6452C32.5545 14.7194 33.1174 15.2019 33.6741 15.9504C34.5215 17.0947 34.6081 18.6225 33.9092 20.2494V20.2432Z" fill="#2C282B"/>
  <path d="M24.4763 25.4703C24.3402 25.5445 24.2907 25.7115 24.3588 25.8414C24.3897 25.9033 25.1258 27.3321 24.0495 28.5136C23.9443 28.6249 23.9567 28.8043 24.068 28.9033C24.1237 28.9528 24.1856 28.9775 24.2536 28.9775C24.3278 28.9775 24.4021 28.9466 24.4577 28.8847C25.8 27.4125 24.8598 25.6002 24.8474 25.5816C24.7732 25.4455 24.6124 25.396 24.4763 25.4703Z" fill="#2C282B"/>
  <path d="M32.1525 16.631C32.0041 16.6743 31.9236 16.8351 31.9731 16.9774C31.9731 16.9835 32.1216 17.4784 32.1278 18.0413L32.0721 18.6289C32.0226 18.864 31.9298 19.0866 31.7814 19.2722C31.6824 19.3897 31.701 19.5629 31.8185 19.6619C31.868 19.7052 31.9298 19.7238 31.9917 19.7238C32.0721 19.7238 32.1525 19.6866 32.2082 19.6248C33.0556 18.5918 32.5236 16.8846 32.5051 16.8103C32.4618 16.6681 32.3071 16.5815 32.1587 16.631H32.1525Z" fill="#2C282B"/>
</svg>