<svg xmlns="http://www.w3.org/2000/svg" width="20" height="20" fill="none"><path fill="#4D4D4F" fill-rule="evenodd" d="M13.333 5.833A3.337 3.337 0 0 1 10 9.167a3.337 3.337 0 0 1-3.333-3.334A3.337 3.337 0 0 1 10 2.5a3.337 3.337 0 0 1 3.333 3.333ZM10 4.167c.92 0 1.667.747 1.667 1.666 0 .92-.748 1.667-1.667 1.667-.92 0-1.667-.747-1.667-1.667 0-.919.748-1.666 1.667-1.666Zm5.833 12.5a.833.833 0 1 1-1.666 0A4.171 4.171 0 0 0 10 12.5a4.171 4.171 0 0 0-4.167 4.167.833.833 0 1 1-1.666 0A5.84 5.84 0 0 1 10 10.833a5.84 5.84 0 0 1 5.833 5.834Z" clip-rule="evenodd"/></svg>