<svg width="48" height="48" viewBox="0 0 48 48" fill="none" xmlns="http://www.w3.org/2000/svg">
<path d="M36.6906 17.2139C34.9107 13.2152 33.558 11.6713 30.1674 9.88451C27.8893 8.73006 25.374 8.08975 22.8077 8.01098V8.01098C21.6626 7.9514 20.5178 8.13488 19.4526 8.54875V8.54875C17.0582 9.45559 14.9516 10.9619 13.3454 12.9158C11.7392 14.8697 10.6901 17.2019 10.3041 19.6772C10.3041 19.8941 10.2329 20.1109 10.1973 20.3364C9.85014 22.7094 9.96183 25.1247 10.5266 27.4576C11.5678 31.9159 13.4456 37.5799 16.4535 39.2366C16.8457 39.523 17.3134 39.6946 17.8019 39.7315C18.2904 39.7684 18.7797 39.6689 19.2123 39.4448C21.0812 38.2565 20.7252 34.0063 20.6807 33.5466C20.6807 33.5466 20.5116 29.0015 20.3692 25.4626C20.6023 25.7297 20.8911 25.9453 21.2165 26.0949C21.5418 26.2445 21.8962 26.3246 22.2559 26.33C22.5918 26.3217 22.9225 26.2475 23.2283 26.1119C23.5341 25.9763 23.8087 25.782 24.0358 25.5407C23.8489 28.8714 23.5819 35.3421 24.196 37.4671C24.2899 37.9661 24.4989 38.4378 24.8072 38.8465C25.1155 39.2552 25.5151 39.5903 25.9758 39.8264C26.2568 39.9439 26.56 40.003 26.8657 39.9999H27.1238C27.8714 39.9999 30.9327 39.9218 32.8283 38.7595C35.0086 36.9207 36.2278 33.5032 36.2723 33.3818C38.684 27.5183 38.3281 20.8135 36.6906 17.2139ZM24.9613 23.7973C25.0027 23.574 25.0235 23.3476 25.0236 23.1207C25.0236 23.1207 25.0236 23.0513 25.0236 23.0253L32.7037 27.8219C32.3218 30.1263 31.6924 32.3852 30.8259 34.5614L24.6498 30.7016C24.7121 27.6571 24.9079 24.6299 24.9613 23.7973ZM11.5055 28.1341L19.5149 23.1554C19.6039 25.1504 19.7285 28.3597 19.8175 30.6842L13.6859 34.518C12.7604 32.4595 12.0306 30.3226 11.5055 28.1341V28.1341ZM24.5786 21.3773L24.5074 21.2645C24.3576 20.9383 24.13 20.6517 23.8437 20.4284C23.5573 20.2052 23.2205 20.0517 22.8611 19.9808H22.7721H22.7098C22.7098 17.3787 22.7721 15.3924 22.781 13.8224L32.5702 19.9634C32.8251 21.0345 32.977 22.1263 33.0241 23.2248C33.0496 24.4868 32.9692 25.7487 32.7838 26.9979L24.7744 22.0105C24.73 21.7938 24.6644 21.5818 24.5786 21.3773ZM23.8044 8.93907C28.254 9.9539 31.0751 14.5163 32.3299 18.8185L22.7899 12.8683C22.7899 10.5524 22.7899 9.39878 22.7187 8.80029C23.084 8.81575 23.4473 8.86219 23.8044 8.93907V8.93907ZM19.7285 9.27735C20.4375 9.00951 21.1852 8.85147 21.9444 8.80896C21.9444 9.43348 21.9889 10.9514 21.9444 12.8423L11.1318 19.6165C11.5241 17.3164 12.5226 15.155 14.0296 13.3441C15.5366 11.5332 17.5003 10.1348 19.7285 9.28602V9.27735ZM10.9716 20.64L21.98 13.7617C21.98 15.7133 21.98 17.9338 21.9177 19.9374C21.5818 19.9873 21.2604 20.1055 20.9744 20.2844L20.7697 20.4145L20.6629 20.5012C20.5824 20.5608 20.5052 20.6245 20.4315 20.692C20.0243 21.0985 19.7383 21.6052 19.6039 22.1579L11.3097 27.3622V27.3101C10.7812 25.1254 10.6666 22.8649 10.9716 20.64V20.64ZM18.7763 38.7769C18.3135 39.0718 17.6639 38.9937 16.8362 38.5427C15.5978 37.7143 14.6233 36.5631 14.024 35.2206L19.7819 31.6037L19.8531 33.5813C20.0044 34.7609 20.0222 37.9876 18.7763 38.7769ZM25.0058 37.259C24.681 35.3945 24.5646 33.5012 24.6587 31.6123L30.5323 35.2813C29.7046 37.1028 28.7524 38.4993 27.7735 38.9937C27.5495 39.1175 27.3006 39.1925 27.0441 39.2135C26.7875 39.2344 26.5293 39.2009 26.2873 39.1152C25.9426 38.9186 25.6466 38.6504 25.4204 38.3295C25.1943 38.0086 25.0436 37.6431 24.9791 37.259H25.0058Z" fill="black"/>
</svg>
