<svg xmlns="http://www.w3.org/2000/svg" xml:space="preserve" style="enable-background:new 0 0 48 48" viewBox="0 0 48 48"><path fill="currentColor" d="M39.9 19.7c-.1-.2-.2-.5-.4-.6-.3-.4-.8-.5-1.9-.6l-7.9-.5c-.1 0-.2 0-.3-.1-.1-.1-.1-.2-.2-.3l-3.6-7.7c-.4-.9-.6-1.4-1.1-1.6-.1-.3-.4-.3-.6-.3H23.6l-.2.1c-.4.2-.6.6-1 1.4l-.1.2-3.6 7.8c-.1.1-.1.3-.2.4h-.3l-6.7.5-1.3.1H10c-.8.2-1.3.2-1.6.6-.1.2-.2.3-.3.5v.6H8c.1.5.4.8 1.2 1.6l5.7 5.3c.1.1.2.2.2.3v.3L13 37.1v.1c-.2 1-.2 1.5 0 1.9.2.3.4.6.7.7l.2.1h.4l.2-.1h.2l.3-.2.2-.1.3-.1.3-.2 7.8-5.4h.1l.1-.1h.2l.2.1 7.9 5.5c.5.3 1 .6 1.6.7h.2c.2 0 .4-.1.6-.3.2-.1.3-.3.4-.5.2-.4.1-1 0-2L32.8 28v-.4c.1-.1.1-.2.2-.2l5.8-5.3c.7-.7 1.1-1.1 1.2-1.6 0-.3 0-.6-.1-.8zM38 21l-5.8 5.3c-.2.2-.3.3-.4.5-.1.2-.1.3-.2.5 0 .2 0 .5.1.7l2.1 9.2c.1.4.1.8.1 1.2 0 .1-.1.1-.1.1-.3-.1-.7-.3-1-.5l-7.9-5.4-.3-.2V10.2v.1l3.6 7.8.3.6c.1.1.3.3.4.3.2.1.5.1.7.2l7.9.5c.4 0 .7.1 1.1.2 0 0 0 .1.1.1v.1c-.2.3-.5.6-.7.9z"/></svg>