<?xml version="1.0" encoding="UTF-8"?>
<svg enable-background="new 0 0 48 48" version="1.1" viewBox="0 0 48 48" xml:space="preserve" xmlns="http://www.w3.org/2000/svg">
<path d="m39.9 19.7-0.3-0.6c-0.3-0.4-1-0.5-2-0.6l-7.9-0.5c-0.1 0-0.3 0-0.4-0.1s-0.1-0.2-0.2-0.3l-3.6-7.7c-0.4-1-0.6-1.4-1.1-1.6 0-0.2-0.3-0.3-0.5-0.3s-0.4 0.1-0.6 0.2c-0.1 0.1-0.3 0.2-0.4 0.3l-0.1 0.1c-0.1 0.1-0.2 0.3-0.3 0.5-0.1 0.1-0.1 0.3-0.2 0.4 0 0.1-0.1 0.2-0.1 0.3l0.5 0.3-0.5-0.3v0.1l-3.5 7.7c-0.1 0.1-0.1 0.3-0.2 0.4h-0.3l-8 0.5h-0.2c-0.9 0.2-1.3 0.3-1.6 0.6-0.1 0.2-0.2 0.3-0.3 0.6-0.1 0.2-0.1 0.4-0.1 0.6 0.1 0.5 0.4 0.9 1.2 1.6l5.7 5.3c0.1 0.1 0.2 0.2 0.2 0.3v0.3l-2.1 9.4c-0.2 1-0.2 1.6 0 2 0.1 0.2 0.2 0.4 0.4 0.5l0.6 0.3c0.5 0.1 0.9-0.1 1.8-0.6h0.1l7.8-5.5c0.1-0.1 0.2-0.1 0.3-0.1l0.2 0.1 7.9 5.5c0.5 0.3 1 0.6 1.6 0.7h0.2c0.2 0 0.4-0.1 0.6-0.3 0.2-0.1 0.3-0.3 0.4-0.5 0.2-0.4 0.1-0.9 0-1.9v-0.2l-2.1-9.2v-0.5c0.1-0.1 0.1-0.2 0.2-0.2l5.8-5.3c0.7-0.7 1-1.1 1.2-1.6 0-0.3 0-0.5-0.1-0.7zm-7.9 6.5c-0.1 0.1-0.2 0.3-0.3 0.4l-0.2 0.3-0.1 0.3c-0.1 0.3-0.1 0.7 0 1l2 9.2v0.1c0.1 0.4 0.1 0.7 0.1 0.9-0.2-0.1-0.4-0.2-0.5-0.3l-8-5.6-0.8-0.4-0.5 0.1c-0.3 0.1-0.6 0.2-0.9 0.4l-7.7 5.4c-0.2 0.1-0.4 0.2-0.5 0.3-0.1 0-0.1 0.1-0.2 0.1 0-0.2 0.1-0.5 0.1-0.9l2.1-9.4v-0.1-0.5-0.3l-0.1-0.2c-0.1-0.3-0.3-0.6-0.6-0.9l-5.7-5.3-0.7-0.7c0.1 0 0.2 0 0.3-0.1 0.1 0 0.3-0.1 0.4-0.1h0.1l7.8-0.5h0.9l0.4-0.5c0.2-0.2 0.4-0.5 0.5-0.8l3.5-7.7-0.8-0.4 0.8 0.4c0.2-0.3 0.3-0.6 0.3-0.7 0.1 0.2 0.2 0.4 0.3 0.7l3.6 7.7c0.1 0.2 0.1 0.3 0.2 0.5l0.2 0.4 0.4 0.2c0.3 0.2 0.6 0.3 1 0.3l7.9 0.5c0.2 0 0.4 0.1 0.6 0.1s0.3 0.1 0.3 0.1c-0.1 0.2-0.3 0.4-0.6 0.7l-5.6 5.3zm6.5-6.1c-0.1 0.1-0.1 0.2 0 0-0.1 0-0.1 0.1 0 0z" fill="currentColor"/>
</svg>
