<svg fill="none" viewBox="0 0 16 16" xmlns="http://www.w3.org/2000/svg">
    <path d="m11.541 10.598 2.2634 2.264c0.2606 0.2607 0.2606 0.682 0 0.9427-0.13 0.13-0.3007 0.1953-0.4714 0.1953-0.1706 0-0.3413-0.0653-0.4713-0.1953l-2.264-2.2634c-0.90267 0.702-2.034 1.1254-3.2647 1.1254-2.9407 0-5.3333-2.3927-5.3333-5.3334 0-2.9407 2.3927-5.3333 5.3333-5.3333 2.9407 0 5.3334 2.3927 5.3334 5.3333 0 1.2307-0.4234 2.362-1.1254 3.2647zm-4.208-7.2647c-2.206 0-4 1.794-4 4s1.794 4 4 4 4-1.794 4-4-1.794-4-4-4z" clip-rule="evenodd" fill="#000" fill-rule="evenodd"
        fill="currentColor" />
    <mask x="2" y="2" width="13" height="12" style="mask-type:luminance" maskUnits="userSpaceOnUse">
        <path d="m11.541 10.598 2.2634 2.264c0.2606 0.2607 0.2606 0.682 0 0.9427-0.13 0.13-0.3007 0.1953-0.4714 0.1953-0.1706 0-0.3413-0.0653-0.4713-0.1953l-2.264-2.2634c-0.90267 0.702-2.034 1.1254-3.2647 1.1254-2.9407 0-5.3333-2.3927-5.3333-5.3334 0-2.9407 2.3927-5.3333 5.3333-5.3333 2.9407 0 5.3334 2.3927 5.3334 5.3333 0 1.2307-0.4234 2.362-1.1254 3.2647zm-4.208-7.2647c-2.206 0-4 1.794-4 4s1.794 4 4 4 4-1.794 4-4-1.794-4-4-4z" clip-rule="evenodd" fill="#fff" fill-rule="evenodd"/>
    </mask>
</svg>
