<svg xmlns="http://www.w3.org/2000/svg" width="45" height="43" viewBox="0 0 45 43" fill="none">
  <path d="M36.2388 28.5682C36.2318 28.4774 35.9593 26.3744 34.1498 25.0609C32.8153 24.0898 31.0128 23.8243 28.805 24.2714C28.5954 24.3133 23.586 25.3194 21.4132 28.5193C21.0149 29.1062 21.0219 29.8747 21.4341 30.4266C24.0681 33.9689 27.6871 34.3461 29.1194 34.3461C29.4548 34.3461 29.6713 34.3252 29.7202 34.3182C32.2354 34.1016 34.0659 33.3051 35.1768 31.9427C36.4553 30.3707 36.2597 28.6381 36.2527 28.5682H36.2388ZM34.6738 31.5585C33.6817 32.7741 31.9909 33.4938 29.6574 33.6964C29.6574 33.6964 29.6574 33.6964 29.6504 33.6964C29.6015 33.6964 24.9973 34.1645 21.9302 30.0494C21.6786 29.707 21.6786 29.2319 21.9302 28.8686C23.9633 25.8853 28.8749 24.8932 28.9308 24.8862C29.5805 24.7535 30.1953 24.6906 30.7612 24.6906C31.9629 24.6906 32.976 24.9841 33.7865 25.564C35.3724 26.7098 35.6239 28.6241 35.6309 28.645C35.6309 28.659 35.7986 30.2031 34.6877 31.5585H34.6738Z" fill="#2C282B"/>
  <path d="M13.0991 13.8264C12.4074 13.6518 11.6947 13.9173 11.3105 14.4972C8.31322 19.0594 10.3743 23.3772 10.4861 23.6147C11.548 25.9063 12.9244 27.3525 14.5802 27.9254C15.1461 28.1211 15.6841 28.1909 16.1592 28.1909C17.284 28.1909 18.0735 27.7997 18.1154 27.7787C18.1923 27.7368 20.0787 26.7657 20.6935 24.6138C21.1476 23.0278 20.7773 21.2462 19.6036 19.3179C19.4918 19.1293 16.8369 14.7766 13.0851 13.8264H13.0991ZM20.1066 24.4391C19.5756 26.3255 17.8639 27.2128 17.843 27.2198C17.829 27.2198 16.4387 27.9115 14.7828 27.3316C13.2947 26.8146 12.0441 25.4731 11.059 23.3492C11.059 23.3492 11.059 23.3492 11.059 23.3422C11.038 23.3003 9.02586 19.1293 11.8415 14.8465C12.0231 14.567 12.3445 14.4063 12.6868 14.4063C12.7777 14.4063 12.8615 14.4203 12.9523 14.4413C16.4526 15.3286 19.0656 19.6044 19.0936 19.6533C20.1695 21.4209 20.5188 23.0348 20.1136 24.4461L20.1066 24.4391Z" fill="#2C282B"/>
  <path d="M23.7749 21.7983C23.8307 21.8263 24.8578 22.3712 26.2341 22.3712C26.7302 22.3712 27.2821 22.3014 27.8411 22.1057C29.3991 21.5678 30.6567 20.2543 31.5649 18.1863C31.6558 17.9906 33.7098 13.3166 32.3474 9.69751C32.0959 9.03378 31.4601 8.6076 30.7754 8.61459C25.3189 8.76131 22.9504 12.9183 22.8247 13.1489C21.5531 15.3287 21.1479 17.292 21.63 18.9757C22.1819 20.925 23.712 21.7634 23.7749 21.7983ZM23.3696 13.4633C23.3696 13.4633 23.3696 13.4633 23.3696 13.4563C23.3906 13.4144 25.6682 9.37613 30.7894 9.24338C30.7964 9.24338 30.8104 9.24338 30.8174 9.24338C31.2296 9.24338 31.6069 9.51586 31.7606 9.92108C33.0321 13.3026 31.013 17.8858 30.992 17.9347C30.1536 19.8281 29.0288 21.0368 27.6454 21.5119C25.794 22.1477 24.0823 21.2534 24.0683 21.2464C24.0543 21.2394 22.6989 20.4848 22.2308 18.7941C21.8046 17.278 22.1889 15.4824 23.3696 13.4633Z" fill="#2C282B"/>
  <path d="M15.4256 24.9072C12.7567 23.7614 12.4423 19.3319 12.4353 19.283C12.4213 19.1083 12.2886 18.9756 12.1069 18.9895C11.9323 19.0035 11.8065 19.1502 11.8135 19.3249C11.8275 19.5205 12.1559 24.1806 15.1811 25.4801C15.223 25.4941 15.2649 25.508 15.3068 25.508C15.4256 25.508 15.5444 25.4382 15.5933 25.3194C15.6631 25.1587 15.5933 24.9771 15.4326 24.9072H15.4256Z" fill="#2C282B"/>
  <path d="M29.4828 16.5373C29.5457 16.5373 29.6086 16.5163 29.6644 16.4744C30.6356 15.7618 30.6845 11.9261 30.6845 11.1716C30.6845 10.9969 30.5448 10.8572 30.3701 10.8572C30.1954 10.8572 30.0557 10.9969 30.0557 11.1716C30.0557 12.9322 29.8182 15.5871 29.2942 15.9714C29.1544 16.0762 29.1265 16.2718 29.2243 16.4115C29.2872 16.4954 29.378 16.5373 29.4758 16.5373H29.4828Z" fill="#2C282B"/>
  <path d="M29.93 26.5283C27.0445 26.5283 24.69 28.4496 24.5852 28.5335C24.4525 28.6453 24.4315 28.8409 24.5433 28.9736C24.6062 29.0505 24.697 29.0854 24.7809 29.0854C24.8507 29.0854 24.9206 29.0645 24.9835 29.0156C25.0044 28.9946 27.2681 27.1571 29.93 27.1571C30.1047 27.1571 30.2444 27.0174 30.2444 26.8427C30.2444 26.6681 30.1047 26.5283 29.93 26.5283Z" fill="#2C282B"/>
</svg>