<svg xmlns="http://www.w3.org/2000/svg" width="43" height="42" viewBox="0 0 43 42" fill="none">
  <path d="M12.8354 15.854C9.34373 18.038 9.20891 19.8849 9.20217 19.9658C9.19543 20.1276 9.31676 20.2691 9.48528 20.2826C9.48528 20.2826 9.49876 20.2826 9.5055 20.2826C9.66054 20.2826 9.79535 20.1613 9.80883 19.9995C9.80883 19.986 9.97735 18.3548 13.159 16.3663C13.3005 16.2786 13.341 16.0899 13.2533 15.9483C13.1657 15.8068 12.977 15.7663 12.8354 15.854Z" fill="#2C282B"/>
  <path d="M35.9898 10.6773C35.437 10.1111 34.6686 9.78081 33.8799 9.78081H23.6611C22.3264 9.78081 21.2344 8.72252 21.2277 7.42831V7.30024C21.2614 6.1341 22.259 5.1904 23.4453 5.1904H29.7007C29.8692 5.1904 30.004 5.05559 30.004 4.88707C30.004 4.71855 29.8692 4.58374 29.7007 4.58374H23.4453C21.9354 4.58374 20.6682 5.79032 20.6277 7.28001V7.35416V7.42157C20.6277 9.05281 21.9961 10.3807 23.6611 10.3807H33.8799C34.5068 10.3807 35.1202 10.6369 35.5584 11.0952C35.983 11.5401 36.2122 12.1131 36.1852 12.7197V12.7871C36.0976 14.506 34.1159 14.7959 33.2665 14.8363C33.4553 14.0477 33.5833 13.1983 33.644 12.2951C33.644 12.2142 33.617 12.1266 33.5631 12.0659C33.5092 12.0052 33.4283 11.9715 33.3407 11.9715H19.192C18.0393 11.9715 16.9406 12.1198 15.9093 12.4232C15.4644 12.5512 14.9386 12.7265 14.3724 12.9489C14.3656 12.9489 14.3589 12.9489 14.3522 12.9557C11.9457 13.9196 8.76414 15.8407 7.38904 19.5278C7.36882 19.5615 7.35534 19.602 7.3486 19.6424C6.72171 21.395 6.49253 23.5385 6.94416 26.1607C7.2003 27.4549 7.57104 28.5873 8.02941 29.5782C8.03615 29.5984 8.04289 29.6186 8.05637 29.6321C11.0358 36.029 17.5135 36.4469 18.073 36.4672C18.2887 36.5211 19.6166 36.8446 21.1737 36.8446C23.2296 36.8446 25.6698 36.2717 26.3641 33.7574C26.3843 33.6765 26.3708 33.5822 26.3236 33.5147C26.2764 33.4473 26.2023 33.3934 26.1147 33.3799C26.0338 33.3665 24.9283 33.2114 23.6543 33.2788C23.7824 32.4362 23.5465 30.9668 23.4521 30.4612C23.4386 30.3736 23.3847 30.2994 23.3105 30.259C23.2364 30.2186 23.142 30.2051 23.0611 30.232C22.5421 30.4006 22.0231 30.805 20.8771 31.6948L20.5199 31.9711C18.9021 33.2249 18.2011 34.8629 17.945 35.6515C17.1833 34.9977 15.3633 33.2721 14.4735 31.0274H16.2935C16.462 31.0274 16.5968 30.8926 16.5968 30.7241C16.5968 30.5556 16.462 30.4208 16.2935 30.4208H14.2578C14.0825 29.8546 13.9814 29.2614 13.9679 28.648H15.9295C16.098 28.648 16.2328 28.5132 16.2328 28.3446C16.2328 28.1761 16.098 28.0413 15.9295 28.0413H13.9882C14.0354 27.4684 14.1702 26.8752 14.4196 26.2753H17.0147C17.1833 26.2753 17.3181 26.1404 17.3181 25.9719C17.3181 25.8034 17.1833 25.6686 17.0147 25.6686H14.7094C15.0262 25.0417 15.3767 24.5159 15.7542 24.0778H18.3966C18.5651 24.0778 18.6999 23.943 18.6999 23.7745C18.6999 23.6059 18.5651 23.4711 18.3966 23.4711H16.3407C18.5921 21.4557 21.3355 21.9073 21.4838 21.9343C21.5714 21.9545 22.3736 22.096 23.5397 22.096C25.3058 22.096 27.8942 21.759 30.0377 20.1008C31.487 18.9818 32.4981 17.4113 33.0845 15.4362C34.4327 15.4228 36.6773 14.8768 36.7784 12.8006V12.7265C36.8054 11.958 36.5223 11.2233 35.983 10.6571L35.9898 10.6773ZM20.8974 32.4497L21.2546 32.1734C22.077 31.533 22.5623 31.1555 22.9331 30.9533C23.0814 31.9307 23.1555 32.9755 23.0476 33.3328C22.286 33.4204 21.5108 33.5956 20.9109 33.9529C20.1896 34.3776 19.7178 34.7887 19.3335 35.1258C19.0504 35.3752 18.8212 35.5639 18.5786 35.6987C18.8549 34.937 19.5088 33.5282 20.8974 32.4497ZM7.53734 26.0663C7.18008 23.9767 7.26097 22.2106 7.63845 20.7075C8.1777 21.9275 9.69436 24.0711 13.8803 26.0191C13.3613 27.2459 13.2804 28.439 13.4557 29.5512C11.1773 29.9152 9.10117 29.4097 8.54844 29.2546C8.13052 28.3244 7.77326 27.2796 7.53734 26.073V26.0663ZM17.1833 35.7864C15.343 35.4965 11.2177 34.3573 8.88547 29.9557C9.5191 30.104 10.5504 30.2792 11.7637 30.2792C12.33 30.2792 12.9434 30.232 13.5702 30.1309C14.1836 32.6991 16.1115 34.7887 17.19 35.7864H17.1833ZM14.1432 25.4731C8.71021 22.9454 8.01592 20.094 7.94852 19.7098C9.12814 16.5417 11.7233 14.7352 14.096 13.7174C14.0151 15.1464 14.1499 19.2852 17.7562 21.9073C16.462 22.46 15.1071 23.5251 14.1365 25.4731H14.1432ZM21.167 21.3141C20.6143 21.2804 19.5829 21.2871 18.4235 21.6511C18.4101 21.6377 18.4033 21.6242 18.3898 21.6174C14.3994 18.9616 14.6353 14.3577 14.7229 13.4612C15.1948 13.2792 15.6531 13.1309 16.0778 13.0096C17.0484 12.7265 18.1 12.5849 19.192 12.5849H21.167V21.3141ZM26.0742 15.9822C25.4878 15.9822 25.0092 15.5036 25.0092 14.9172C25.0092 14.3308 25.4878 13.8522 26.0742 13.8522C26.6607 13.8522 27.1392 14.3308 27.1392 14.9172C27.1392 15.5036 26.6607 15.9822 26.0742 15.9822Z" fill="#2C282B"/>
</svg>