<svg xmlns="http://www.w3.org/2000/svg" width="20" height="20" viewBox="0 0 20 20" fill="none">
    <path fill-rule="evenodd" clip-rule="evenodd"
        d="M16.1516 5C16.7333 5 17.2633 5.295 17.5691 5.79C17.875 6.285 17.9025 6.89083 17.6425 7.41167L14.9125 12.8725C14.7708 13.155 14.4825 13.3333 14.1666 13.3333H6.66663C6.29079 13.3333 5.96163 13.0817 5.86246 12.7192L3.52996 4.16667H2.49996C2.03913 4.16667 1.66663 3.79333 1.66663 3.33333C1.66663 2.87333 2.03913 2.5 2.49996 2.5H4.16663C4.54246 2.5 4.87163 2.75167 4.97079 3.11417L5.48496 5H16.1516ZM13.6516 11.6667H7.30329L5.93913 6.66667H16.1516L13.6516 11.6667ZM6.24996 17.5C6.93996 17.5 7.49996 16.9408 7.49996 16.25C7.49996 15.5592 6.93996 15 6.24996 15C5.55996 15 4.99996 15.5592 4.99996 16.25C4.99996 16.9408 5.55996 17.5 6.24996 17.5ZM14.5833 17.5C15.2733 17.5 15.8333 16.9408 15.8333 16.25C15.8333 15.5592 15.2733 15 14.5833 15C13.8933 15 13.3333 15.5592 13.3333 16.25C13.3333 16.9408 13.8933 17.5 14.5833 17.5Z"
        fill="currentColor" />
</svg>