<svg fill="none" height="24" viewBox="0 0 24 24" width="24" xmlns="http://www.w3.org/2000/svg" xmlns:xlink="http://www.w3.org/1999/xlink"><clipPath id="a"><path d="m0 0h24v24h-24z"/></clipPath><g clip-path="url(#a)"><path d="m17.56 21c-.1599.0006-.3177-.0371-.46-.11l-5.1-2.67-5.1 2.67c-.16561.0871-.35232.126-.53892.1122-.1866-.0137-.3656-.0796-.51665-.19s-.26809-.261-.33782-.4346c-.06972-.1737-.08934-.3634-.05661-.5476l1-5.63-4.12-4c-.12854-.1283-.21973-.28913-.26377-.4653-.04405-.17618-.03929-.36102.01377-.53469.05796-.17773.16458-.33565.30775-.45585.14317-.12019.31717-.19785.50225-.22415l5.7-.83 2.51-5.13c.0819-.16908.2097-.31166.3689-.41143s.3432-.15268.5311-.15268.3719.05291.5311.15268.287.24235.3689.41143l2.54 5.12 5.7.83c.1851.0263.3591.10396.5023.22415.1431.1202.2497.27812.3077.45585.0531.17367.0578.35851.0138.53469-.0441.17617-.1353.337-.2638.4653l-4.12 4 1 5.63c.0357.1875.017.3813-.0539.5585-.0708.1772-.191.3304-.3461.4415-.1811.1269-.3991.1902-.62.18z" fill="#ffb81c"/></g></svg>