<?xml version="1.0" encoding="UTF-8"?>
<svg enable-background="new 0 0 24 24" version="1.1" viewBox="0 0 24 24" xml:space="preserve" xmlns="http://www.w3.org/2000/svg">
<path d="m22 9.1c-0.1-0.4-0.4-0.6-0.8-0.7l-5.7-0.8-2.5-5.1c-0.3-0.7-1.5-0.7-1.8 0l-2.6 5.1-5.7 0.9c-0.4 0-0.7 0.3-0.9 0.6-0.1 0.4 0 0.8 0.3 1l4.1 4-1 5.6c-0.1 0.4 0.1 0.8 0.4 1 0.4 0.3 0.8 0.3 1.1 0.1l5.1-2.7 5.1 2.7c0.1 0.1 0.3 0.1 0.5 0.1s0.4-0.1 0.6-0.2c0.3-0.2 0.5-0.6 0.4-1l-1-5.6 4.1-4c0.3-0.2 0.4-0.6 0.3-1zm-6.2 4c-0.2 0.2-0.3 0.6-0.3 0.9l0.7 4.2-3.8-2c-0.1-0.1-0.2-0.2-0.4-0.2s-0.3 0-0.5 0.1l-3.8 2 0.8-4.1c0.1-0.3-0.1-0.7-0.3-0.9l-3-2.9 4.2-0.6c0.3 0 0.6-0.2 0.8-0.5l1.8-3.9 1.9 3.8c0.1 0.3 0.4 0.5 0.8 0.5l4.2 0.6-3.1 3z" fill="currentColor"/>
</svg>
