<?xml version="1.0" encoding="UTF-8"?>
<svg enable-background="new 0 0 24 24" version="1.1" viewBox="0 0 24 24" xml:space="preserve" xmlns="http://www.w3.org/2000/svg">
<path d="m17.6 21c-0.2 0-0.3 0-0.5-0.1l-5.1-2.7-5.1 2.7c-0.2 0.1-0.4 0.1-0.5 0.1-0.2 0-0.4-0.1-0.5-0.2-0.2-0.1-0.3-0.3-0.3-0.4-0.1-0.2-0.1-0.4-0.1-0.5l1-5.6-4.1-4c-0.1-0.1-0.2-0.3-0.3-0.5v-0.5c0-0.3 0.1-0.4 0.3-0.6 0.1-0.1 0.3-0.2 0.5-0.2l5.7-0.8 2.5-5.1c0.1-0.2 0.2-0.3 0.4-0.4 0.1-0.2 0.3-0.2 0.5-0.2s0.4 0.1 0.5 0.2c0.2 0.1 0.3 0.2 0.4 0.4l2.5 5.1 5.7 0.8c0.2 0 0.4 0.1 0.5 0.2 0.2 0.2 0.3 0.3 0.4 0.5v0.5c0 0.2-0.1 0.3-0.3 0.5l-4.1 4 1 5.6c0 0.2 0 0.4-0.1 0.6s-0.2 0.3-0.3 0.4c-0.2 0.1-0.4 0.2-0.6 0.2z" fill="currentColor"/>
</svg>
