<svg width="48" height="48" viewBox="0 0 48 48" fill="none" xmlns="http://www.w3.org/2000/svg">
<path fill-rule="evenodd" clip-rule="evenodd" d="M35.6655 30.0929L40.8555 38.5356V38.552C41.0508 38.8726 41.0508 39.2672 40.8393 39.5796C40.6278 39.892 40.2698 40.0482 39.9038 39.9907L34.7055 39.1686C34.5998 39.1521 34.5022 39.2097 34.4696 39.3001L32.5091 44.323C32.379 44.6682 32.0698 44.8984 31.7038 44.9231H31.6306C31.297 44.9231 30.9879 44.7422 30.8171 44.4463L24.7647 33.9813C24.5044 33.9073 24.244 33.8498 24 33.8498C23.756 33.8498 23.4956 33.9073 23.2353 33.9813L17.1829 44.4463C17.0121 44.7422 16.703 44.9149 16.3694 44.9149H16.2962C15.9302 44.8902 15.621 44.66 15.4909 44.3148L13.5304 39.2919C13.4897 39.2015 13.4002 39.1439 13.2945 39.1604L8.09624 39.9824C7.73017 40.0482 7.37223 39.8838 7.16073 39.5714C6.94922 39.259 6.94922 38.8644 7.14446 38.5438L12.3996 30.1176C11.6593 29.9203 10.9679 29.6243 10.5449 29.0324C9.93473 28.2021 10.0568 27.043 10.1788 25.925L10.1831 25.883C10.2632 25.1067 10.3462 24.303 10.1544 23.7054C9.98156 23.1497 9.49775 22.6094 8.98128 22.0326C8.96289 22.0121 8.94446 21.9915 8.926 21.9708C8.16132 21.1241 7.37223 20.2445 7.37223 19.1594C7.37223 18.0742 8.16132 17.1946 8.926 16.3479L8.94629 16.3252C9.47557 15.7337 9.96963 15.1815 10.1544 14.6133C10.3462 14.0157 10.2632 13.212 10.1831 12.4357L10.1788 12.3937L10.176 12.3664C10.063 11.2489 9.94773 10.1098 10.5449 9.27805C11.155 8.43131 12.2857 8.19291 13.3839 7.96273C13.3987 7.95956 13.4134 7.95639 13.4282 7.95322C14.1789 7.7919 14.9474 7.62677 15.4421 7.26397C15.9383 6.90226 16.3206 6.22816 16.7193 5.52118C17.2806 4.52647 17.8581 3.5071 18.8587 3.17827C19.8116 2.86816 20.8367 3.32767 21.8384 3.7767L21.8605 3.78661L21.9002 3.80444C22.62 4.12779 23.361 4.4607 24 4.4607C24.639 4.4607 25.38 4.12779 26.0998 3.80444L26.1395 3.78661L26.147 3.78321C27.1534 3.33213 28.1919 2.86667 29.1413 3.17827C30.1333 3.50427 30.7095 4.51707 31.2663 5.49573L31.2808 5.52118C31.2984 5.5518 31.3159 5.58235 31.3334 5.61283C31.7201 6.28596 32.0832 6.91792 32.5579 7.26397C33.0526 7.62677 33.8211 7.7919 34.5718 7.95322L34.6161 7.96273C35.7143 8.19291 36.845 8.43131 37.4552 9.27805C38.0653 10.1083 37.9432 11.2675 37.8212 12.3855L37.8169 12.4275C37.7368 13.2037 37.6538 14.0075 37.8456 14.6051C38.0184 15.1607 38.5023 15.7011 39.0187 16.2779C39.0371 16.2984 39.0555 16.319 39.074 16.3396C39.8387 17.1864 40.6278 18.066 40.6278 19.1511C40.6278 20.2363 39.8387 21.1159 39.074 21.9626L39.0537 21.9853C38.5244 22.5768 38.0304 23.129 37.8456 23.6972C37.6538 24.2947 37.7368 25.0985 37.8169 25.8748L37.8212 25.9168L37.8236 25.9398C37.9368 27.0506 38.053 28.1915 37.4552 29.0242C37.0403 29.5997 36.3895 29.8874 35.6655 30.0929ZM16.3532 44.175C16.3939 44.175 16.4915 44.175 16.5566 44.0681V44.0517L22.1615 34.3595C22.0639 34.4088 21.9663 34.4499 21.8687 34.491L21.8629 34.4936C21.0838 34.8463 20.2886 35.2062 19.5258 35.2062C19.3062 35.2062 19.0865 35.1815 18.8669 35.1075C17.8749 34.7815 17.2987 33.7687 16.7419 32.7901L16.7274 32.7646C16.7098 32.734 16.6922 32.7035 16.6747 32.673C16.288 31.9999 15.9249 31.3679 15.4502 31.0218C14.9556 30.659 14.1871 30.4939 13.4363 30.3326L13.3921 30.3231C13.3514 30.3149 13.3128 30.3066 13.2741 30.2984C13.2355 30.2902 13.1968 30.282 13.1562 30.2738L7.77084 38.9137C7.70576 39.0124 7.74644 39.111 7.77084 39.1439C7.79525 39.185 7.86033 39.259 7.98235 39.2426L13.1806 38.4205C13.6198 38.3465 14.0429 38.5931 14.2056 39.0124L16.1661 44.0353C16.2149 44.1503 16.3125 44.175 16.3532 44.175ZM19.0946 34.417C19.7861 34.639 20.6565 34.2526 21.5758 33.8333V33.8251C21.5974 33.8155 21.619 33.806 21.6406 33.7964C22.4179 33.4514 23.2246 33.0935 24.0081 33.0935C24.3579 33.0935 24.7159 33.1757 25.0738 33.2825C25.0803 33.2847 25.0863 33.287 25.0918 33.289C25.1069 33.2946 25.1188 33.299 25.1308 33.299C25.57 33.447 26.0093 33.636 26.4405 33.8333C27.3679 34.2526 28.2302 34.639 28.9216 34.417C29.6524 34.179 30.1401 33.3186 30.6515 32.4162L30.6544 32.4112C31.0774 31.6631 31.5167 30.8903 32.1349 30.4382C32.7562 29.9874 33.6038 29.8046 34.4254 29.6274L34.4778 29.6161L34.493 29.6129C35.496 29.4004 36.4324 29.202 36.8776 28.5885C37.3111 27.9882 37.2138 27.0436 37.1095 26.0312L37.1053 25.9908L37.1022 25.9604C37.0136 25.1064 36.9211 24.2144 37.1623 23.467C37.3901 22.7436 37.9758 22.0941 38.5452 21.4694C39.2204 20.7213 39.9119 19.9485 39.9119 19.1511C39.9119 18.3537 39.2204 17.581 38.5452 16.8329C37.9758 16.2081 37.3982 15.5587 37.1623 14.8353C36.9224 14.0917 37.0127 13.213 37.1008 12.3555L37.1053 12.3115L37.1085 12.281C37.2132 11.2728 37.3125 10.316 36.8776 9.71375C36.4324 9.10029 35.496 8.90189 34.493 8.68938L34.4778 8.68615C33.6317 8.51352 32.7613 8.32444 32.1349 7.86408C31.518 7.41881 31.0905 6.6626 30.6736 5.92522L30.6544 5.89111L30.6515 5.88608C30.1401 4.98363 29.6524 4.12321 28.9216 3.88525C28.2302 3.66329 27.3597 4.04967 26.4405 4.46892C26.4189 4.4785 26.3973 4.48808 26.3757 4.49768C25.5983 4.84262 24.7917 5.20057 24.0081 5.20057C23.2028 5.20057 22.373 4.83064 21.5758 4.46892C21.5504 4.45762 21.525 4.44633 21.4996 4.43506C20.7875 4.11844 20.1152 3.81949 19.5339 3.81949C19.3794 3.81949 19.2329 3.83593 19.0946 3.88525C18.3639 4.12321 17.8762 4.98363 17.3648 5.88608L17.3619 5.89111C16.9389 6.63919 16.4996 7.41194 15.8814 7.86408C15.26 8.31487 14.4125 8.49766 13.5908 8.67487C13.5734 8.67863 13.5559 8.68239 13.5385 8.68615L13.5233 8.68938C12.5203 8.90189 11.5839 9.10029 11.1387 9.71375C10.7052 10.3141 10.8025 11.2587 10.9068 12.271L10.9109 12.3115L10.9154 12.3555C11.0036 13.213 11.0939 14.0917 10.854 14.8353C10.6262 15.5587 10.0405 16.2081 9.47104 16.8329L9.46707 16.8373C8.79313 17.584 8.10438 18.3471 8.10438 19.1511C8.10438 19.9552 8.79314 20.7183 9.46707 21.465L9.47104 21.4694L9.48009 21.4794C10.0386 22.1011 10.6193 22.7475 10.854 23.467C11.0939 24.2106 11.0036 25.0893 10.9154 25.9468L10.9109 25.9908L10.9078 26.0213C10.8031 27.0295 10.7038 27.9863 11.1387 28.5885C11.5839 29.202 12.5203 29.4004 13.5233 29.6129L13.5385 29.6161C14.3845 29.7887 15.255 29.9778 15.8814 30.4382C16.4982 30.8834 16.9258 31.6397 17.3426 32.377L17.3619 32.4112L17.3648 32.4162C17.8762 33.3186 18.3639 34.179 19.0946 34.417ZM40.0258 39.2508C40.1559 39.2672 40.2373 39.1521 40.2373 39.1521V39.1686C40.2387 39.1649 40.2404 39.1609 40.2423 39.1565C40.2613 39.1113 40.2966 39.0276 40.2373 38.9302L34.9171 30.282C34.8682 30.2943 34.8174 30.3046 34.7666 30.3149C34.7157 30.3251 34.6649 30.3354 34.6161 30.3477L34.5718 30.3573C33.8211 30.5186 33.0526 30.6837 32.5579 31.0465C32.0617 31.4082 31.6794 32.0823 31.2808 32.7893C30.7194 33.784 30.1419 34.8034 29.1413 35.1322C28.1884 35.4423 27.1633 34.9828 26.1616 34.5338L26.1395 34.5239C26.0419 34.4746 25.9443 34.4335 25.8467 34.3924L31.4516 44.0764C31.5167 44.1832 31.6143 44.1832 31.655 44.1832C31.6566 44.1829 31.6583 44.1826 31.6601 44.1822C31.704 44.1735 31.803 44.154 31.8421 44.0435L33.8026 39.0206C33.9653 38.6014 34.3883 38.3547 34.8276 38.4287L40.0258 39.2508ZM12.3508 19.1353C12.3508 12.6409 17.5816 7.35502 24.0081 7.35502C30.4347 7.35502 35.6655 12.6409 35.6655 19.1353C35.6655 25.6297 30.4347 30.9156 24.0081 30.9156C17.5816 30.9156 12.3508 25.6297 12.3508 19.1353ZM30.1663 25.4159L30.2232 25.3584L30.2395 25.3666C30.6056 25.0049 30.8008 24.6596 30.8415 24.3472C30.874 24.0349 30.8333 23.7718 30.7032 23.5581C30.573 23.3443 30.3941 23.1224 30.1744 22.9004L25.3829 18.0584C25.2935 17.9762 25.2935 17.8282 25.3829 17.7378L28.7264 14.3591C28.8129 14.2643 28.8931 14.1954 28.9499 14.1466C28.9571 14.1404 28.964 14.1345 28.9704 14.1289C28.9743 14.1264 28.9782 14.124 28.9819 14.1216C29.0414 14.084 29.0872 14.0549 29.1331 14.0549C29.1738 14.0467 29.2226 14.0713 29.2633 14.1125L29.3121 14.1618C29.3691 14.2111 29.3935 14.2604 29.3935 14.3097C29.3935 14.3591 29.3691 14.4166 29.3284 14.4742C29.2796 14.5399 29.2064 14.6221 29.1006 14.729L26.5137 17.3432C26.2534 17.598 26.2534 18.0173 26.5137 18.2804L26.5869 18.3543C26.8391 18.6174 27.254 18.6174 27.5143 18.3543L30.1419 15.699C30.3615 15.4771 30.5405 15.2551 30.6706 15.0414C30.8089 14.8194 30.8496 14.5564 30.8089 14.244C30.7683 13.9316 30.5649 13.5863 30.2069 13.2246L30.15 13.1671C29.8002 12.8136 29.4667 12.6245 29.1575 12.5916C28.8484 12.5587 28.5881 12.6163 28.3766 12.7478C28.157 12.8876 27.9454 13.0602 27.7339 13.2739L24.3417 16.702C24.2603 16.7924 24.1139 16.7924 24.0244 16.702L19.8187 12.4519C19.5665 12.1888 19.1516 12.1888 18.8913 12.4519L18.8099 12.5341C18.5496 12.7889 18.5496 13.2082 18.8099 13.4712L29.0843 23.854C29.1982 23.9691 29.2714 24.0513 29.3202 24.1171C29.3691 24.1828 29.3853 24.2404 29.3853 24.2979C29.3853 24.3472 29.3528 24.4048 29.2958 24.4623L29.2796 24.4788C29.2226 24.5363 29.1738 24.5692 29.1169 24.5692C29.0599 24.5692 29.003 24.5528 28.9379 24.5034C28.8728 24.4541 28.7833 24.3719 28.6776 24.265L23.7885 19.3244L23.4956 19.0284L18.3951 13.874C18.1429 13.611 17.728 13.611 17.4677 13.874L17.3863 13.9563C17.126 14.2111 17.126 14.6304 17.3863 14.8934L21.5921 19.1435C21.6816 19.2257 21.6816 19.3737 21.5921 19.4641L18.1917 22.9004C17.9802 23.1141 17.8093 23.3279 17.6792 23.5416C17.5409 23.7554 17.4921 24.0184 17.5246 24.3308C17.549 24.6432 17.7443 24.9802 18.0941 25.3337L18.151 25.3913C18.5089 25.7612 18.8506 25.9585 19.1597 25.9996C19.4689 26.0325 19.7292 25.9914 19.9407 25.8599C20.1522 25.7283 20.3718 25.5475 20.5915 25.3255L23.2597 22.6291C23.5201 22.3743 23.5201 21.955 23.2597 21.692L23.1865 21.618C22.9343 21.3549 22.5195 21.3549 22.2591 21.618L19.6316 24.2733C19.5339 24.3801 19.4445 24.4541 19.3875 24.4952C19.3224 24.5445 19.2736 24.561 19.2248 24.561C19.1841 24.561 19.1353 24.5363 19.0865 24.487L19.0296 24.4295C18.9889 24.3884 18.9726 24.3472 18.9726 24.2979C18.9808 24.2568 19.0052 24.1993 19.0458 24.1417C19.0865 24.0842 19.1597 24.002 19.2655 23.8951L22.6171 20.5082C22.7066 20.4177 22.8449 20.4177 22.9343 20.5082L27.7258 25.3502C27.9454 25.5721 28.1651 25.753 28.3766 25.8845C28.5881 26.0243 28.8484 26.0654 29.1575 26.0243C29.4667 25.9832 29.8083 25.7777 30.1663 25.4159Z" fill="black"/>
</svg>
