<svg fill="none" height="24" viewBox="0 0 24 24" width="24" xmlns="http://www.w3.org/2000/svg"><mask height="20" maskUnits="userSpaceOnUse" width="20" x="2" y="2"><path clip-rule="evenodd" d="m20 6h1c.55 0 1 .45 1 1s-.45 1-1 1h-1v11c0 1.654-1.346 3-3 3h-10c-1.654 0-3-1.346-3-3v-11h-1c-.55 0-1-.45-1-1s.45-1 1-1h1 4v-1.672c0-1.284 1.121-2.328 2.5-2.328h3c1.379 0 2.5 1.044 2.5 2.328v1.672zm-10-1.672c0-.155.214-.328.5-.328h3c.286 0 .5.173.5.328v1.672h-4zm8 14.672c0 .551-.448 1-1 1h-10c-.552 0-1-.449-1-1v-11h12z" fill="#fff" fill-rule="evenodd"/></mask><path clip-rule="evenodd" d="m20 6h1c.55 0 1 .45 1 1s-.45 1-1 1h-1v11c0 1.654-1.346 3-3 3h-10c-1.654 0-3-1.346-3-3v-11h-1c-.55 0-1-.45-1-1s.45-1 1-1h1 4v-1.672c0-1.284 1.121-2.328 2.5-2.328h3c1.379 0 2.5 1.044 2.5 2.328v1.672zm-10-1.672c0-.155.214-.328.5-.328h3c.286 0 .5.173.5.328v1.672h-4zm8 14.672c0 .551-.448 1-1 1h-10c-.552 0-1-.449-1-1v-11h12z" fill="#231f20" fill-rule="evenodd"/></svg>