<svg xmlns="http://www.w3.org/2000/svg" width="44" height="44" viewBox="0 0 44 44" fill="none">
  <path fill-rule="evenodd" clip-rule="evenodd" d="M31.5193 18.953C33.3051 18.519 34.9797 19.8576 35.0477 19.9126V19.9188C35.1219 19.986 36.6605 21.4347 36.6667 23.898C36.6729 26.1536 35.4123 28.4702 32.9282 30.7869C31.0929 32.4984 28.9363 33.397 26.7798 33.397C26.0382 33.397 25.2967 33.2869 24.5676 33.073C24.4934 33.3664 24.3575 33.6415 24.1721 33.886C23.789 34.3933 23.2266 34.7173 22.5902 34.809C22.4728 34.8273 22.3554 34.8334 22.2441 34.8334C21.7251 34.8334 21.2245 34.6684 20.8043 34.3566C20.2915 33.9777 19.964 33.4214 19.8713 32.7918C19.8033 32.315 19.8898 31.8505 20.0814 31.4471C19.8404 31.5265 19.587 31.5815 19.3213 31.5815C18.4377 31.5815 17.6652 31.0925 17.2512 30.3835C17.208 30.5179 17.1585 30.6524 17.0906 30.7808C16.6642 31.5999 15.8238 32.0705 14.9525 32.0705C14.5879 32.0705 14.211 31.985 13.8588 31.8077C12.6785 31.2087 12.2151 29.7722 12.8206 28.6047C12.9628 28.3296 13.1605 28.0974 13.383 27.9018C12.5673 27.4861 11.7887 26.936 11.0719 26.2697C8.58162 23.9469 7.32722 21.6303 7.3334 19.3808C7.33958 16.9175 8.87205 15.4749 8.94002 15.4138C9.02035 15.3466 10.695 14.014 12.4808 14.4419C13.5807 14.7047 14.4643 15.5788 15.0946 17.0397C15.2615 17.4309 15.4407 17.7671 15.6199 18.0728C15.6518 18.1269 15.6871 18.181 15.7208 18.2327L15.7558 18.2867C15.8114 18.3723 15.8732 18.464 15.9288 18.5434C15.9474 18.5679 15.9644 18.5908 15.9814 18.6137C15.9984 18.6366 16.0154 18.6596 16.0339 18.684C16.108 18.7818 16.176 18.8674 16.2502 18.953C16.2687 18.9774 16.2872 19.0019 16.3058 19.0202C16.4047 19.1363 16.5035 19.2403 16.6086 19.3381C17.0535 19.7476 17.5108 19.9982 17.9742 20.1571C17.1338 16.2695 17.486 13.3172 19.0432 11.3856C20.8105 9.1912 23.4491 9.16675 23.5603 9.16675C23.6345 9.16675 25.3894 9.17897 26.4275 10.4871C27.1752 11.4345 27.3421 12.7854 26.9157 14.503C26.6376 15.6277 26.5326 16.5446 26.5449 17.3026L26.6315 18.2133C26.9281 19.8271 27.8982 20.4933 28.683 21.0251C28.8066 21.1046 28.9302 21.1902 29.0414 21.2696C29.6593 19.986 30.4935 19.2036 31.5193 18.953ZM23.5541 9.71077C23.5294 9.71077 21.0639 9.74133 19.4634 11.7279L19.4696 11.7401C17.9927 13.58 17.69 16.4652 18.5674 20.3161L18.5675 20.3161C18.6849 20.3344 18.8023 20.3527 18.9196 20.365C18.9505 20.3711 18.9753 20.3711 19.0062 20.3711C19.4387 20.4139 19.8651 20.4078 20.2853 20.4016C20.86 20.3894 21.4037 20.3833 21.8919 20.4994C23.7642 20.9457 24.0856 22.7244 23.9991 23.6046C23.9373 24.0631 23.826 24.5032 23.653 24.9249H23.7148C25.4141 24.9494 27.3297 24.9677 28.8004 21.7892C28.6706 21.6853 28.5285 21.5875 28.374 21.4836C27.7993 21.0924 27.0949 20.6095 26.6006 19.7537H26.3719C25.4945 19.7537 24.444 19.5398 24.3513 17.6693C24.2405 15.5273 25.7405 15.0452 26.2417 14.8841L26.2483 14.882H26.2669C26.2779 14.831 26.2884 14.7811 26.2989 14.7314C26.3235 14.6145 26.3477 14.4991 26.3781 14.3747C26.7612 12.8282 26.6315 11.6362 25.995 10.8294C25.1237 9.7291 23.5727 9.71077 23.5541 9.71077ZM13.6178 30.5241C13.8649 30.8969 14.2542 31.0681 14.5014 30.9091C14.7486 30.7502 14.7548 30.3346 14.5014 29.9556C14.2481 29.5705 13.8711 29.4055 13.6178 29.5705C13.3706 29.7294 13.3706 30.1512 13.6178 30.5241ZM16.0463 27.5778C16.4664 27.7917 16.8001 28.1096 17.0288 28.5069L17.0349 28.513C17.3377 27.5411 18.2399 26.826 19.3213 26.826C19.6055 26.826 19.8651 26.8871 20.1184 26.9727C20.31 26.2391 20.8105 25.3223 22.1082 25.0166C22.3986 24.9494 22.7138 24.9249 23.0413 24.9188C23.2452 24.4726 23.3873 24.0142 23.4491 23.5374C23.4615 23.464 23.6283 21.4713 21.7683 21.0312C21.3703 20.9328 20.8891 20.9386 20.3825 20.9447L20.2976 20.9457C20.2363 20.9457 20.1744 20.9458 20.1122 20.946H20.1121H20.1121C19.7979 20.9468 19.4721 20.9477 19.1421 20.9273C18.7404 21.2452 18.0422 21.6853 17.208 21.6853C16.5962 21.6853 15.9103 21.453 15.2182 20.7562C14.0874 19.6253 14.5447 18.4456 14.8845 17.8772C14.7857 17.6816 14.6868 17.4798 14.5941 17.2598C14.0318 15.9639 13.2779 15.1999 12.3572 14.9737C10.8371 14.6008 9.31696 15.8111 9.3046 15.8233C9.3046 15.8233 7.88336 17.1681 7.88336 19.3931C7.88336 21.4775 9.08215 23.6596 11.4488 25.8663C12.1595 26.5264 12.9319 27.0705 13.7475 27.4739C13.7908 27.4983 13.8279 27.535 13.8526 27.5778C14.52 27.2416 15.3295 27.211 16.0463 27.5778ZM18.8949 27.8957C18.8393 28.1891 19.1421 28.4763 19.5932 28.5558C20.0443 28.6353 20.4274 28.4763 20.483 28.1829C20.5386 27.8895 20.2297 27.6022 19.7847 27.5228C19.3398 27.4433 18.9505 27.6084 18.8949 27.8957ZM23.3564 33.2441C23.6592 33.2808 23.9249 32.9691 23.9867 32.5168V32.5106C24.0485 32.0644 23.8631 31.6916 23.5665 31.6549C23.2699 31.6182 22.9918 31.9361 22.9362 32.3823C22.8744 32.8285 23.0598 33.2075 23.3564 33.2441ZM24.6911 32.5351C27.3544 33.3358 30.2216 32.5534 32.5451 30.3835H32.5389C34.9056 28.1768 36.1044 26.0008 36.1044 23.9103C36.1044 21.7111 34.7159 20.3718 34.6718 20.3293L34.6708 20.3283C34.6708 20.3283 33.1506 19.1241 31.6367 19.4909C30.7098 19.717 29.9621 20.4872 29.3998 21.777C27.7746 25.524 25.513 25.4934 23.6963 25.4629L23.6919 25.4628H23.6919C23.1559 25.4567 22.6446 25.4509 22.2256 25.5484C21.379 25.7501 20.8476 26.288 20.6313 27.1438C20.6251 27.1683 20.6128 27.1866 20.6004 27.2049C21.2678 27.6267 21.7127 28.3663 21.7127 29.2037C21.7127 29.5644 21.62 29.9006 21.4779 30.2062C21.6138 30.1634 21.756 30.1206 21.9043 30.1023C23.2205 29.9128 24.4378 30.8236 24.6232 32.1194C24.6417 32.26 24.6417 32.4006 24.6417 32.5351H24.6911ZM19.3398 16.6739H19.3337L19.3398 16.68C19.1915 16.68 19.0618 16.5578 19.0618 16.4111L19.0617 16.4088C19.0609 16.2912 19.0319 12.2432 22.3986 11.0564C22.5407 11.0075 22.7014 11.0809 22.7508 11.2215C22.8003 11.3621 22.7261 11.521 22.584 11.5699C19.5883 12.6183 19.6111 16.2921 19.6117 16.391L19.6117 16.3927C19.6117 16.5455 19.4943 16.6739 19.3398 16.6739ZM34.9243 23.9345C34.7698 23.9223 34.6401 24.0384 34.6339 24.1912C34.6215 24.3685 34.3002 28.5311 28.7079 30.7133C28.5658 30.7683 28.4978 30.9273 28.5534 31.0679C28.5967 31.1779 28.7017 31.239 28.813 31.239C28.8439 31.239 28.8809 31.2329 28.9118 31.2207C34.844 28.9101 35.1777 24.4113 35.19 24.2218C35.1962 24.069 35.085 23.9406 34.9305 23.9345H34.9243ZM9.63211 20.8766C9.65065 20.9133 11.7022 24.6298 13.8711 25.5161C14.0133 25.5711 14.075 25.73 14.0194 25.8706C13.9762 25.9806 13.8773 26.0418 13.7661 26.0418C13.729 26.0418 13.6981 26.0356 13.661 26.0234C11.3067 25.0576 9.23045 21.2984 9.14394 21.1395C9.06979 21.005 9.11922 20.84 9.25517 20.7666C9.39111 20.6933 9.55796 20.7422 9.63211 20.8766Z" fill="black"/>
</svg>