<svg xmlns="http://www.w3.org/2000/svg" width="20" height="20" fill="none" viewBox="0 0 20 20">
    <path fill="currentColor" fill-rule="evenodd"
        d="m14.167 6.266 3.854 3.083a.834.834 0 0 1 .312.651v3.333c0 .461-.372.834-.833.834h-.154c.094.261.154.539.154.833 0 1.378-1.122 2.5-2.5 2.5a2.503 2.503 0 0 1-2.5-2.5c0-.294.06-.572.154-.833H7.346c.094.261.154.539.154.833 0 1.378-1.122 2.5-2.5 2.5A2.503 2.503 0 0 1 2.5 15c0-.33.067-.643.184-.932-.59-.227-1.017-.84-1.017-1.568V4.167c0-.92.677-1.667 1.51-1.667h9.479c.833 0 1.51.748 1.51 1.667v2.099ZM10 12.5H3.333l.014-8.333H12.5l-.013 8.333H10Zm6.667 0v-2.1l-2.5-2v4.1h2.5ZM5.833 15a.834.834 0 1 1-1.667 0 .834.834 0 0 1 1.667 0Zm10 0a.834.834 0 1 1-1.667 0 .834.834 0 0 1 1.667 0Z"
        clip-rule="evenodd" />
    <mask id="a" width="18" height="16" x="1" y="2" maskUnits="userSpaceOnUse" style="mask-type:luminance">
        <path fill="#fff" fill-rule="evenodd"
            d="m14.167 6.266 3.854 3.083a.834.834 0 0 1 .312.651v3.333c0 .461-.372.834-.833.834h-.154c.094.261.154.539.154.833 0 1.378-1.122 2.5-2.5 2.5a2.503 2.503 0 0 1-2.5-2.5c0-.294.06-.572.154-.833H7.346c.094.261.154.539.154.833 0 1.378-1.122 2.5-2.5 2.5A2.503 2.503 0 0 1 2.5 15c0-.33.067-.643.184-.932-.59-.227-1.017-.84-1.017-1.568V4.167c0-.92.677-1.667 1.51-1.667h9.479c.833 0 1.51.748 1.51 1.667v2.099ZM10 12.5H3.333l.014-8.333H12.5l-.013 8.333H10Zm6.667 0v-2.1l-2.5-2v4.1h2.5ZM5.833 15a.834.834 0 1 1-1.667 0 .834.834 0 0 1 1.667 0Zm10 0a.834.834 0 1 1-1.667 0 .834.834 0 0 1 1.667 0Z"
            clip-rule="evenodd" />
    </mask>
</svg>