<?xml version="1.0" encoding="UTF-8"?>
<svg fill="none" viewBox="0 0 21 20" xmlns="http://www.w3.org/2000/svg">
<path d="m17.167 6.7033c0.01 0.14466 0.01 0.28933 0.01 0.43533 0 4.4487-3.3866 9.5793-9.5793 9.5793v-0.0027c-1.8293 0.0027-3.6206-0.5213-5.1606-1.5093 0.266 0.032 0.53333 0.048 0.80133 0.0487 1.516 0.0013 2.9886-0.5074 4.1813-1.444-1.4407-0.0274-2.704-0.9667-3.1453-2.338 0.50467 0.0973 1.0247 0.0773 1.52-0.058-1.5706-0.3173-2.7006-1.6973-2.7006-3.3v-0.04266c0.468 0.26066 0.992 0.40533 1.528 0.42133-1.4793-0.98866-1.9353-2.9566-1.042-4.4953 1.7093 2.1033 4.2313 3.382 6.9386 3.5173-0.2713-1.1693 0.0993-2.3946 0.974-3.2166 1.356-1.2747 3.4886-1.2093 4.7633 0.14599 0.754-0.14866 1.4766-0.42533 2.138-0.81732-0.2514 0.77932-0.7774 1.4413-1.48 1.862 0.6673-0.07867 1.3193-0.25734 1.9333-0.53-0.452 0.67733-1.0213 1.2673-1.68 1.744z" fill="currentColor"/>
</svg>
