<svg xmlns="http://www.w3.org/2000/svg" xml:space="preserve" style="enable-background:new 0 0 48 48" viewBox="0 0 48 48"><path fill="currentColor" d="M39.6 33.5C36.5 24 27 11.1 27 11.1S25.7 9 24 9s-3 2.1-3 2.1S11.6 24 8.4 33.5c-1.6 4.2 1.8 4.8 2.7 4.9 1.7.5 12.9.6 12.9.6s10.1 0 12.9-.6c.9-.1 4.3-.7 2.7-4.9zm-17.4-17c.1-.2.1-.3.3-.4.1-.1.2-.2.4-.3.1-.1.3-.1.5-.1h1.4c.2 0 .3 0 .4.1.1.1.3.2.4.3.1.1.2.3.2.4.1.1.1.3.1.5l-.2 9.9c0 .2 0 .3-.1.5-.1.1-.1.3-.2.4-.1.1-.2.2-.4.3-.1.1-.3.1-.4.1h-1.1c-.3 0-.6-.2-.8-.4-.2-.2-.3-.5-.3-.9l-.3-9.9c0-.2 0-.4.1-.5zm3.8 17c-.1.3-.3.5-.5.7-.4.4-1 .6-1.5.6-.6 0-1.1-.2-1.5-.6-.2-.2-.4-.4-.5-.7-.1-.3-.2-.5-.2-.8 0-.3.1-.6.2-.8.1-.3.3-.5.5-.7.4-.4 1-.6 1.5-.6.6 0 1.1.2 1.5.6.2.2.4.4.5.7.1.3.2.5.2.8 0 .2-.1.5-.2.8z"/></svg>