<svg xmlns="http://www.w3.org/2000/svg" width="44" height="43" viewBox="0 0 44 43" fill="none">
  <path d="M30.2871 17.7606C30.2591 17.621 30.1545 17.5164 30.0149 17.4884C29.98 17.4815 29.7427 17.4326 29.3589 17.4187C30.7058 15.0739 30.308 13.0152 30.2871 12.9105C30.2591 12.7709 30.1545 12.6662 30.0149 12.6383C29.8962 12.6104 27.363 12.1149 24.6972 14.0689C24.6553 14.1038 24.5995 14.0689 24.6135 14.0131C24.8717 13.2804 25.0392 12.4918 25.0392 11.6823C25.0392 8.28369 23.2805 6.4204 22.5269 5.77837C22.2198 5.52016 21.7801 5.52016 21.4801 5.77837C20.7194 6.4204 18.9608 8.28369 18.9678 11.6823C18.9678 12.4918 19.1422 13.2804 19.3935 14.0131C19.4144 14.062 19.3516 14.1038 19.3097 14.0689C16.6439 12.1149 14.1107 12.6104 13.992 12.6383C13.8525 12.6662 13.7478 12.7779 13.7199 12.9105C13.6989 13.0152 13.3012 15.0808 14.648 17.4187C14.2642 17.4326 14.0269 17.4815 13.992 17.4884C13.8525 17.5164 13.7478 17.628 13.7199 17.7606C13.6989 17.8653 13.3151 19.8612 14.5852 22.1501C14.4666 22.1501 14.3619 22.1641 14.2782 22.1711C13.9571 22.206 13.7129 22.4572 13.678 22.7712C13.5943 23.5528 13.5245 26.3164 16.0786 28.8496C17.4674 30.2244 19.1841 30.6361 20.517 30.7687C20.9497 30.8385 20.9357 31.2502 20.9288 31.4386C20.8799 34.6139 20.7683 36.0934 20.7683 36.1352C20.7683 36.4772 20.9706 37.1611 21.829 37.3146C21.8848 37.3146 21.9407 37.3216 21.9965 37.3216C23.2387 37.3216 23.1828 36.1701 23.1828 36.1003C23.1828 36.0654 23.1549 34.893 23.0782 31.4805C23.0712 31.1525 23.1131 30.8524 23.5457 30.7617C24.8019 30.6361 26.5744 30.1965 27.9422 28.8426C30.4964 26.3094 30.4266 23.5528 30.3429 22.7643C30.308 22.4432 30.0637 22.199 29.7427 22.1641C29.666 22.1571 29.5543 22.1501 29.4357 22.1432C30.6988 19.8472 30.3219 17.8583 30.301 17.7536L30.2871 17.7606ZM14.3759 18.1444C15.1365 18.0677 17.5721 18.0328 19.8541 20.3148C21.487 21.9408 21.6476 25.137 21.6406 26.442C21.3475 25.779 20.9427 25.123 20.3565 24.5438C18.556 22.7433 16.6439 22.2618 15.4017 22.1641C14.2782 20.3776 14.3061 18.7446 14.3689 18.1444H14.3759ZM21.6406 30.1057C21.5778 30.1057 21.487 30.1057 21.4033 30.1057C21.3824 30.1057 21.3545 30.1057 21.3265 30.1057C21.2637 30.1057 21.2079 30.1057 21.1381 30.1057C21.0474 30.1057 20.9497 30.0988 20.845 30.0918C20.7683 30.0918 20.6915 30.0778 20.6077 30.0708C20.4961 30.0569 20.3844 30.0499 20.2728 30.029C20.182 30.015 20.0913 30.0011 19.9936 29.9871C19.875 29.9662 19.7494 29.9382 19.6238 29.9103C19.5261 29.8894 19.4284 29.8685 19.3237 29.8405C19.1911 29.8057 19.0585 29.7638 18.9259 29.7219C18.8212 29.687 18.7235 29.6591 18.6258 29.6242C18.4863 29.5754 18.3467 29.5056 18.2071 29.4428C18.1094 29.4009 18.0117 29.359 17.921 29.3102C17.7675 29.2334 17.6139 29.1357 17.4674 29.038C17.3906 28.9892 17.3069 28.9473 17.2301 28.8915C17.0068 28.731 16.7905 28.5565 16.5811 28.3541C16.3229 28.0959 16.0926 27.8377 15.8902 27.5865C15.8204 27.4957 15.7716 27.405 15.7018 27.3213C15.5832 27.1538 15.4575 26.9863 15.3529 26.8188C15.2901 26.7141 15.2412 26.6095 15.1854 26.5048C15.1086 26.3582 15.0179 26.2117 14.9551 26.0651C14.9062 25.9535 14.8713 25.8488 14.8295 25.7441C14.7806 25.6115 14.7178 25.4789 14.6759 25.3533C14.6411 25.2417 14.6201 25.144 14.5922 25.0393C14.5573 24.9206 14.5224 24.802 14.5015 24.6903C14.4805 24.5857 14.4666 24.4949 14.4526 24.3972C14.4387 24.2926 14.4108 24.1879 14.4038 24.0902C14.3898 23.9995 14.3898 23.9157 14.3828 23.832C14.3828 23.7482 14.3689 23.6575 14.3619 23.5808C14.3619 23.497 14.3619 23.4342 14.3619 23.3644C14.3619 23.3086 14.3619 23.2388 14.3619 23.183C14.3619 23.176 14.3619 23.162 14.3619 23.1481C14.3619 23.1341 14.3759 23.1271 14.3759 23.1132C14.3828 23.0783 14.3968 23.0434 14.4177 23.0155C14.4456 22.9736 14.4736 22.9457 14.5154 22.9178C14.5433 22.8969 14.5782 22.8829 14.6131 22.8759C14.6271 22.8759 14.6341 22.862 14.648 22.862C14.655 22.862 14.669 22.862 14.6829 22.862C14.7318 22.862 14.8016 22.862 14.8574 22.862C14.9272 22.862 14.997 22.862 15.0737 22.862C15.1505 22.862 15.2412 22.8759 15.3319 22.8829C15.4157 22.8829 15.4994 22.8899 15.5901 22.9038C15.6878 22.9178 15.7925 22.9387 15.8972 22.9527C15.9949 22.9666 16.0856 22.9806 16.1903 23.0015C16.302 23.0225 16.4206 23.0643 16.5392 23.0923C16.6439 23.1202 16.7416 23.1411 16.8533 23.176C16.9789 23.2179 17.1115 23.2737 17.2441 23.3225C17.3557 23.3644 17.4604 23.3993 17.5651 23.4482C17.7116 23.511 17.8582 23.6017 18.0047 23.6785C18.1094 23.7343 18.2071 23.7762 18.3118 23.839C18.4793 23.9436 18.6537 24.0693 18.8282 24.1879C18.9119 24.2507 18.9957 24.2995 19.0864 24.3624C19.3446 24.5647 19.6028 24.788 19.861 25.0463C20.0634 25.2486 20.2449 25.465 20.4054 25.6883C20.4612 25.7651 20.5031 25.8488 20.5519 25.9256C20.6496 26.0721 20.7473 26.2256 20.8241 26.3792C20.8729 26.4769 20.9148 26.5676 20.9567 26.6653C21.0195 26.8049 21.0823 26.9444 21.1381 27.084C21.18 27.1887 21.2079 27.2864 21.2428 27.3841C21.2847 27.5167 21.3265 27.6493 21.3614 27.7819C21.3893 27.8865 21.4103 27.9773 21.4312 28.0819C21.4591 28.2076 21.487 28.3332 21.508 28.4518C21.5219 28.5495 21.5359 28.6402 21.5499 28.731C21.5638 28.8496 21.5778 28.9612 21.5917 29.0659C21.5987 29.1497 21.6057 29.2264 21.6127 29.3102C21.6196 29.4149 21.6266 29.5056 21.6266 29.5963C21.6266 29.6661 21.6266 29.7289 21.6336 29.7847C21.6336 29.8057 21.6336 29.8336 21.6336 29.8545C21.6336 29.9382 21.6336 30.029 21.6336 30.0918L21.6406 30.1057ZM21.6406 21.7105C21.6406 21.7105 21.5708 21.6826 21.5429 21.6756C21.2568 20.9847 20.8799 20.3287 20.3565 19.8123C18.577 18.0398 16.7276 17.5373 15.4785 17.4326C14.2712 15.5972 14.3061 13.9084 14.3689 13.2873C15.1296 13.2106 17.5651 13.1757 19.8471 15.4577C21.5289 17.1395 21.6476 20.4892 21.6336 21.7105H21.6406ZM21.843 16.9162C21.1939 16.0857 19.6796 13.9224 19.6726 11.6683C19.6726 8.56981 21.2568 6.88797 21.9337 6.30875C21.9546 6.29479 21.9755 6.28083 21.9965 6.28083C22.0174 6.28083 22.0384 6.28781 22.0593 6.30875C22.7432 6.88797 24.3273 8.56981 24.3204 11.6683C24.3204 13.9224 22.806 16.0927 22.15 16.9162C22.0453 17.0558 21.9407 17.0558 21.829 16.9162H21.843ZM24.1459 15.4507C26.0441 13.5525 28.019 13.2524 29.0798 13.2524C29.3031 13.2524 29.4915 13.2664 29.6241 13.2804C29.6869 13.8945 29.7218 15.5903 28.5145 17.4256C27.2653 17.5303 25.416 18.0258 23.6365 19.8053C23.1131 20.3287 22.7432 20.9777 22.4571 21.6686C22.4292 21.6826 22.3873 21.6965 22.3594 21.7035C22.3454 20.4823 22.4571 17.1325 24.1459 15.4507ZM29.4915 22.9108C29.5334 22.9387 29.5613 22.9666 29.5892 23.0085C29.6101 23.0364 29.6241 23.0713 29.6311 23.1062C29.6311 23.1202 29.645 23.1271 29.645 23.1411C29.645 23.1481 29.645 23.162 29.645 23.176C29.645 23.2248 29.645 23.2946 29.645 23.3574C29.645 23.4272 29.645 23.497 29.645 23.5738C29.645 23.6505 29.6311 23.7413 29.6241 23.832C29.6241 23.9157 29.6171 23.9995 29.6031 24.0902C29.5892 24.1879 29.5683 24.2926 29.5543 24.3972C29.5403 24.4949 29.5264 24.5857 29.5054 24.6834C29.4775 24.795 29.4426 24.9206 29.4077 25.0393C29.3798 25.144 29.3589 25.2417 29.324 25.3463C29.2821 25.4719 29.2263 25.6045 29.1705 25.7371C29.1286 25.8418 29.0937 25.9465 29.0449 26.0582C28.9821 26.1977 28.8983 26.3443 28.8146 26.4908C28.7587 26.5955 28.7099 26.7002 28.6471 26.8049C28.5494 26.9723 28.4238 27.1398 28.2982 27.3073C28.2353 27.398 28.1795 27.4818 28.1097 27.5725C27.9073 27.8307 27.6771 28.0889 27.4188 28.3402C27.2165 28.5425 27.0001 28.717 26.7698 28.8775C26.6931 28.9333 26.6163 28.9752 26.5326 29.0241C26.379 29.1218 26.2325 29.2125 26.079 29.2962C25.9813 29.3451 25.8905 29.3869 25.7928 29.4288C25.6533 29.4916 25.5137 29.5544 25.3741 29.6103C25.2694 29.6451 25.1717 29.68 25.074 29.708C24.9414 29.7498 24.8089 29.7917 24.6763 29.8266C24.5716 29.8545 24.4809 29.8754 24.3762 29.8964C24.2506 29.9243 24.125 29.9522 24.0063 29.9731C23.9086 29.9871 23.8179 30.0011 23.7272 30.015C23.6085 30.029 23.4969 30.0429 23.3922 30.0569C23.3085 30.0639 23.2317 30.0708 23.1549 30.0778C23.0503 30.0848 22.9595 30.0918 22.8618 30.0918C22.792 30.0918 22.7362 30.0918 22.6734 30.0918C22.6525 30.0918 22.6246 30.0918 22.5966 30.0918C22.5129 30.0918 22.4222 30.0918 22.3594 30.0918C22.3594 30.029 22.3594 29.9382 22.3594 29.8545C22.3594 29.8336 22.3594 29.8057 22.3594 29.7847C22.3594 29.7219 22.3594 29.6591 22.3663 29.5963C22.3663 29.5056 22.3733 29.4079 22.3803 29.3032C22.3803 29.2264 22.3943 29.1497 22.4012 29.0659C22.4152 28.9543 22.4292 28.8426 22.4431 28.731C22.4571 28.6402 22.471 28.5495 22.485 28.4518C22.5059 28.3332 22.5338 28.2076 22.5618 28.0819C22.5827 27.9842 22.6036 27.8865 22.6315 27.7819C22.6664 27.6493 22.7083 27.5167 22.7502 27.3841C22.7851 27.2794 22.813 27.1817 22.8548 27.084C22.9107 26.9444 22.9735 26.8049 23.0363 26.6653C23.0782 26.5676 23.12 26.4769 23.1689 26.3792C23.2526 26.2256 23.3434 26.0791 23.4411 25.9256C23.4899 25.8488 23.5318 25.7651 23.5876 25.6883C23.7481 25.465 23.9296 25.2486 24.1319 25.0463C24.3901 24.788 24.6483 24.5647 24.9066 24.3624C24.9973 24.2926 25.081 24.2437 25.1717 24.1809C25.3392 24.0623 25.5067 23.9367 25.6742 23.832C25.7789 23.7692 25.8836 23.7203 25.9882 23.6715C26.1348 23.5947 26.2813 23.511 26.4279 23.4412C26.5395 23.3923 26.6442 23.3574 26.7489 23.3156C26.8815 23.2667 27.0141 23.2039 27.1397 23.169C27.2514 23.1341 27.3491 23.1132 27.4537 23.0853C27.5724 23.0574 27.691 23.0155 27.8027 22.9946C27.9073 22.9736 27.9981 22.9597 28.0958 22.9457C28.2004 22.9317 28.3051 22.9108 28.4028 22.8969C28.4936 22.8829 28.5773 22.8829 28.661 22.8759C28.7448 22.8759 28.8355 22.862 28.9192 22.855C29.003 22.855 29.0658 22.855 29.1356 22.855C29.1914 22.855 29.2612 22.855 29.317 22.855C29.324 22.855 29.338 22.855 29.3519 22.855C29.3659 22.855 29.3729 22.8689 29.3868 22.8689C29.4217 22.8759 29.4566 22.8899 29.4845 22.9108H29.4915ZM28.5913 22.1571C27.3491 22.2548 25.4439 22.7363 23.6365 24.5368C23.0503 25.116 22.6455 25.779 22.3524 26.435C22.3524 25.13 22.5059 21.9338 24.1389 20.3078C26.0371 18.4096 28.012 18.1095 29.0728 18.1095C29.2961 18.1095 29.4845 18.1235 29.6171 18.1375C29.6799 18.7376 29.7078 20.3706 28.5843 22.1571H28.5913Z" fill="#2C282B"/>
</svg>