<?xml version="1.0" encoding="UTF-8"?>
<svg enable-background="new 0 0 19 20" version="1.1" viewBox="0 0 19 20" xml:space="preserve" xmlns="http://www.w3.org/2000/svg">
<path d="m9.5 2.1c-4.4 0-7.9 3.5-7.9 7.9s3.5 7.9 7.9 7.9 7.9-3.5 7.9-7.9-3.5-7.9-7.9-7.9zm0 14.2c-3.5 0-6.3-2.8-6.3-6.3s2.8-6.3 6.3-6.3 6.3 2.8 6.3 6.3-2.8 6.3-6.3 6.3z" fill="currentColor"/>
<path d="m9.5 6c-0.4 0-0.8 0.4-0.8 0.8v4c0 0.4 0.4 0.8 0.8 0.8s0.8-0.4 0.8-0.8v-4c0-0.4-0.4-0.8-0.8-0.8z" fill="currentColor"/>
<path d="m9.5 12.4c-0.4 0-0.8 0.4-0.8 0.8s0.4 0.8 0.8 0.8 0.8-0.4 0.8-0.8c0-0.5-0.4-0.8-0.8-0.8z" fill="currentColor"/>
</svg>