<svg fill="none" height="16" viewBox="0 0 16 16" width="16" xmlns="http://www.w3.org/2000/svg" xmlns:xlink="http://www.w3.org/1999/xlink"><clipPath id="a"><path d="m0 0h16v16h-16z"/></clipPath><g clip-path="url(#a)"><path d="m6.57333 11.9999c-.09141-.0003-.18179-.0193-.26551-.056s-.159-.0903-.22116-.1573l-3.24-3.44666c-.12111-.12907-.18599-.30097-.18037-.47788.00563-.17691.0813-.34434.21037-.46545.12907-.12112.30097-.186.47788-.18037.17691.00562.34434.08129.46546.21037l2.74666 2.92669 5.60664-6.13336c.0569-.07085.1277-.12932.208-.17182s.1685-.06814.2591-.07533.1817.00422.2677.03352.1651.07587.2325.13686c.0673.06099.1215.13511.1592.2178s.058.17221.0599.26306c.0018.09085-.015.18112-.0493.26525-.0344.08413-.0855.16036-.1504.22399l-6.09334 6.66663c-.06157.0683-.13659.123-.22034.1609s-.17442.058-.26632.0591z" fill="#fff"/></g></svg>