<?xml version="1.0" encoding="UTF-8"?>
<svg enable-background="new 0 0 24 24" version="1.1" viewBox="0 0 24 24" xml:space="preserve" xmlns="http://www.w3.org/2000/svg">
<path class="st0" d="m21 11c0.6 0 1 0.4 1 1 0 2.7-1 5.2-2.9 7.1-1.9 1.8-4.4 2.9-7.1 2.9s-5.2-1-7.1-2.9c-1.8-1.9-2.9-4.4-2.9-7.1s1-5.2 2.9-7.1c1.9-1.8 4.4-2.9 7.1-2.9 0.8 0 1.6 0.1 2.4 0.3 0.5 0.1 0.9 0.7 0.7 1.2-0.1 0.5-0.7 0.9-1.2 0.7-0.6-0.1-1.3-0.2-1.9-0.2-2.2 0-4.2 0.8-5.7 2.4-1.5 1.5-2.3 3.5-2.3 5.6s0.8 4.1 2.4 5.6c1.5 1.6 3.5 2.4 5.6 2.4s4.1-0.8 5.7-2.4c1.5-1.5 2.3-3.5 2.3-5.7 0-0.5 0.4-0.9 1-0.9z" fill="currentColor"/>
<path class="st0" d="m8.3 11.3c0.4-0.4 1-0.4 1.4 0l2.2 2.2 6.3-7.2c0.4-0.4 1-0.5 1.4-0.1s0.5 1 0.1 1.4l-7 8c-0.1 0.3-0.4 0.4-0.7 0.4s-0.5-0.1-0.7-0.3l-3-3c-0.4-0.4-0.4-1 0-1.4z" fill="currentColor"/>
</svg>
