<svg width="19" height="20" viewBox="0 0 19 20" fill="none" xmlns="http://www.w3.org/2000/svg">
<path fill-rule="evenodd" clip-rule="evenodd" d="M1.58301 9.99992C1.58301 5.63467 5.13442 2.08325 9.49967 2.08325C13.8649 2.08325 17.4163 5.63467 17.4163 9.99992C17.4163 14.3652 13.8649 17.9166 9.49967 17.9166C5.13442 17.9166 1.58301 14.3652 1.58301 9.99992ZM9.49967 16.3333C6.00763 16.3333 3.16634 13.492 3.16634 9.99992C3.16634 6.50788 6.00763 3.66659 9.49967 3.66659C12.9917 3.66659 15.833 6.50788 15.833 9.99992C15.833 13.492 12.9917 16.3333 9.49967 16.3333ZM12.6663 9.20825H10.2913V6.83325C10.2913 6.39546 9.93667 6.04158 9.49967 6.04158C9.06267 6.04158 8.70801 6.39546 8.70801 6.83325V9.99992C8.70801 10.4377 9.06267 10.7916 9.49967 10.7916H12.6663C13.1041 10.7916 13.458 10.4377 13.458 9.99992C13.458 9.56213 13.1041 9.20825 12.6663 9.20825Z" fill="white"/>
<mask id="mask0_1894_774" style="mask-type:alpha" maskUnits="userSpaceOnUse" x="1" y="2" width="17" height="16">
<path fill-rule="evenodd" clip-rule="evenodd" d="M1.58301 9.99992C1.58301 5.63467 5.13442 2.08325 9.49967 2.08325C13.8649 2.08325 17.4163 5.63467 17.4163 9.99992C17.4163 14.3652 13.8649 17.9166 9.49967 17.9166C5.13442 17.9166 1.58301 14.3652 1.58301 9.99992ZM9.49967 16.3333C6.00763 16.3333 3.16634 13.492 3.16634 9.99992C3.16634 6.50788 6.00763 3.66659 9.49967 3.66659C12.9917 3.66659 15.833 6.50788 15.833 9.99992C15.833 13.492 12.9917 16.3333 9.49967 16.3333ZM12.6663 9.20825H10.2913V6.83325C10.2913 6.39546 9.93667 6.04158 9.49967 6.04158C9.06267 6.04158 8.70801 6.39546 8.70801 6.83325V9.99992C8.70801 10.4377 9.06267 10.7916 9.49967 10.7916H12.6663C13.1041 10.7916 13.458 10.4377 13.458 9.99992C13.458 9.56213 13.1041 9.20825 12.6663 9.20825Z" fill="white"/>
</mask>
<g mask="url(#mask0_1894_774)">
</g>
</svg>
