<svg xmlns="http://www.w3.org/2000/svg" xml:space="preserve" style="enable-background:new 0 0 48 48" viewBox="0 0 48 48"><path fill="currentColor" d="M38 24.4c-.1-1-.4-2-.7-3-.5-1.4-1.1-2.7-2-3.9-1.1-1.5-2.5-2.9-4.1-3.9-1.1-.7-2.3-1.3-3.6-1.6v-1.4h.7c.1 0 .2-.1.2-.1.1-.1.1-.3.1-.4V8.3s0-.1-.1-.1c0 0-.1-.1-.2-.1-2 0-4-.1-6.1-.1h-1.8c-.4 0-.9 0-.9.4V10c0 .1 0 .2.1.3.1.1.2.2.3.2h.6V12c-1.3.3-2.5.8-3.6 1.4l-1.8 1.2c-.5-.4-1.1-.9-1.5-1.4-.1-.1-.2-.2-.4-.2-.1 0-.2 0-.3.1-.1 0-.2.1-.2.2-.7.7-1.1 1.2-1.7 1.9-.1.1-.2.2-.2.3-.1.1-.1.2-.1.3 0 .2.1.4.3.5l1.4 1.5c0 .1-.1.1-.1.2s-.1.1-.1.2c-.5.9-.9 1.8-1.2 2.8-.6 1.8-.9 3.7-.9 5.7 0 .9.1 1.9.4 2.8.1.6.3 1.2.5 1.7.3.8.7 1.5 1.2 2.2.8 1.2 1.7 2.2 2.8 3.2.6.5 1.2 1 1.9 1.5 1.3.8 2.7 1.4 4.2 1.7 1 .2 2 .3 3 .3 1.9 0 3.7-.4 5.4-1.1 1.3-.5 2.5-1.3 3.6-2.2.2-.2.5-.4.7-.7l.3-.3c.4-.3.7-.7 1-1.1.9-1.1 1.6-2.4 2.1-3.8.3-.8.6-1.7.7-2.6.1-.8.2-1.7.2-2.5-.1-.5-.1-1-.1-1.4zm-26.6-8.6c.2-.3.4-.4.6-.6.4-.4.7-.8 1.1-1.2.4.4.9.8 1.4 1.2l-.5.5c-.3.2-.5.5-.7.8-.2.2-.4.5-.5.7l-1.4-1.4zm20.5 18c-2.1 2.2-5 3.4-8 3.4-2 0-4-.5-5.7-1.6 0 0-4.2-2.5-5.2-6.9-.5-2.5-.3-5.1.6-7.4l.2-.3c.5-1.3 1.2-2.4 2.2-3.4 2-2.3 6-3.4 7.8-3.4h.1c1.8 0 3.5.4 5.1 1.2.4.2.8.5 1.2.7 1.5 1 2.8 2.5 3.7 4.1.9 1.7 1.3 3.5 1.4 5.4-.1 3.2-1.3 6.1-3.4 8.2z"/><path fill="currentColor" d="M24 17.3c0 .1 0 .2.1.3.1.1.2.1.3.1.1 0 .2 0 .3-.1.1-.1.1-.2.1-.3v-1.8c0-.1-.1-.2-.1-.3-.1-.1-.2-.1-.3-.1-.1 0-.2.1-.3.1-.1.2-.1.3-.1.4v1.7zM26.5 19.8h-.1c-.4.1-2.1 2.6-3 3.8-.2 0-.3.1-.5.2-.1.1-.2.1-.3.2l-1-.2c-2.2-.3-2.3-.2-2.3-.1v.2c.8.8 1.7 1.4 2.6 2 0 .5.2 1 .5 1.3.3.4.8.6 1.3.7.5.1 1 0 1.4-.3.4-.3.7-.6.9-1.1.1-.3.2-.7.1-1 0-.3-.2-.7-.4-1 .1-.5.3-1.1.4-1.7.7-2.7.5-2.9.4-3zM30.9 19h-.3l-.9.7c-.1.1-.1.1-.1.2v.2c0 .1.1.1.1.2.1 0 .1.1.2.1s.2 0 .2-.1l.9-.7c.1-.1.1-.2.1-.3 0-.1 0-.2-.1-.3.1.1 0 0-.1 0zM32.2 25.3c-.1 0-.1 0-.1.1l-.1.1v.4c0 .1.1.1.1.1l.1.1h1.7c.1 0 .2-.1.2-.1.1-.1.1-.2.1-.3s0-.2-.1-.3c-.1-.1-.1-.1-.2-.1h-1.7zM24.7 33.6c-.1-.1-.2-.1-.3-.1-.1 0-.2.1-.3.2 0 .1-.1.2-.1.3.1.6.1 1.1.1 1.7 0 .1 0 .2.1.3.1.1.2.1.3.1.1 0 .2 0 .3-.1.1-.1.1-.2.1-.3 0-.6 0-1.2-.1-1.9 0-.1-.1-.1-.1-.2zM31 32.2l-1.1-1.1-.6.6s.8.8 1.1 1.2l.1.1h.4c.1 0 .1-.1.1-.1l.1-.1v-.4c0-.1-.1-.2-.1-.2zM15.9 25.4l-.1-.1H14.2c-.1 0-.2 0-.3.1-.1.1-.1.2-.1.3 0 .1 0 .2.1.3.1.1.2.1.3.1h1.5c.1 0 .2-.1.3-.1.1-.1.1-.2.1-.3v-.2c-.2 0-.2-.1-.2-.1zM18.2 20.4c.1 0 .2 0 .2-.1.1-.1.1-.1.1-.2v-.3c0-.1-.1-.1-.2-.2l-1-.6c-.1-.1-.2-.1-.3 0-.1 0-.2.1-.2.2-.1.1-.1.2-.1.3 0 .1.1.2.2.2l1.1.8c.1 0 .1 0 .2-.1zM18.3 30.9H18c-.1 0-.1.1-.2.2s-.5.8-.9 1.4c-.1.1-.1.2-.1.3s.1.2.2.3c.1 0 .1.1.2.1h.2c.1 0 .1-.1.1-.1.9-1.5 1-1.5 1-1.6 0-.1 0-.2-.1-.3.1-.2 0-.2-.1-.3z"/></svg>