<svg xmlns="http://www.w3.org/2000/svg" xml:space="preserve" style="enable-background:new 0 0 48 48" viewBox="0 0 48 48"><path fill="currentColor" d="M35.8 31.2c-1-1-2.2-1.8-3.6-2.2L32 15.7c0-.1 0-.2-.1-.2L29 12V9.5c0-.3-.1-.6-.3-.8-.2-.2-.5-.3-.8-.3L15.2 8c-.2 0-.3 0-.5.1s-.3.1-.4.2c-.1.1-.2.2-.3.4v2.9l-3 4.2v18.5c0 .3.1.7.4.9.2.2.6.4.9.4l2.4.1c.3.9.8 1.8 1.5 2.5 1.2 1 2.6 1.6 4.2 1.6h.1c1.6 0 3.1-.6 4.2-1.6l.1-.1c1.1.6 2.4 1 3.6.9 4.2 0 6.4-1.8 7.3-2.8.7-.7 1.1-1.6 1.2-2.6.1-.8-.4-1.7-1.1-2.4zm-4.5-15.4.2 12.9c-.7-.2-1.5-.3-2.3-.3L29 13.1l2.3 2.7zm-2.7 12.6c-.8 0-1.6.1-2.3.3v-12l2-3.3.3 15zM14.7 9.1v-.2c0-.1.1-.1.1-.2.1-.1.2-.1.3-.1l12.7.4c.1 0 .2.1.3.1.1.1.1.2.1.3v2.3l-3.4-.1-10.1-.3v-.9l4.7.1c.1 0 .2-.1.2-.1.1-.1.1-.1.1-.2s0-.2-.1-.2c-.1-.1-.1-.1-.2-.1l-4.7-.1v-.7zM12 15.7l2.6-3.7 13.4.5-.9 1.4-1.4 2.4-13.7-.6zm12.2 22.1c-1 .9-2.3 1.5-3.7 1.5-1.4 0-2.7-.5-3.8-1.4-.6-.6-1-1.3-1.3-2.1-.3-.8-.4-1.6-.3-2.4 0-4.3 1.8-6.5 2.9-7.4.6-.6 1.4-1 2.3-1.1h.2c.9.1 1.8.5 2.4 1.1 1 .9 1.8 2.1 2.2 3.4.4 1.3.6 2.6.6 3.9.1.8-.1 1.6-.3 2.4-.2.8-.7 1.5-1.2 2.1zm11.1-1.9c-.9.9-2.9 2.5-6.8 2.5-1.1 0-2.2-.2-3.2-.8.9-1.3 1.3-2.8 1.3-4.3 0-1.3-.2-2.6-.6-3.9.8-.3 1.7-.5 2.5-.4 3.9 0 5.9 1.6 6.8 2.5.6.6 1 1.3 1 2.1v.1c-.1.9-.4 1.7-1 2.2z"/><path fill="currentColor" d="M32.5 31.2c-.8-.4-1.7-.6-2.5-.6-.1 0-.2.1-.2.1-.1.1-.1.2-.1.3 0 .1.1.2.1.2.1.1.2.1.3.1.8 0 1.5.2 2.2.6.7.3 1.3.8 1.7 1.4.1.1.2.1.2.1.1 0 .2 0 .3-.1.1-.1.1-.1.1-.2s0-.2-.1-.3c-.6-.7-1.2-1.3-2-1.6zM20.5 29.9c-1.1.1-2 .5-2.8 1.3-.7.8-1.1 1.8-1.1 2.8 0 1 .3 2 1.1 2.8.7.8 1.7 1.2 2.8 1.3 1.1-.1 2-.5 2.8-1.3s1.1-1.8 1.1-2.8c0-1-.3-2-1.1-2.8-.7-.8-1.7-1.3-2.8-1.3zm2.3 6.4c-.6.6-1.4 1-2.2 1.1-.4 0-.9-.1-1.2-.3-.4-.2-.7-.4-1-.8-.3-.3-.5-.7-.7-1.1-.1-.4-.2-.8-.2-1.2 0-.8.3-1.7.8-2.3.6-.6 1.4-1 2.3-1.1.9.1 1.7.4 2.3 1.1.6.6.9 1.5.8 2.3-.1.8-.4 1.6-.9 2.3z"/></svg>