<svg xmlns="http://www.w3.org/2000/svg" xml:space="preserve" style="enable-background:new 0 0 48 48" viewBox="0 0 48 48"><path fill="currentColor" d="M11.8 17.2c0 .1.1.1.1.2.1 0 .1.1.2.1h.1s.1 0 .1-.1l.1-.1v-.2L12 16c-.1-.3-.2-.6-.2-.9 0-.3 0-.6.2-.9.1-.2.3-.3.5-.5l.2-.1c.8-.6 1.3-1.5 1.6-2.4.3-.9.3-1.9 0-2.8 0-.1-.1-.1-.2-.2h-.2c-.1 0-.1.1-.2.1 0 .1-.1.2 0 .2.3.8.3 1.7 0 2.5-.2.8-.7 1.5-1.4 2.1l-.2.1-.6.6c-.5.8-.2 1.8 0 2.4l.3 1zM39.9 27.9l-.1-.1-1.4-.2c-.2-.9-.6-1.7-1.1-2.4 0-1.4-.5-3.6-3-5.9l-.5-.5c.1-.1.2-.3.3-.4 0-.2.1-.3 0-.5 0-.2-.1-.3-.2-.4-.1-.1-.3-.2-.4-.2-.3-.1-.6 0-.8.1-.4-.6-.7-1.2-1-1.9-.6-1.3-1.1-2.3-2.7-2.6-1.4-.3-2.4.3-3.3.9-1.3 1-3 1.4-4.6 1.3-2.2-.2-3.3 1.4-4.5 3.1-.4.6-.8 1.2-1.3 1.7h-.1c-.1-.1-.3-.1-.5-.2h-.6c-.2 0-.3.1-.5.3-.1.1-.2.2-.2.4v.4c.1.2.2.3.3.4-.2.1-.5.2-.7.3-2.8 1-3.7 4.2-4.1 6.2l-.3.1s-.1 0-.1.1l-.1.1v.1c.4 2.6 1.5 5.1 3.3 7.1s4.1 3.5 6.7 4.3c1 .3 2.1.5 3.2.5h5.5c1.1 0 2.2-.2 3.2-.5 2.6-.8 5-2.3 6.7-4.3 1.8-2 2.9-4.5 3.3-7.1V28l-.4-.1c.1 0 .1 0 0 0zm-20 1.2c-3.6-.1-7.2-.5-10.7-1.2.2-1.4 1-4.9 3.7-5.8.4-.1.7-.3 1-.5h.1c.1.1.2.2.3.2.2.1.3.1.5.1s.3-.1.5-.2.3-.3.4-.5v-.5c0-.2-.1-.3-.2-.4.5-.6 1-1.2 1.4-1.8 1.1-1.6 2.1-2.9 3.9-2.8 1.8.2 3.6-.3 5.1-1.3.9-.6 1.7-1 2.8-.8 1.3.3 1.7 1 2.2 2.2.3.7.7 1.3 1.1 2l-.2.2c-.1.1-.1.2-.1.3v.2c-.1.2-.1.4 0 .5 0 .2.1.3.3.5.1.1.2.2.4.2h.4c.2-.1.4-.2.5-.3l.5.5c1.5 1.2 2.5 2.8 2.8 4.7-1-.8-2.2-1.4-3.5-1.5-1.3-.1-2.6.2-3.7.9-.9-.7-2-1-3.2-1.1-1.2-.1-2.3.2-3.3.8-1 .6-1.8 1.4-2.3 2.4-.6.8-.8 1.9-.7 3zm2.2 0h-1.5c0-.7.1-1.3.3-1.9.2-.6.6-1.2 1-1.7.5-.5 1-.9 1.6-1.2.6-.3 1.3-.5 2-.5s1.4 0 2 .3c.7.2 1.3.6 1.8 1s.9 1 1.2 1.6c.3.6.5 1.2.5 1.9v.6l-1.5-.2c.1-.5 0-1-.1-1.5-.2-.5-.4-1-.8-1.4-.4-.4-.8-.7-1.3-.9-.5-.2-1-.3-1.6-.3-.5 0-1.1.1-1.6.4s-.9.6-1.3 1c-.3.4-.6.9-.7 1.4 0 .4-.1.9 0 1.4zm6.8 0c-1.3 0-2.6.1-3.9.1h-2.2v-.1c0-.2-.1-.4-.1-.6 0-.8.4-1.5 1-2s1.3-.8 2.1-.8 1.6.3 2.1.8c.6.5.9 1.2 1 2v.6c-.1-.1 0 0 0 0zm5.9 5.4s0 .1-.1.1c-1.4 1.4-3 2.5-4.9 3.2h-.1c-.1 0-.2 0-.2-.1-.1 0-.1-.1-.1-.2v-.2c0-.1.1-.1.2-.1 1.8-.7 3.4-1.7 4.7-3l.1-.1h.2s.1 0 .1.1l.1.1v.2zm-3-5.6v-.5c0-.9-.2-1.7-.6-2.5.4-.2.8-.3 1.3-.3.8 0 1.5.3 2.1.8.6.5.9 1.2 1 2-1.3.3-2.6.4-3.8.5zm4.4-.5c-.1-.9-.5-1.8-1.2-2.4-.7-.6-1.6-1-2.6-1-.6 0-1.1.1-1.6.4-.3-.4-.6-.8-1-1.1 1.1-.6 2.4-.8 3.6-.6 1.2.2 2.4.9 3.1 1.8.6.7 1 1.6 1.1 2.5-.4.2-.9.3-1.4.4z"/><path fill="currentColor" d="M20.9 22.3c0-.4-.3-.6-.7-.6-.4 0-.7.3-.7.6 0 .4.3.6.7.6.4.1.7-.2.7-.6zM13.8 25.1c-.4 0-.7.3-.7.6 0 .4.3.6.7.6.4 0 .7-.3.7-.6s-.3-.6-.7-.6zM30.2 21.6c.4 0 .7-.3.7-.6 0-.4-.3-.6-.7-.6-.4 0-.7.3-.7.6s.4.6.7.6zM24.8 18.7c.4 0 .7-.3.7-.6 0-.4-.3-.6-.7-.6s-.7.3-.7.6.4.6.7.6zM14.6 16.3c0 .1.1.1.1.2.1 0 .1.1.2.1h.1c.1 0 .2-.1.2-.2v-.2c-.1-.3-.2-.6-.2-.9 0-.3 0-.6.2-.9.1-.2.3-.3.5-.5l.2-.1c.8-.6 1.3-1.5 1.6-2.4.3-.9.3-1.9 0-2.9 0-.1-.1-.1-.2-.2h-.2c-.1 0-.1.1-.2.1 0 .1-.1.2 0 .2.3.8.3 1.7 0 2.5-.2.8-.7 1.5-1.4 2.1l-.2.1-.6.6c-.2.4-.3.8-.3 1.2-.1.4 0 .8.2 1.2z"/></svg>