<svg xmlns="http://www.w3.org/2000/svg" width="48" height="48" fill="none"><path fill="currentColor" d="m34.822 13.155-.17-.124c-3.217-2.009-6.993-.342-9.23 2.071-.52.57-.94 1.036-1.279 1.43a18.8 18.8 0 0 0-1.139-1.523 7.47 7.47 0 0 0-4.473-2.862 7.275 7.275 0 0 0-5.186.884l-.17.114a6.235 6.235 0 0 0-1.934 3.044 6.43 6.43 0 0 0 .046 3.645 9.528 9.528 0 0 0 1.848 3.697c9.17 11.588 9.82 12.002 10.17 12.22.34.214.742.294 1.135.225.392-.068.748-.28 1.002-.599l9.41-11.825a9.538 9.538 0 0 0 1.868-3.728 6.43 6.43 0 0 0 .035-3.635 6.233 6.233 0 0 0-1.933-3.034"/></svg>