<svg xmlns="http://www.w3.org/2000/svg" xml:space="preserve" style="enable-background:new 0 0 48 48" viewBox="0 0 48 48"><path fill="currentColor" d="M39.7 11.7c0-.6-.3-1.3-.7-1.8-.4-.5-1-.8-1.7-.9-4.7-.8-16.3-1.9-26.6.3-.6.1-1.2.5-1.6.9-.4.5-.6 1.1-.7 1.7 0 .8-1.2 18.9.4 20.6.7.8 4.9 1.8 9.7 2 .2 0 .5.1.7.2.2.1.4.3.5.5.4.5 3.4 4.9 4.6 4.9h.1c.9-.2 3.2-3.4 4-4.7.1-.2.3-.4.5-.5.2-.1.5-.2.7-.2 4.5-.1 9.3-1 9.8-2.3.9-2.1.5-16.7.3-20.7zM32.3 20c-.2.8-.6 1.6-1.2 2.3L25 29.6c-.2.2-.4.3-.7.4-.3 0-.5 0-.7-.1-.2-.1-.7-.4-6.6-7.6-.6-.7-1-1.4-1.2-2.3-.2-.7-.2-1.5 0-2.2.2-.7.7-1.4 1.3-1.9l.1-.1c1-.6 2.2-.8 3.4-.5 1.2.2 2.2.9 2.9 1.8.3.3.5.6.7.9l.8-.9c1.4-1.5 3.9-2.5 6-1.3l.1.1c.6.5 1 1.1 1.3 1.9.1.7.1 1.5-.1 2.2z"/></svg>