<svg xmlns="http://www.w3.org/2000/svg" xml:space="preserve" style="enable-background:new 0 0 48 48" viewBox="0 0 48 48"><path fill="currentColor" d="M39 16.9c0-.6-.2-1.1-.5-1.5-.4-.4-.8-.7-1.4-.8-.4-.1-.8-.1-1.4-.2v-.5c0-.6-.2-1.1-.5-1.5-.4-.4-.8-.7-1.4-.8-.4-.1-.9-.1-1.4-.2v-.5c0-.6-.2-1.1-.5-1.5-.4-.4-.8-.7-1.4-.8-6.6-1-13.3-.6-19.7 1.2-.5.2-.9.5-1.2.9-.3.4-.5 1-.5 1.5v18.9c0 .6.2 1.1.5 1.5.4.4.8.7 1.4.8.4.1.9.1 1.4.2v.6c0 .6.2 1.1.5 1.5.4.4.8.7 1.4.8.4.1.9.1 1.4.2v.6c0 .6.2 1.1.5 1.5.4.4.8.7 1.4.8 2.1.3 4.3.4 6.4.4 4.5 0 9-.6 13.3-1.8.5-.2.9-.5 1.2-.9.3-.4.5-1 .5-1.5V16.9zm-25-4.1c-.5.2-.9.5-1.2 1-.3.4-.5 1-.5 1.5v17.5c-.1 0-.3 0-.4-.1-.3 0-.6-.1-.8-.1-.3-.1-.7-.3-.9-.5-.2-.3-.3-.6-.3-1V12.3c0-.4.1-.7.3-1 .2-.3.5-.5.8-.6 4.3-1.2 8.8-1.8 13.2-1.8 2.1 0 4.1.1 6.2.4.3.1.6.3.9.5.2.3.3.6.3 1v.4c-5.9-.5-11.9.1-17.6 1.6zm24.1 22.9c0 .4-.1.7-.3 1-.2.3-.5.5-.8.6-6.3 1.7-12.9 2.2-19.4 1.3-.3-.1-.6-.3-.9-.5-.2-.3-.3-.6-.3-1V18.3c0-.2.1-.4.1-.6.1-.2.2-.5.4-.7.2-.2.4-.3.6-.4h.1c.5-.1 1-.3 1.5-.4l.2-.1c3.8-.9 7.6-1.3 11.4-1.3 2 0 4.1.1 6.1.4.3.1.6.2.9.5.2.3.3.6.3 1 .2 1 .1 18.3.1 19z"/><path fill="currentColor" d="M21.7 25h.5c1.8-.2 8.5-.9 11.4-.9.1 0 .2 0 .3-.1.1-.1.1-.2.1-.3v-.2c0-.1 0-.1-.1-.2l-.1-.1h-.2c-4 .1-8 .4-12 1-.1 0-.2.1-.3.2-.1.1-.1.2-.1.3 0 .1 0 .2.1.3.2-.1.3-.1.4 0zM33.9 30.1s-.1-.1-.2-.1H33.1c-1.8.2-8.5.9-11.4.9h-.2c-.1 0-.1 0-.2.1 0 0-.1.1-.1.2v.4c0 .1.1.1.1.2 0 0 .1.1.2.1h.8c3.7 0 11.1-.9 11.4-1h.2c.1 0 .1-.1.1-.1s.1-.1.1-.2v-.2c0-.1 0-.1-.1-.2 0-.1 0-.1-.1-.1z"/></svg>