<svg xmlns="http://www.w3.org/2000/svg" xml:space="preserve" style="enable-background:new 0 0 48 48" viewBox="0 0 48 48"><path fill="currentColor" d="M31.2 20.1c0-.1-.1-.1-.2-.1h-.3c-.1 0-.2.1-.2.1-.1.1-.1.1-.1.2-.3 1.1-.9 2.2-1.8 2.9.3-10.3-5.5-15-5.7-15.2-.1.1-.1 0-.2 0h-.2c-.1 0-.1.1-.2.1-.1.1-.1.1-.1.2-1.6 7.4-4.8 11.3-4.8 11.4-3.6 4.5-5 8.6-4 12.1 1.4 5.2 7 7.3 7.3 7.5 1.1.4 2.3.6 3.5.6 2 0 3.9-.5 5.7-1.5 1.3-.7 2.4-1.6 3.3-2.8.9-1.2 1.5-2.5 1.8-4 .9-5.8-3.6-11.2-3.8-11.5zM29 37.9c-1.2.7-2.6 1.1-4 1.2-1.4.1-2.8-.1-4.1-.5-.6-.2-1.1-.5-1.6-.8-.6-1.1-.9-2.4-.9-3.7 0-1.3.4-2.5 1-3.6.4 1 1 1.8 1.9 2.4h.2c.1 0 .1 0 .2-.1.1 0 .1-.1.1-.2v-.2c0-3.3.8-6.5 2.4-9.4.4 2.3 1.3 4.4 2.6 6.3 2.4 3 4 5.7 2.2 8.6z"/></svg>