<svg xmlns="http://www.w3.org/2000/svg" xml:space="preserve" style="enable-background:new 0 0 48 48" viewBox="0 0 48 48"><path fill="currentColor" d="M39.9 25.4c-.1-.5-.3-.9-.6-1.3V24c-1.2-1.5-3.6-1.7-5.3-.3-.9.7-1.7 1.7-2.3 2.7.1-1 .2-1.9.3-2.3v-.2c.4-2.8 1.6-12.2 1-13.1-2.3-3.4-11-3.8-16.4-.7l-.1.1c-.1.1-.4 1 .2 6l.7 7.6c.2 1.1.3 2.2.3 3.3-.5-.9-2.5-2.9-5.7-4.8h-.2C9.2 24 8.2 27.6 8.1 28v.2c0 .1.1.1.1.1.5.4 5.1 3.5 6.6 3.5.7-.1 1.4-.4 1.9-1l6.6 4.2-3.8 3h-.1l-.1.1c-.1.1-.2.1-.2.2-.1.2-.1.3-.1.4v.4c0 .1.1.2.2.3.1.2.2.3.4.4.2.1.4.2.6.2.1 0 .3 0 .4-.1.2-.1 2.2-1.6 4.7-3.5 4.1 2.6 5.2 3.3 5.4 3.4.1 0 .1.1.2.1s.2.1.3.1c.1 0 .3 0 .4-.1l.3-.3c.1-.1.2-.3.2-.5.1-.2.1-.4 0-.5 0-.2-.1-.3-.3-.5h-.1c-.3-.1-.7-.4-1.7-1.1l-2.9-1.9 5.3-4c.4.2.9.4 1.4.4 1.2 0 2.7-.6 4.3-1.8.5-.3.9-.8 1.2-1.3.3-.5.5-1.1.6-1.6.1-.4.1-.9 0-1.4zm-7.3-14.2c.3.6-.3 6.7-1.1 12.3-.4-.3-.9-.5-1.3-.7l1.5-12.5c.4.2.6.5.9.9zm-1.4-1.3-1.5 12.6c-.6-.3-1.3-.5-2-.7l1-12.8c.9.2 1.8.5 2.5.9zm-3-1.1-1 12.8c-.7-.2-1.3-.3-2-.3l-.3-12.7c1.1-.1 2.2 0 3.3.2zm-3.3 13.1h.1c.8 0 1.6.2 2.4.4h.1c1.4.4 2.7 1 4 1.8v.1c-.1.5-.2 1.6-.3 2.7-.6-.3-1.2-.5-1.8-.7h-.2s-.1 0-.1.1c0 0 0 .1-.1.1v.2s0 .1.1.1h.1c.6.2 1.3.4 1.9.7v.2c0 .4-.1.9-.1 1.2l-.1-.1-.2-.1-.2-.1h-.1l-.2-.1h-.1l-.2-.1h-.1l-.2-.1h-.1l-.4-.2-.1-.1-.2-.1-.2-.1-.2-.1-.2-.1-.2-.1-.2-.1h-.2l-.3-.1h-.2l-.5-.1H22.8c-.2 0-.4 0-.5.1H22l-.6.1-.2.1-.5.1-.2.1-.5.3-.2.1c-.2.1-.5.2-.7.3l-.1.1-.6.3h-.1v-1.2c1.3-.7 2.6-1.1 4-1.3h.1s.1 0 .1-.1v-.2c0-.1-.1-.1-.1-.2-.1 0-.1-.1-.2 0-1.4.2-2.7.6-3.9 1.2 0-.4 0-.8-.1-1.2v-.1c.8-.5 1.6-.8 2.5-1.1.1 0 .1-.1.1-.1v-.2c0-.1-.1-.1-.1-.2h-.2c-.8.2-1.6.6-2.4 1 0-.3-.1-.7-.1-.9.5-.4 1.1-.8 1.7-1.1.1 0 .1 0 .1-.1 1.6-.8 3.3-1.1 5.1-1zm3.3 9.6-3.1 2.3-3.7-2.4c1.1.2 2.2.3 3.3.3h.5c1 0 2 0 3-.2zM24.3 8.6l.3 12.8c-.7 0-1.5 0-2.2.2l-.8-12.7c.9-.2 1.8-.3 2.7-.3zm-3.2.4.9 12.6c-.7.1-1.3.4-2 .6l-.8-12.6c.6-.3 1.2-.4 1.9-.6zm-3.9 7.2c-.5-4.2-.3-5.4-.2-5.6.5-.3 1.1-.6 1.7-.8l.8 12.7c-.5.3-1 .5-1.5.9l-.8-7.2zm-.8 14.3c-.2.3-.4.5-.7.6-.3.2-.6.3-.9.3-1.1 0-4.7-2.3-6.2-3.3.2-.8 1.2-3.7 3.3-5.1 3.2 1.9 5.1 4 5.4 4.6.2.5.1 1.1-.1 1.6l-.8 1.3zm.6.1c.1-.1.1-.2.2-.2.1-.2.3-.4.4-.7l7.1 4.5-.9.7-6.8-4.3zm12.4 6.6-.6.8-3.2-2 .9-.7 2.9 1.9zm-3-2.4-1.4 1-2.8 2.1-.6-.9 3.6-2.7 6-4.5c.1.3.4.6.6.8l-5.4 4.2zm13-8.2c-.1.5-.3 1-.5 1.4-.3.4-.6.8-1 1.1-1.5 1.1-4.3 2.7-5.7.9-.2-.2-.3-.5-.4-.8-.1-.3-.1-.6-.1-.9.1-1.7 1.8-3.4 2.7-4.2.7-.5 1.5-.8 2.3-.9.4 0 .8.1 1.2.3.4.2.7.4 1 .8v.1c.2.3.4.6.5 1v1.2z"/><path fill="currentColor" d="m15.6 27.3-3.4-2.6H12c-.1 0-.1.1-.2.1 0 .1-.1.1-.1.2s0 .1.1.2l3.4 2.6s.1 0 .1.1h.2s.1 0 .1-.1v-.2c.1-.1.1-.2 0-.3 0 .1 0 0 0 0zM14.2 29.4l-3.7-2.1H10.2l-.1.1v.2s0 .1.1.1l.1.1 3.7 2.1h.2c.1 0 .1-.1.2-.1v-.2l-.2-.2z"/></svg>