<svg width="24" height="24" viewBox="0 0 24 24" fill="none" xmlns="http://www.w3.org/2000/svg">
<path fill-rule="evenodd" clip-rule="evenodd" d="M11.2927 20.706C11.4797 20.895 11.7347 21 11.9997 21C12.2657 21 12.5197 20.895 12.7077 20.707L20.4757 12.926C22.5117 10.886 22.5117 7.567 20.4747 5.527C19.4917 4.543 18.1787 4 16.7807 4C15.3807 4 14.0687 4.543 13.0847 5.528L11.9997 6.614L10.9147 5.527C9.93168 4.543 8.61868 4 7.21968 4C5.82068 4 4.50868 4.543 3.52468 5.527C1.48868 7.567 1.48868 10.886 3.52468 12.926L11.2927 20.706ZM4.93968 6.941C5.54568 6.334 6.35568 6 7.21968 6C8.08468 6 8.89368 6.334 9.49968 6.94L11.2917 8.736C11.6677 9.113 12.3317 9.113 12.7077 8.736L14.4997 6.941C15.7117 5.728 17.8477 5.726 19.0597 6.941C20.3187 8.201 20.3187 10.252 19.0597 11.514L11.9997 18.585L4.94068 11.514C3.68168 10.252 3.68168 8.201 4.93968 6.941Z" fill="black"/>
<mask id="mask0_10123_109" style="mask-type:alpha" maskUnits="userSpaceOnUse" x="1" y="4" width="22" height="17">
<path fill-rule="evenodd" clip-rule="evenodd" d="M11.2927 20.706C11.4797 20.895 11.7347 21 11.9997 21C12.2657 21 12.5197 20.895 12.7077 20.707L20.4757 12.926C22.5117 10.886 22.5117 7.567 20.4747 5.527C19.4917 4.543 18.1787 4 16.7807 4C15.3807 4 14.0687 4.543 13.0847 5.528L11.9997 6.614L10.9147 5.527C9.93168 4.543 8.61868 4 7.21968 4C5.82068 4 4.50868 4.543 3.52468 5.527C1.48868 7.567 1.48868 10.886 3.52468 12.926L11.2927 20.706ZM4.93968 6.941C5.54568 6.334 6.35568 6 7.21968 6C8.08468 6 8.89368 6.334 9.49968 6.94L11.2917 8.736C11.6677 9.113 12.3317 9.113 12.7077 8.736L14.4997 6.941C15.7117 5.728 17.8477 5.726 19.0597 6.941C20.3187 8.201 20.3187 10.252 19.0597 11.514L11.9997 18.585L4.94068 11.514C3.68168 10.252 3.68168 8.201 4.93968 6.941Z" fill="white"/>
</mask>
<g mask="url(#mask0_10123_109)">
</g>
</svg>
