<svg xmlns="http://www.w3.org/2000/svg" xml:space="preserve" style="enable-background:new 0 0 48 48" viewBox="0 0 48 48"><path fill="currentColor" d="M40 18.4c-.1-5.1-6.5-7.4-11.1-7.4H19c-6 0-11 4.6-11 10.2v5.5C8 32.9 13.9 37 19.4 37c2.8 0 5.6-1 7.7-2.9.6-.6 1.3-1.1 2-1.6.2.8.6 1.6 1.1 2.2s1.2 1.2 1.9 1.5c.8.3 1.6.5 2.4.5.8 0 1.6-.2 2.4-.6.7-.4 1.4-.9 1.9-1.6s.8-1.4 1-2.3c.2-.8.1-1.7-.1-2.5s-.6-1.6-1.1-2.2c.8-1 1.3-2.2 1.4-3.5v-5.6zm-.8 12.8c0 .6-.1 1.2-.4 1.8-.2.6-.6 1.1-1 1.5-.4.4-1 .8-1.5 1-.6.2-1.2.4-1.8.3-.9 0-1.8-.3-2.6-.8s-1.4-1.3-1.7-2.1c-.3-.9-.4-1.8-.2-2.7.2-.9.6-1.8 1.3-2.4.7-.7 1.5-1.1 2.4-1.3.9-.2 1.8-.1 2.7.3.9.4 1.6 1 2.1 1.7.5.8.7 1.8.7 2.7zm0-7.1c0 1.1-.4 2.1-1.1 2.9-.8-.7-1.8-1.2-2.8-1.3-1-.2-2.1 0-3.1.4s-1.8 1.1-2.3 2c-.6.9-.9 1.9-.9 3v.5c-.9.5-1.7 1.2-2.4 1.9-2 1.7-4.6 2.7-7.2 2.7-5.1 0-10.6-3.8-10.6-9.4v-5.5c0-5.2 4.6-9.4 10.3-9.4H29c4.9 0 10.2 2.5 10.3 6.7v5.5z"/><path fill="currentColor" d="m28.6 13.3-9.2.1c-4.8 0-8.8 3.6-8.8 8s4.2 8 9.1 8c2.3 0 4.5-.8 6.2-2.4 1.5-1.6 3.5-2.7 5.6-3.2 3.5-.9 5.9-2.9 5.9-5.1 0-3.5-5.1-5.4-8.8-5.4zm-11.1 3-3.4 7c-.1.1-.2.2-.3.2h-.3c-.1-.1-.2-.1-.2-.2-.1-.1-.1-.2 0-.3l3.4-7c.1-.1.2-.2.3-.2h.4l.3.3c-.1 0-.1.1-.2.2zm1 9.6c0 .1-.1.1-.1.2-.1 0-.1.1-.2.1H18c-.1 0-.1 0-.2-.1-.1 0-.1-.1-.2-.1 0-.1-.1-.1-.1-.2v-.2c0-.1 0-.1.1-.2l4.8-9.9c.1-.1.2-.2.3-.2h.4l.3.3v.4l-4.9 9.9zm10.6-10.2-4.8 10c0 .1-.1.1-.1.2-.1 0-.1.1-.2.1h-.2c-.1 0-.1 0-.2-.1-.1 0-.1-.1-.2-.1 0-.1-.1-.1-.1-.2v-.2c0-.1 0-.1.1-.2l4.8-10c.1-.1.2-.2.3-.2h.4l.3.3c0 .1-.1.3-.1.4zm4.8 1.4-2.2 4.5c0 .1-.1.2-.2.2-.1.1-.2.1-.3.1-.1 0-.2 0-.3-.1-.1 0-.1-.1-.2-.2 0-.1-.1-.2-.1-.2 0-.1 0-.2.1-.3l2.2-4.5c0-.1.1-.1.1-.2.1 0 .1-.1.2-.1h.2c.1 0 .1 0 .2.1.1 0 .1.1.2.1 0 .1.1.1.1.2v.4zM37.1 30.5h-1.9V28.3c0-.1-.1-.2-.2-.3-.1-.1-.2-.1-.3-.2-.1 0-.2-.1-.3-.1s-.2 0-.3.1c-.1 0-.2.1-.3.2-.1.1-.1.2-.2.3V30.5h-1.9c-.2 0-.4.1-.5.2-.1.1-.2.3-.2.5s.1.4.2.5c.1.1.3.2.5.2h1.9V34.1c0 .1.1.2.2.3.1.1.2.1.3.2.1 0 .2.1.3.1s.2 0 .3-.1c.1 0 .2-.1.3-.2.1-.1.1-.2.2-.3V32h1.9c.2 0 .4-.1.5-.2.1-.1.2-.3.2-.5s-.1-.4-.2-.5c-.2-.2-.3-.3-.5-.3z"/></svg>