<svg xmlns="http://www.w3.org/2000/svg" xml:space="preserve" style="enable-background:new 0 0 48 48" viewBox="0 0 48 48"><path fill="currentColor" d="M35.1 17.5c-2.1-2.8-5.2-4.6-8.7-5.2h-.1v-1.9H28.2c.1 0 .2-.1.2-.1.1-.1.1-.3.1-.5V8.2s0-.1-.1-.1c0 0 0-.1-.1-.1H20.4c-.4 0-.8 0-.9.4v1.5c0 .1 0 .2.1.3.1.1.2.2.3.2h1.8V12.3c-3.5.6-6.6 2.5-8.7 5.2-2.1 2.8-3.2 6.2-2.9 9.7s1.9 6.7 4.5 9.1c2.6 2.4 6 3.7 9.5 3.7s6.9-1.3 9.5-3.7c2.6-2.4 4.2-5.6 4.5-9.1.1-3.4-.9-6.9-3-9.7zm-3.2 16.6c-2.1 2.1-5 3.3-8 3.3-2.2 0-4.4-.7-6.3-1.9-1.9-1.2-3.3-3-4.2-5.1-.9-2.1-1.1-4.3-.6-6.5.4-2.2 1.5-4.2 3.1-5.8 1.6-1.6 3.6-2.7 5.8-3.1 2.2-.4 4.5-.2 6.6.7 2.1.9 3.9 2.3 5.1 4.2 1.2 1.9 1.9 4.1 1.9 6.3 0 2.9-1.2 5.7-3.4 7.9z"/><path fill="currentColor" d="M23.9 16.2c-2 0-3.9.6-5.5 1.7s-2.9 2.6-3.6 4.4c-.7 1.8-.9 3.8-.6 5.7.4 1.9 1.3 3.7 2.7 5 1.4 1.4 3.1 2.3 5.1 2.7 1.9.4 3.9.2 5.7-.6 1.8-.7 3.3-2 4.4-3.6 1.1-1.6 1.7-3.5 1.7-5.5 0-2.6-1-5.1-2.9-7-1.9-1.7-4.4-2.8-7-2.8zm4.8 10.2c-.1.1-.3.2-.4.2h-4.7c-.1 0-.3-.1-.4-.2-.1-.1-.2-.2-.2-.4V20.1c0-.2.1-.4.2-.5.1-.1.3-.2.5-.2s.4.1.5.2c.1.1.2.3.2.5V25.2h3.8c.2 0 .3.1.4.3.1.1.2.3.2.5.1.1 0 .3-.1.4z"/></svg>