<svg xmlns="http://www.w3.org/2000/svg" xml:space="preserve" style="enable-background:new 0 0 48 48" viewBox="0 0 48 48"><path fill="currentColor" d="m32.1 27.1.6-4.6c.5-.3.8-.6.8-.9v-1.9c0-1.2-2.9-1.8-5.7-1.8-2.1 0-4.3.3-5.2 1l-.6-1c-.1-.2-.3-.5-.4-.7-.2-.3-.3-.5-.5-.8-.5-.9-.8-3.1-.8-4.3v-.4c.3-.1.3-.3.3-.3V8.5c0-.2 0-.5-2.4-.5s-2.4.4-2.4.5v2.9c0 .1 0 .2.3.3v.5c0 1.1-.3 3.3-.8 4.3-.2.3-.4.7-.6 1-.1.2-.2.3-.3.5-.9 1.5-1.6 2.7-1.6 3.4-.4 4.8-.9 12.9-.2 13.4.4.2.8.4 1.2.5 1.3.4 2.7.6 4.1.7l.2.2.6 1.4c.4 1.2 3.7 2.4 8.2 2.4 4.5 0 7.7-1.3 8.2-2.5l.4-1.3c.1-.1.3-.2.4-.3l.3-.3c.1-.1.1-.2.2-.3v-.1c0-.1.1-.2.1-.3V29.4c-.5-1-2.2-1.8-4.4-2.3zm-.5-.1c-.4-.1-.8-.1-1.2-.2l.2-2.2c0-.1 0-.1-.1-.2 0-.1-.1-.1-.2-.1s-.1 0-.2.1c-.1 0-.1.1-.1.2l-.3 2.2H24c-.1-.9-.1-1.7-.2-2.4 0-.6-.1-1.1-.1-1.5 1.3.3 2.7.5 4 .5 1.5 0 2.9-.2 4.4-.6l-.5 4.2zm-9-7.5c.4-.5 2.4-1.1 5.1-1.1 3.2 0 5.2.7 5.2 1.2s-2 1.2-5.2 1.2c-1.6.1-3.1-.2-4.6-.7-.4-.2-.6-.4-.6-.5 0 .1 0 0 .1-.1zM16.2 8.9c.6.1 1.2.2 1.8.2.6 0 1.3 0 1.9-.1v2.4h-3.7V8.9zm3.7 5.6c-.6.2-1.2.2-1.8.2-.6 0-1.2 0-1.8-.2.1-.7.2-1.5.2-2.3v-.3c.5.1 1 .1 1.6.1.5 0 1.1 0 1.6-.1v.3c0 .8 0 1.5.2 2.3zM13 21.8v-.4c0-.5.8-1.9 1.6-3.2.1-.2.2-.4.4-.6.2-.3.4-.6.5-.9.3-.5.5-1.1.6-1.7.6.2 1.3.3 1.9.2.6 0 1.3 0 1.9-.2.1.6.3 1.2.6 1.7.2.3.4.6.5.9l.3.6c.2.3.4.6.5.9l.1.2v2.3c0 .4.3.7.8.9v.3c-3.3.6-6.6.6-9.8-.1.1-.3.1-.6.1-.9zm.7 13c-.3-.1-.7-.2-1-.4-.2-.3-.2-2.8-.1-6 1.5.4 3 .6 4.5.7v6c0 .1.1.2.1.3-1.2 0-2.4-.2-3.5-.6zm3.6-7.6s-.1.1-.2.1c-1.7-.1-3.1-.3-3.1-.3-.1 0-.1-.1-.1-.1 0-.1-.1-.1 0-.2 0-.1 0-.1.1-.2 0 0 .1-.1.2-.1 0 0 1.4.2 3.1.3.1 0 .1 0 .2.1 0 0 .1.1.1.2-.2.1-.2.2-.3.2zM14 25h-.1s-.1 0-.1-.1v-.2.1c0-.1.1-.1.1-.2.1 0 .1-.1.2 0h.1c.7.1 4.7.7 7.4.2h.2s.1 0 .1.1v.2s0 .1-.1.1l-.1.1h-.1c-.8.1-1.6.2-2.5.2-1.7-.1-3.4-.3-5.1-.5zm20.2 12.4c-.3.9-3.3 2.1-7.7 2.1-4.3 0-7.4-1.2-7.7-2.1l-.3-.7c.5.3.9.5 1.4.7h.1c.2.1.5.2.7.3l.2.1c.3.1.6.2.9.2h.2c.3.1.7.1 1 .2h.2c.3 0 .5.1.8.1h.3l.8.1H28l.7-.1h.4l.7-.1h.3c.3-.1.7-.1 1-.2.3-.1.6-.1.9-.2l.2-.1.6-.2.2-.1c.2-.1.4-.2.6-.2l.1-.1c.2-.1.5-.2.7-.3l-.2.6zm-15.3-6.8v-.1c0-.8 2.9-1.9 7.6-1.9 4.7 0 7.6 1.1 7.6 1.9v.1l-.2.1h-.2l-.3.1-.2.1h-.1l-.2.1h-.6l-.5.2h-.1l-.7.1c-.4.1-.7.1-1.1.1h-.1c-.4 0-.8.1-1.2.1H24.7l-.8-.1c-.6 0-1.2-.1-1.7-.2l-.8-.1h-.1l-.6-.1h-.5l-.3-.1-.2-.1-.4-.1h-.2l-.2-.1zm16.6-1.1c0 .1-.1.1-.1.2s-.1.1-.2.2c-.2.1-.3.3-.5.4-.2-1.5-4.3-2.3-8.1-2.3s-7.9.8-8.1 2.3c-.4-.1-.7-.4-.8-.8v-.1c0-.9 2.4-1.8 6-2.1.7-.1 1.4-.1 2.1-.1H29c.9.1 1.9.2 2.8.4 2.3.5 3.7 1.2 3.7 1.9z"/><path fill="currentColor" d="M22.3 30.6c.4 0 .7-.2.7-.3s-.3-.3-.7-.3c-.4 0-.7.2-.7.3s.3.3.7.3zM27.8 31.1c.4 0 .7-.2.7-.3 0-.2-.3-.3-.7-.3-.4 0-.7.2-.7.3.1.1.4.3.7.3zM25.4 30.1c.4 0 .7-.2.7-.3 0-.2-.3-.3-.7-.3-.4 0-.7.2-.7.3.1.1.4.3.7.3zM30.7 30.3c.4 0 .7-.2.7-.3s-.3-.3-.7-.3c-.4 0-.7.2-.7.3s.3.3.7.3z"/></svg>