<svg fill="none" height="24" viewBox="0 0 24 24" width="24" xmlns="http://www.w3.org/2000/svg" xmlns:xlink="http://www.w3.org/1999/xlink"><mask id="a" height="16" maskUnits="userSpaceOnUse" width="16" x="4" y="4"><path d="m12 20c-4.411 0-8-3.589-8-8s3.589-8 8-8 8 3.589 8 8-3.589 8-8 8z" fill="#fff"/></mask><path clip-rule="evenodd" d="m2 12c0-5.523 4.477-10 10-10 5.522 0 10 4.477 10 10s-4.478 10-10 10c-5.523 0-10-4.477-10-10zm10 8c-4.411 0-8-3.589-8-8s3.589-8 8-8 8 3.589 8 8-3.589 8-8 8zm-1-12c0-.552.448-1 1-1s1 .448 1 1-.448 1-1 1-1-.448-1-1zm0 3c0-.552.448-1 1-1s1 .448 1 1v5c0 .552-.448 1-1 1s-1-.448-1-1z" fill="#121286" fill-rule="evenodd"/><g mask="url(#a)"><path d="m12 2c-5.523 0-10 4.477-10 10s4.477 10 10 10c5.522 0 10-4.477 10-10s-4.478-10-10-10z" fill="#121286"/><path clip-rule="evenodd" d="m11 8c0-.552.448-1 1-1s1 .448 1 1-.448 1-1 1-1-.448-1-1zm0 3c0-.552.448-1 1-1s1 .448 1 1v5c0 .552-.448 1-1 1s-1-.448-1-1z" fill="#fff" fill-rule="evenodd"/></g></svg>