<svg xmlns="http://www.w3.org/2000/svg" xml:space="preserve" style="enable-background:new 0 0 48 48" viewBox="0 0 48 48"><path fill="currentColor" d="M33.2 27.4C32 25.5 32 21.2 32 19.9h.1c.1 0 .3 0 .4-.1.1-.1.2-.1.3-.2.1-.1.2-.2.2-.3.1-.1.1-.3.1-.4V18c0-.3-.1-.5-.3-.7-.2-.2-.5-.3-.7-.3H32v-.9c0-.2-.1-.5-.2-.7l-.5-1.4c-.1-.1-.2-.3-.3-.4-.1-.1-.3-.1-.4-.1h-2.4V8.2c0-.1-.1-.1-.1-.2H27.5l-3.4 1.5c-.1 0-.1.1-.2.1 0 .1-.1.1-.1.2v3.6h-2.5c-.2 0-.3 0-.4.1-.1.1-.2.2-.3.4l-.6 1.5c-.1.2-.1.4-.1.7v.9h-.1c-.3 0-.5.1-.7.3-.2.2-.3.5-.3.7v.9c0 .3.1.5.3.7.2.2.5.3.7.3h.1c0 1.2 0 5.4-1.1 7.4v.1c-.8-.1-1.5 0-2.3.3-.7.3-1.4.7-1.9 1.2-.5.6-1 1.2-1.2 2-.3.7-.4 1.5-.3 2.3s.3 1.6.6 2.2c.4.7.9 1.3 1.5 1.8s1.3.8 2.1.9c.8.2 1.5.1 2.3 0 0 .1.1.2.2.2.6.4 1.3.8 2 1 1.4.4 2.8.6 4.3.6 1.4 0 2.9-.2 4.3-.6.8-.2 1.6-.6 2.3-1.2.7-.6 1.3-1.3 1.7-2 1.1-2.4.8-5.4-1.2-8.7zm-1.5-1.9c-.4 0-.9.1-1.3.2-.4.2-.9.3-1.4.3-.3 0-.6 0-.9-.1v-6h3.2c-.1 1.9.1 3.8.4 5.6zm-7.1-15.3L27.3 9v4.5h-2.7v-3.3zm-4 6h6.8c.1 0 .2-.1.2-.1.1-.1.1-.2.1-.3 0-.1 0-.2-.1-.3-.1-.1-.1-.1-.2-.1h-6.6l.5-1.1h9l.5 1.1H29.2c-.1 0-.1 0-.1.1l-.1.1v.4c0 .1.1.1.1.1l.1.1H31v.8H20.6v-.8zm6.7 3.7v5.8c-.5-.1-1-.2-1.5-.2-.4 0-.8 0-1.2.1v-5.7h2.7zm-6.7 0h3.2v5.9c-.3.2-.8.2-1.2.2-.5 0-1-.1-1.5-.2-.3-.1-.6-.2-1-.2.4-1.9.6-3.8.5-5.7zm-.8 15.5c-.1 0-.2-.1-.2-.2l-1.3-1.3-1.3 1.3-.2.2c-.1 0-.2.1-.3.1h-.3c-.1 0-.2-.1-.3-.2s-.1-.2-.2-.3c0-.1-.1-.2 0-.3 0-.1 0-.2.1-.3 0-.1.1-.2.2-.2l1.3-1.3-1.3-1.3-.2-.2c0-.1-.1-.2-.1-.3v-.3c0-.1.1-.2.2-.3.1-.1.2-.1.3-.2.1 0 .2-.1.3 0 .1 0 .2 0 .3.1.1.1.2.1.2.2l1.3 1.3 1.3-1.3c.1-.1.1-.2.2-.2.1-.1.2-.1.3-.1h.3c.1 0 .2.1.3.2.1.1.1.2.2.3v.3c0 .1 0 .2-.1.3-.1.1-.1.2-.2.2l-1.3 1.3 1.3 1.3.2.2c0 .1.1.2.1.3v.3c0 .1-.1.2-.2.3-.1.1-.2.1-.3.2-.1 0-.2.1-.3 0-.1 0-.2 0-.3-.1zm13.8.4c-.4.7-.9 1.3-1.5 1.8s-1.3.9-2.1 1.1c-1.3.4-2.7.6-4.1.5-1.4 0-2.7-.2-4.1-.5-.5-.2-1.1-.4-1.5-.7 1.1-.4 1.9-1.2 2.5-2.2.6-1 .9-2.2.8-3.3-.1-1.2-.5-2.3-1.3-3.1-.7-.9-1.7-1.5-2.9-1.7.2-.4.4-.8.5-1.3.3 0 .6.1.9.2.5.2 1.1.3 1.7.3.6 0 1.1-.1 1.7-.3.5-.2 1-.2 1.5-.2s1 .1 1.5.2c.5.2 1.1.3 1.7.3.6 0 1.1-.1 1.7-.3.4-.1.8-.2 1.3-.2.1.5.4 1.1.6 1.5 1.9 3 2.2 5.7 1.1 7.9z"/><path fill="currentColor" d="M27.7 32.1c-.3 0-.5.3-.5.6s.2.6.5.6.5-.3.5-.6-.2-.6-.5-.6zM25 35.9c-.3 0-.5.3-.5.6s.2.6.5.6.5-.3.5-.6c.1-.3-.2-.6-.5-.6zM25.6 28.5c-.3 0-.5.3-.5.6s.2.6.5.6.5-.3.5-.6-.2-.6-.5-.6zM31.2 34.5c-.3 0-.5.3-.5.6s.2.6.5.6.5-.3.5-.6c0-.4-.2-.6-.5-.6z"/><ellipse cx="30.8" cy="30.2" rx=".5" ry=".6"/></svg>