<svg xmlns="http://www.w3.org/2000/svg" xml:space="preserve" style="enable-background:new 0 0 48 48" viewBox="0 0 48 48"><path fill="currentColor" d="M38.1 19.1c0-.1.1-.2.1-.2.7-.6 2.2-2.2 1.6-4.4C38.4 9.4 26.4 9 25.9 9h-2.1C22.3 9 13.3 9 12 13.9c-.2.7-.1 1.5.1 2.1.3.7.7 1.3 1.3 1.7.1.1.2.1.2.2s.1.2.1.3l-.2 2.9c-1.4 0-2.8.5-3.8 1.5S8 24.9 7.9 26.4c-.1 1.4.4 2.9 1.3 4s2.2 1.8 3.6 2l-.2 3.9c0 .3.1.7.3 1 .2.3.5.5.8.5 3.4.7 6.8 1.1 10.3 1.2 3.4 0 6.8-.2 10.1-.6.2 0 .3-.1.5-.1l3.9-1.8c.3-.1.6-.4.7-.7.2-.3.2-.6.2-1L38 19.4c.1-.1.1-.2.1-.3zM11 27.6c-.2 0-.4-.1-.5-.2-.1-.1-.2-.3-.2-.5s.1-.4.2-.5c.1-.1.3-.2.5-.2h5.6c.1 0 .2.1.3.2.1.1.1.2.2.3 0 .1.1.2.1.3 0 .1 0 .2-.1.3 0 .1-.1.2-.2.3-.1.1-.2.1-.3.2H11zm24.1-11.8c-.2.5-.6 1-1 1.3-.2.1-.3.3-.5.5-.1.2-.1.5-.1.7l1.2 18.6c0 .2 0 .3-.1.4-.1.1-.2.2-.4.2-3.3.4-6.7.6-10.1.6-3.4-.1-6.8-.5-10.1-1.1-.1 0-.3-.1-.4-.2-.1-.1-.1-.3-.1-.4l.2-3.9c1.4 0 2.8-.6 3.8-1.5 1-1 1.6-2.3 1.7-3.8.1-1.4-.4-2.8-1.2-4-.9-1.1-2.2-1.8-3.6-2l.2-2.9c0-.2 0-.5-.1-.7-.1-.2-.3-.4-.5-.6-.5-.3-.9-.7-1.1-1.3-.2-.5-.2-1.1-.1-1.7C14 9.6 23.6 9.8 24 9.9h.2c1.4 0 9.8 0 10.9 4.2.2.6.2 1.1 0 1.7z"/><path fill="currentColor" d="M19.4 14.6c-.4 0-.8.4-.8.8 0 .5.4.8.8.8s.8-.4.8-.8c0-.5-.3-.8-.8-.8zM29.7 17.4c0-.5-.4-.8-.8-.8s-.8.4-.8.8c0 .5.4.8.8.8s.8-.3.8-.8zM29.4 29.7c-.4 0-.8.4-.8.8 0 .5.4.8.8.8s.8-.4.8-.8-.4-.8-.8-.8zM21 33.2c-.4 0-.8.4-.8.8 0 .5.4.8.8.8s.8-.4.8-.8c0-.5-.3-.8-.8-.8zM24.7 22.8c-.4 0-.8.4-.8.8 0 .5.4.8.8.8s.8-.4.8-.8-.3-.8-.8-.8z"/></svg>