<svg xmlns="http://www.w3.org/2000/svg" xml:space="preserve" style="enable-background:new 0 0 48 48" viewBox="0 0 48 48"><path fill="currentColor" d="M39.9 23.8s0-.1 0 0l-1-.4v-1c-.4-4.8-3-8.5-5.9-8.4-.3 0-.5.1-.8.1-2.4.4-7.2 1.5-10.6 4.1-.2.1-.5.1-.8 0-.3-.1-.6-.3-.8-.5-.4-.4-.9-.7-1.5-.7-.6.1-1.1.3-1.5.7-.2.2-.5.4-.8.5-.4 0-.8 0-1.1-.2-.5-.2-1-.2-1.5-.1-.5.3-.9.8-1.1 1.4-.1.3-.3.6-.5.8-.3.2-.6.4-1 .5-.5.1-1 .4-1.3.8-.3.5-.3 1.1-.2 1.7-.9.2-1.4.4-1.4.4s-.1 0-.1.1v.2l.1.2c1 2.2 2.7 6.1 4.8 6.8h.1c.5.8 1.1 1.4 2 1.8 2.9.8 5.9 1.2 8.9 1.1h.4c3 0 6-.3 8.9-1.1.8-.4 1.5-1 2-1.8h.1c2-.7 3.8-4.7 4.8-6.8l.1-.1v-.2c-.2.2-.2.1-.3.1zm-9-8 .3-.3c.1-.1.2-.1.3-.2l.2-.2.3-.1.2-.1.2-.1c.2-.1.4-.1.6-.1h.1c2.5 0 4.7 3.5 5.1 7.8 0 .5.1.9 0 1.4l-.8.1H36v-1.3c-.2-2.2-1.1-3.9-2.3-4-.2 0-.4 0-.6.1-.2.1-.4.2-.5.4-.7 1-1.1 2.2-1 3.5 0 .5.1 1 .2 1.5h-2.5v-.7c0-.2-.1-.4-.1-.6v-2c0-.2 0-.5.1-.7v-.4c0-.2.1-.5.1-.7v-.2c.1-.3.1-.5.2-.7l.1-.2c.1-.2.1-.3.2-.5l.1-.3c.1-.2.2-.4.3-.5.1-.1.1-.2.1-.2v-.1c.1-.1.1-.2.2-.3l.3-.3zm-.2-.7-.3.3-.1.1c0 .1-.2.2-.3.4s-.1.2-.2.3c-.1.1-.2.3-.2.4 0 .1-.1.2-.1.2s0 .1-.1.1c-.1.1-.1.3-.2.5 0 .1-.1.2-.1.3 0 .1 0 .1-.1.2 0 .1-.1.2-.1.3v.1c0 .1-.1.3-.1.4v.2c0 .1-.1.3-.1.4v.6c0 .2 0 .3-.1.5V21.6c0 .4 0 .8.1 1.2 0 .2 0 .4.1.5v.8H27v-.5c.1-.6.1-1.2-.2-1.8-.3-.4-.8-.8-1.3-.9-.3-.1-.6-.3-.9-.5-.2-.3-.3-.6-.5-.9-.2-.6-.5-1.1-1-1.4-.1-.1-.2-.1-.3-.1 2.6-1.3 5.2-2.3 7.9-2.9zm8.2 9.9c-1 1.9-2.5 4.9-4 5.5-3.5 1-7.1 1.4-10.7 1.4h-.4c-3.6 0-7.2-.4-10.7-1.4-1.7-.6-3.4-4.1-4.3-6.2 2.5.3 5 .4 7.5.5H37c.8-.1 1.5-.1 2.2-.2-.1.1-.2.3-.3.4z"/><path fill="currentColor" d="M36.2 26.3s0-.1 0 0c-.2-.1-.2-.1-.3-.1-.1 0-.1.1-.2.1l-.7 1.2c-.2.4-.5.7-.7 1.1-.1.1-.1.1-.1.2s0 .2.1.2c.1.1.1.1.2.1s.2 0 .2-.1c.3-.4.6-.7.8-1.2l.7-1.2v-.2c.1 0 .1-.1 0-.1z"/></svg>