<svg width="48" height="48" viewBox="0 0 48 48" fill="none" xmlns="http://www.w3.org/2000/svg">
<path fill-rule="evenodd" clip-rule="evenodd" d="M39.9789 29.947C39.9415 29.8832 39.8792 29.8321 39.8044 29.8129L39.789 29.8092L39.789 29.8092C39.624 29.7692 38.4433 29.4829 36.9184 29.3788C37.5785 27.177 37.2619 25.8308 37.2319 25.7031L37.2301 25.695C37.1927 25.561 37.0742 25.478 36.9433 25.4844C36.8436 25.4907 34.6619 25.6695 33.1036 26.9655V26.9591C33.0724 26.6144 33.0163 26.2632 32.9478 25.9185C32.8231 25.2992 32.6548 24.6927 32.4179 24.0926C32.7296 23.7734 33.6958 22.6752 33.8578 21.2643C33.9638 20.313 33.9638 20.2684 33.9326 19.6746C33.9139 19.2916 33.8828 18.6531 33.8578 17.3252C33.803 13.7626 30.6466 13.017 30.4857 12.979L30.4794 12.9774C30.4046 12.9583 28.8088 12.6008 27.4687 13.5329C27.5497 12.4858 27.7055 11.7261 27.7118 11.707C27.7305 11.624 27.7118 11.5346 27.6557 11.4644C27.5996 11.3941 27.5248 11.3558 27.4375 11.3558H26.1347V10.5642C26.1347 9.70228 25.4491 9 24.6076 9H22.5818C21.7403 9 21.0546 9.70228 21.0546 10.5642V11.3558H18.7857C18.661 11.3558 18.5488 11.4388 18.5176 11.5601C18.4865 11.6814 18.5301 11.8155 18.6361 11.8793L18.638 11.8806C18.7047 11.9248 20.374 13.0312 20.718 14.931C20.9486 16.1888 20.5559 17.5295 19.5461 18.9149L19.1534 19.4512L19.1088 19.5123C19.0507 19.592 18.995 19.6684 18.9353 19.7448C17.9878 21.0409 17.0902 22.273 16.3921 23.5435C14.5199 22.1987 12.4402 21.6432 12.2514 21.5928L12.2407 21.5899C12.1597 21.5708 12.0724 21.5899 12.0038 21.641C11.9353 21.6921 11.8979 21.7751 11.8979 21.8644C11.8979 21.9794 11.9103 24.5331 12.9638 27.0996C10.1775 26.5697 8.30747 27.0421 8.20773 27.0677C8.06437 27.106 7.97087 27.2592 8.00827 27.406L8.01187 27.4211C8.08245 27.7173 8.9169 31.2194 11.0751 33.0115C11.0722 33.0381 11.068 33.0646 11.0636 33.0918C11.0586 33.1235 11.0535 33.1559 11.0501 33.1903C10.9379 35.0226 12.7768 36.6378 15.1516 36.7846L15.1694 36.7856H15.1694C15.2814 36.7916 15.3879 36.7974 15.4945 36.7974C16.2238 36.7974 16.9344 36.6442 17.5577 36.3697C17.6076 37.1102 17.8756 37.7806 18.3805 38.2722C18.8916 38.7638 19.5648 39 20.2879 39C21.4286 39 22.7064 38.419 23.6975 37.3401C24.2149 36.7719 24.5951 36.1334 24.8258 35.4886H28.5034C28.6405 35.91 28.8712 36.2803 29.1828 36.5803C29.694 37.0719 30.3672 37.3081 31.0902 37.3081C32.2309 37.3081 33.5025 36.7336 34.4936 35.6546C38.8569 34.2756 39.9478 30.3173 39.9914 30.1513C40.0101 30.0747 39.9976 29.9981 39.9602 29.9342L39.9789 29.947ZM36.3636 29.3022V29.3597C35.5782 29.3341 34.7305 29.3724 33.8952 29.5193C33.8861 29.5193 33.8803 29.5227 33.873 29.527C33.8703 29.5286 33.8674 29.5303 33.8641 29.532C33.6023 29.4746 33.328 29.449 33.0475 29.4618C33.0475 29.4352 33.0535 29.4056 33.0592 29.3772C33.0618 29.3646 33.0643 29.3522 33.0662 29.3405C33.1348 28.7978 33.1659 28.2488 33.1535 27.7061C34.2942 26.5378 36.0894 26.1866 36.7439 26.0973C36.8062 26.5633 36.8748 27.6933 36.3761 29.3086L36.3636 29.3022ZM19.8952 23.0009C19.8952 23.0009 18.3182 24.814 17.5203 27.655C17.4829 27.7955 17.3582 27.8849 17.2211 27.8849C17.1962 27.8849 17.165 27.8849 17.1338 27.8721C16.9655 27.821 16.872 27.6486 16.9219 27.4763C17.7572 24.482 19.3654 22.6433 19.4339 22.5667C19.5524 22.439 19.7456 22.4263 19.8765 22.5412C20.0074 22.6625 20.0136 22.8604 19.9014 22.9945L19.8952 23.0009ZM30.9219 21.4048C30.8607 21.3199 30.7891 21.2266 30.7119 21.1259C30.6554 21.0524 30.596 20.9749 30.5355 20.894C30.3734 20.6833 30.2051 20.4663 30.0243 20.2428L30.0119 20.23C29.8934 20.0832 29.775 19.9428 29.6503 19.7959C29.6379 19.7831 29.6316 19.7768 29.6254 19.764C29.295 19.3745 28.9584 18.9851 28.6343 18.6659C28.1481 18.1871 27.824 17.6508 27.6744 17.0826C27.6058 16.8208 27.5559 16.5527 27.5185 16.2781C28.1232 14.9183 29.6316 15.014 29.7314 15.0204L29.7361 15.0204C29.8611 15.0192 31.5977 15.0023 31.7634 17.9125L31.8133 18.8C31.8549 19.5065 31.8569 19.996 31.8195 20.2684C31.8149 20.3107 31.8086 20.3575 31.8016 20.4098V20.4099C31.7895 20.4994 31.7752 20.6055 31.7634 20.7344C31.6949 21.3537 31.4767 21.7559 31.3209 21.9794C31.1962 21.7878 31.0653 21.5899 30.9219 21.4048ZM30.3609 13.5456C30.4794 13.5712 33.2532 14.1713 33.3031 17.3379C33.3199 18.5422 33.3517 19.185 33.3716 19.5856L33.3779 19.7129C33.409 20.2684 33.409 20.3067 33.3093 21.2069C33.1909 22.2475 32.5364 23.1222 32.1811 23.5308C32.019 23.1796 31.8382 22.8349 31.6388 22.4901C31.8507 22.2475 32.2247 21.6984 32.3244 20.7983L32.3307 20.7484C32.3525 20.5754 32.3691 20.4436 32.3805 20.3386C32.4429 19.8725 32.4429 19.847 32.3805 18.7553L32.3307 17.8678C32.2559 16.5782 31.8881 15.6206 31.2398 15.0332C30.5292 14.3884 29.7376 14.4331 29.7501 14.4395C29.2015 14.3884 28.1543 14.5544 27.4437 15.3524C27.425 15.0268 27.425 14.6821 27.4375 14.3182V14.3054C28.6049 13.1601 30.2931 13.5221 30.371 13.5388L30.3734 13.5393L30.3609 13.5456ZM21.6156 10.5833C21.6156 10.0343 22.0519 9.59374 22.5818 9.59374H24.6076C25.1437 9.59374 25.5737 10.0406 25.5737 10.5833V11.375H21.6156V10.5833ZM21.2728 14.8417C21.0234 13.4818 20.2006 12.4986 19.6022 11.9432H27.1009C27.0012 12.5369 26.8266 13.8074 26.8703 15.1737V15.3077C26.8827 15.5567 26.9014 15.8121 26.9264 16.0611C26.9264 16.1058 26.9264 16.1505 26.9388 16.1951C26.9388 16.1951 26.9388 16.2079 26.9451 16.2143C26.9887 16.5591 27.0448 16.8974 27.1258 17.223C27.3004 17.8934 27.6744 18.519 28.2354 19.0745C28.4132 19.244 28.591 19.4383 28.7747 19.6391L28.7839 19.6491H19.7207L19.9949 19.2724C21.1045 17.7529 21.5283 16.2654 21.2665 14.8353L21.2728 14.8417ZM13.637 27.2528C12.7394 25.2481 12.5274 23.1222 12.4838 22.273C13.1757 22.4901 14.7465 23.0583 16.1427 24.0734C15.5755 25.2034 15.189 26.3782 15.0644 27.6806C14.5719 27.5146 14.0982 27.3805 13.6432 27.272V27.2592L13.637 27.2528ZM8.63783 27.5912C9.4357 27.4507 11.8979 27.1698 15.027 28.2615C15.0083 28.8617 15.0519 29.5001 15.1579 30.1641C14.173 30.1705 13.238 30.4258 12.4963 30.9174C11.8916 31.3196 11.4615 31.8432 11.2371 32.4241C9.65386 30.9685 8.86223 28.4339 8.6316 27.5912H8.63783ZM15.2015 36.242C13.1383 36.1143 11.5363 34.7736 11.6236 33.2541C11.6672 32.5327 12.0849 31.8751 12.8017 31.4026C13.5435 30.911 14.5158 30.6684 15.5256 30.7387C17.1276 30.8408 18.4989 31.6963 18.9415 32.8391C18.1436 33.7265 17.6824 34.7736 17.5826 35.7631C16.8907 36.1207 16.0555 36.2994 15.1953 36.242H15.2015ZM23.3111 36.9698C21.8961 38.5148 19.864 38.917 18.7794 37.8827C17.6948 36.8421 17.9629 34.7416 19.3778 33.1966C19.4236 33.1456 19.4748 33.1002 19.5261 33.0548C19.5517 33.0321 19.5773 33.0094 19.6022 32.986C19.6116 32.9764 19.6209 32.9684 19.6303 32.9604C19.6396 32.9524 19.649 32.9445 19.6583 32.9349C19.692 32.904 19.7251 32.8727 19.7582 32.8414C19.8415 32.7626 19.9244 32.6842 20.0136 32.6157C20.0261 32.6061 20.0386 32.5981 20.051 32.5901C20.0635 32.5821 20.076 32.5742 20.0884 32.5646C21.4099 31.575 23.0119 31.4218 23.9095 32.2837V32.2901C24.0279 32.405 24.1214 32.5327 24.2024 32.6667C24.2149 32.6859 24.2258 32.7034 24.2367 32.721L24.2368 32.7212C24.2477 32.7387 24.2586 32.7562 24.271 32.7753C24.3458 32.9093 24.4019 33.0434 24.4455 33.1903C24.4549 33.219 24.4611 33.2477 24.4673 33.2764C24.4736 33.3052 24.4798 33.3339 24.4892 33.3626C24.5141 33.4648 24.5266 33.5669 24.539 33.6755C24.541 33.6979 24.5436 33.7209 24.5463 33.7443L24.5463 33.7443L24.5463 33.7443C24.5519 33.794 24.5577 33.8447 24.5577 33.8925C24.5577 34.033 24.5577 34.1734 24.5453 34.3203C24.5453 34.3501 24.5397 34.3799 24.5342 34.4097C24.5314 34.4246 24.5286 34.4395 24.5266 34.4544L24.5249 34.47L24.5249 34.4701C24.5191 34.5233 24.513 34.5808 24.5016 34.6331C24.4892 34.697 24.4767 34.7608 24.458 34.8246L24.458 34.8247L24.458 34.8248C24.433 34.9269 24.4081 35.029 24.377 35.1375V35.1502C24.1775 35.7759 23.816 36.408 23.3048 36.9698H23.3111ZM29.5818 36.1845C29.3013 35.9164 29.1143 35.5588 29.0083 35.1566V35.1502C28.946 34.8949 28.921 34.6267 28.9335 34.3522V34.2181C28.9397 34.1032 28.9584 33.9883 28.9771 33.8734C28.9876 33.8036 29.0025 33.7383 29.0181 33.67L29.027 33.6308C29.0519 33.5095 29.0831 33.3882 29.1205 33.2732C29.1704 33.12 29.2265 32.9668 29.3013 32.8136C29.32 32.7753 29.3387 32.7434 29.3574 32.7114C29.3698 32.6859 29.3839 32.6588 29.3979 32.6317L29.3979 32.6315C29.4119 32.6044 29.426 32.5773 29.4384 32.5518C29.4551 32.5227 29.4719 32.4931 29.4887 32.4633C29.5346 32.3821 29.5815 32.2992 29.6316 32.2198L29.6317 32.2198C29.6753 32.1496 29.7189 32.0794 29.7688 32.0092C29.8934 31.8368 30.0181 31.6708 30.1677 31.5048C30.1677 31.5048 30.1739 31.492 30.1802 31.492L30.1864 31.4856C30.3485 31.3133 30.5168 31.1537 30.6913 31.0068C30.7162 30.9877 30.7349 30.9685 30.7536 30.9494C30.9095 30.8217 31.0778 30.7131 31.2398 30.611C31.2647 30.5951 31.288 30.5807 31.3113 30.5664L31.3115 30.5663C31.3349 30.5519 31.3583 30.5376 31.3832 30.5216C31.5328 30.4322 31.6886 30.362 31.8382 30.2981C31.8694 30.2854 31.9021 30.2726 31.9348 30.2599C31.9676 30.2471 32.0003 30.2343 32.0315 30.2215C32.1748 30.1705 32.3244 30.1258 32.4678 30.0938C32.5364 30.0747 32.6112 30.0619 32.6797 30.0555C33.4589 29.9279 34.1882 30.0875 34.7056 30.5791C35.7715 31.6006 35.5221 33.6499 34.1695 35.1886C34.1134 35.2205 34.076 35.2652 34.0511 35.3226C32.6423 36.8166 30.6477 37.206 29.5818 36.1781V36.1845ZM35.1544 34.8183C36.1766 33.1711 36.2016 31.2366 35.092 30.1705C35.011 30.0938 34.93 30.03 34.8489 29.9662C36.7688 29.8002 38.6699 30.1449 39.3805 30.2981C39.0751 31.1345 37.9656 33.5861 35.1606 34.8183H35.1544ZM34.1634 32.8767C34.3878 32.8767 34.581 32.8001 34.7119 32.6469C35.0423 32.2574 34.8428 31.5679 34.2506 31.0444C33.9951 30.8146 33.7021 30.655 33.4278 30.5975C33.0975 30.5209 32.8107 30.5975 32.6362 30.8018C32.5178 30.9359 32.4679 31.1146 32.4804 31.3189C32.5053 31.6765 32.7359 32.0787 33.0975 32.4043C33.4528 32.7171 33.8392 32.8831 34.1634 32.8831V32.8767ZM33.0538 31.1721C33.0538 31.1721 33.1162 31.1338 33.1785 31.1338C33.2159 31.1338 33.2533 31.1338 33.3032 31.1466C33.4839 31.1849 33.6959 31.3062 33.8829 31.4658C34.2631 31.8041 34.3628 32.1808 34.2943 32.2638C34.2195 32.3468 33.8455 32.2957 33.4652 31.9637C33.1847 31.7148 33.0476 31.4338 33.0351 31.2679C33.0351 31.2423 33.0351 31.1912 33.0538 31.1657V31.1721ZM19.378 37.2696C18.7858 36.7461 18.5864 36.0566 18.9167 35.6672C19.2409 35.2777 19.939 35.3799 20.5312 35.9098C20.8927 36.2354 21.1233 36.6376 21.1483 36.9951C21.1607 37.1994 21.1046 37.3782 20.9924 37.5122C20.8615 37.6655 20.6683 37.7421 20.4439 37.7421C20.3629 37.7421 20.2818 37.7357 20.2008 37.7165C19.9265 37.6591 19.6336 37.4995 19.378 37.2696ZM20.3255 37.1611C20.4626 37.193 20.5499 37.1739 20.5748 37.1419C20.5935 37.1164 20.5935 37.0653 20.5935 37.0398C20.581 36.8738 20.4439 36.5929 20.1634 36.3439C19.7832 36.0119 19.4092 35.9608 19.3344 36.0438C19.2658 36.1268 19.3655 36.5035 19.7458 36.8419C19.9328 37.0015 20.1447 37.1228 20.3255 37.1611Z" fill="black"/>
</svg>
