<svg xmlns="http://www.w3.org/2000/svg" xml:space="preserve" style="enable-background:new 0 0 48 48" viewBox="0 0 48 48"><path fill="currentColor" d="M40 23c0-.1-.1-.2-.2-.3-.2-.3-.8-.5-2.4-.2 1.1-.8 1.7-1.4 1.8-1.9v-.3c0-.1-.1-.2-.1-.3-.1 0-.1-.1-.2-.1s-.2-.1-.3-.1c-.5 0-1.2.4-2.3 1.3.8-1.6.8-2.2.6-2.5 0-.1-.1-.1-.2-.2-.1 0-.2-.1-.2-.1-.1 0-.3 0-.4.1l-.3.3c-.1.1-.2.3-.3.4l-.3.6-.1.1c-.1.2-.3.6-.4.9v.1l-.2.6c-.1-.1-.2-.1-.4-.1-.3-.3-.7-.4-1.1-.3-.4.1-.8.3-1 .6-.4.4-.7.8-1.1 1.2l-.3-1.2c-.1-.4-.2-.7-.3-1.1 0-.2 0-.5.1-.7v-.1c.2-.9.1-1.9-.3-2.7-.1-.3-.3-.5-.5-.7-.2-.2-.5-.3-.7-.4-.2 0-.4-.1-.6 0-.2 0-.4.1-.6.3-.4.4-.7 1-.7 1.6 0 .3-.1.6-.2.8-.2.3-.4.7-.6.9-.1-.3-.1-.7-.1-1.1.1-.6-.1-1.3-.4-1.8-.5-.4-1-.5-1.6-.5-.4 0-.8-.1-1.1-.2-.3-.2-.5-.5-.7-.9-.3-.6-.7-1-1.3-1.2-.6-.1-1.1.1-1.6.5-.3.2-.7.4-1.1.4-.4-.1-.8-.2-1.1-.4-.4-.3-1-.5-1.6-.5-.5.2-1 .7-1.3 1.2-.2.3-.4.6-.7.9-.4.1-.7.2-1.1.2-.6-.1-1.1.1-1.6.5-.4.5-.5 1.2-.4 1.8 0 .4 0 .8-.1 1.1-.2.3-.4.6-.7.9l-.2.3c-.7.2-1.1.3-1.1.3s-.1 0-.1.1l-.1.1v.1s0 .1-.1.1c.2 1.9 1 3.7 2.1 5.2 1.2 1.5 2.7 2.6 4.4 3.2.7.2 1.4.4 2.1.4H19c1.2 1.6 2.8 2.9 4.6 3.5.7.2 1.4.4 2.1.4h3.6c.7 0 1.4-.1 2.1-.4 1.7-.6 3.2-1.7 4.4-3.2s1.9-3.3 2.1-5.2v-.1s0-.1-.1-.1h-.1l-1.1-.1v-.5l.6-.1c.3 0 .6-.1 1-.1s.5-.1.7-.2c.1 0 .3-.1.4-.1.1-.1.3-.1.4-.2.1-.1.2-.2.2-.4.1-.2.1-.3.1-.4zm-9.4 1.1c.5-.7 1.1-1.4 1.7-1.9.2-.3.5-.4.8-.5.3-.1.6 0 .9.1.4.1.7.3 1 .6l.2.2c.2.2.3.4.5.7l.1.2c.2.4.3.8.2 1.2v.6c-.6.1-1.1.2-1.7.3l-1-1.3s0-.1-.1-.1H33s-.1 0-.1.1l-.1.1v.2s0 .1.1.1l.8 1c-1.6.2-3 .2-4.5.3.4-.5.8-1 1-1.2l.4-.7zm-4.7-3.3c.1-.1.2-.3.3-.4l.3-.3c.3-.3.5-.7.7-1.1l.3-.9c0-.5.2-.9.5-1.3.1-.1.2-.1.3-.2h.4c.2 0 .4.1.5.2.2.1.3.3.4.4.3.7.4 1.6.2 2.4v.1c-.1.3-.1.6-.1.9.1.4.2.9.3 1.3.2.5.3 1.1.3 1.6l-.1.1-.5.6c-.3.3-.7.9-1.3 1.7h-.7l.9-4.4v-.2s0-.1-.1-.1H28.2s-.1 0-.1.1v.1l-.9 4.5h-.7c.1-.5.2-.9.1-1.4V23.7l-.1-.2-.1-.2-.1-.2-.3-.1-.1-.2-.1-.2-.1-.2-.1-.1-.2-.2c0-.2.1-.4.2-.5v-.1c0-.1.1-.1.1-.2s.1-.2.1-.2.1-.2.1-.3zm-1.5 3c0-.1-.1-.1-.2-.1s-.1 0-.2.1c-.1 0-.1.1-.1.2v.2c.2.3.3.7.3 1 0 .3-.1.5-.2.7-1 0-2-.1-3-.2 0-.2-.1-.3-.1-.5 0-.5.2-.9.5-1.2.3-.3.7-.5 1.1-.5.1 0 .1 0 .2-.1s.1-.1.1-.2 0-.1-.1-.2-.1-.1-.2-.1c-.6 0-1.1.2-1.5.7-.4.4-.6 1-.6 1.7v.4c-.4-.1-.7-.1-1.1-.2v-.4c.1-.9.4-1.7 1-2.3.6-.6 1.4-.9 2.3-.9.8 0 1.6.3 2.3.9l.1.1c.1.1.2.2.3.4l.1.1c.1.1.2.3.2.4v.1c.1.2.1.3.2.5.1.5.1 1-.1 1.4l-.1.2h-1.1c.1-.2.1-.5.1-.7.3-.6.1-1.1-.2-1.5zM9.6 21.4c.1-.1.2-.3.4-.4.3-.3.6-.6.8-1 .1-.4.2-.9.2-1.4-.1-.5 0-1 .3-1.4.4-.2.8-.3 1.2-.3.5 0 .9-.1 1.4-.3.4-.3.7-.6.9-1 .3-.4.6-.9.9-1 .4 0 .8.1 1.2.4.4.3.9.4 1.4.5.5 0 .9-.2 1.4-.5.3-.3.7-.4 1.2-.4.3.1.6.4.8.8 0 .1.1.1.1.2.2.4.5.8.9 1 .4.2.9.3 1.4.3.4 0 .8.1 1.2.3.2.4.3.9.3 1.4 0 .5 0 .9.2 1.4 0 .1.1.1.1.2-.1.1-.1.2-.2.3-.1.2-.2.3-.3.5v.1c-.1.2-.2.4-.2.5v.2c-.7-.5-1.5-.7-2.4-.7-.8 0-1.7.4-2.3.9H18.1c-3 .2-5.8-.1-8.5-.6zm27.7 4.3c-.3 1.7-1 3.3-2.1 4.6-1.1 1.3-2.5 2.3-4 2.8-.6.2-1.3.3-1.9.3h-3.6c-.7 0-1.3-.1-1.9-.3-1.5-.5-2.9-1.5-4-2.8-1.1-1.3-1.8-2.9-2.1-4.6 3 .7 6.1 1 9.2.9h1.7c1.9 0 3.8-.1 5.7-.3h.1c.6-.1 1.3-.2 1.9-.3h.2c.2-.2.5-.3.8-.3z"/><path fill="currentColor" d="M18.6 18c0-.3-.2-.6-.5-.6s-.5.3-.5.6.2.6.5.6c.2 0 .5-.2.5-.6zM21.8 20c.3 0 .5-.3.5-.6s-.2-.6-.5-.6-.5.3-.5.6c-.1.4.2.6.5.6zM14.1 19.5c-.3 0-.5.3-.5.6s.2.6.5.6.5-.3.5-.6-.2-.6-.5-.6zM34 29.8c-.1 0-.1 0 0 0-.1-.1-.2-.1-.2-.1h-.1s-.1 0-.1.1c-.8.9-1.8 1.5-3 1.7-.1 0-.1.1-.2.1 0 .1-.1.1-.1.2s0 .1.1.2.1.1.2.1h.1c1.2-.3 2.4-.9 3.3-1.9l.1-.1v-.2c-.1 0-.1 0-.1-.1z"/></svg>