<svg xmlns="http://www.w3.org/2000/svg" xml:space="preserve" style="enable-background:new 0 0 48 48" viewBox="0 0 48 48"><path fill="currentColor" d="M35 16.4c-2-2.2-4.7-3.6-7.7-3.8-.1 0-.3-.1-.3-.2-.1-.1-.2-.2-.2-.3-.1-.3-.1-.5-.1-.8v-3c0-.1-.1-.1-.1-.2-.1 0-.1-.1-.2-.1H26c-2.6.8-2.6 1.2-2.6 1.4 0 .2.1.4.1.6.2.6.3 1.2.3 1.8 0 .2-.1.4-.2.5-.1.1-.3.2-.5.2-2.8.3-5.4 1.7-7.3 3.8-1.2 1.4-2.3 3.4-2 4.9.1.3.2.7.4 1 .2.3.5.5.8.7.2 1.6.5 3.2.9 4.8-.9.1-1.8.4-2.5.9-.8.5-1.4 1.1-1.8 1.9-.3.8-.6 1.7-.6 2.5 0 .9.2 1.7.5 2.5.4.8 1 1.5 1.7 2s1.6.9 2.5 1c.9.1 1.8.1 2.7-.2.9-.3 1.6-.7 2.3-1.3l.1-.1c1.1 1.2 2.4 2.2 3.9 2.9.2.1.5.2.7.2.3 0 .5-.1.7-.2C28 39 34 35.5 35.6 23l.1-.1c.3-.2.6-.4.8-.7.2-.3.4-.6.4-1 .3-1.4-.8-3.4-1.9-4.8zM20.1 36.5c-.4.4-1 .8-1.6 1-.6.2-1.2.4-1.9.4-1.1 0-2.2-.4-3.1-1.1-.9-.7-1.5-1.6-1.7-2.7-.2-1.1 0-2.2.5-3.1.5-1 1.4-1.7 2.4-2.1 1-.4 2.2-.5 3.3-.2 1.1.3 2 1 2.6 1.9.6.9.9 2 .8 3.1 0 1.1-.5 2.1-1.3 2.8zm5.7 2.6c-.1.1-.3.1-.4.1-.1 0-.3 0-.4-.1-1.4-.7-2.7-1.6-3.7-2.8.6-.8.9-1.7 1-2.7s-.1-2-.6-2.8c-.4-.9-1.1-1.6-2-2.2-.8-.5-1.8-.8-2.8-.9-.5-1.8-.8-3.6-1-5.4 0-.2 0-.3.1-.5.1-.1.2-.3.4-.3 2.5-.6 5.1-.8 7.7-.9h4.6l.7.1h.9l1 .2h.1l.6.1c.8.1 1.4.2 1.9.3.2 0 .4.2.5.3.1.2.2.4.1.5-.9 12.8-6.9 16.3-8.7 17z"/><path fill="currentColor" d="m32.6 23.9-.1-.1h-.4s-.1 0-.1.1l-.1.1v.1c0 .1-.4 5.9-3.8 9.5-.1.1-.1.2-.1.3 0 .1.1.2.1.2.1.1.2.1.3.1.1 0 .2 0 .3-.1 3.7-3.8 4-9.7 4.1-10v-.2c0-.1-.2 0-.2 0zM19.2 31.4c0-.2-.1-.4-.2-.5-.1-.1-.3-.2-.5-.2s-.4.1-.5.2l-1.3 1.3-1.4-1.3c-.1-.1-.3-.2-.5-.2s-.4.1-.5.2c-.2.1-.3.3-.3.5s.1.4.2.5l1.4 1.3-1.4 1.3c-.1.2-.2.4-.2.5 0 .2.1.4.2.5.1.1.3.2.5.2s.4 0 .5-.2l1.4-1.3 1.4 1.3c.1.1.3.1.5.1s.3-.1.5-.2c.1-.1.2-.3.2-.5s0-.3-.1-.5l-1.3-1.3 1.3-1.3c.1 0 .1-.2.1-.4z"/></svg>