<svg width="24" height="24" viewBox="0 0 24 24" fill="none" xmlns="http://www.w3.org/2000/svg">
<path fill-rule="evenodd" clip-rule="evenodd" d="M7 3V14.185C8.161 14.599 9 15.698 9 17C9 18.302 8.161 19.401 7 19.815V21C7 21.553 6.553 22 6 22C5.447 22 5 21.553 5 21V19.815C3.839 19.401 3 18.302 3 17C3 15.698 3.839 14.599 5 14.185V3C5 2.447 5.447 2 6 2C6.553 2 7 2.447 7 3ZM19 10.185C20.161 10.599 21 11.698 21 13C21 14.302 20.161 15.401 19 15.815V21C19 21.553 18.553 22 18 22C17.447 22 17 21.553 17 21V15.815C15.839 15.401 15 14.302 15 13C15 11.698 15.839 10.599 17 10.185V3C17 2.447 17.447 2 18 2C18.553 2 19 2.447 19 3V10.185ZM12 6C11.448 6 11 5.552 11 5C11 4.448 11.448 4 12 4C12.552 4 13 4.448 13 5C13 5.552 12.552 6 12 6ZM17 13C17 13.552 17.448 14 18 14C18.552 14 19 13.552 19 13C19 12.448 18.552 12 18 12C17.448 12 17 12.448 17 13ZM5 17C5 17.552 5.448 18 6 18C6.552 18 7 17.552 7 17C7 16.448 6.552 16 6 16C5.448 16 5 16.448 5 17ZM15 5C15 3.346 13.654 2 12 2C10.346 2 9 3.346 9 5C9 6.302 9.839 7.401 11 7.815V21C11 21.553 11.447 22 12 22C12.553 22 13 21.553 13 21V7.815C14.161 7.401 15 6.302 15 5Z" fill="#231F20"/>
<mask id="mask0_8015_11588" style="mask-type:alpha" maskUnits="userSpaceOnUse" x="3" y="2" width="18" height="20">
<path fill-rule="evenodd" clip-rule="evenodd" d="M7 3V14.185C8.161 14.599 9 15.698 9 17C9 18.302 8.161 19.401 7 19.815V21C7 21.553 6.553 22 6 22C5.447 22 5 21.553 5 21V19.815C3.839 19.401 3 18.302 3 17C3 15.698 3.839 14.599 5 14.185V3C5 2.447 5.447 2 6 2C6.553 2 7 2.447 7 3ZM19 10.185C20.161 10.599 21 11.698 21 13C21 14.302 20.161 15.401 19 15.815V21C19 21.553 18.553 22 18 22C17.447 22 17 21.553 17 21V15.815C15.839 15.401 15 14.302 15 13C15 11.698 15.839 10.599 17 10.185V3C17 2.447 17.447 2 18 2C18.553 2 19 2.447 19 3V10.185ZM12 6C11.448 6 11 5.552 11 5C11 4.448 11.448 4 12 4C12.552 4 13 4.448 13 5C13 5.552 12.552 6 12 6ZM17 13C17 13.552 17.448 14 18 14C18.552 14 19 13.552 19 13C19 12.448 18.552 12 18 12C17.448 12 17 12.448 17 13ZM5 17C5 17.552 5.448 18 6 18C6.552 18 7 17.552 7 17C7 16.448 6.552 16 6 16C5.448 16 5 16.448 5 17ZM15 5C15 3.346 13.654 2 12 2C10.346 2 9 3.346 9 5C9 6.302 9.839 7.401 11 7.815V21C11 21.553 11.447 22 12 22C12.553 22 13 21.553 13 21V7.815C14.161 7.401 15 6.302 15 5Z" fill="white"/>
</mask>
<g mask="url(#mask0_8015_11588)">
</g>
</svg>
