<svg xmlns="http://www.w3.org/2000/svg" xml:space="preserve" style="enable-background:new 0 0 48 48" viewBox="0 0 48 48"><path fill="currentColor" d="M34.7 16.2c0-.3-.2-.6-.4-.8-.2-.2-.5-.3-.8-.3l-1.5.1c-1.3-4.9-4.7-7.3-8-7.2-3.3-.1-6.7 2.3-8 7.2h.1-.1l-1.5-.1c-.3 0-.6.1-.8.3-.2.2-.4.5-.4.8-.3 2.6-2.1 20.1-.8 21.4.9 1.3 6.2 2.2 11.5 2.4 5.3-.1 10.6-1.1 11.5-2.4 1.3-1.2-.4-18.8-.8-21.4zm-12-6.5c.4-.2.9-.3 1.3-.3s.9.1 1.3.3c1.8.8 3.3 2.8 4.1 5.7-2 .1-4.2.2-5.4.2-1.3 0-3.5-.1-5.5-.2.8-2.9 2.4-4.8 4.2-5.7zm6.9 15.1L24 31.6c-.1.1-.2.2-.3.2-.1.1-.2.1-.3.1h-.1c-.2 0-.4-.1-.6-.2l-4.3-3.8c-.1-.1-.2-.2-.2-.3-.1-.1-.1-.2-.1-.3V27c0-.1.1-.2.2-.3.1-.1.2-.2.3-.2.1-.1.2-.1.3-.1.2 0 .4.1.6.2l3.7 3.3 5-6.1c.1-.2.4-.3.6-.3.2 0 .4.1.6.2.2.1.3.3.3.6.1.1 0 .3-.1.5zM16.1 15.2H16z"/></svg>