<svg xmlns="http://www.w3.org/2000/svg" xml:space="preserve" style="enable-background:new 0 0 48 48" viewBox="0 0 48 48"><path fill="currentColor" d="M37.4 12.5c-.4-.5-1-.9-1.6-1.1-1.7-.4-3.5-.6-5.3-.8V8.8c0-.2-.1-.4-.2-.6-.2-.1-.4-.2-.7-.2s-.4.1-.6.2c-.2.2-.2.4-.2.6v1.7c-3.2-.2-6.5-.2-9.7 0V8.8c0-.1 0-.2-.1-.3 0-.1-.1-.2-.2-.3-.1-.1-.2-.1-.3-.2h-.2c-.1 0-.2 0-.3.1-.1 0-.2.1-.3.2-.1.1-.1.2-.2.3 0 .1-.1.2-.1.3v1.8c-1.8.2-3.6.5-5.4 1-.6.2-1.1.5-1.5 1-.4.5-.6 1.1-.6 1.7v21.5c0 .7.2 1.3.6 1.9.4.5 1 .9 1.6 1.1 4 .8 7.9 1.1 11.8 1.1 4 0 8.1-.4 12-1.3.6-.2 1.1-.6 1.5-1.1.4-.5.6-1.1.6-1.8V14.3c0-.6-.2-1.3-.6-1.8zm-1.8 23.6c-.2.3-.5.5-.8.6-7.1 1.4-14.4 1.5-21.5.2-.4-.1-.7-.3-.9-.6s-.4-.7-.4-1c-.1-.9 0-19.1 0-19.9 0-.3.1-.7.3-1 .2-.3.5-.5.8-.6 1.4-.3 2.9-.6 4.3-.7v1.4c-.4.2-.7.5-.9.9-.2.4-.2.8-.1 1.3.1.4.3.8.7 1.1.3.3.7.4 1.2.4s.8-.1 1.2-.4c.3-.3.6-.6.7-1.1.1-.4 0-.9-.1-1.3-.2-.4-.5-.7-.9-.9v-1.6c1.7-.1 3.4-.2 5-.2s3.2.1 4.7.2v1.7c-.4.2-.7.5-.9.9-.2.4-.2.8-.1 1.3.1.4.3.8.7 1.1.3.3.7.4 1.2.4.4 0 .8-.1 1.2-.4.3-.3.6-.6.7-1.1.1-.4 0-.9-.1-1.3-.2-.4-.5-.7-.9-.9V13c1.6.2 3.1.4 4.2.6.4.1.7.3.9.6.2.3.4.7.4 1 .1.9 0 19.1 0 19.9-.3.4-.4.7-.6 1z"/><path fill="currentColor" d="M20.5 21.6c-.1-.1-.3-.1-.4-.1-.1 0-.3.1-.4.2l-2 2.7-.9-1.1-.2-.2c-.1 0-.2-.1-.2-.1h-.2c-.1 0-.2.1-.2.1l-.2.2c0 .1-.1.2-.1.2v.2c0 .1.1.2.1.2l1.4 1.6.2.2c.1 0 .2.1.3.1.1 0 .2 0 .3-.1.1 0 .2-.1.2-.2l2.4-3.3c.1-.1.1-.3.1-.4s0-.2-.2-.2zM31.6 23.5h-7.5c-.2 0-.3.1-.4.2-.1.1-.2.3-.2.4 0 .2.1.3.2.4.1.1.3.2.4.2h7.5c.2 0 .3-.1.4-.2.1-.1.2-.3.2-.4 0-.2-.1-.3-.2-.4-.1-.2-.3-.2-.4-.2zM20.5 28.5c-.1-.1-.3-.1-.4-.1-.1 0-.3.1-.4.2l-2 2.7-.9-1.1c-.1-.1-.3-.2-.4-.2-.2 0-.3 0-.5.1-.1.1-.2.3-.2.4 0 .2 0 .3.1.5l1.5 1.7.2.2c.1 0 .2.1.3.1.1 0 .2 0 .3-.1.1 0 .2-.1.2-.2l2.4-3.3c.1-.1.1-.3.1-.4-.1-.3-.2-.4-.3-.5zM31.6 30.4h-7.5c-.2 0-.3.1-.4.2-.1.1-.2.3-.2.4 0 .2.1.3.2.4.1.1.3.2.4.2h7.5c.2 0 .3-.1.4-.2.1-.1.2-.3.2-.4 0-.2-.1-.3-.2-.4-.1-.1-.3-.2-.4-.2z"/></svg>