<?xml version="1.0" encoding="UTF-8"?>
<svg enable-background="new 0 0 24 24" version="1.1" viewBox="0 0 24 24" xml:space="preserve" xmlns="http://www.w3.org/2000/svg">
<path d="m19.7 4.3c-0.3-0.3-0.9-0.3-1.3 0l-14.1 14.2c-0.2 0.2-0.3 0.4-0.3 0.6s0.1 0.5 0.3 0.6c0.3 0.3 0.9 0.3 1.3 0l14.1-14.2c0.4-0.3 0.4-0.9 0-1.2z" fill="currentColor"/>
<path d="m16 14c-1.9 0-3.5 1.6-3.5 3.5s1.6 3.5 3.5 3.5 3.5-1.6 3.5-3.5-1.6-3.5-3.5-3.5zm0 5c-0.8 0-1.5-0.7-1.5-1.5s0.7-1.5 1.5-1.5 1.5 0.7 1.5 1.5-0.7 1.5-1.5 1.5z" fill="currentColor"/>
<path d="M8,11c1.9,0,3.5-1.6,3.5-3.5S9.9,4,8,4S4.5,5.6,4.5,7.5S6.1,11,8,11z M8,6c0.8,0,1.5,0.7,1.5,1.5C9.5,8.3,8.8,9,8,9  S6.5,8.3,6.5,7.5C6.5,6.7,7.2,6,8,6z" fill="currentColor"/>
</svg>
