<svg xmlns="http://www.w3.org/2000/svg" xml:space="preserve" style="enable-background:new 0 0 48 48" viewBox="0 0 48 48"><path fill="currentColor" d="M38 37.9c0-.1 0-.1-.1-.2 0-.1-4.3-4.6-7.5-8.2.7-1.1 1.3-2.4 1.5-3.7.2-1.3.2-2.7-.1-4-.7-3.4-3.1-6.6-6.7-8.9C14.7 6.7 11.2 8.1 11 8.2c-.2.1-2.8 2.3 1.4 15.8.5 1.6 1.3 3.1 2.3 4.4 1.1 1.3 2.4 2.4 3.9 3.1 1.5.7 3.1 1.1 4.8 1.1 1.6 0 3.2-.3 4.7-.9C31 35 35 39.5 35 39.5c.1.1.3.2.4.3.2.1.3.1.5.1s.5-.1.7-.2c.3-.2.6-.4.8-.7.2-.3.4-.6.4-1 .2 0 .2-.1.2-.1zm-1.1.8c-.1.2-.3.3-.5.4-.1.1-.2.1-.4.1s-.2-.1-.3-.2c0-.1-4.7-5.4-7.7-8.7l-2.6-3.2c-.1-.1-.1-.1-.2-.1h-.3c-1.4.7-3 1.1-4.5 1.2h-.1c-.4 0-.6-.2-.6-.6 0-.1 0-.2.1-.3.1-.1.2-.1.3-.1 1.4-.1 2.7-.5 3.9-1 .1 0 .1-.1.1-.1s.1-.1.1-.2v-.2c0-.1 0-.1-.1-.2-.6-.7-1.1-1.4-1.6-2.1-.5-.7-1.1-1.5-1.8-2.3-.1-.1-.1-.1-.2-.1h-.3c-1.5.7-3.1 1.2-4.8 1.4v.4l-.1-.4c-.1 0-.2 0-.3-.1V22c0-.1 0-.3.1-.4.1-.1.2-.2.4-.2 1.3-.1 2.6-.5 3.8-1 .1 0 .1-.1.1-.1s.1-.1.1-.2v-.2c0-.1 0-.1-.1-.2-.7-.9-1.4-1.7-2.1-2.5-.7-.8-1.3-1.5-1.8-2.1 0-.1-.1-.1-.1-.2v-.2c0-.1 0-.1.1-.2l.1-.1c.1-.1.4-.2.6 0 .7.8 1.4 1.7 2.1 2.5.7.8 1.2 1.5 1.8 2.2l.1.1h.4c.1 0 .1-.1.1-.1.8-1.2 1.3-2.5 1.6-3.8l.1-.3c0-.1 0-.1.1-.1l.1-.1h.4c.1 0 .1 0 .2.1.1 0 .1.1.1.1 0 .1.1.1.1.2v.2l-.1.2c-.4 1.6-1 3.1-1.8 4.6-.1.1-.1.1-.1.2s0 .2.1.2c.8.9 1.4 1.6 2.1 2.4.5.5.9 1.1 1.4 1.7 0 0 .1.1.2.1h.2c.1 0 .1 0 .2-.1s.1-.1.1-.2c.5-1.3 1-2.6 1.3-4 0-.1.1-.2.2-.2.1-.1.2-.1.3 0 0 0 .7.2.6.7-.4 1.6-1 3.2-1.7 4.7v.2c0 .1 0 .1.1.2l1.2 1.3c.7.8 1.4 1.6 2 2.4 2.8 3.3 6.7 7.4 7.5 8.3l-.3.6z"/></svg>