<svg xmlns="http://www.w3.org/2000/svg" xml:space="preserve" style="enable-background:new 0 0 48 48" viewBox="0 0 48 48"><path fill="currentColor" d="M38.5 33.5c-.4-.6-1-1.1-1.7-1.3-.7-.2-1.4-.2-2.1 0h-.2c-.1 0-.1-.1-.2-.1L31.6 29c.1-.2.1-.4.2-.6v-.1c0-.1 0-.5-1.3-2.5.9-3.4.5-8.8-4.4-16.5l-.1-.1v-.1s0-.1-.1-.1c-1.7-2-6.7-.5-11.3 3.5-4.6 4-6.8 8.8-5.1 10.8.3.3 7 7.1 14.3 7.1.6 0 1.2 0 1.7-.1 1.6 1.5 2 1.6 2.1 1.6h.1c.2 0 .4-.1.6-.2l2.8 3.3s.1.1.1.2v.2c-.3.6-.5 1.4-.3 2.1.1.7.5 1.4 1 1.9.4.4 1 .7 1.6.7.2 0 .4 0 .6-.1.5-.2.9-.6 1.2-1.1.3-.5.5-1 .5-1.6.6.1 1.1 0 1.6-.3.5-.2 1-.6 1.3-1.1.2-.4.2-.8.2-1.2 0-.4-.1-.8-.4-1.2zM25 13.4c-1.2 2.2-2.8 4.2-4.7 5.8-4.1 3.7-8.8 5.3-10.2 3.7-1.4-1.6.9-6.2 5-9.8 3-2.6 6.3-4.3 8.5-4.3.3 0 .6 0 .9.1.3.1.6.3.8.5.7.7.6 2.2-.3 4zm13.1 22.2c-.3.4-.6.6-1 .8s-.8.3-1.2.2c-.2 0-.3.1-.4.2s-.2.3-.2.4c0 .4-.2.9-.4 1.2-.2.4-.6.7-1 .9-.3.1-.6.1-.8 0-.3-.1-.5-.2-.7-.4-.4-.4-.7-.9-.8-1.5-.1-.6 0-1.1.3-1.6.1-.2.1-.4.1-.6 0-.2-.1-.4-.2-.5l-2.6-3.1c.9-.3 1.6-1 2.1-1.8l2.6 3c.1.2.3.3.5.3.2.1.4.1.6 0 .5-.2 1.1-.2 1.6-.1.5.2 1 .5 1.3 1 .2.2.3.5.3.8.1.2 0 .5-.1.8z"/><path fill="currentColor" d="M20.8 13.5c-.2-.2-.5-.4-.8-.4-.3-.1-.6 0-.9.1-.9.3-1.8.8-2.5 1.4-1 .8-1.7 1.9-2 3.2 0 .3.1.6.3.9.1.1.3.3.5.3.2.1.4.1.6.1.2 0 .5 0 .7-.1.9-.3 1.8-.8 2.5-1.4 1-.8 1.7-1.9 2-3.2v-.5c-.3-.2-.3-.3-.4-.4zM20.5 10.4c-.1 0-.1.1-.2.2s0 .2 0 .3c0 .1.1.2.2.2h.3c.9-.5 2.5-1 3-.6.1.1.4.4-.1 1.5v.3c0 .1.1.2.2.2h.1c.1 0 .1 0 .2-.1.1 0 .1-.1.1-.2.3-.7.6-1.6-.1-2.3-.8-.8-3.2.3-3.7.5z"/></svg>