<svg xmlns="http://www.w3.org/2000/svg" xml:space="preserve" style="enable-background:new 0 0 48 48" viewBox="0 0 48 48"><path fill="currentColor" d="M37.8 34.1c-.1-.4-.3-.7-.6-1-.3-.3-.6-.5-.9-.7-.5-.2-1-.2-1.5-.1s-1 .3-1.4.5l-2.3-2.7c.2-.3.2-.7.2-1 0-.4-.1-.7-.2-1-.4-.6-.8-1.3-1.2-1.9-.7-1.4-1.3-2.9-1.6-4.4-.4-1.4-.7-2.9-.9-4.4-.2-1.5-.5-2.9-1.1-4.3-.7-1.4-1.7-2.6-3-3.5-1.3-.9-2.8-1.5-4.4-1.6-1.2-.1-2.3 0-3.4.4s-2.1 1-3 1.7c-1.1 1.1-1.9 2.5-2.3 4.1-.3 1.3-.3 2.7-.1 4 .1 1.4.6 2.7 1.2 3.9.8 1.2 1.8 2.2 3 2.9 1.3.7 2.7 1.2 4.2 1.5 1.4.4 2.8 1 4 1.8.8.5 1.6 1.1 2.3 1.7.3.3.5.6.7.9.4.6.9 1.1 1.5 1.4.3.1.7.1 1 .1l2.5 3.1c-.3.8-1 3.3.7 4.3.4.2.8.3 1.2.3.4 0 .8-.1 1.1-.3.4-.2.8-.6 1-1 .3-.4.4-.9.4-1.4.4 0 .9 0 1.3-.1s.8-.4 1.1-.6c.2-.3.4-.7.4-1.2.3-.6.3-1 .1-1.4zM14.7 15c-.1.1-.3.2-.5.2-.1 0-.3 0-.4-.1l-.3-.3c-.1-.1-.1-.3 0-.4 0-.1.1-.3.2-.4.1-.1.2-.2.4-.2h.4c.1.1.3.2.3.3.1.1.1.3.1.4 0 .2 0 .4-.2.5zm1.7 6.5c0 .1-.1.2-.2.2s-.2.1-.2.2c-.1 0-.2.1-.3.1-.1 0-.3 0-.4-.1l-.3-.3c-.1-.1-.1-.3 0-.4 0-.1.1-.3.2-.4.1-.1.2-.2.4-.2h.4c.1.1.3.2.3.3.1.1.1.3.1.4.1 0 0 .1 0 .2zm3-4.4c0 .1-.1.2-.2.3s-.2.1-.3.2c-.1 0-.2.1-.3 0-.1 0-.3 0-.4-.1l-.3-.3c.1-.2.1-.4.1-.5 0-.1.1-.3.2-.4.1-.1.2-.2.4-.2h.4c.1.1.3.2.3.3.1.1.1.3.1.4.1.1.1.2 0 .3zM37 36c-.3.2-.6.4-1 .5-.4.1-.7.1-1.1 0h-.2c-.1 0-.1 0-.1.1l-.1.1v.2c0 .4-.1.8-.2 1.2-.2.4-.5.7-.8.9-.2.1-.5.2-.8.2-.3 0-.5-.1-.8-.2-1.3-.8-.5-3.1-.3-3.5v-.2c0-.1 0-.1-.1-.2l-2.5-3c.5-.2.9-.5 1.3-.9l.4-.4 2.3 2.7c.1.1.1.1.2.1h.3c.4-.3.8-.5 1.2-.6.4-.1.9-.1 1.3 0 .3.1.5.3.7.5.2.2.3.5.4.8.1.3.2.6.1.8 0 .4-.1.7-.2.9z"/><path fill="currentColor" d="M35.8 33.7h-.3l-.2.2v.3c.1.2.4.7.1 1-.1.1-.1.2-.1.3 0 .1 0 .2.1.3.1.1.2.1.3.1.1 0 .2 0 .3-.1.2-.3.4-.6.4-1s-.1-.7-.3-1c-.1 0-.2 0-.3-.1z"/></svg>