<svg width="24" height="24" viewBox="0 0 24 24" fill="none" xmlns="http://www.w3.org/2000/svg">
<path fill-rule="evenodd" clip-rule="evenodd" d="M5 2H19C20.654 2 22 3.346 22 5V15C22 16.654 20.654 18 19 18H8.554C8.373 18 8.195 18.049 8.039 18.143L3.515 20.857C3.356 20.953 3.178 21 3 21C2.83 21 2.66 20.957 2.507 20.87C2.194 20.693 2 20.36 2 20V5C2 3.346 3.346 2 5 2ZM19 16C19.551 16 20 15.551 20 15V5C20 4.449 19.551 4 19 4H5C4.449 4 4 4.449 4 5V18.234L7.01 16.428C7.477 16.148 8.011 16 8.554 16H19Z" fill="black"/>
<mask id="mask0_8015_11741" style="mask-type:alpha" maskUnits="userSpaceOnUse" x="2" y="2" width="20" height="19">
<path fill-rule="evenodd" clip-rule="evenodd" d="M5 2H19C20.654 2 22 3.346 22 5V15C22 16.654 20.654 18 19 18H8.554C8.373 18 8.195 18.049 8.039 18.143L3.515 20.857C3.356 20.953 3.178 21 3 21C2.83 21 2.66 20.957 2.507 20.87C2.194 20.693 2 20.36 2 20V5C2 3.346 3.346 2 5 2ZM19 16C19.551 16 20 15.551 20 15V5C20 4.449 19.551 4 19 4H5C4.449 4 4 4.449 4 5V18.234L7.01 16.428C7.477 16.148 8.011 16 8.554 16H19Z" fill="white"/>
</mask>
<g mask="url(#mask0_8015_11741)">
</g>
<path fill-rule="evenodd" clip-rule="evenodd" d="M9 7.91666C9 6.30833 10.3083 5 11.9167 5C13.525 5 14.8333 6.30833 14.8333 7.91666C14.8333 9.23333 13.95 10.3358 12.75 10.6975V11.6667C12.75 12.1275 12.3775 12.5 11.9167 12.5C11.4558 12.5 11.0833 12.1275 11.0833 11.6667V10C11.0833 9.53916 11.4558 9.16666 11.9167 9.16666C12.6058 9.16666 13.1667 8.60583 13.1667 7.91666C13.1667 7.2275 12.6058 6.66667 11.9167 6.66667C11.2275 6.66667 10.6667 7.2275 10.6667 7.91666C10.6667 8.3775 10.2942 8.75 9.83333 8.75C9.3725 8.75 9 8.3775 9 7.91666ZM11.0833 14.1667C11.0833 13.7058 11.4558 13.3333 11.9167 13.3333C12.3775 13.3333 12.75 13.7058 12.75 14.1667C12.75 14.6275 12.3775 15 11.9167 15C11.4558 15 11.0833 14.6275 11.0833 14.1667Z" fill="black"/>
</svg>
