<svg xmlns="http://www.w3.org/2000/svg" width="48" height="48" fill="none"><path fill="currentColor" d="M39.49 19.122c-.337-.382-.824-.465-1.857-.62l-7.913-.526a.919.919 0 0 1-.371-.107 2.747 2.747 0 0 1-.151-.323l-3.562-7.748c-.43-.955-.65-1.421-1.091-1.648a1.338 1.338 0 0 0-1.23 0c-.44.227-.661.705-1.09 1.636l.533.274-.545-.262-3.54 7.748c-.05.133-.124.255-.22.358h-.255l-8.006.538c-1.033.227-1.474.298-1.81.68a1.546 1.546 0 0 0-.371 1.194c.058.502.406.872 1.16 1.636l5.743 5.313a.977.977 0 0 1 .244.346c.007.107.007.215 0 .322l-2.123 9.29c-.163 1.026-.244 1.551 0 1.993.097.196.237.366.408.498.17.133.368.224.578.266.499.096.928-.155 1.856-.68l7.786-5.457A.936.936 0 0 1 24 33.7l.232.12 7.867 5.503a3.692 3.692 0 0 0 1.59.669h.208c.21-.042.408-.133.578-.266.171-.132.31-.302.408-.498.22-.442.14-.955 0-2.042L32.83 27.97c-.03-.15-.03-.304 0-.454.061-.079.127-.154.197-.226l5.801-5.35c.697-.727 1.045-1.098 1.16-1.599a1.558 1.558 0 0 0-.36-1.194"/></svg>