<svg xmlns="http://www.w3.org/2000/svg" xml:space="preserve" style="enable-background:new 0 0 48 48" viewBox="0 0 48 48"><path fill="currentColor" d="M36.7 17.2c-1.8-4-3.1-5.5-6.5-7.3-2.3-1.2-4.8-1.8-7.4-1.9-1.1-.1-2.3.1-3.4.5-2.4.9-4.5 2.4-6.1 4.4-1.6 2-2.7 4.3-3 6.8 0 .2-.1.4-.1.7-.3 2.4-.2 4.8.3 7.1 1 4.5 2.9 10.1 5.9 11.8.4.3.9.5 1.3.5.5 0 1-.1 1.4-.3 1.9-1.2 1.5-5.4 1.5-5.9 0 0-.2-4.5-.3-8.1.2.3.5.5.8.6.3.1.7.2 1 .2.3 0 .7-.1 1-.2.3-.1.6-.3.8-.6-.2 3.3-.5 9.8.2 11.9.1.5.3 1 .6 1.4s.7.7 1.2 1c.3.1.6.2.9.2h.3c.7 0 3.8-.1 5.7-1.2 2.2-1.8 3.4-5.3 3.4-5.4 2.5-5.9 2.1-12.6.5-16.2zM14 13.3c1.5-1.8 3.5-3.2 5.7-4.1.7-.3 1.5-.4 2.2-.5v4l-10.8 6.8c.4-2.2 1.4-4.3 2.9-6.2zm-2.5 14.8 8-5c.1 2 .2 5.2.3 7.5l-6.1 3.8c-.9-1.9-1.7-4.1-2.2-6.3zm7.3 10.7c-.5.3-1.1.2-1.9-.2-1.2-.8-2.2-2-2.8-3.3l5.8-3.6.1 2c0 1.1 0 4.3-1.2 5.1zm3.1-18.9c-.3 0-.7.2-.9.3l-.2.1-.1.1c-.1.1-.2.1-.2.2-.4.4-.7.9-.8 1.5l-8.3 5.2v-.1c-.5-2.2-.6-4.4-.3-6.7l11-6.9c-.1 2.1-.1 4.3-.2 6.3zm1.9-11c4.4 1 7.3 5.6 8.5 9.9l-9.5-6c0-2.3 0-3.5-.1-4.1.4.1.7.2 1.1.2zm4 30.1c-.2.1-.5.2-.7.2-.3 0-.5 0-.8-.1-.3-.2-.6-.5-.9-.8-.2-.3-.4-.7-.4-1-.3-1.9-.4-3.8-.3-5.6l5.9 3.7c-.9 1.7-1.8 3.1-2.8 3.6zm3-4.4-6.2-3.9c.1-3 .3-6.1.3-6.9 0-.2.1-.4.1-.7V23l7.7 4.8c-.4 2.3-1 4.6-1.9 6.8zm2-7.6-8-5c0-.2-.1-.4-.2-.6l-.1-.1c-.1-.3-.4-.6-.7-.8-.3-.2-.6-.4-1-.4h-.2c0-2.6.1-4.6.1-6.2l9.8 6.1c.3 1.1.4 2.2.5 3.3 0 1.2 0 2.4-.2 3.7z"/></svg>