<svg xmlns="http://www.w3.org/2000/svg" xml:space="preserve" style="enable-background:new 0 0 48 48" viewBox="0 0 48 48"><path fill="currentColor" d="M39 12.3c0-.7-.3-1.4-.7-2-.4-.6-1-1-1.7-1.1-4.5-1-15.5-2.2-25.2.2-.6.2-1.2.6-1.6 1.1-.4.6-.6 1.2-.6 1.9-.2.9-.2 22.2-.2 23.3 0 .7.3 1.4.7 2 .4.6 1.1 1 1.7 1.1 4.1.8 8.3 1.2 12.4 1.2 4.3 0 8.6-.4 12.8-1.4.7-.2 1.2-.6 1.7-1.2.4-.6.6-1.3.6-2 .1-.8.1-22.1.1-23.1zM17.2 30.1c.1 0 .5.1.3.7-.4 1-1 2-1.7 2.9 0 0-.2.3-.4.3s-.4-.3-.4-.3c-.7-.9-1.2-1.9-1.7-2.9-.2-.6.2-.6.3-.6.4 0 .7-.1 1.1-.1V17.9c-.3 0-.7 0-1-.1-.1 0-.6-.1-.3-.6.4-1 1-2 1.6-2.9 0 0 .2-.3.4-.3s.4.3.4.3c.7.9 1.2 1.9 1.7 3 .2.6-.2.6-.3.6-.3 0-.7.1-1 .1v12.1h1zm10.2 1c-.1.1-.3.2-.5.2h-5.3c-.2 0-.4-.1-.5-.2-.1-.1-.1-.3-.1-.5s.1-.4.2-.5c.1-.1.3-.2.5-.2H27c.2 0 .4.1.5.2.1.1.2.3.2.5s-.2.4-.3.5zm4-6.6c-.1.1-.3.2-.5.2h-9.2c-.2 0-.4-.1-.5-.2-.2-.1-.2-.3-.2-.5s.1-.4.2-.5c.1-.1.3-.2.5-.2h9.2c.2 0 .4.1.5.2.1.1.2.3.2.5s-.1.4-.2.5zm3.7-6.7c-.1.1-.3.2-.5.2h-13c-.2 0-.4-.1-.5-.2-.1-.1-.1-.3-.1-.5s.1-.4.2-.5c.1-.1.3-.2.5-.2h13c.2 0 .4.1.5.2.1.1.2.3.2.5-.1.2-.2.4-.3.5z"/></svg>