<svg xmlns="http://www.w3.org/2000/svg" xml:space="preserve" style="enable-background:new 0 0 48 48" viewBox="0 0 48 48"><path fill="currentColor" d="m39.8 38.6-.2-.1c-.2-.8-.3-1.6-.3-2.4.1-3.3-.8-5.6-2.9-7.6-.9-.8-1.9-1.3-3-1.6h-.1c-.8-.2-1.5-.6-2-1.1-.6-.5-1-1.2-1.2-1.9-.3-1.1-.9-2.1-1.7-2.9-.8-.8-1.7-1.5-2.7-2-.8-.3-1.5-.8-2-1.5-.5-.6-.9-1.4-1-2.2-.2-1.4-.8-2.6-1.7-3.7-1.8-1.9-4.1-3.1-6.7-3.4-1-.2-1.9-.5-2.7-.9-.3-.2-.4-.3-.5-.3-.7 0-1 .4-1.3.8-.1.1-.2.2-.2.3v.4c.1.8-.1 1.7-.5 2.4-.3.6-.5 1.2-.6 1.8-.6 1.8-.6 3.8 0 5.6.2.8.6 1.6 1 2.3l.1.1c1.2 1.6 3 2.7 5 3h.1c-.7.4-1.3 1-1.7 1.7-.4.7-.7 1.4-.9 2.2-.1.8-.1 1.6.1 2.4.2.8.6 1.5 1.1 2.1.5.6 1.1 1.2 1.9 1.5.7.4 1.5.6 2.3.7.8.1 1.6 0 2.4-.3.8-.3 1.5-.7 2.1-1.2 1.6.4 1.7 1 2.1 2.3l.3.9v.1c.5 1.4 1.4 2.6 2.7 3.3l.1.1c.2.1.5.3.7.4 1.2.7 2.5 1 3.9 1.1s2.7-.1 4-.6c.7-.2 1.5-.2 2.2.1.3.1.7.1 1.1 0 .3-.1.6-.4.8-.7.1-.2.2-.4.1-.6 0-.2-.1-.4-.2-.6zm-16.7-9.3c-.2 1-.7 1.9-1.4 2.6l-.2.1c-1 .9-2.2 1.3-3.5 1.3-1.3 0-2.6-.5-3.5-1.4a5.1 5.1 0 0 1-1.4-2.6c-.2-1-.1-2 .3-2.9.4-.9 1-1.7 1.9-2.2.8-.5 1.8-.8 2.8-.8 1 0 2 .3 2.8.8.8.5 1.5 1.3 1.9 2.2.4.9.5 1.9.3 2.9zm16.1 10.1c-.1.2-.3.5-.9.3-.8-.3-1.6-.3-2.4-.2h-.1c-1.9.2-3.8-.2-5.4-1.2-1.6-1-2.7-2.6-3.2-4.4l-.2-.3c-.5-1.4-.8-2.5-3.3-3.4.2-.6.3-1.3.3-2l.1.1c.3.1.6.1.9.1.6 0 1.2-.2 1.6-.6.3-.3.6-.7.7-1.1.1-.4.2-.9.1-1.3-.2-1-.6-2-1.3-2.8-.7-.8-1.6-1.4-2.6-1.7-.4-.1-.9-.2-1.3-.1s-.9.3-1.2.5c-.4.4-.7 1-.8 1.5-.9-.3-1.8-.5-2.7-.4-.4-.4-.8-.7-1.3-.8-7.4-2.5-6.1-11.6-6.1-11.7.2-.5.2-1.1.2-1.7.3-.4.3-.4.5-.4l.1.1c1.1.5 2.1.8 3.1.9 2.4.3 4.6 1.5 6.2 3.2.8 1 1.3 2.1 1.5 3.3.2.9.6 1.8 1.2 2.6.6.7 1.4 1.3 2.3 1.7.5.2 1 .5 1.4.8 1.2.9 2.1 2.1 2.5 3.5.3.8.8 1.6 1.4 2.2.7.6 1.5 1.1 2.3 1.3h.1c1 .3 1.9.7 2.7 1.4 1.9 1.8 2.7 3.9 2.7 7 0 0 .1 2.5.5 3l.1.1.1.1.1.1c.1.2.1.3.1.3z"/><path fill="currentColor" d="M32.4 29.3c-.4-.1-.9-.2-1.3-.1s-.9.3-1.2.5c-1.3 1.1-1.1 3.4.5 5.2.4.5 1 1 1.6 1.3.6.3 1.3.5 2 .6.6 0 1.2-.2 1.6-.6 1.3-1.1 1.1-3.4-.5-5.2-.8-.8-1.7-1.4-2.7-1.7zM15.5 11.2c-.4-.1-.9-.2-1.3-.1s-.9.2-1.2.5c-.3.3-.6.7-.7 1.1-.1.4-.2.9-.1 1.3.2 1 .6 2 1.3 2.8.7.8 1.6 1.4 2.6 1.7.3.1.6.1.9.1.6 0 1.2-.2 1.6-.5 1.3-1.1 1.1-3.4-.5-5.2-.6-.8-1.5-1.4-2.6-1.7zM20.8 25.7c-.1-.1-.2-.1-.3-.2-.1 0-.2-.1-.3-.1-.1 0-.2 0-.3.1s-.2.1-.3.2l-1.4 1.4-1.4-1.4c-.1-.1-.2-.1-.3-.2-.1 0-.2-.1-.3-.1-.1 0-.2 0-.3.1-.1 0-.2.1-.3.2-.1.1-.1.2-.2.3 0 .1-.1.2-.1.3 0 .1 0 .2.1.3 0 .1.1.2.2.3l1.5 1.4-1.5 1.4c-.1.2-.2.3-.2.5s.1.4.2.5c.1.1.3.2.5.2s.4-.1.6-.2l1.4-1.4 1.4 1.4c.2.1.4.2.6.2.2 0 .4-.1.5-.2.1-.1.2-.3.2-.5s-.1-.4-.2-.5l-1.4-1.4 1.4-1.4c.1-.1.2-.2.2-.3.1-.1.1-.2.1-.3 0-.1 0-.2-.1-.3.1-.1.1-.2 0-.3z"/></svg>