<svg xmlns="http://www.w3.org/2000/svg" xml:space="preserve" style="enable-background:new 0 0 48 48" viewBox="0 0 48 48"><path fill="currentColor" d="M39 38.7c0-.1-.1-.3-.2-.4l-.9-.6c-1.3-.7-2.5-1.4-3.8-2.1-1.9-1.1-3.7-2.4-5.4-3.8-2.1-1.7-3.9-3.7-5.4-5.9-.8-1.2-1.6-2.4-2.3-3.7-.2-.4-.4-.7-.6-1.1-.1-.1-.2-.3-.2-.4l.2-.2c0-.2.1-.9-4.1-2.9-.5-.3-.9-.6-1.3-1.1-.5-.7-3.6-7-4-8 0-.2-.1-.3-.3-.4s-.3 0-.5-.1h-.3c-.1 0-.3.1-.4.2-.1 0-.2.1-.3.2-.1.1-.2.2-.2.4 0 .3 0 .6.2.9.7 1.2 3.2 7.8 3.2 7.8v.1c.2.4.2.8.1 1.2 0 .1-.1.4-.3.8-.9 2.8-1.2 3.8-1.1 4.1 0 .1.1.2.1.2.1.1.2.1.3.1h.1c.1.9.4 1.8.8 2.7.5 1.2 1.1 2.3 1.8 3.3 1.7 2.3 3.9 4.1 6.4 5.6 2.6 1.6 5.4 2.7 8.4 3.4 1.5.4 3 .6 4.5.7 1.5.2 3 .2 4.5.1.5-.1 1-.3 1.1-.8-.1 0-.1-.1-.1-.3zM15.2 21h-.1c-.2-.1-.4-.2-.6-.2-.3 0-.6.1-.8.2-.2.1-.5.3-.6.6-.3.4-.6.8-1 1.1.3-.9.8-2.2 1-2.9.1-.4.3-.8.3-.9.1-.6.1-1.1-.1-1.6v-.1c-.1-.2-2.5-6.7-3.3-8-.1 0-.2-.1-.2-.2l.2-.2s.1 0 .1.2c.4 1 3.6 7.3 4.1 8.1.4.5.9 1 1.6 1.3 1 .5 1.7.9 2.3 1.2-1.9-.5-2.1-.1-2.2.1-.1.2-.1.3-.2.4-.1.2-.3.9-.5.9zm6.3 12.9c-.1.1-.2.1-.3.1-.1 0-.2 0-.3-.1-2.1-1.3-4-3-5.4-5 0-.1-.1-.2 0-.3 0-.1.1-.2.2-.2s.2-.1.3-.1c.1 0 .2.1.2.1 1.4 1.9 3.2 3.5 5.2 4.7l.1.1.1.1v.1c-.1.4-.1.5-.1.5zm2.7 1.6c-.1 0-.1.1-.2.1h-.2c-.5-.2-.8-.4-1.2-.6 0 0-.1 0-.1-.1l-.1-.1v-.2l.1-.1.1-.1h.1s.1 0 .1.1c.4.2.7.4 1.2.6.1 0 .1.1.2.2v.2c.1 0 .1 0 0 0z"/></svg>