<svg xmlns="http://www.w3.org/2000/svg" xml:space="preserve" style="enable-background:new 0 0 48 48" viewBox="0 0 48 48"><path fill="currentColor" d="M39.9 31.8c-.1-1.3-.3-2.7-1.6-3.8-1.1-.8-2.5-1.3-3.9-1.5-2.4-.4-4.8.2-6.7 1.6.8.5 1.5 1.1 2 2 0 0 0 .1.1.1v.2c0 .1 0 .1-.1.1l-.1.1h-.4c-.1 0-.1 0-.1-.1l-.1-.1c-.5-.7-1.2-1.3-1.9-1.8-.4-.3-.9-.5-1.4-.7-2.8-.7-5.7-.4-8.2 1-.5.3-1.1.6-1.7.7 0-.3 0-.5-.1-.7v-.3c-.2-4.5 1-10.5 2-12.7.1-.2.2-.3.3-.4h.1c1 .5 2 1 3.1 1.4 1.5.6 2.9.5 3.6-.1.2-.2.4-.4.5-.7.1-.3.1-.5 0-.8-.1-.3-.2-.6-.3-.7-.1 0-.3-.1-.7-.1-.5-.1-1.2-.2-1.8-.3-.8-.2-1.3-.6-1.5-1.2-.2-1 .8-2 .9-2.2.1-.1.2-.1.3-.1.1 0 .2.1.3.1.1.1.1.2.1.3 0 .1 0 .2-.1.3-.2.2-.8.9-.7 1.4.1.5.6.6.9.7h.1c.7.2 1.5.4 2.2.4h.2c.1 0 .1-.1.1-.1.4-.5.7-1.1.9-1.7 0-.5-1.4-3.8-3.1-4.1-1-.2-6.1.5-7.6 1-.2.1-.5.2-.7.4-.2.2-.3.4-.4.6-.2.5-.5.9-.8 1.4-3 4.8-4.8 10.2-5.3 15.8-.2 1.9-.4 3.8-.3 5.6.5 5.5 6.1 6.3 6.2 6.3.3.1 7.5 1.6 13-.8 1.6 1.2 4.1 1.7 6.4 1.7 1.6.1 3.1-.4 4.4-1.3 1.8-1.4 2.2-3.9 1.9-6.9zM24.8 37l-.1.1s-.1 0-.1.1c-1.1.4-2.2.6-3.3.6-1.1 0-2.2-.2-3.2-.6 0 0-.1 0-.1-.1l-.1-.1v-.2s0-.1.1-.1l.1-.1h.2c1.9.7 4.1.7 6 0h.2s.1 0 .1.1l.1.1v.1c.2.1.2.1.1.1z"/><path fill="currentColor" d="M25.6 24.7v.1s0 .1.1.1l.1.1c.1 0 .1.1.2.1h.2c.1 0 .1-.1.1-.1l1.2-1.7.1-.1V22.9l-.1-.1-.1-.1h-.2c-.1 0-.1 0-.1.1l-.1.1-1.2 1.7c-.2 0-.2.1-.2.1zM19.3 22.7c-.1 0-.2 0-.3.1-.1.1-.1.1-.1.2s0 .2.1.3l1.2 1.7.1.1h.2c.1 0 .1 0 .2-.1.1 0 .1-.1.1-.1v-.2c0-.1 0-.1-.1-.2l-1.2-1.7s-.1-.1-.2-.1zM23 20.7c-.1.1-.1.1-.1.2v3c0 .1 0 .1.1.1l.1.1h.4l.1-.1.1-.1v-3c0-.1-.1-.2-.1-.2-.1-.1-.2-.1-.2-.1s-.4 0-.4.1z"/></svg>