<svg xmlns="http://www.w3.org/2000/svg" xml:space="preserve" style="enable-background:new 0 0 48 48" viewBox="0 0 48 48"><path fill="currentColor" d="M39.8 30.9c-.4-2.4-1.2-3.7-2.8-4.6-.9-.5-1.9-.8-2.9-1-1.3-.2-2.6-.1-3.8.2-1.2.4-2.4 1.1-3.3 2-1.5-.7-3.1-1-4.8-.9-1.6.1-3.2.6-4.6 1.5-.5.4-1.1.6-1.7.8-.7-8.1-.2-11.7.1-12.7.8.6 3.2 2.3 5 1.4.7-.4 1.1-.8 1.1-1.3 0-.3-.1-.5-.2-.7-.1-.2-.3-.4-.5-.5 0 0-.1-.1-.2-.1l-.3-.1c.7-.7 1.8-2 1.8-2.9 0-.7-.8-1.8-2.4-3.4-.2-.2-.4-.3-.7-.4-.4-.2-.6-.2-.9-.2-1.9.4-3.9.9-5.8 1.5-.3.1-.7.3-.9.6-.2.3-.4.6-.5 1-.9 3.6-3.9 16-3.5 21 .1 1.7.8 3.2 1.9 4.5 1.1 1.2 2.6 2.1 4.2 2.4 1.8.4 3.7.6 5.5.6 2.5.1 5-.5 7.3-1.5 1.7 1.3 3.8 2 6 1.9 1.8.1 3.5-.4 4.9-1.4 2.5-2.3 2.4-5.3 2-7.7zM37.3 38c-1.8 1.5-6.9 1.9-9.8-.3.1 0 .1-.1.2-.1.2-.1.3-.2.5-.3.1-.1.1-.1.1-.2s0-.2-.1-.3l-.2-.2h-.3c-5.1 3.7-13.5 1.7-13.6 1.6-1.5-.3-2.8-1-3.8-2.1S8.7 33.5 8.6 32c-.4-4.8 2.5-17.2 3.5-20.9l.3-.6c.1-.2.4-.3.6-.4 1.9-.6 3.8-1.1 5.7-1.4.2 0 .3 0 .5.1s.3.1.4.3c1.6 1.5 2.1 2.4 2.1 2.8 0 .6-1.1 1.9-1.9 2.7-.3-.1-.6-.2-.8-.4l.2-1.8c0-.1.1-.1.1-.2V12c0-.1-.1-.1-.1-.1s-.1-.1-.2-.1h-.2c-.1 0-.1.1-.2.1 0 0-.1.1-.1.2v.2l-.2 1.3c-.3-.4-.6-.9-.8-1.4 0-.1-.1-.2-.2-.2H17c-.1 0-.2.1-.2.2s-.1.2 0 .3c.3.8.8 1.5 1.4 2.1l.1.1h.1c.7.4 1.5.7 2.3.8.1.1.4.3.4.6 0 .2-.3.5-.7.7-1.3.7-3.6-.8-4.4-1.4 0-.1-.1-.1-.2-.2h-.2c-.9.2-1.4 5-.7 13.7l-1.2.5c-.1 0-.1.1-.2.2 0 .1-.1.2 0 .3 0 .1.1.2.1.2.1.1.1.1.2.1h.2c1.4-.2 2.7-.7 3.8-1.4 1-.8 6.1-3 10.4.7l.1.1H28.6l.1-.1.1-.1v-.2c0-.1 0-.1-.1-.1l-.1-.1c-.4-.3-.8-.6-1.2-.8.9-.8 1.9-1.3 3-1.6 1.1-.3 2.3-.4 3.4-.2.9.2 1.8.5 2.6.9 1.4.8 2.1 1.9 2.5 4.1.5 1.8.7 4.6-1.6 6.6z"/><path fill="currentColor" d="M22.7 35.7c-.1 0-.2-.1-.3 0-1.5.6-3.2.6-4.7 0h-.3c-.1 0-.2.1-.2.2v.3c0 .1.1.2.2.2.8.4 1.7.6 2.6.5.9 0 1.8-.2 2.7-.5.1 0 .1-.1.2-.2v-.3l-.2-.2zM36.5 28.9c-.1-.1-.2-.1-.3-.1-.1 0-.2.1-.2.2-.1.1-.1.2-.1.3 0 .1.1.2.1.2s1 .8.6 4c0 .1 0 .2.1.3.1.1.1.1.2.1s.2 0 .2-.1c.1-.1.1-.1.1-.2.7-3.7-.5-4.6-.7-4.7z"/></svg>