<svg fill="none" height="24" viewBox="0 0 24 24" width="24" xmlns="http://www.w3.org/2000/svg"><mask height="18" maskUnits="userSpaceOnUse" width="22" x="1" y="3"><path clip-rule="evenodd" d="m21.6828 10.326c-.0073.0159-.0145.0318-.0213.048-.0069.0168-.0123.0342-.0177.0517-.0087.0283-.0174.0565-.0323.0813-.0296.049-.0682.0902-.107.1315-.0111.0117-.0221.0235-.033.0355-.0121.0125-.0228.0263-.0335.04-.0149.0191-.0299.0383-.0485.054-.056.0457-.1207.0775-.1852.1092-.0046.0023-.0092.0045-.0138.0068-.0136.0066-.0266.0149-.0396.0233-.0184.0118-.0369.0237-.0574.0307-.108.04-.223.062-.342.062-.054 0-.11-.004-.165-.014l-4.25-.705c-.545-.09-.913-.605-.823-1.15.09-.544.604-.917 1.15-.822l1.644.272c-1.245-2.186-3.622-3.581-6.238-3.581-2.95901 0-5.56601 1.718-6.64301 4.375-.157.39-.532.625-.927.625-.125 0-.252-.023-.375-.073-.512-.207-.759-.79-.551-1.302 1.384-3.417 4.719-5.625 8.49601-5.625 3.412 0 6.513 1.87 8.078 4.788l.369-1.973c.102-.542.626-.901 1.167-.797.543.101.901.624.799 1.167l-.749 4c-.0096.051-.0302.096-.0507.141zm-3.1094 4.2992c.207-.513.791-.759 1.302-.552.512.207.759.79.551 1.302-1.384 3.417-4.719 5.625-8.496 5.625-3.41201 0-6.51301-1.87-8.07801-4.788l-.37 1.972c-.089.481-.509.816-.982.816-.061 0-.123-.006-.185-.018-.543-.101-.9-.624-.798-1.167l.749-4c.00761-.0393.02444-.0741.04135-.1092.00978-.0202.01959-.0405.02765-.0618.00791-.0199.01482-.0405.02173-.0612.01496-.0447.02998-.0895.05527-.1278.01476-.0228.03406-.041.05347-.0593.01216-.0115.02437-.023.03553-.0357.00881-.0102.01752-.0205.02622-.0307.04759-.0561.09475-.1117.15478-.1523.0059-.0043.01294-.0069.01991-.0094.00602-.0022.01199-.0044.01709-.0076.097-.063.201-.112.316-.137.00701-.0016.0143-.0012.02157-.0008.00623.0004.01244.0007.01843-.0002.11-.018.221-.029.338-.009l4.25.706c.545.089.913.605.823 1.15-.081.489-.505.836-.986.836-.054 0-.109-.004-.164-.014l-1.644-.272c1.245 2.186 3.622 3.581 6.23801 3.581 2.959 0 5.566-1.718 6.643-4.375z" fill="#fff" fill-rule="evenodd"/></mask><path clip-rule="evenodd" d="m21.6828 10.326c-.0073.0159-.0145.0318-.0213.048-.0069.0168-.0123.0342-.0177.0517-.0087.0283-.0174.0565-.0323.0813-.0296.049-.0682.0902-.107.1315-.0111.0117-.0221.0235-.033.0355-.0121.0125-.0228.0263-.0335.04-.0149.0191-.0299.0383-.0485.054-.056.0457-.1207.0775-.1852.1092-.0046.0023-.0092.0045-.0138.0068-.0136.0066-.0266.0149-.0396.0233-.0184.0118-.0369.0237-.0574.0307-.108.04-.223.062-.342.062-.054 0-.11-.004-.165-.014l-4.25-.705c-.545-.09-.913-.605-.823-1.15.09-.544.604-.917 1.15-.822l1.644.272c-1.245-2.186-3.622-3.581-6.238-3.581-2.95901 0-5.56601 1.718-6.64301 4.375-.157.39-.532.625-.927.625-.125 0-.252-.023-.375-.073-.512-.207-.759-.79-.551-1.302 1.384-3.417 4.719-5.625 8.49601-5.625 3.412 0 6.513 1.87 8.078 4.788l.369-1.973c.102-.542.626-.901 1.167-.797.543.101.901.624.799 1.167l-.749 4c-.0096.051-.0302.096-.0507.141zm-3.1094 4.2992c.207-.513.791-.759 1.302-.552.512.207.759.79.551 1.302-1.384 3.417-4.719 5.625-8.496 5.625-3.41201 0-6.51301-1.87-8.07801-4.788l-.37 1.972c-.089.481-.509.816-.982.816-.061 0-.123-.006-.185-.018-.543-.101-.9-.624-.798-1.167l.749-4c.00761-.0393.02444-.0741.04135-.1092.00978-.0202.01959-.0405.02765-.0618.00791-.0199.01482-.0405.02173-.0612.01496-.0447.02998-.0895.05527-.1278.01476-.0228.03406-.041.05347-.0593.01216-.0115.02437-.023.03553-.0357.00881-.0102.01752-.0205.02622-.0307.04759-.0561.09475-.1117.15478-.1523.0059-.0043.01294-.0069.01991-.0094.00602-.0022.01199-.0044.01709-.0076.097-.063.201-.112.316-.137.00701-.0016.0143-.0012.02157-.0008.00623.0004.01244.0007.01843-.0002.11-.018.221-.029.338-.009l4.25.706c.545.089.913.605.823 1.15-.081.489-.505.836-.986.836-.054 0-.109-.004-.164-.014l-1.644-.272c1.245 2.186 3.622 3.581 6.23801 3.581 2.959 0 5.566-1.718 6.643-4.375z" fill="#000" fill-rule="evenodd"/></svg>