<svg xmlns="http://www.w3.org/2000/svg" xml:space="preserve" style="enable-background:new 0 0 48 48" viewBox="0 0 48 48"><path fill="currentColor" d="M31.8 31.4c-.1-.9-.4-1.8-.7-2.6-.3-.7-.5-1.2-.8-1.9-.5-1.5-1-2.9-1.4-4.5-.2-.7-.4-1.3-.5-1.9l.3.2h.2c.1 0 .2-.1.2-.1.1-.1.1-.1.1-.2v-.2c-.4-.9-.8-1.8-1.1-2.8-.3-1.6-.5-2.5-1.4-3.4-.3-.3-.7-.5-1-.8-.2-.1-.5-.3-.5-.4-.2-.5-.4-1-.4-1.6-.1-1.2-.5-2.8-1.2-3.1-.1-.1-.3-.1-.4-.1s-.2 0-.3.1c-.2.1-.5.3-.6.6-.1.2-.2.5-.1.8 0 .1 0 .3.1.4.1.3.2.7.4 2v.2c0 .2.1.3 0 .5 0 .2-.1.3-.2.4-.1.1-.2.2-.3.2-.4.3-.7.6-1 1-.4.7-.8 1.4-.9 2.2-.1.3-.1.5-.2.7-.3.8-.7 1.6-1.2 2.4l-.2.4c-.1.1-.1.2 0 .3 0 .1.1.2.2.2.1.1.3.1.5 0 .2 0 .3-.1.4-.2-.1.5-.3.9-.4 1.6-.4 1.6-.9 3.2-1.4 4.8-.2.5-.4 1-.6 1.4l-.2.4-.2.2c-.5 1.2-.8 2.4-.9 3.6-.2 1.8.2 3.6 1.2 5.1 1.5 2 4 2.6 6.4 2.6h.7c2.5-.1 5.3-.7 6.6-3 .9-1.6 1.2-3.6.8-5.5zm-3.7-4.8h.1s.1 0 .1.1l.1.1c.2.4.4.8.6 1.3v.3c0 .1-.1.2-.2.2h-.1c-.1 0-.1 0-.2-.1-.1 0-.1-.1-.1-.2-.2-.4-.3-.8-.6-1.2 0 0 0-.1-.1-.1v-.1s0-.1.1-.1l.1-.1c.1-.1.1-.1.2-.1zm-2.3-9.9h-.2.2c-.4.3-.6.6-.8.9-.3.5-.7.9-1.1 1.3-.2-.9-.6-1.7-1.2-2.4 0-.1-.1-.1-.2-.1h-.2c-.1 0-.1 0-.2.1-.1 0-.1.1-.1.2-.3.6-.7 1.1-1.2 1.6l-.8.8c.3-.5.6-1.1.8-1.7.1-.3.2-.5.2-.8.1-.7.4-1.3.8-1.9.2-.3.5-.6.8-.8.2-.1.3-.2.5-.4s.3-.5.4-.7c.1-.3.1-.6 0-.8v-.1c-.2-1.3-.3-1.8-.4-2-.1-.4-.1-.5-.1-.6V9c0-.1.1-.2.2-.2.2.1.6 1 .8 2.5 0 .7.2 1.4.6 2 .2.2.5.4.7.5.3.2.6.4.9.7.7.7.9 1.3 1.2 3 .1.6.3 1.1.5 1.6-.7-.6-1.3-1.4-1.6-2.3 0-.1 0-.1-.1-.1l-.1-.1c-.2.1-.2 0-.3.1zm.7 21.2h-.1c-.1 0-.2 0-.2-.1-.1-.1-.1-.1-.1-.2v-.2c0-.1.1-.1.2-.2 3.6-1.6 3.4-4.3 2.7-7 0-.1 0-.2.1-.2 0-.1.1-.1.2-.1h.3c.1 0 .1.1.2.2.6 2.9.8 6-3.3 7.8z"/></svg>