<svg xmlns="http://www.w3.org/2000/svg" xml:space="preserve" style="enable-background:new 0 0 48 48" viewBox="0 0 48 48"><path fill="currentColor" d="M34.9 38.1c-.5-2.5-2.2-8.7-3.1-11.6-1.2.4-2.3.9-3.3 1.7 0 0-.1.1-.2.1h-.2c-.1 0-.1 0-.2-.1-.1 0-.1-.1-.1-.1s-.1-.1-.1-.2v-.2c0-.1 0-.1.1-.2 0-.1.1-.1.1-.1 1.1-.8 2.3-1.4 3.6-1.8-.7-2.3-1.4-4.7-2.3-6.9-.8-1.9-1.7-2.3-3.5-2.6-.3-.1-.7-.1-1-.1v-1.9c0-.7 0-1.4-.1-2.1 0-.6-.1-1.1-.2-1.6 0-.3-.1-.6-.2-.9-.1-.3-.2-.6-.4-.9-.1-.2-.3-.4-.6-.5.1-.1 0-.1-.2-.1s-.3.1-.4.2c-.8.5-1 2.4-.7 6.4-1.4-3.2-2.7-5-3.7-5.4-.2-.1-.4-.2-.6-.2-.2 0-.4.1-.5.2-.1.1-.3.2-.4.3s-.2.3-.2.5c-.2 1.1.7 3.2 2.7 6.1-3.2-2.3-5-3.1-5.8-2.6l-.3.3s-.1.2-.1.3c0 .3 0 .5.2.7.2.3.3.5.6.8.2.2.5.4.7.6.4.3.9.7 1.3 1 .5.3 1.2.8 1.8 1.1l1.2.7.5.3c-.2.3-.3.6-.5.9-.8 1.8-.8 2.8.4 4.4.4.5.9 1.1 1.3 1.6.9-1.2 2.1-2.3 3.4-3.1 0 0 .1-.1.2-.1h.2c.1 0 .1 0 .2.1l.1.1c0 .1 0 .1.1.2v.2c0 .1 0 .1-.1.2l-.1.1c-1.2.8-2.3 1.8-3.2 3 1 1.1 1.9 2.2 2.9 3.3 1 1.1 3.1 3.4 5.2 5.5.7-.6 1.4-1.3 2.1-1.8 0 0 .1-.1.2-.1h.2c.1 0 .1 0 .2.1l.1.1s.1.1.1.2v.2c0 .1 0 .1-.1.2l-.1.1c-.7.5-1.4 1.1-2 1.8l3 3s1 1 1.7.6c.4-.6.1-2 .1-2zM20.3 17.9c-.3.2-.5.5-.7.8l-.1-.1-.5-.3-1.1-.7c-.6-.4-1.2-.7-1.7-1.1-.6-.4-.9-.6-1.3-.9l-.6-.6c-.2-.2-.3-.4-.4-.6-.1-.1-.1-.2-.1-.3l.1-.1c.1.1 1.3-.1 6.4 3.9zm.9-.5c-3.7-5-3.9-6.7-3.8-7.2 0-.1 0-.1.1-.2l.1-.1h.4c.6.2 1.9 1.4 4.2 6.9-.4.2-.7.4-1 .6zm2.8-1.8v.7c-.3 0-.7.1-1 .2h-.1c-.7-6.6-.1-7.5.1-7.6.2-.1.1 0 .1 0 .1 0 .2.1.2.2.1.2.2.4.3.7.1.3.1.6.2.9.1.5.1 1 .1 1.6 0 .7.1 1.4.1 2.1v1.2z"/></svg>