<svg xmlns="http://www.w3.org/2000/svg" xml:space="preserve" style="enable-background:new 0 0 48 48" viewBox="0 0 48 48"><path fill="currentColor" d="M37.7 11.7c0-.7-.2-1.3-.6-1.8-.4-.5-.9-.8-1.6-1-7.6-1.3-15.5-1.2-23.1.3-1.2.3-1.9 1.5-2 3.6-.2 3.6-.5 21.7-.3 26.8 0 .1 0 .1.1.2 0 .1.1.1.1.1.3.2 2.4.8 13.7-5.4 2.2 1.2 10.7 5.5 13.2 5.5.2 0 .3 0 .5-.1.1 0 .1-.1.2-.1 0-.1.1-.1.1-.2.1-5.2-.1-24.1-.3-27.9zm-5.6 8.7-3.3 3-.2.2c0 .1 0 .1-.1.2v.3l1.1 5.1c.1.5.1.8 0 .9 0 .1-.1.1-.1.2-.1 0-.1.1-.2.1-.2 0-.4-.1-.8-.3l-4.3-3c-.1-.1-.2-.1-.3-.1h-.2c-.1 0-.2.1-.3.1l-4.4 3c-.4.2-.6.4-.8.3-.1 0-.1 0-.2-.1-.1 0-.1-.1-.1-.2-.1-.1 0-.4 0-.9l1.2-5.2v-.3c0-.1 0-.1-.1-.2 0-.1-.1-.2-.2-.2l-3.2-2.9c-.3-.4-.5-.5-.5-.7v-.2c0-.1.1-.1.1-.2.1-.1.3-.2.8-.2l4.5-.3c.1 0 .2 0 .3-.1.1 0 .1-.1.1-.1.1-.1.1-.2.1-.3l2-4.3c.2-.5.3-.7.5-.8h.4c.1.1.3.3.5.8l2 4.3c0 .1.1.2.1.3l.1.1c.1 0 .2.1.3.1l4.5.3c.5.1.7.1.8.2 0 .1.1.1.1.2v.2c.3.1.1.3-.2.7z"/></svg>