<?xml version="1.0" encoding="UTF-8"?>
<svg enable-background="new 0 0 96 56" version="1.1" viewBox="0 0 96 56" xml:space="preserve" xmlns="http://www.w3.org/2000/svg">
<path d="m91.3 2.2c-0.7-0.1-0.9-0.2-0.8-0.2-0.3 0.3-0.2 0.4 0.1 0.4 0.4-0.1 0.6-0.1 0.7-0.2l0.2 0.3c-0.2 0-0.5 0-0.8 0.2-0.2-0.3-0.4-0.5-0.7-0.4s-0.6 0.1-1.1 0c0 0.3 0.1 0.4 0.3 0.3s0.3 0 0.3 0.3c-0.1-0.1-0.2-0.1-0.3 0h0.3c0.3-0.2 0.5-0.1 0.7 0.1-0.4 0.1-0.7 0.2-0.9 0.4s-0.5 0.2-0.7 0.1c-0.1 0.5 0.1 0.7 0.7 0.5s0.9-0.2 0.8 0.1c-0.1 0.2-0.3 0.2-0.6 0.1s-0.4-0.1-0.5 0.3c-0.1-0.1-0.3-0.2-0.8-0.2-0.2 0.1-0.2 0.2-0.1 0.5-0.2 0.1-0.3 0.1-0.3 0-0.1-0.1-0.2 0-0.5 0.3 0.1-0.2-0.1-0.3-0.5-0.4-0.2 0.1-0.2 0.2 0 0.2 0.1 0.1 0.2 0.2 0.1 0.4-0.2 0-0.4-0.1-0.5-0.1-0.1-0.1-0.3 0.1-0.5 0.5-0.2 0-0.3-0.1-0.4-0.1 0-0.1-0.2-0.1-0.4-0.1-0.2 0.1-0.2 0.2 0 0.2 0.1 0.1 0.2 0.2 0.1 0.4 0.8-0.1 1.5-0.3 2.2-0.5s1.4-0.3 2.1-0.2c-1.1 0.3-2 0.5-2.7 0.7-0.8-0.1-1.8 0.2-3 0.7-0.2 0.4-0.1 0.5 0.4 0.2-0.8 0.4-1.7 0.8-2.7 1.1s-1.8 0.7-2.6 1.3c0.7 0.1 1.3-0.1 1.9-0.5s1.3-0.6 2.2-0.6l0.3-0.6c0.2 0 0.4 0.1 0.4 0.2-0.2 0.1-0.2 0.2-0.2 0.3l0.2-0.3c0.3-0.1 0.4 0 0.6 0.1s0.1 0.3-0.1 0.6c-0.9 0.2-1.8 0.5-2.7 1s-1.9 1-3.1 1.4c0.3 0.1 0.5 0.1 0.8 0 0.2-0.1 0.3 0 0.3 0.3 0.3-0.3 0.5-0.4 0.7-0.4s0.4-0.1 0.5-0.3c0.4 0.1 0.6 0 0.6-0.1-0.2-0.3-0.4-0.3-0.6 0.1-0.1-0.2-0.3-0.2-0.6 0.1s-0.5 0.3-0.6 0.1c0.8-0.4 1.4-0.7 1.7-0.7s0.7 0 1.1 0.1c0.1 0.2 0 0.3-0.5 0.3-0.4-0.1-0.6 0.1-0.4 0.4-0.2 0.1-0.3 0-0.4-0.2-0.2 0.1-0.2 0.2-0.1 0.5-0.2 0-0.6 0.1-1.1 0.3-0.1-0.2-0.2-0.3-0.4-0.1-0.1 0.1-0.1 0.3 0 0.6-0.7 0.2-1.6 0.6-2.6 1s-1.9 0.9-2.6 1.6c-0.4-0.1-0.9 0.1-1.4 0.3-0.5 0.3-0.8 0.6-1 1 0.7-0.2 1.4-0.5 2-1 0.6-0.4 1.5-0.7 2.6-1 1.9-1.1 4.1-2.2 6.7-3.2-0.8 0.5-1.5 1-2.4 1.4-0.8 0.4-1.7 0.8-2.5 1.2 0.1 0.2 0.2 0.3 0.4 0.1 0.1-0.1 0.2-0.2 0.3 0 0.4-0.4 1-0.7 1.7-0.9-0.3 0.3-0.6 0.5-0.9 0.7s-0.3 0.4 0 0.6c-0.3-0.1-0.7 0-1.1 0.5-0.5 0.5-0.9 0.7-1.4 0.6-0.2 0.1-0.2 0.2-0.1 0.5-0.4-0.1-0.9 0.1-1.5 0.4l-1.8 1c-0.2 0.1-0.2 0.2-0.1 0.5-0.8 0-1.4 0.3-1.7 0.9-0.1-0.2-0.3-0.3-0.4-0.2-0.2 0.1-0.2 0.2 0 0.2 0.1 0.1 0.2 0.2 0.1 0.4l-0.3-0.3c-0.3-0.3-0.5-0.2-0.6 0.3-0.5 0.3-0.9 0.5-1.4 0.6-0.4 0.2-0.8 0.4-1 0.7-0.2 0.1-0.3 0.1-0.3 0s-0.1 0-0.3 0c0.1 0.2 0.3 0.3 0.4 0.2 0.2-0.1 0.2 0 0.1 0.2l-0.5 0.3c0.2 0 0.6-0.1 1.2-0.4s0.6-0.5 0.2-0.5h0.9c0.4 0 0.5-0.2 0.4-0.5 0.1 0.2 0.4 0.2 0.8-0.2s0.8-0.5 1.1-0.3c0.2-0.1 0.2-0.2 0.2-0.2 0-0.1 0-0.1 0.2-0.2 1.1-0.3 2-0.7 2.9-1.3 0.8-0.6 1.7-1 2.6-1.2-0.7 0.7-1.6 1.2-2.8 1.7s-2.1 1.1-2.8 1.7c-0.1-0.1-0.1-0.1-0.2-0.1s-0.1 0-0.2-0.1c-0.2 0.1-0.2 0.2-0.1 0.5-0.6 0-1.3 0.3-2.1 0.7s-1.3 0.8-1.5 1.2c-0.4-0.1-1 0.1-1.7 0.6-0.7 0.4-0.9 0.7-0.6 0.9 0.2-0.4 0.6-0.6 1.2-0.6s1-0.3 1.1-0.8c0.9-0.2 1.6-0.5 2-0.9s0.9-0.6 1.5-0.6c0.2-0.1 0.2-0.2 0.1-0.5 0.6 0 1.2-0.3 1.7-0.7s1.1-0.7 1.8-1c0.2 0.5 0.4 0.6 0.6 0.5 0.1 0.2 0 0.4-0.5 0.6-0.4 0.2-0.8 0.2-1.1 0l0.5-0.3c-0.1-0.1-0.2-0.1-0.6 0.1l0.1 0.2c-0.2 0.1-0.2 0.3 0 0.6-0.7-0.1-0.8 0.2-0.6 0.7-0.2 0-0.7 0.1-1.3 0.5l-0.2-0.3c-0.2 0.1-0.2 0.3 0 0.6-0.4 0.1-0.7 0.2-0.9 0.5-0.2 0.2-0.5 0.4-0.9 0.5-0.1-0.1-0.1-0.1-0.2-0.1s-0.1 0-0.2-0.1c-0.7 0.7-1.8 1.4-3.2 2.1-0.2 0.1-0.2 0.2 0 0.2 0.1 0.1 0.2 0.2 0.1 0.4-0.2 0.1-0.4 0.1-0.6 0.1s-0.3 0.1-0.2 0.3c-0.9-0.1-1.9 0.3-3 1.3-1.2 1-2.1 1.8-2.8 2.4-1.5 0.4-2.9 1.1-4.4 2.2s-2.9 2-4.2 2.6c-3.6 2.4-6.9 4.6-10.1 6.6-3.2 2.1-6 4.1-8.4 6.3l-0.7 0.4c-0.4 0.8-1.1 1.4-2.1 1.9s-1.9 1-2.5 1.7c-2.2 1.4-4.5 2.7-7.1 3.9s-4.8 1.6-6.5 1.4c-1.4-0.7-3.1-0.9-5.2-0.7s-3.8-0.2-5.1-1.2c-0.8-0.7-1.4-1.6-1.8-2.5s-1-1.8-1.8-2.5c0-0.4-0.1-0.8-0.2-1.2s0-0.8 0.2-1.2l0.5-0.3v-0.3c-0.1 0.1-0.1 0-0.3-0.2 0.4 0.1 0.7 0 0.8-0.3s0-0.4-0.3-0.6c0.6-0.3 1.4-0.6 2.1-0.7 5.6-2.7 11.6-5.9 17.9-9.5s12.7-7.3 19.1-10.9c6.5-3.7 12.9-7.2 19.3-10.6s12.6-6.3 18.6-8.6c1.6-0.5 3.3-1.2 5.1-1.8 1.8-0.7 3.4-1.1 4.8-1.3 1.1-0.3 2.2-0.5 3.3-0.6s2 0.1 2.6 0.5c-0.3-0.1-0.5-0.1-0.6-0.2s-0.3 0-0.6 0.3c0.4 0.1 0.9 0.3 1.4 0.8 0.5 0.4 0.6 0.9 0.3 1.5-0.2 0-0.3-0.1-0.3-0.2 0.1-0.1-0.1-0.2-0.3-0.4l0.1 0.2c-0.4-0.1-0.9-0.3-1.3-0.6-0.3-0.3-0.9-0.5-1.7-0.3z" fill="#FFC84E"/>
<path d="m1.4 45.8c0.3 0.1 0.4 0.1 0.2-0.1-0.1-0.3-0.2-0.2-0.2 0.1z" fill="#FFC84E"/>
<path d="M1.8,45.3c0.3,0.1,0.4,0.1,0.2-0.1C1.9,45,1.8,45,1.8,45.3z" fill="#FFC84E"/>
<path d="m7.1 46.6c0.3-0.2 0.5-0.3 0.4-0.4-0.2 0.4-0.3 0.5-0.4 0.4z" fill="#FFC84E"/>
<path d="m8.4 45.7c-0.1 0-0.1 0.1 0 0.2l0.2-0.1c-0.1-0.1-0.2-0.1-0.2-0.1z" fill="#FFC84E"/>
<path d="m8.6 43.1c-0.1 0-0.1 0-0.1 0.1 0.2-0.1 0.2-0.2 0.2-0.3 0 0.2 0 0.3-0.1 0.2z" fill="#FFC84E"/>
<path d="m17.7 46.1c-0.2 0.1-0.3 0.1-0.3 0s-0.1 0-0.3 0c0 0.3 0.1 0.4 0.3 0.4 0.4 0 0.4-0.1 0.3-0.4z" fill="#FFC84E"/>
<path d="m15.7 41 0.2-0.3c-0.3 0.1-0.3 0.2-0.2 0.3z" fill="#FFC84E"/>
<path d="m22.3 43.5-0.7 0.4 0.1 0.2c0.4-0.3 0.6-0.5 0.6-0.6z" fill="#FFC84E"/>
<path d="m28.3 44.4c-0.1-0.2-0.3-0.1-0.5 0.3 0.5 0 0.6-0.1 0.5-0.3z" fill="#FFC84E"/>
<path d="m25 38.1 0.5-0.3c-0.1-0.2-0.3-0.3-0.4-0.2l-0.2 0.4c0.2-0.1 0.2-0.1 0.1 0.1z" fill="#FFC84E"/>
<path d="m25.8 37.5c0-0.3-0.2-0.2-0.4 0.2 0.3 0.2 0.4 0.1 0.4-0.2z" fill="#FFC84E"/>
<path d="m27.2 37c-0.1-0.2-0.2-0.3-0.3-0.2s-0.2 0.1-0.4 0.1c0.2 0.2 0.4 0.2 0.7 0.1z" fill="#FFC84E"/>
<path d="m30.6 43.1c0.2-0.3 0.1-0.3-0.2 0 0 0.3 0 0.3 0.2 0z" fill="#FFC84E"/>
<polygon points="27.5 36.4 27.6 36.5 27.9 36.4 27.7 36.1 27.4 36.2" fill="#FFC84E"/>
<path d="m29.6 35.5c-0.2 0-0.4 0-0.6 0.1 0 0.3 0.1 0.4 0.3 0.3 0.2-0.2 0.3-0.3 0.3-0.4z" fill="#FFC84E"/>
<path d="m30.1 34.8c0.1 0.2 0 0.3-0.5 0.3 0.4 0.4 0.8 0.4 1.1 0s0.7-0.5 1.1-0.5c-0.2-0.3-0.4-0.4-0.8-0.2-0.2 0.1-0.3 0.2-0.4 0.4 0 0.1-0.2 0.1-0.5 0z" fill="#FFC84E"/>
<path d="m30.5 36.1c-0.2 0.1-0.2 0.2-0.2 0.3-0.1-0.1 0-0.2 0.1-0.1 0.1 0 0.1-0.1 0.1-0.2z" fill="#FFC84E"/>
<path d="m32 35.5c-0.1-0.1 0.1-0.3 0.4-0.4 0.3-0.2 0.3-0.2-0.1-0.2 0.1 0.1-0.1 0.3-0.4 0.4-0.3 0.2-0.2 0.3 0.1 0.2z" fill="#FFC84E"/>
<path d="m32.2 34.1c0.1-0.2 0.3-0.3 0.5-0.3l0.2-0.3-0.1-0.2c-0.1 0.2-0.3 0.3-0.5 0.3s-0.4 0.1-0.5 0.3c0.1 0.1 0.1 0.1 0.2 0.1 0.1-0.1 0.2 0 0.2 0.1z" fill="#FFC84E"/>
<path d="m33.6 34.2c-0.1 0.2-0.3 0.3-0.4 0.3-0.2 0-0.3 0.1-0.2 0.2 0.6 0.2 0.8 0 0.6-0.5z" fill="#FFC84E"/>
<path d="m36 38.7c0.2-0.2 0.2-0.2-0.2 0 0.1 0.1 0 0.2-0.2 0.1-0.2 0-0.3 0.1-0.2 0.3 0.2-0.1 0.4-0.2 0.6-0.4z" fill="#FFC84E"/>
<path d="m38.8 37.1c-0.1-0.2-0.2-0.2-0.2 0.1 0.2 0.2 0.3 0.1 0.2-0.1z" fill="#FFC84E"/>
<path d="m39 37c0.3-0.2 0.5-0.3 0.4-0.4-0.3 0.1-0.5 0.3-0.4 0.4z" fill="#FFC84E"/>
<path d="m39.5 38c0.3 0.1 0.4 0.1 0.2-0.1 0-0.3-0.1-0.2-0.2 0.1z" fill="#FFC84E"/>
<path d="m40.9 35.8c0.2 0 0.2-0.2 0.1-0.4-0.2 0.1-0.3 0.3-0.6 0.7 0.2-0.1 0.3-0.2 0.5-0.3z" fill="#FFC84E"/>
<path d="m41.1 36.9c0.1 0.2 0.3 0.1 0.5-0.3-0.4 0-0.6 0.1-0.5 0.3z" fill="#FFC84E"/>
<path d="m41.3 35.5c-0.2 0.4-0.1 0.4 0 0 0.3-0.3 0.3-0.3 0 0z" fill="#FFC84E"/>
<path d="m41.7 36.8c0.2-0.4 0.4-0.6 0.5-0.5s0.2 0 0.3-0.4l-1 0.5 0.2 0.4z" fill="#FFC84E"/>
<path d="m41.2 34.5c-0.3 0.3-0.3 0.4 0 0.3s0.4-0.2 0.3-0.3-0.2-0.1-0.3 0z" fill="#FFC84E"/>
<path d="m43.5 35.4 0.2-0.1c0.3 0.3 0.5 0.2 0.4-0.1s-0.2-0.3-0.4 0.1l-0.2 0.1c-0.3 0.3-0.5 0.4-0.6 0.3s-0.2 0.1-0.3 0.4c0.5-0.2 0.8-0.5 0.9-0.7z" fill="#FFC84E"/>
<path d="m40.8 30.4c0.3 0.1 0.4 0.1 0.2-0.1 0-0.3-0.1-0.2-0.2 0.1z" fill="#FFC84E"/>
<path d="m43.4 33.5c-0.2 0.1-0.3 0.1-0.3 0s-0.1 0-0.3 0c0 0.3 0.1 0.4 0.3 0.3 0.3 0 0.4-0.2 0.3-0.3z" fill="#FFC84E"/>
<polygon points="44.1 35.3 44.5 35.1 44.5 34.9 44 35.2" fill="#FFC84E"/>
<path d="m44.7 34.8 0.1 0.2 0.5-0.3-0.2-0.3-0.2 0.1c0 0.1 0 0.2-0.2 0.3z" fill="#FFC84E"/>
<path d="m44.6 32.7c-0.2 0.1-0.2 0.2-0.2 0.3 0.2-0.1 0.2-0.2 0.2-0.3z" fill="#FFC84E"/>
<path d="m45.8 32.1c-0.3 0.2-0.5 0.3-0.4 0.4 0.3-0.2 0.4-0.3 0.4-0.4z" fill="#FFC84E"/>
<path d="m46.6 33.6c0.1 0.1 0.2 0.1 0.6-0.1l0.5-0.3c-0.5 0-0.9 0.1-1.1 0.4z" fill="#FFC84E"/>
<path d="m46.5 31.7-0.5 0.2c0.1 0.1 0.2 0.1 0.6-0.1l-0.1-0.1z" fill="#FFC84E"/>
<path d="m47.5 33.1c0.4 0.1 0.6 0 0.5-0.3-0.1-0.2-0.3-0.1-0.5 0.3z" fill="#FFC84E"/>
<path d="m48.8 32.6c-0.1-0.1-0.3 0-0.8 0.2 0.1 0.1 0.3 0 0.8-0.2z" fill="#FFC84E"/>
<path d="m48.2 30.9c-0.1-0.2-0.2-0.2-0.3 0l0.1 0.2c0.3 0 0.3-0.1 0.2-0.2z" fill="#FFC84E"/>
<path d="m49 32.3c0.3 0.1 0.4 0.1 0.2-0.1-0.1-0.3-0.2-0.2-0.2 0.1z" fill="#FFC84E"/>
<path d="m48.8 30.8c0.1-0.3 0-0.2-0.3 0 0.1 0.2 0.2 0.2 0.3 0z" fill="#FFC84E"/>
<path d="m49.2 32.2c0.3 0.1 0.4 0.1 0.2-0.1 0-0.3-0.1-0.2-0.2 0.1z" fill="#FFC84E"/>
<path d="m47.4 26.2c-0.2 0.4-0.3 0.5-0.4 0.4 0.3-0.1 0.4-0.3 0.4-0.4z" fill="#FFC84E"/>
<path d="m50.2 31.6c0-0.1-0.2 0-0.5 0.2 0.1 0.2 0.3 0.3 0.5 0.1 0.2-0.1 0.3-0.3 0.3-0.4-0.2 0.1-0.3 0.1-0.3 0.1z" fill="#FFC84E"/>
<path d="m50 30.7c-0.1-0.2-0.3-0.3-0.4-0.2l0.1 0.2s0.1 0.1 0.3 0z" fill="#FFC84E"/>
<path d="m50.9 31.3c0.3 0.1 0.4 0.1 0.2-0.1 0-0.3-0.1-0.3-0.2 0.1z" fill="#FFC84E"/>
<path d="m50.7 29.6c0.3 0.1 0.4 0.1 0.2-0.1-0.1-0.2-0.1-0.2-0.2 0.1z" fill="#FFC84E"/>
<path d="m51.9 30.7c-0.1-0.1-0.1-0.1-0.2-0.1s-0.1 0-0.2-0.1c0.1 0.3 0.2 0.3 0.4 0.2z" fill="#FFC84E"/>
<path d="m52.4 30.5 0.2-0.1-0.1-0.2c-0.1-0.1-0.2-0.1-0.3 0 0.1 0.1 0 0.2-0.1 0.4-0.1 0.1 0 0.1 0.3-0.1z" fill="#FFC84E"/>
<path d="m53.7 29.4c-0.3 0.3-0.4 0.4-0.4 0.3s-0.2 0-0.5 0.2c0 0.3 0.1 0.4 0.5 0.1 0.3-0.2 0.5-0.4 0.4-0.6z" fill="#FFC84E"/>
<path d="m52.2 28.9 0.2-0.1c-0.1-0.1 0-0.2 0.1-0.1 0.1 0 0.1 0 0.1-0.1-0.2 0-0.3 0-0.2 0.1s0 0.2-0.2 0.1v0.1z" fill="#FFC84E"/>
<path d="m50.5 24.4c-0.1-0.1-0.1-0.1-0.2-0.1s-0.1 0.1 0 0.2l0.2-0.1z" fill="#FFC84E"/>
<path d="m53.8 29.5c0.3 0.1 0.4 0.1 0.2-0.1-0.1-0.2-0.2-0.2-0.2 0.1z" fill="#FFC84E"/>
<path d="m54 28.1c-0.3-0.1-0.3-0.2-0.1-0.3 0.2 0 0.3-0.1 0.2-0.2-0.3 0.2-0.6 0.2-0.7 0.2-0.1-0.1-0.2 0 0 0.2 0.1 0.1 0.1 0.1 0.2 0.1s0.2 0 0.2 0.1l0.2-0.1z" fill="#FFC84E"/>
<path d="m54.4 29c0.1 0.1 0 0.2-0.1 0.1-0.1 0-0.1 0-0.1 0.1 0.2 0 0.3-0.1 0.2-0.2z" fill="#FFC84E"/>
<path d="m55.1 28.6c-0.1 0.2-0.2 0.3-0.4 0.4 0.1 0.1 0.2 0.1 0.4-0.1s0.2-0.3 0-0.3z" fill="#FFC84E"/>
<path d="m55.4 26.7-0.2 0.1c0 0.3 0.1 0.4 0.4 0.1 0.2-0.2 0.2-0.2-0.2-0.2z" fill="#FFC84E"/>
<path d="m56.6 27.9c-0.1-0.2-0.2-0.1-0.4 0.3 0.4 0 0.5-0.1 0.4-0.3z" fill="#FFC84E"/>
<path d="M56.1,27c0.2-0.1,0.2-0.2,0.2-0.3L56.1,27z" fill="#FFC84E"/>
<path d="m56.8 26.4c0.1-0.2 0-0.3-0.4-0.2l-0.2 0.3c0.3 0.1 0.5 0.1 0.6-0.1z" fill="#FFC84E"/>
<path d="m57.3 27.4c-0.2 0.4-0.3 0.5-0.4 0.4 0.3-0.1 0.5-0.3 0.4-0.4z" fill="#FFC84E"/>
<path d="m56.5 25.9c0.1 0.2 0.3 0.3 0.4 0.2l-0.4-0.2z" fill="#FFC84E"/>
<path d="m58.2 25.5c-0.2 0-0.5 0-0.7 0.1-0.3 0.1-0.3 0.2-0.2 0.4 0.3-0.3 0.5-0.4 0.6-0.3 0 0 0.2 0 0.3-0.2z" fill="#FFC84E"/>
<path d="m54.5 19.6 0.6-0.6s0.3-0.2 0.4-0.4c-0.1 0.2-0.3 0.4-0.7 0.5-0.3 0.1-0.4 0.3-0.3 0.5z" fill="#FFC84E"/>
<path d="m58.6 26.9c0-0.1 0.1-0.1 0.3 0l-0.2-0.3-0.1 0.3h-0.3 0.3z" fill="#FFC84E"/>
<path d="m56.6 22.4c-0.1-0.1 0-0.2 0.1-0.1 0.1 0 0.1 0 0.1-0.1-0.2 0-0.3 0.1-0.2 0.2z" fill="#FFC84E"/>
<path d="m58.5 25 0.2 0.3c-0.1-0.1 0-0.2 0.2-0.3 0.1 0.1 0.2 0.1 0.3 0-0.2 0-0.2-0.1 0-0.3s0.1-0.2-0.3-0.2c0.2 0.4 0.1 0.6-0.4 0.5z" fill="#FFC84E"/>
<path d="m60.3 26c0-0.3-0.1-0.4-0.5-0.1-0.4 0.2-0.6 0.4-0.5 0.5 0.4-0.1 0.5-0.1 0.5-0.3-0.1-0.1 0.1-0.1 0.5-0.1z" fill="#FFC84E"/>
<path d="m59.7 24.9c-0.2 0.4-0.3 0.5-0.4 0.4 0.5-0.3 0.7-0.4 0.6-0.6-0.3 0.3-0.3 0.3-0.2-0.1s0.1-0.4-0.2-0.1l0.2 0.4z" fill="#FFC84E"/>
<path d="m61 25.6-0.2-0.3c-0.4 0.4-0.6 0.5-0.4 0.4 0.2 0 0.4-0.1 0.6-0.1z" fill="#FFC84E"/>
<path d="m57.9 17.8 0.3-0.6-0.4 0.4c-0.1-0.1-0.2-0.1-0.6 0.1-0.3 0.2-0.4 0.3-0.2 0.3l0.7-0.4 0.2 0.2z" fill="#FFC84E"/>
<path d="m61.8 25.3c-0.1-0.1-0.2-0.2-0.4-0.2s-0.3 0.1-0.2 0.3l0.1 0.2 0.5-0.3z" fill="#FFC84E"/>
<path d="m61.8 24.8c-0.1 0.2 0 0.2 0.1 0.2 0.1-0.2 0.1-0.3-0.1-0.2z" fill="#FFC84E"/>
<path d="m60.1 20.3c-0.3 0.2-0.5 0.3-0.4 0.4 0.2-0.4 0.4-0.5 0.4-0.4z" fill="#FFC84E"/>
<path d="m61.2 23.6c0.1 0.2 0.2 0.3 0.2 0.1s0.1-0.2 0.4-0.2c0.1-0.2-0.1-0.1-0.6 0.1z" fill="#FFC84E"/>
<path d="m63.9 23.9c0.1 0.2 0.2 0.3 0.4 0.1 0.1-0.1-0.1-0.1-0.4-0.1l0.2-0.3c-0.3 0.2-0.7 0.3-1.1 0.5s-0.7 0.4-0.7 0.7c0.3-0.3 0.4-0.4 0.4-0.3s0.2 0 0.5-0.2l-0.1-0.2c0.3 0.1 0.4 0.1 0.5 0-0.1-0.1 0-0.2 0.3-0.2z" fill="#FFC84E"/>
<path d="m58.9 16.8-0.4 0.4c0.1 0.1 0.2 0.1 0.3 0 0.2-0.1 0.2-0.3 0.1-0.4z" fill="#FFC84E"/>
<path d="m62.5 24.9c0.3 0.1 0.4 0.1 0.2-0.1-0.1-0.3-0.2-0.2-0.2 0.1z" fill="#FFC84E"/>
<path d="m58.2 15.9c0.3-0.2 0.5-0.3 0.4-0.4-0.4 0.2-0.5 0.3-0.4 0.4z" fill="#FFC84E"/>
<path d="m62.3 15.5c-0.6 0-1.1 0.2-1.5 0.5s-0.8 0.5-1.3 0.8c0.3-0.2 0.8-0.4 1.4-0.5 0.7-0.3 1.1-0.5 1.4-0.8z" fill="#FFC84E"/>
<path d="m64.9 23.6c-0.3-0.1-0.2-0.2 0.2-0.3s0.4-0.2 0.2-0.3l-1 0.5 0.6 0.1z" fill="#FFC84E"/>
<path d="m64.4 19.5c-0.4 0.1-0.6 0.2-0.8 0.3-0.1 0.1-0.4 0.2-0.8 0.3 0.1 0.1 0.3 0 0.8-0.2l0.8-0.4z" fill="#FFC84E"/>
<path d="m64.1 22.1c0.2-0.1 0.4-0.1 0.6-0.1-0.2-0.3-0.4-0.4-0.7-0.1l0.1 0.2z" fill="#FFC84E"/>
<path d="m62.8 17.7c0.2 0.1 0.4 0 0.4-0.3-0.5 0.1-0.7 0.2-0.4 0.3z" fill="#FFC84E"/>
<path d="m65.7 21c-0.3 0.3-0.2 0.4 0.1 0.4s0.3-0.2-0.1-0.4z" fill="#FFC84E"/>
<path d="m63.8 14.6h-0.2c-0.2 0-0.4 0.1-0.8 0.3-0.3 0.2-0.5 0.3-0.4 0.4l1.4-0.7z" fill="#FFC84E"/>
<path d="m66.7 21c-0.4 0.1-0.5 0.2-0.4 0.3l0.6-0.1c0.2-0.2 0.2-0.3-0.2-0.2z" fill="#FFC84E"/>
<path d="m66.9 20.8c0.1 0.2 0.3 0.3 0.7 0.1-0.1-0.2-0.2-0.3-0.3-0.2 0 0.1-0.2 0.1-0.4 0.1 0-0.3 0-0.4-0.3-0.2-0.2 0.2-0.1 0.3 0.3 0.2z" fill="#FFC84E"/>
<path d="m65 17.5c0.1 0 0.1-0.1 0-0.2l-0.2 0.1c0.1 0.1 0.1 0.1 0.2 0.1z" fill="#FFC84E"/>
<path d="m66.8 18c-0.4 0.2-0.6 0.4-0.5 0.5 0.2 0 0.6-0.1 1.1-0.3 0-0.3-0.2-0.4-0.6-0.2z" fill="#FFC84E"/>
<path d="m67 16.9c-0.2 0-0.3 0-0.2 0.1l0.2-0.1z" fill="#FFC84E"/>
<path d="m68.8 17.2 0.1 0.2c0.4-0.4 0.9-0.6 1.5-0.8 0.5-0.1 0.9-0.4 1.1-0.8-0.3 0.2-0.8 0.4-1.4 0.6-0.7 0.3-1.1 0.5-1.3 0.8-0.2 0-0.6 0.2-1.1 0.8 0.6-0.3 1-0.6 1.1-0.8z" fill="#FFC84E"/>
<path d="m68.7 20.1c0-0.3 0.1-0.4 0.2-0.1 0.1 0.2 0.1 0.2-0.2 0.1z" fill="#FFC84E"/>
<path d="m70.1 21-0.4 0.4c0.3-0.1 0.5-0.3 0.4-0.4z" fill="#FFC84E"/>
<path d="m69.8 19.2 0.2-0.1c0.1 0.1 0 0.2 0 0.2-0.1 0.1-0.1 0.1-0.2-0.1z" fill="#FFC84E"/>
<path d="m70.9 20.8c0.3 0.1 0.4 0.1 0.2-0.1 0-0.2-0.1-0.2-0.2 0.1z" fill="#FFC84E"/>
<path d="m67.7 12.8c-0.1-0.1-0.2-0.1-0.3 0-0.2 0.1-0.2 0.2-0.2 0.3l0.5-0.3z" fill="#FFC84E"/>
<path d="m68.7 14.4c-0.4 0.2-0.6 0.4-0.5 0.5 0.4-0.1 0.6-0.1 0.7-0.2s0.2-0.1 0.4-0.1c0-0.3-0.2-0.4-0.6-0.2z" fill="#FFC84E"/>
<path d="m70.6 17.1c-0.3 0.2-0.5 0.3-0.4 0.4 0.3-0.1 0.4-0.3 0.4-0.4z" fill="#FFC84E"/>
<path d="m70.7 18.6c0.3-0.2 0.5-0.2 0.5 0s-0.1 0.3-0.3 0.4l-0.2-0.4z" fill="#FFC84E"/>
<path d="m70.9 17.2c0.3-0.3 0.6-0.5 1-0.5 0.4-0.1 0.8-0.3 1.1-0.8-0.3 0.2-0.7 0.4-1.3 0.6-0.5 0.1-0.8 0.3-0.8 0.7z" fill="#FFC84E"/>
<path d="m72 18.1c0.1 0.2 0.1 0.3-0.2 0.3-0.2 0-0.1-0.1 0.2-0.3z" fill="#FFC84E"/>
<path d="m73.4 19.5c0-0.3-0.1-0.4-0.4-0.1-0.3 0.2-0.4 0.4-0.4 0.5l0.8-0.4z" fill="#FFC84E"/>
<path d="m69.4 11.9c-0.1-0.2-0.2-0.2-0.2 0.1 0.2 0.2 0.3 0.1 0.2-0.1z" fill="#FFC84E"/>
<path d="m70.1 13.9 0.5-0.3c-0.2 0-0.4 0.1-0.5 0.3z" fill="#FFC84E"/>
<path d="m71.3 15c-0.3 0.2-0.3 0.2 0.1 0.2 0.3-0.3 0.2-0.4-0.1-0.2z" fill="#FFC84E"/>
<path d="m70.6 13.6c0.3 0.1 0.4 0.1 0.2-0.1-0.1-0.2-0.1-0.2-0.2 0.1z" fill="#FFC84E"/>
<path d="m73.8 19.3 0.5-0.3c0.1-0.2 0-0.2-0.2-0.1s-0.3 0.2-0.3 0.4z" fill="#FFC84E"/>
<path d="m72.3 14.5c-0.2 0.1-0.2 0.2-0.2 0.3-0.1-0.1 0-0.2 0.1-0.1 0.1-0.1 0.1-0.1 0.1-0.2z" fill="#FFC84E"/>
<polygon points="70.6 10 70.5 9.8 70.2 9.9 70.3 10.1" fill="#FFC84E"/>
<polygon points="71 11.5 71.3 11.3 71.1 11 70.9 11.1" fill="#FFC84E"/>
<path d="m73.9 15.8c0-0.3-0.2-0.3-0.7-0.1 0.1 0.2 0.2 0.3 0.3 0.2 0-0.1 0.2-0.2 0.4-0.1z" fill="#FFC84E"/>
<path d="m73.5 14.1c0.3 0 0.5-0.1 0.7-0.2-0.3-0.1-0.5-0.1-0.8 0s-0.4 0.1-0.6-0.2c0.2 0 0.2 0.1 0 0.3s-0.2 0.3 0 0.3c0.2-0.1 0.4-0.2 0.7-0.2z" fill="#FFC84E"/>
<path d="m75.1 18.6 0.5-0.3c-0.1-0.1-0.2-0.1-0.3 0 0.1 0.1 0 0.2-0.1 0.1-0.2 0-0.2 0.1-0.1 0.2z" fill="#FFC84E"/>
<path d="m72.9 13.3c-0.1-0.2-0.2-0.2-0.2 0.1 0.2 0.1 0.3 0.1 0.2-0.1z" fill="#FFC84E"/>
<path d="m72.9 12.6c-0.1-0.2-0.2-0.2-0.2 0.1 0.2 0.2 0.3 0.2 0.2-0.1z" fill="#FFC84E"/>
<path d="m75.3 14.8 0.1 0.2c0.3-0.3 0.5-0.5 0.8-0.5 0.3-0.1 0.5-0.2 0.6-0.4-0.3 0.2-0.6 0.3-0.8 0.3s-0.5 0.1-0.7 0.4l-0.3 0.2-0.1-0.2c-0.1 0.2-0.3 0.3-0.6 0.4s-0.3 0.2-0.2 0.4c0.3-0.2 0.5-0.3 0.6-0.4l0.3-0.3 0.3-0.1z" fill="#FFC84E"/>
<path d="m75.9 17.7c-0.1-0.2-0.1-0.2-0.1 0.1 0 0.4 0.1 0.4 0.1-0.1z" fill="#FFC84E"/>
<path d="m72.8 8.8c-0.1-0.2-0.3-0.2-0.6 0.1l0.2 0.3c0.3 0 0.5-0.2 0.4-0.4z" fill="#FFC84E"/>
<path d="m75.1 13.4c-0.1-0.1 0.1-0.2 0.5-0.3s0.4-0.2 0.2-0.3c-0.2 0-0.7 0.1-1.3 0.5 0.1 0.2 0.2 0.3 0.4 0.1 0.1-0.1 0.2-0.1 0.2 0z" fill="#FFC84E"/>
<path d="m73 8.7c0.4 0.1 0.6 0 0.4-0.2s-0.4-0.1-0.4 0.2z" fill="#FFC84E"/>
<path d="m75 11.3c0.3 0.1 0.4 0.1 0.2-0.1-0.1-0.3-0.2-0.2-0.2 0.1z" fill="#FFC84E"/>
<path d="m75.8 12.8c0.4 0.1 0.6 0 0.4-0.2-0.3-0.2-0.4-0.1-0.4 0.2z" fill="#FFC84E"/>
<path d="m73.7 8.3c0.4 0.1 0.7 0 0.7-0.2 0-0.1-0.2-0.1-0.7 0.2z" fill="#FFC84E"/>
<path d="m76.2 11.9c-0.3 0.2-0.5 0.3-0.4 0.4 0.2 0 0.3-0.2 0.4-0.4z" fill="#FFC84E"/>
<path d="m76.1 11.1c-0.1-0.2-0.1-0.4-0.1-0.4 0.1 0 0.3 0 0.5 0.1-0.1-0.2-0.1-0.4 0.1-0.5-0.7 0.3-1.1 0.5-1.3 0.5 0.2 0 0.3 0.1 0.3 0.3 0.1 0.2 0.2 0.2 0.5 0z" fill="#FFC84E"/>
<path d="m76.8 12.5-0.2-0.5c-0.3 0.2-0.4 0.3-0.4 0.5 0.1 0.1 0.3 0.1 0.6 0z" fill="#FFC84E"/>
<path d="m77.6 14.5-0.2-0.3c-0.1 0.1-0.1 0.2 0.2 0.3z" fill="#FFC84E"/>
<path d="m76.3 11.5c0.5-0.3 0.5-0.4 0.2-0.2l-0.2 0.2z" fill="#FFC84E"/>
<path d="m77.7 13.5c-0.3 0.2-0.5 0.3-0.4 0.4 0.2-0.3 0.3-0.5 0.4-0.4z" fill="#FFC84E"/>
<path d="m78.5 15.7c0.2-0.1 0.5-0.4 1.1-0.9s0.9-0.6 1.1-0.3l-2.2 1.2z" fill="#FFC84E"/>
<path d="m77.1 11.7c0.1 0.2 0.2 0.4 0.1 0.5s0.1 0.1 0.4-0.1l-0.2-0.3c0.5-0.3 0.6-0.4 0.4-0.4-0.1 0.2-0.3 0.3-0.5 0.3s-0.4 0.1-0.5 0.3l0.3-0.3z" fill="#FFC84E"/>
<path d="m76.8 10.6 1.2-0.7c0-0.3-0.1-0.3-0.5-0.1-0.4 0.3-0.6 0.6-0.7 0.8z" fill="#FFC84E"/>
<path d="m78.2 10.6c-0.3 0.1-0.6 0.3-1 0.7 1.4-0.5 2.1-0.9 2.2-1.2-0.6 0.2-1 0.4-1.2 0.5z" fill="#FFC84E"/>
<path d="m77.6 12.1c0.3 0.1 0.4 0.1 0.2-0.1-0.1-0.3-0.2-0.2-0.2 0.1z" fill="#FFC84E"/>
<polygon points="78 11.8 78.3 11.7 78.2 11.5 78 11.7" fill="#FFC84E"/>
<path d="m78.5 11.6c0.1 0.1 0.2 0.1 0.3 0l0.2-0.3c-0.2 0.1-0.3 0.1-0.3 0s-0.1 0-0.3 0l0.1 0.3z" fill="#FFC84E"/>
<path d="m80 13.2c0.3-0.2 0.4-0.3 0.3-0.3s0-0.1 0.3-0.3c0.1 0.1 0.3 0.1 0.6 0 0.4-0.1 0.5-0.2 0.4-0.3 0.4 0.1 0.4 0.2-0.2 0.3-0.5 0.1-0.8 0.3-0.6 0.6-0.2 0-0.4 0-0.6 0.1s-0.2 0.2-0.2 0.3c-0.2 0.1-0.3 0-0.5-0.4 0.3-0.2 0.4-0.1 0.5 0z" fill="#FFC84E"/>
<path d="m78.6 9.8c0 0.3 0 0.3 0.2 0.1s0.1-0.2-0.2-0.1c-0.1-0.2-0.3-0.3-0.4-0.2l0.2 0.3 0.2-0.1z" fill="#FFC84E"/>
<path d="m83.1 8.5c0.1 0.2 0.3 0.3 0.5 0.1 0.2-0.1 0.3-0.3 0.2-0.5-0.1 0.2-0.2 0.2-0.2 0.1s-0.2 0-0.5 0.3c-0.4 0.1-0.9 0.2-1.4 0.5-0.6 0.3-1.2 0.6-1.9 0.8 0.4 0.1 1-0.1 1.8-0.5l1.5-0.8z" fill="#FFC84E"/>
<path d="m79.4 7.9c0.4 0.1 0.6 0 0.4-0.2s-0.4-0.1-0.4 0.2z" fill="#FFC84E"/>
<path d="m81.4 9.8c0.3-0.2 0.4-0.1 0.3 0.2-0.2 0.3-0.3 0.3-0.3-0.2z" fill="#FFC84E"/>
<path d="m81.2 8.6c-0.2-0.2-0.1-0.2 0.4-0.2-0.1 0.4-0.2 0.4-0.4 0.2z" fill="#FFC84E"/>
<path d="m81.8 9.8c-0.2-0.2-0.1-0.2 0.4-0.2-0.1 0.3-0.2 0.4-0.4 0.2z" fill="#FFC84E"/>
<path d="m82.2 9.6c0.2-0.4 0.4-0.5 0.5-0.3 0.1 0.3-0.1 0.4-0.5 0.3z" fill="#FFC84E"/>
<path d="m82.4 10.1c0-0.3 0.1-0.4 0.2-0.1 0.2 0.2 0.1 0.3-0.2 0.1z" fill="#FFC84E"/>
<path d="m83 10.7c0.3-0.3 0.4-0.3 0.3 0-0.1 0.2-0.1 0.2-0.3 0z" fill="#FFC84E"/>
<path d="m84.5 9h0.5c-0.1 0.2-0.3 0.3-0.5 0.3s-0.5 0.1-0.7 0.4l0.3-0.6c0.2 0 0.3 0 0.4-0.1z" fill="#FFC84E"/>
<polygon points="82.6 6.4 82.9 6.2 82.8 6.1 82.6 6.2" fill="#FFC84E"/>
<path d="m83.6 6.9c-0.1-0.2-0.2-0.2-0.2 0.1 0.2 0.2 0.3 0.2 0.2-0.1z" fill="#FFC84E"/>
<path d="m83.9 6c0.2 0.2 0.4 0.2 0.4-0.1l-0.2-0.3c-0.2 0.1-0.3 0.1-0.3 0s-0.2 0-0.5 0.2c0.2 0.3 0.3 0.5 0.5 0.4-0.2-0.4-0.2-0.4 0.1-0.2z" fill="#FFC84E"/>
<path d="m84.6 8.3c0-0.3 0.1-0.4 0.2-0.1s0.1 0.3-0.2 0.1z" fill="#FFC84E"/>
<polygon points="85.3 7.9 85.6 7.8 85.7 8 85.4 8.1" fill="#FFC84E"/>
<path d="m84.6 6c0.3-0.2 0.4-0.4 0.3-0.6-0.2 0-0.4 0.1-0.5 0.3l0.2 0.3z" fill="#FFC84E"/>
<path d="m85.4 6.4c0.1 0.1-0.1 0.3-0.4 0.4 0-0.1 0.1-0.3 0.4-0.4z" fill="#FFC84E"/>
<path d="m85.5 6.5c0-0.3 0.1-0.4 0.2-0.1 0.2 0.2 0.1 0.3-0.2 0.1z" fill="#FFC84E"/>
<path d="m86 5c0.3-0.3 0.2-0.4-0.1-0.4s-0.5 0.2-0.5 0.5l0.6-0.1z" fill="#FFC84E"/>
<path d="m86.6 3.2c-0.1-0.2-0.2-0.2-0.3 0.1 0.3 0.2 0.4 0.1 0.3-0.1z" fill="#FFC84E"/>
<path d="M86.9,3.5c-0.1,0-0.1,0.1,0,0.2l0.2-0.1C87,3.4,87,3.4,86.9,3.5z" fill="#FFC84E"/>
<path d="m87.8 3.8 0.2-0.1c-0.1 0-0.2 0-0.2 0.1z" fill="#FFC84E"/>
<path d="m88.8 2.7-1 0.5c0.3-0.2 0.5-0.2 0.6-0.1s0.3 0.1 0.7 0.1l-0.3-0.5z" fill="#FFC84E"/>
<path d="m89.9 5.3-0.2 0.1-0.2-0.3c0.4-0.3 0.6-0.2 0.4 0.2z" fill="#FFC84E"/>
<path d="m90.4 3c0.1 0.3 0.1 0.3 0.1-0.1-0.2-0.3-0.2-0.2-0.1 0.1z" fill="#FFC84E"/>
<path d="m91.5 2.5c0.3-0.2 0.6-0.1 0.8 0.2-0.5 0-0.7-0.1-0.8-0.2z" fill="#FFC84E"/>
</svg>
